<svg width="104" height="95" viewBox="0 0 104 95" fill="none" xmlns="http://www.w3.org/2000/svg">
<path fill-rule="evenodd" clip-rule="evenodd" d="M26.8276 27.8059L32.339 4.91971C32.5258 4.35923 33.3665 4.07899 33.3665 4.07899C33.3665 4.07899 44.0156 0.622702 45.5102 0.24905C47.0048 -0.124603 47.939 0.716115 47.939 0.716115C47.939 0.716115 50.0875 2.49097 50.9282 3.05144C51.6755 3.51851 52.8899 2.95803 52.8899 2.95803C52.8899 2.95803 54.1976 1.93049 55.2252 0.996355C56.2527 0.0622231 57.9342 0.24905 57.9342 0.24905C57.9342 0.24905 68.6767 3.79875 69.7976 3.98558C70.9186 4.1724 71.012 4.91971 71.012 4.91971L76.9904 27.9928C76.9904 27.9928 67.1821 34.4383 51.3018 34.4383C35.4216 34.4383 26.8276 27.8059 26.8276 27.8059ZM82.5954 35.1857C82.5954 35.1857 83.6229 34.345 84.5571 34.4384C84.5571 34.4384 98.102 35.933 103.52 38.3617C103.52 38.3617 65.781 63.0228 52.0493 63.0228C38.2241 63.0228 0.578613 38.3617 0.578613 38.3617C5.80975 35.8396 19.3547 34.4384 19.3547 34.4384C20.2888 34.345 21.3163 35.1857 21.3163 35.1857C37.4768 47.4228 51.9559 46.115 51.9559 46.115C51.9559 46.115 66.3415 47.4228 82.5954 35.1857ZM46.818 68.3473C46.818 68.3473 46.7246 69.9353 44.5761 69.0946C42.3342 68.3473 31.4049 64.3305 31.4049 64.3305C31.4049 64.3305 30.5642 64.0503 30.751 63.2095C30.9378 62.3688 31.0312 61.6215 31.0312 61.6215L26.6408 60.2203V61.2479C26.6408 61.2479 30.5642 68.9077 32.1522 73.2982C33.7402 77.6886 39.1582 84.3209 41.5869 86.1892C43.9222 88.0574 50.4612 93.2886 51.1151 93.9425C51.1151 93.9425 51.2839 94.1957 51.8624 94.2207V94.2227C51.8782 94.2227 51.8938 94.2225 51.9091 94.2222C51.9244 94.2225 51.9399 94.2227 51.9558 94.2227V94.2207C52.5342 94.1957 52.7031 93.9425 52.7031 93.9425C53.357 93.2886 59.8959 88.0574 62.2312 86.1892C64.5665 84.3209 70.0779 77.6886 71.6659 73.2982C73.254 68.9077 77.1773 61.2479 77.1773 61.2479V60.2203L72.8803 61.7149C72.8803 61.7149 72.9737 62.4622 73.1606 63.3029C73.3474 64.1437 72.5067 64.4239 72.5067 64.4239C72.5067 64.4239 61.4839 68.3473 59.242 69.0946C57.0001 69.8419 57.0001 68.3473 57.0001 68.3473L56.1594 65.358H51.8624V65.4515H47.6588L46.818 68.3473Z" fill="#4B4B56"/>
</svg>
