<svg width="70" height="65" viewBox="0 0 70 65" fill="none" xmlns="http://www.w3.org/2000/svg">
<g clip-path="url(#clip0)">
<path d="M57.2847 10.6482H12.7144C12.2632 10.6482 11.8531 10.8675 11.5933 11.2238L0.259325 27.0935C-0.123488 27.628 -0.0824723 28.368 0.382372 28.8476L34.0015 64.5613C34.5484 65.1369 35.4644 65.1369 36.0113 64.5613L69.6304 28.8476C70.0816 28.368 70.1363 27.628 69.7535 27.0935L58.4058 11.2238C58.146 10.8675 57.7359 10.6482 57.2847 10.6482Z" fill="#EA5353"/>
<path d="M70 28.0255H45.5273C52.6231 26.6277 58.4883 21.8448 61.4004 15.4175L69.7403 27.0936C69.9453 27.3677 70.0274 27.6966 70 28.0255Z" fill="#DD4545"/>
<path d="M70 28.0254C69.9726 28.3132 69.8633 28.5736 69.6719 28.8066C69.6582 28.8203 69.6445 28.834 69.6308 28.8614L36.0117 64.5614L35.998 64.5751C35.8476 64.7395 35.6562 64.8492 35.4648 64.9177C35.3691 64.9588 35.2598 64.9725 35.1504 64.9862C35.0547 64.9999 34.9453 64.9999 34.8359 64.9862C34.7266 64.9725 34.6309 64.9451 34.5215 64.9177C34.3301 64.8492 34.1387 64.7395 33.9883 64.5751L33.9746 64.5614L0.382812 28.8477C0.369141 28.834 0.355469 28.8203 0.341797 28.7929C0.150391 28.5736 0.0410156 28.2995 0.0136719 28.0117L70 28.0254Z" fill="#D34444"/>
<path d="M69.999 28.0256C69.9717 28.3134 69.8623 28.5738 69.6709 28.8068C69.6572 28.8205 69.6436 28.8342 69.6299 28.8616L36.0107 64.5616L35.9971 64.5753C35.8467 64.7397 35.6553 64.8494 35.4639 64.9179C35.3682 64.959 35.2588 64.9727 35.1494 64.9864C35.0537 65.0001 34.9443 65.0001 34.835 64.9864C34.7256 64.9727 34.6299 64.9453 34.5205 64.9179C34.3291 64.8494 34.1377 64.7397 33.9873 64.5753L33.9736 64.5616L25.333 55.3796C39.2373 52.9951 50.2021 41.9767 52.54 28.0256H69.999Z" fill="#C63535"/>
<path d="M59.4043 28.0254L35.4648 64.9176C35.3691 64.9588 35.2598 64.9725 35.1504 64.9862C35.0547 64.9999 34.9453 64.9999 34.8359 64.9862C34.7266 64.9725 34.6309 64.945 34.5215 64.9176L10.5957 28.0254L19.1406 10.6482H50.8457L59.4043 28.0254Z" fill="#FFA1A1"/>
<path d="M59.4043 28.0256L35.4648 64.9179C35.3691 64.959 35.2598 64.9727 35.1504 64.9864C35.0547 65.0001 34.9453 65.0001 34.8359 64.9864C34.7266 64.9727 34.6309 64.9453 34.5215 64.9179L10.5957 28.0256H59.4043Z" fill="#ED7474"/>
<path d="M44.0645 28.0254L35.1504 64.9862C35.0547 64.9999 34.9453 64.9999 34.8359 64.9862L25.9219 28.0254L29.0938 10.6482H40.8789L44.0645 28.0254Z" fill="#EA5E5E"/>
<path d="M44.0645 28.0256L35.1504 64.9864C35.0547 65.0001 34.9453 65.0001 34.8359 64.9864L25.9219 28.0256H44.0645Z" fill="#D34444"/>
<path opacity="0.3" d="M33.3174 15.2529H15.749C14.4775 15.2529 13.4521 14.225 13.4521 12.9505C13.4521 11.676 14.4775 10.6482 15.749 10.6482H33.3174C34.5889 10.6482 35.6143 11.676 35.6143 12.9505C35.6143 14.2113 34.5889 15.2529 33.3174 15.2529Z" fill="white"/>
<path opacity="0.47" d="M29.1064 10.6482L28.2588 15.2392H16.8701L19.126 10.6482H29.1064Z" fill="white"/>
<path d="M59.4043 28.0254H45.5273C49.7656 27.1894 53.5664 25.1475 56.5605 22.2559L59.4043 28.0254Z" fill="#F96262"/>
<path d="M64.1621 15.9793C64.6543 15.6504 64.6543 14.9378 64.1621 14.6089C62.8906 13.7729 61.6875 12.7862 60.5664 11.6761C59.4453 10.5661 58.4609 9.36007 57.6133 8.09927C57.2852 7.60591 56.5606 7.60591 56.2324 8.09927C55.3848 9.36007 54.4004 10.5661 53.2793 11.6761C52.1582 12.7862 50.9551 13.7729 49.6836 14.6089C49.1914 14.9378 49.1914 15.6504 49.6836 15.9793C50.9551 16.8153 52.1582 17.802 53.2793 18.912C54.4004 20.0221 55.3848 21.2281 56.2324 22.4889C56.5606 22.9823 57.2852 22.9823 57.6133 22.4889C58.4609 21.2281 59.4453 20.0221 60.5664 18.912C61.6875 17.802 62.8906 16.8153 64.1621 15.9793Z" fill="#F96262"/>
<path d="M64.1621 15.9792C62.8906 16.8152 61.6875 17.8019 60.5664 18.912C59.4453 20.022 58.4609 21.228 57.6133 22.4888C57.2852 22.9822 56.5606 22.9822 56.2324 22.4888C55.3848 21.228 54.4004 20.022 53.2793 18.912C53.1289 18.7612 52.9922 18.6242 52.8418 18.4871C53.0332 18.5008 53.2383 18.5145 53.4434 18.5145C57.2852 18.5145 60.4297 15.4721 60.5527 11.676C61.6738 12.7861 62.877 13.7728 64.1485 14.6088C64.6543 14.9377 64.6543 15.6503 64.1621 15.9792Z" fill="#C63535"/>
<path d="M65.1733 4.35801C65.4331 4.17985 65.4331 3.80983 65.1733 3.63168C64.5034 3.19313 63.8608 2.67237 63.2729 2.08308C62.6851 1.49379 62.1655 0.863386 61.7144 0.19187C61.5366 -0.0685139 61.1538 -0.0685139 60.9897 0.19187C60.5386 0.863386 60.0327 1.49379 59.4312 2.08308C58.8296 2.67237 58.2007 3.19313 57.5308 3.63168C57.271 3.80983 57.271 4.17985 57.5308 4.35801C58.2007 4.79655 58.8433 5.31732 59.4312 5.90661C60.019 6.4959 60.5386 7.1263 60.9897 7.79782C61.1675 8.0582 61.5503 8.0582 61.7144 7.79782C62.1655 7.1263 62.6714 6.4959 63.2729 5.90661C63.8745 5.31732 64.5034 4.79655 65.1733 4.35801Z" fill="#F96262"/>
<path d="M65.1738 4.35794C64.5039 4.79648 63.8613 5.31725 63.2734 5.90654C62.6856 6.49583 62.166 7.12623 61.7148 7.79775C61.5371 8.05813 61.1543 8.05813 60.9902 7.79775C60.5391 7.12623 60.0332 6.49583 59.4316 5.90654C59.3496 5.82431 59.2813 5.75579 59.1992 5.67356C59.3086 5.68727 59.4043 5.68727 59.5137 5.68727C61.5508 5.68727 63.2051 4.08385 63.2734 2.08301C63.8613 2.6723 64.5039 3.19306 65.1738 3.63161C65.4336 3.79606 65.4336 4.17978 65.1738 4.35794Z" fill="#C63535"/>
<g opacity="0.5">
<path opacity="0.5" d="M59.4033 28.0254L35.4639 64.9177C35.3682 64.9588 35.2588 64.9725 35.1494 64.9862C35.0537 64.9999 34.9443 64.9999 34.835 64.9862C34.7256 64.9725 34.6299 64.9451 34.5205 64.9177L27.9854 54.8175C40.6318 51.5696 50.3799 41.0857 52.5537 28.0117L59.4033 28.0254Z" fill="#C63535"/>
<path opacity="0.5" d="M34.5342 64.9175L27.9854 54.8174C27.124 55.0367 26.249 55.2285 25.3467 55.3793L33.9873 64.5612L34.001 64.5749C34.1514 64.7394 34.3428 64.849 34.5342 64.9175Z" fill="#C63535"/>
</g>
</g>
<defs>
<clipPath id="clip0">
<rect width="70" height="65" fill="white"/>
</clipPath>
</defs>
</svg>
