<svg width="187" height="126" viewBox="0 0 187 126" fill="none" xmlns="http://www.w3.org/2000/svg">
<g clip-path="url(#clip0)">
<path d="M54.6827 5.10633H49.6283V0.000976562H45.5849V5.10633H40.5305V9.1906H45.5849V14.296H49.6283V9.1906H54.6827V5.10633Z" fill="white" fill-opacity="0.05"/>
<path d="M7.57609 48.3997C9.19348 48.3997 10.6087 49.8292 10.6087 51.4629C10.6087 53.0966 9.19348 54.5261 7.57609 54.5261C5.9587 54.5261 4.54348 53.0966 4.54348 51.4629C4.54348 49.8292 5.9587 48.3997 7.57609 48.3997ZM7.57609 44.3154C3.73478 44.3154 0.5 47.5829 0.5 51.4629C0.5 55.343 3.73478 58.6104 7.57609 58.6104C11.4174 58.6104 14.6522 55.343 14.6522 51.4629C14.6522 47.5829 11.4174 44.3154 7.57609 44.3154Z" fill="white" fill-opacity="0.05"/>
<path d="M172.348 50.0331H177.402V44.9277H181.446V50.0331H186.5V54.1174H181.446V59.2227H177.402V54.1174H172.348V50.0331Z" fill="white" fill-opacity="0.05"/>
<path d="M26.3783 100.679H21.3239V95.5732H17.2804V100.679H12.2261V104.763H17.2804V109.868H21.3239V104.763H26.3783V100.679Z" fill="white" fill-opacity="0.05"/>
<path d="M138.989 4.08526C140.607 4.08526 142.022 5.51475 142.022 7.14847C142.022 8.78218 140.607 10.2117 138.989 10.2117C137.372 10.2117 135.957 8.78218 135.957 7.14847C135.957 5.51475 137.372 4.08526 138.989 4.08526ZM138.989 0.000976562C135.148 0.000976562 131.913 3.2684 131.913 7.14847C131.913 11.0285 135.148 14.296 138.989 14.296C142.83 14.296 146.065 11.0285 146.065 7.14847C146.065 3.2684 142.83 0.000976562 138.989 0.000976562Z" fill="white" fill-opacity="0.05"/>
<path d="M161.228 100.066C162.846 100.066 164.261 101.495 164.261 103.129C164.261 104.763 162.846 106.192 161.228 106.192C159.611 106.192 158.196 104.763 158.196 103.129C158.196 101.495 159.611 100.066 161.228 100.066ZM161.228 95.9814C157.387 95.9814 154.152 99.2489 154.152 103.129C154.152 107.009 157.387 110.276 161.228 110.276C165.07 110.276 168.305 107.009 168.305 103.129C168.305 99.2489 165.07 95.9814 161.228 95.9814Z" fill="white" fill-opacity="0.05"/>
<path d="M131.913 107.622L74.0913 125.797C72.0695 126.41 70.0478 125.388 69.4413 123.346L43.3608 39.2102C42.7543 37.168 43.7652 35.1259 45.7869 34.5132L103.811 16.3382C105.833 15.7256 107.854 16.7466 108.461 18.7888L134.339 102.925C134.946 104.967 133.935 107.009 131.913 107.622Z" fill="#3F3F42"/>
<path d="M122.411 119.058H61.7585C59.7368 119.058 57.9172 117.424 57.9172 115.178V26.9572C57.9172 24.9151 59.5346 23.0771 61.7585 23.0771H122.411C124.432 23.0771 126.252 24.7109 126.252 26.9572V115.178C126.05 117.22 124.432 119.058 122.411 119.058Z" fill="#38383D"/>
<path d="M81.25 80.001H103.75C104.993 80.001 106 78.9936 106 77.751V62.001C106 60.7583 104.993 59.751 103.75 59.751H81.25C80.0074 59.751 79 60.7583 79 62.001V77.751C79 78.9936 80.0074 80.001 81.25 80.001Z" stroke="#2B2B30" stroke-width="2.15486" stroke-linecap="round" stroke-linejoin="round"/>
<path d="M97 84.501H88" stroke="#2B2B30" stroke-width="2.15486" stroke-linecap="round" stroke-linejoin="round"/>
<path d="M97 69.876L90.25 65.376V74.376L97 69.876Z" stroke="#2B2B30" stroke-width="2.15486" stroke-linecap="round" stroke-linejoin="round"/>
</g>
<defs>
<clipPath id="clip0">
<rect width="186" height="126" fill="white" transform="translate(0.5 0.000976562)"/>
</clipPath>
</defs>
</svg>
