<svg width="51" height="58" viewBox="0 0 51 58" fill="none" xmlns="http://www.w3.org/2000/svg">
<g clip-path="url(#clip0)">
<path d="M25.4944 40.73C33.9711 40.73 40.8428 33.8583 40.8428 25.3816C40.8428 16.9049 33.9711 10.0332 25.4944 10.0332C17.0177 10.0332 10.146 16.9049 10.146 25.3816C10.146 33.8583 17.0177 40.73 25.4944 40.73Z" fill="#C63535"/>
<path d="M43.5341 7.46589C38.7145 2.65754 32.3071 0 25.4944 0C18.6816 0 12.2855 2.65754 7.46589 7.46589C2.65754 12.2855 0 18.6929 0 25.4944C0 37.5096 8.40053 47.8808 20.0667 50.4144L25.4944 57.6551L30.9221 50.4144C42.5882 47.892 50.9887 37.5096 50.9887 25.4944C51 18.6929 48.3425 12.2855 43.5341 7.46589ZM25.4944 6.65511C35.8205 6.65511 44.221 15.0556 44.221 25.3818C44.221 35.7079 35.8205 44.1084 25.4944 44.1084C15.1682 44.1084 6.76772 35.7191 6.76772 25.3818C6.76772 15.0444 15.1682 6.65511 25.4944 6.65511Z" fill="#C63535"/>
<path d="M25.5 34.3516C30.2462 34.3516 34.0938 30.504 34.0938 25.7578C34.0938 21.0116 30.2462 17.1641 25.5 17.1641C20.7538 17.1641 16.9062 21.0116 16.9062 25.7578C16.9062 30.504 20.7538 34.3516 25.5 34.3516Z" stroke="white" stroke-width="1.72059" stroke-linecap="round" stroke-linejoin="round"/>
<path d="M25.5 15.2109V18.7266" stroke="white" stroke-width="1.72059" stroke-linecap="round" stroke-linejoin="round"/>
<path d="M14.9531 25.7578H18.4688" stroke="white" stroke-width="1.72059" stroke-linecap="round" stroke-linejoin="round"/>
<path d="M25.5 36.3047V32.7891" stroke="white" stroke-width="1.72059" stroke-linecap="round" stroke-linejoin="round"/>
<path d="M36.0469 25.7578H32.5312" stroke="white" stroke-width="1.72059" stroke-linecap="round" stroke-linejoin="round"/>
<path d="M25.5 28.8828C27.2259 28.8828 28.625 27.4837 28.625 25.7578C28.625 24.0319 27.2259 22.6328 25.5 22.6328C23.7741 22.6328 22.375 24.0319 22.375 25.7578C22.375 27.4837 23.7741 28.8828 25.5 28.8828Z" stroke="white" stroke-width="1.72059" stroke-linecap="round" stroke-linejoin="round"/>
</g>
<defs>
<clipPath id="clip0">
<rect width="51" height="57.6551" fill="white"/>
</clipPath>
</defs>
</svg>
