<svg width="88" height="128" viewBox="0 0 88 128" fill="none" xmlns="http://www.w3.org/2000/svg">
<path opacity="0.8" d="M44 21L57.5504 28.3967L71 36V128H17V36L31.4504 28.3967L44 21Z" fill="#C63535"/>
<path d="M5.35637 29.1172L44 7.1606L82.6436 29.1172V72.9004L44.4699 94.8393L5.35637 72.8654V29.1172Z" stroke="white" stroke-opacity="0.2" stroke-width="10.7127"/>
<path fill-rule="evenodd" clip-rule="evenodd" d="M58.2063 68.442L54.4179 64.6064L55.6053 63.4041C56.0294 62.9746 56.1949 62.3487 56.0397 61.7621C55.8845 61.1756 55.432 60.7173 54.8526 60.5602C54.2733 60.4031 53.6552 60.5708 53.2311 61.0003L48.2386 55.9605L59.7116 44.3757C59.8046 44.282 59.862 44.1582 59.8739 44.026L60.2695 39.6183C60.2846 39.4508 60.2253 39.2852 60.1078 39.1663C59.9908 39.0467 59.827 38.9866 59.6616 39.0025L55.3087 39.4031C55.1786 39.4151 55.0567 39.4729 54.9642 39.5664L43.4833 51.1592L32.0037 39.568C31.9113 39.4745 31.7895 39.4168 31.6594 39.4047L27.3058 39.0024C27.1404 38.9872 26.9768 39.0473 26.8593 39.1662C26.7419 39.2852 26.6827 39.4508 26.6976 39.6183L27.0949 44.0271C27.1068 44.1593 27.1643 44.2831 27.2572 44.3768L38.7289 55.96L33.7367 61.0008C33.0811 60.3369 32.0177 60.3363 31.362 61.0001C30.7064 61.6639 30.7064 62.7402 31.3619 63.4042L32.5492 64.6065L28.7609 68.442C28.2319 68.4725 27.7315 68.6949 27.3512 69.0685C26.4772 69.9536 26.4772 71.3885 27.3512 72.2736C28.2253 73.1587 29.6424 73.1587 30.5165 72.2736C30.8977 71.8858 31.1257 71.3701 31.1575 70.8238L34.9233 67.0103L36.1104 68.2124C36.5344 68.6419 37.1525 68.8098 37.7318 68.6527C38.3112 68.4956 38.7637 68.0376 38.9191 67.451C39.0744 66.8644 38.9089 66.2384 38.485 65.8089L43.484 60.7613L48.4827 65.8081C47.8272 66.472 47.8269 67.5488 48.4826 68.2126C49.1383 68.8764 50.2013 68.8763 50.8569 68.2124L52.044 67.0103L55.8097 70.8238C55.8656 72.0496 56.8691 73.0111 58.0808 72.9999C59.2927 72.9887 60.2786 72.0088 60.3124 70.7822C60.3462 69.5555 59.4157 68.5216 58.2063 68.442ZM28.1912 43.7194L27.8734 40.1933L31.3565 40.5148L42.6908 51.9593L39.5214 55.1597L28.1912 43.7194ZM29.7252 71.4723C29.2824 71.9006 28.5853 71.9006 28.1425 71.4723C27.8223 71.1482 27.7265 70.6608 27.8997 70.2372C28.073 69.8137 28.4811 69.5375 28.9338 69.5375C29.3865 69.5375 29.7946 69.8136 29.9678 70.2372C30.1411 70.6608 30.0453 71.1482 29.7252 71.4723ZM30.8564 69.526C30.7626 69.3595 30.6484 69.2058 30.5165 69.0684C30.3803 68.9348 30.2267 68.8206 30.06 68.7292L33.3404 65.4078L34.1318 66.2091L30.8564 69.526ZM37.6932 67.4111C37.4746 67.6322 37.1203 67.6322 36.9016 67.4111L32.1532 62.6029C31.9359 62.3813 31.9365 62.0235 32.1546 61.8027C32.3727 61.5819 32.7261 61.5814 32.9448 61.8016L35.3189 64.2057L35.3451 64.2321L35.3486 64.2375L35.3539 64.2411L37.2973 66.2092L37.693 66.6098C37.911 66.8313 37.9111 67.1895 37.6932 67.4111ZM50.0655 67.4111C49.8469 67.6318 49.4932 67.6315 49.2748 67.4105C49.0565 67.1896 49.0561 66.8313 49.2739 66.6098L49.6664 66.2125L49.6712 66.2092L51.6183 64.2378L53.6276 62.2033L53.6315 62.1975L54.0224 61.8015C54.241 61.5801 54.5953 61.5801 54.8139 61.8014C55.0325 62.0227 55.0326 62.3814 54.814 62.6028L50.0655 67.4111ZM56.4508 69.0685C56.3188 69.2059 56.2045 69.3596 56.1109 69.5261L52.8355 66.2092L53.6268 65.4079L56.9073 68.7293C56.7405 68.8207 56.5869 68.9348 56.4508 69.0685ZM58.8247 71.4723C58.3819 71.9006 57.6848 71.9006 57.242 71.4723C56.9219 71.1482 56.8261 70.6608 56.9993 70.2372C57.1725 69.8137 57.5806 69.5375 58.0333 69.5375C58.486 69.5375 58.8941 69.8136 59.0673 70.2372C59.2407 70.6608 59.1448 71.1483 58.8247 71.4723ZM44.2764 59.9613L47.4461 56.7606L52.4391 61.8022L51.222 63.0345L50.4307 63.8357L49.2741 65.0067L44.2764 59.9613ZM43.0874 59.5609L43.0889 59.56L47.048 55.5623L47.0495 55.5601L47.0518 55.5585L58.7777 43.7183L59.0941 40.1927L55.6113 40.5132L43.8813 52.3574L43.8798 52.3597L43.8775 52.3612L39.9185 56.3588L39.9177 56.36L39.9165 56.3608L34.528 61.802L35.7452 63.0345L36.5365 63.8358L37.6937 65.0076L43.0865 59.5623L43.0874 59.5609Z" fill="white"/>
</svg>
