<svg width="11" height="10" viewBox="0 0 11 10" fill="none" xmlns="http://www.w3.org/2000/svg">
<g clip-path="url(#clip0)">
<path d="M5.77539 0C3.04206 0 0.775391 2.26667 0.775391 5C0.775391 7.73333 3.04206 10 5.77539 10C8.50872 10 10.7754 7.73333 10.7754 5C10.7754 2.26667 8.50872 0 5.77539 0ZM9.17539 5.4H8.44206C8.30872 6.6 7.30872 7.53333 6.17539 7.66667V8.4H5.37539V7.66667C4.77539 7.6 4.24206 7.33333 3.84206 6.93333C3.44206 6.46667 3.17539 5.93333 3.10872 5.4H2.37539V4.6H3.10872C3.17539 4.06667 3.44206 3.53333 3.84206 3.06667C4.24206 2.6 4.77539 2.4 5.37539 2.33333V1.6H6.10872V2.33333C6.70872 2.4 7.24206 2.66667 7.70872 3.06667C8.10872 3.46667 8.37539 4 8.44206 4.6H9.17539V5.4ZM6.97539 4.6H7.70872C7.57539 3.8 6.97539 3.2 6.17539 3.06667V3.8H5.37539V3.06667C4.64206 3.26667 4.04206 3.86667 3.84206 4.6H4.57539V5.33333H3.84206C3.97539 6.13333 4.57539 6.73333 5.37539 6.86667V6.2H6.10872V6.93333C6.90872 6.8 7.50872 6.2 7.64206 5.4H6.97539V4.6ZM5.77539 5.86667C5.30872 5.86667 4.90872 5.46667 4.90872 5C4.90872 4.53333 5.30872 4.13333 5.77539 4.13333C6.24206 4.13333 6.64206 4.53333 6.64206 5C6.64206 5.46667 6.24206 5.86667 5.77539 5.86667Z" fill="#FFA91E"/>
<path d="M5.77539 0V1.6H6.17539V2.33333C6.70872 2.4 7.24206 2.66667 7.70872 3.06667C8.10872 3.46667 8.37539 4 8.44206 4.6H9.17539V5.33333H8.44206C8.30872 6.53333 7.30872 7.46667 6.17539 7.6V8.33333H5.77539V10C8.50872 10 10.7754 7.73333 10.7754 5C10.7754 2.26667 8.50872 0 5.77539 0ZM6.17539 6.93333C6.97539 6.8 7.57539 6.2 7.70872 5.4H6.97539V4.6H7.70872C7.57539 3.8 6.97539 3.2 6.17539 3.06667V3.8H5.77539V4.13333C6.24206 4.13333 6.64206 4.53333 6.64206 5C6.64206 5.46667 6.24206 5.86667 5.77539 5.86667V6.2H6.17539V6.93333Z" fill="#FF8900"/>
</g>
<defs>
<clipPath id="clip0">
<rect width="10" height="10" fill="white" transform="translate(0.775391)"/>
</clipPath>
</defs>
</svg>
