<svg width="10" height="9" viewBox="0 0 10 9" fill="none" xmlns="http://www.w3.org/2000/svg">
<path d="M9.53674e-07 8.41565L1.20297e-06 5.56409L4.97239 3.53935L5.00163 3.55237L10 5.56083L10 8.41565L5.00162 6.40719L9.53674e-07 8.41565Z" fill="#FFA91E"/>
<path d="M9.53674e-07 4.87732L1.20297e-06 2.02576L4.97239 0.00101761L5.00163 0.0140381L10 2.0225L10 4.87732L5.00162 2.86886L9.53674e-07 4.87732Z" fill="#FFA91E"/>
<path d="M0.000328541 8.41565L0.00032879 5.56409L4.97272 3.53935L5.00195 3.55237L5.00195 6.40719L0.000328541 8.41565Z" fill="#FF8900"/>
<path d="M5.00195 2.86886L0.000328541 4.87732L0.00032879 2.02576L4.97272 0.00101804L5.00195 0.0140386L5.00195 2.86886Z" fill="#FF8900"/>
</svg>
