<svg width="19" height="18" viewBox="0 0 19 18" fill="none" xmlns="http://www.w3.org/2000/svg">
<path d="M11.2253 17H7.62539C5.28942 17 3.36317 15.1483 3.33157 12.8719C3.33157 10.1816 6.90123 6.19559 7.90373 5.14687C7.60845 4.59391 7.08157 3.40325 7.08157 1.9375C7.08157 1.75987 7.18182 1.59784 7.34067 1.51819C7.38323 1.49713 8.38895 1 9.42532 1C10.4617 1 11.4674 1.49713 11.51 1.51819C11.6688 1.59784 11.7691 1.75987 11.7691 1.9375C11.7691 3.40325 11.2426 4.59391 10.9469 5.14687C11.9494 6.19469 15.5191 10.1706 15.5191 12.7812V12.8655C15.4875 15.1483 13.5612 17 11.2253 17Z" fill="#FFA91E"/>
<path d="M9.60895 10.8787L9.60419 10.8772C9.2013 10.7567 8.96801 10.6715 8.8337 10.5792C8.77083 10.536 8.73857 10.4968 8.72018 10.46C8.7017 10.423 8.69018 10.3742 8.69018 10.2988C8.69018 10.1889 8.7573 10.0908 8.93039 10.012C9.10133 9.93425 9.33453 9.89831 9.5591 9.89831C9.88075 9.89831 10.2479 9.99852 10.4654 10.1369C10.5343 10.1807 10.6227 10.1602 10.6689 10.0896L11.1555 9.34601C11.1804 9.30799 11.1894 9.26041 11.1804 9.21482C11.1715 9.16923 11.1453 9.1298 11.1082 9.1061C10.7995 8.90862 10.3959 8.77109 9.99041 8.71222V8.16667C9.99041 8.07462 9.92153 8 9.83657 8H8.93888C8.85391 8 8.78503 8.07462 8.78503 8.16667V8.77636C8.01284 8.98486 7.48438 9.52863 7.48438 10.2988C7.48438 10.8513 7.72168 11.2925 8.17032 11.5956C8.49819 11.8178 8.89284 11.9359 9.24909 12.0424L9.26242 12.0464C9.65824 12.1644 9.90822 12.2523 10.0611 12.3592C10.1334 12.4097 10.1763 12.4596 10.2025 12.5121C10.2287 12.5646 10.2444 12.6322 10.2436 12.7289L10.2436 12.7327V12.7338C10.2436 12.8299 10.1841 12.9204 10.0173 12.9948C9.85358 13.0678 9.62979 13.1017 9.41389 13.1017C9.01778 13.1017 8.59224 12.928 8.36146 12.6873C8.30425 12.6276 8.21451 12.625 8.15434 12.6811L7.5022 13.2897C7.4694 13.3203 7.45002 13.3645 7.44882 13.4114C7.44762 13.4583 7.4647 13.5035 7.49588 13.536C7.82787 13.8825 8.29179 14.1299 8.78501 14.2461V14.8333C8.78501 14.9254 8.85389 15 8.93886 15H9.83657C9.92153 15 9.99041 14.9254 9.99041 14.8333V14.2675C10.8447 14.103 11.4474 13.5509 11.4487 12.7366C11.4529 12.1504 11.2133 11.6809 10.7492 11.3565C10.4019 11.1146 9.98521 10.9906 9.60895 10.8787Z" fill="#232326"/>
<path d="M12.4488 5.3512C12.4488 5.9012 12.063 6.3512 11.5916 6.3512H7.3059C6.83448 6.3512 6.44876 5.9012 6.44876 5.3512C6.44876 4.8012 6.83448 4.3512 7.3059 4.3512H11.5916C12.063 4.3512 12.4488 4.8012 12.4488 5.3512Z" fill="#808087"/>
</svg>
