<svg width="99" height="101" viewBox="0 0 99 101" fill="none" xmlns="http://www.w3.org/2000/svg">
<g clip-path="url(#clip0)">
<path d="M5.49023 61.7369C5.5238 61.5771 5.54059 61.4172 5.57416 61.2414C5.72522 61.2094 5.87629 61.0496 6.06092 60.7778C6.22877 60.5061 6.39662 60.1704 6.54769 59.8028C6.69875 59.4192 6.83303 59.0515 6.95053 58.6839C7.06802 58.3162 7.13516 58.0445 7.16873 57.8686C8.25976 51.3149 9.35078 44.7452 10.4418 38.1915C10.4418 37.9837 10.4418 37.696 10.4586 37.3603C10.4586 37.0246 10.4586 36.689 10.4418 36.3693C10.425 36.0496 10.3915 35.7619 10.3075 35.5061C10.2404 35.2504 10.1397 35.1225 10.0054 35.1225C10.039 34.9626 10.0558 34.8028 10.0893 34.627C11.8853 34.627 13.6813 34.627 15.4773 34.627C15.4605 34.7868 15.427 34.9307 15.4102 35.0905C15.2423 35.0905 15.0745 35.2344 14.9234 35.5381C14.7556 35.8418 14.6045 36.1775 14.4702 36.5611C14.3359 36.9447 14.2184 37.3124 14.1345 37.664C14.0506 38.0157 14.0002 38.2395 13.9834 38.3514C13.0267 44.5854 12.07 50.8194 11.0964 57.0534C12.221 56.8776 13.3456 56.7018 14.4702 56.5259C14.5709 56.5099 14.8227 56.446 15.2087 56.3501C15.5948 56.2382 15.9976 56.1263 16.4005 56.0144C16.8033 55.8865 17.1726 55.7587 17.4915 55.5988C17.8104 55.439 17.9783 55.2791 18.0118 55.1193C18.1629 55.1033 18.2972 55.0873 18.4483 55.0713C17.9951 56.5899 17.5419 58.1244 17.0887 59.6749C13.2449 60.2344 9.38435 60.9377 5.49023 61.7369Z" fill="black"/>
<path d="M19.3379 59.3068C19.3547 59.163 19.3715 59.0031 19.3882 58.8593C19.5393 58.8433 19.6904 58.6994 19.8414 58.4597C19.9925 58.2199 20.1268 57.9162 20.2443 57.5805C20.3618 57.2448 20.4625 56.9091 20.5632 56.5735C20.6639 56.2378 20.7143 55.998 20.731 55.8222C21.4528 49.8919 22.1746 43.9456 22.9131 38.0153C22.9299 37.8554 22.9299 37.5997 22.9299 37.28C22.9131 36.9603 22.8963 36.6246 22.8795 36.3049C22.846 35.9852 22.7956 35.6975 22.7117 35.4417C22.6277 35.202 22.5103 35.0741 22.3928 35.0741C22.4095 34.9302 22.4263 34.7704 22.4431 34.6265C25.968 34.6265 29.4928 34.6265 33.0177 34.6265C33.0512 36.0172 33.0848 37.4238 33.1184 38.8145C32.9673 38.8145 32.8162 38.8145 32.6652 38.8145C32.682 38.6866 32.5477 38.5747 32.2623 38.4788C31.977 38.3829 31.6581 38.287 31.3056 38.2071C30.9363 38.1431 30.6006 38.0792 30.2649 38.0632C29.9292 38.0313 29.711 38.0313 29.6103 38.0313C28.5696 38.0472 27.529 38.0632 26.4715 38.0952C26.3037 39.5818 26.1526 41.0683 25.9847 42.5549C26.5051 42.5389 27.0254 42.507 27.529 42.491C27.6297 42.491 27.8647 42.459 28.2339 42.4111C28.6032 42.3631 28.9725 42.2992 29.3585 42.2033C29.7446 42.1073 30.0803 42.0114 30.3824 41.8836C30.6845 41.7717 30.8356 41.6278 30.8524 41.468C31.0035 41.468 31.1545 41.452 31.3056 41.452C31.1545 43.1463 31.0035 44.8567 30.8524 46.5511C30.7013 46.5671 30.5335 46.5671 30.3824 46.583C30.3992 46.4552 30.2481 46.3433 29.9628 46.2314C29.6774 46.1195 29.3417 46.0396 28.9725 46.0076C28.5864 45.9596 28.2172 45.9277 27.8647 45.9117C27.4954 45.8797 27.2772 45.8797 27.1597 45.8797C26.6394 45.9117 26.119 45.9437 25.5819 45.9756C25.2462 49.0607 24.9105 52.1617 24.5748 55.2467C25.6994 55.1189 26.824 55.007 27.9486 54.9111C28.0493 54.8951 28.3011 54.8631 28.6536 54.7992C29.0228 54.7352 29.4089 54.6393 29.8117 54.5274C30.2146 54.4155 30.5671 54.2877 30.886 54.1598C31.2049 54.0319 31.3727 53.888 31.3727 53.7282C31.5406 53.7122 31.6916 53.6962 31.8595 53.6962C31.5742 55.1029 31.3056 56.5095 31.0202 57.9162C27.1429 58.2678 23.2488 58.7314 19.3379 59.3068Z" fill="black"/>
<path d="M46.7309 52.929C46.7141 53.5044 46.5631 54.0319 46.2945 54.5434C46.0092 55.0549 45.6399 55.5025 45.1867 55.8861C44.7335 56.2698 44.1796 56.5735 43.5585 56.8132C42.9375 57.037 42.2829 57.1649 41.5947 57.1969C40.6044 57.2448 39.6141 57.2928 38.6238 57.3407C37.9356 57.3727 37.2977 57.3088 36.6935 57.1329C36.0892 56.9571 35.5857 56.7013 35.166 56.3497C34.7464 55.998 34.4275 55.5664 34.2093 55.0709C33.9911 54.5594 33.9072 54.0159 33.9575 53.4405C34.3268 48.5971 34.6793 43.7538 35.0485 38.9104C35.0989 38.319 35.25 37.7755 35.5185 37.248C35.7871 36.7205 36.1396 36.2729 36.5928 35.8893C37.0292 35.5057 37.5327 35.202 38.1202 34.9622C38.6909 34.7384 39.2952 34.6265 39.9162 34.6265C40.8226 34.6265 41.729 34.6265 42.6354 34.6265C43.2564 34.6265 43.8439 34.7384 44.3978 34.9622C44.9517 35.186 45.4217 35.4897 45.8245 35.8573C46.2274 36.225 46.5463 36.6726 46.7813 37.1841C47.0163 37.6956 47.1337 38.2231 47.117 38.7985C47.1002 39.4219 47.0834 40.0613 47.0666 40.6847C45.8749 40.6847 44.6664 40.7007 43.4746 40.7167C43.1557 40.7167 42.8368 40.7167 42.5179 40.7327C42.5179 40.6048 42.5347 40.4609 42.5347 40.333C43.1053 40.333 43.441 39.8855 43.5418 39.0223C43.5418 38.9584 43.5418 38.8944 43.5418 38.8465C43.5585 38.5747 43.4578 38.351 43.2396 38.1432C43.0382 37.9513 42.7696 37.8554 42.4843 37.8554C41.5611 37.8554 40.6547 37.8714 39.7316 37.8714C39.4294 37.8714 39.1777 37.9673 38.9595 38.1751C38.7412 38.3669 38.6405 38.6067 38.6238 38.8784C38.3384 43.6579 38.0363 48.4533 37.7509 53.2327C37.7341 53.4724 37.8349 53.6962 38.0363 53.8721C38.2377 54.0639 38.5063 54.1438 38.8252 54.1278C39.7987 54.0799 40.789 54.0319 41.7625 53.9999C42.0815 53.9839 42.3668 53.888 42.6018 53.6802C42.8368 53.4724 42.9711 53.2646 42.9711 53.0089C43.055 51.0268 43.1389 49.0447 43.2228 47.0626C43.1221 47.0626 42.9039 47.0946 42.6018 47.1425C42.2829 47.1905 41.964 47.2544 41.6283 47.3183C41.2926 47.3823 40.9904 47.4782 40.7219 47.6061C40.4533 47.7339 40.319 47.8618 40.319 47.9737C40.168 47.9737 40.0001 47.9897 39.8491 47.9897C39.9162 46.631 40.0001 45.2723 40.0673 43.9136C42.3836 43.8657 44.6831 43.8177 46.9995 43.8017C47.3184 43.8017 47.6541 43.8017 47.973 43.8017C47.973 43.9296 47.973 44.0735 47.9562 44.2013C47.3016 44.2013 46.9659 44.7608 46.9323 45.8637C46.9323 45.8478 46.9323 45.8318 46.9323 45.8158C46.8652 48.2135 46.798 50.5632 46.7309 52.929Z" fill="black"/>
<path d="M49.2148 57.021C49.2148 56.8931 49.2148 56.7493 49.2148 56.6214C49.3659 56.6214 49.5002 56.5095 49.6177 56.3017C49.752 56.0939 49.8527 55.8382 49.9198 55.5344C49.987 55.2307 50.0541 54.943 50.1212 54.6393C50.1716 54.3356 50.2052 54.1118 50.2052 53.968C50.2723 48.5492 50.3394 43.1304 50.4066 37.7116C50.4066 37.5677 50.3898 37.3439 50.3394 37.0402C50.2891 36.7365 50.2387 36.4488 50.1716 36.1451C50.1045 35.8414 50.0205 35.5856 49.903 35.3618C49.7855 35.138 49.668 35.0261 49.5338 35.0261C49.5338 34.8983 49.5338 34.7544 49.5338 34.6265C53.0586 34.6265 56.5835 34.6265 60.1083 34.6265C60.2929 35.9852 60.4776 37.3439 60.679 38.7026C60.5279 38.7026 60.3769 38.7026 60.2258 38.7026C60.2258 38.5747 60.0747 38.4628 59.7894 38.3669C59.5041 38.255 59.1684 38.1591 58.7991 38.0952C58.4298 38.0153 58.0773 37.9673 57.7416 37.9353C57.4059 37.9034 57.1877 37.8874 57.087 37.8874C56.0463 37.8874 55.0057 37.8714 53.965 37.8714C53.965 39.2621 53.965 40.6527 53.965 42.0434C54.4853 42.0434 54.9889 42.0434 55.5092 42.0594C55.6099 42.0594 55.8449 42.0434 56.1974 42.0274C56.5499 41.9954 56.9192 41.9475 57.3052 41.8836C57.6745 41.8196 58.0102 41.7237 58.2955 41.6278C58.5809 41.5319 58.7319 41.404 58.7319 41.2442C58.883 41.2442 59.0341 41.2442 59.1851 41.2442C59.2187 42.8906 59.2523 44.521 59.3026 46.1674C59.1516 46.1674 59.0005 46.1674 58.8327 46.1515C58.8327 46.0396 58.6816 45.9117 58.3795 45.7838C58.0773 45.6559 57.7416 45.56 57.3556 45.4961C56.9695 45.4321 56.6002 45.3682 56.231 45.3203C55.8617 45.2723 55.6267 45.2403 55.526 45.2403C55.0057 45.2403 54.4853 45.2243 53.965 45.2243C53.965 48.1016 53.9818 50.9948 53.9818 53.872C55.0896 53.888 56.1974 53.92 57.322 53.952C57.4227 53.952 57.6577 53.952 58.027 53.936C58.3795 53.92 58.7655 53.872 59.1516 53.8241C59.5376 53.7602 59.8901 53.6802 60.1922 53.6003C60.4944 53.5044 60.6454 53.3925 60.6454 53.2327C60.8133 53.2327 60.9643 53.2486 61.1322 53.2486C61.0147 54.6073 60.8972 55.9501 60.7629 57.3087C56.9192 57.085 53.0754 57.005 49.2148 57.021Z" fill="black"/>
<path d="M77.2638 55.982C77.3477 56.3177 77.4316 56.6534 77.5491 57.021C77.6498 57.3887 77.7841 57.7084 77.9352 57.9961C78.0862 58.2838 78.2541 58.4437 78.4387 58.4597C78.4555 58.6035 78.4723 58.7474 78.4723 58.8912C76.7434 58.6675 75.0146 58.4597 73.3025 58.2678C71.2883 53.2007 69.3413 48.2614 67.4613 43.4341C67.6628 47.1745 67.8642 50.8989 68.0824 54.6393C68.0992 54.8311 68.1327 55.0709 68.1999 55.3586C68.267 55.6623 68.3509 55.966 68.4684 56.2857C68.5692 56.6054 68.6866 56.8772 68.8041 57.101C68.9216 57.3247 69.0727 57.4526 69.2573 57.4686C69.2573 57.6125 69.2741 57.7403 69.2741 57.8842C67.3103 57.7084 65.3296 57.5645 63.3658 57.4366C63.3658 57.2928 63.349 57.1649 63.349 57.021C63.5337 57.037 63.6847 56.9091 63.7854 56.6694C63.9029 56.4136 64.0036 56.1259 64.0708 55.8062C64.1379 55.4705 64.1883 55.1668 64.2218 54.8631C64.2386 54.5594 64.2554 54.3676 64.2554 54.2717C64.0372 48.8369 63.8022 43.3861 63.584 37.9513C63.584 37.8554 63.5504 37.6476 63.5169 37.3279C63.4665 37.0082 63.3994 36.6726 63.2987 36.3369C63.198 36.0012 63.0972 35.6975 62.963 35.4417C62.8287 35.186 62.6944 35.0581 62.5266 35.0581C62.5266 34.9142 62.5098 34.7864 62.5098 34.6425C64.1043 34.6425 65.6989 34.6425 67.2935 34.6425C69.0727 39.294 70.9358 44.0255 72.8493 48.8848C72.5808 45.2723 72.3122 41.6598 72.0436 38.0472C72.0436 37.9513 72.0101 37.7435 71.9429 37.4079C71.8926 37.0722 71.8087 36.7365 71.6912 36.3848C71.5905 36.0332 71.4562 35.7295 71.3219 35.4577C71.1876 35.186 71.0365 35.0581 70.8687 35.0581C70.8519 34.9142 70.8519 34.7704 70.8351 34.6265C72.6311 34.6265 74.4271 34.6265 76.2231 34.6265C76.2399 34.7704 76.2567 34.9142 76.2567 35.0581C76.0888 35.0581 75.9713 35.202 75.8706 35.4737C75.7867 35.7455 75.7196 36.0651 75.686 36.4168C75.6524 36.7685 75.6189 37.1201 75.6021 37.4558C75.5853 37.7915 75.5685 38.0153 75.5853 38.1112C75.5853 38.0952 75.5853 38.0792 75.5853 38.0632C76.0888 43.8497 76.5924 49.6361 77.1127 55.4386C77.1127 55.4066 77.1127 55.3746 77.0959 55.3426C77.1463 55.4386 77.1799 55.6464 77.2638 55.982Z" fill="black"/>
<path d="M80.8717 59.2269C80.8549 59.083 80.8381 58.9392 80.8213 58.7793C80.9724 58.7953 81.0899 58.7154 81.1906 58.5236C81.2913 58.3318 81.3752 58.092 81.4088 57.8043C81.4424 57.5166 81.476 57.2288 81.5095 56.9091C81.5263 56.6054 81.5431 56.3497 81.5599 56.1579C80.9388 50.0677 80.301 43.9775 79.68 37.9034C79.6296 37.7116 79.5625 37.4558 79.4785 37.1361C79.3946 36.8164 79.3107 36.5127 79.21 36.193C79.1093 35.8733 78.9918 35.6176 78.8575 35.3938C78.7232 35.186 78.5889 35.0741 78.4546 35.0741C78.4379 34.9302 78.4211 34.7864 78.4043 34.6265C81.1403 34.6265 83.8762 34.6265 86.5954 34.6265C87.2164 34.6265 87.8375 34.7544 88.4249 35.0261C89.0292 35.2979 89.5663 35.6495 90.0363 36.0971C90.5063 36.5447 90.9259 37.0882 91.2616 37.6956C91.5973 38.319 91.8155 38.9744 91.9162 39.6617C92.7387 45.3522 93.5612 51.0428 94.3836 56.7333C94.4843 57.4206 94.434 58.044 94.2493 58.6035C94.0647 59.163 93.7626 59.6265 93.3765 59.9782C92.9737 60.3299 92.4869 60.5856 91.8994 60.7135C91.312 60.8414 90.6573 60.8414 89.9524 60.7135C86.9479 60.17 83.9098 59.6585 80.8717 59.2269ZM85.3869 56.3976C86.7632 56.5894 88.1396 56.8132 89.516 57.021C89.8349 57.069 90.1034 57.005 90.3216 56.8132C90.5231 56.6214 90.607 56.3816 90.5734 56.1099C89.8349 50.5632 89.0963 45.0325 88.3578 39.4859C88.3074 39.1662 88.1732 38.8944 87.9214 38.6866C87.6696 38.4628 87.4011 38.3509 87.0989 38.3509C85.8233 38.319 84.5476 38.287 83.2887 38.2391C83.9937 44.2972 84.6987 50.3394 85.3869 56.3976Z" fill="black"/>
<path d="M0.0683594 67.1877L1.67972 57.7088L2.68682 57.501V57.485C2.75396 57.2932 2.77074 57.1973 2.78753 57.1494L5.74169 39.3744H4.78494L6.31238 30.3911H20.6132L19.2704 39.3105H18.3137C17.7094 43.2107 17.1219 47.095 16.5177 50.9953L17.8605 50.8194L24.5577 49.9723L22.7281 56.1903C22.2749 57.7248 21.8217 59.2593 21.3685 60.7939L20.5964 63.3994L17.7933 63.8309C14.0335 64.4064 10.2233 65.1097 6.42987 65.877L0.0683594 67.1877Z" fill="#DBA153"/>
<path d="M14.2188 64.326L15.3769 55.1508L16.3504 55.0069C16.9883 49.7799 17.6261 44.553 18.2639 39.326H17.3575L18.4654 30.3906H37.3317L37.4324 34.5306C37.466 35.9213 37.4995 37.3119 37.5331 38.7026L37.6338 42.9545L35.6196 42.9865L35.0657 49.1725L37.2981 49.0127L36.2239 54.4475C35.9385 55.8541 35.67 57.2608 35.3846 58.6834L34.7636 61.8004L31.4402 62.1041C27.6635 62.4558 23.803 62.9033 19.9928 63.4628L14.2188 64.326Z" fill="#DBA153"/>
<path d="M38.2541 61.5926C37.2638 61.5926 36.307 61.4647 35.4006 61.193C34.1921 60.8413 33.1346 60.2978 32.2283 59.5466C31.2715 58.7473 30.5498 57.7723 30.063 56.6374C29.593 55.5344 29.4084 54.3516 29.5091 53.1367C29.8784 48.2934 30.2308 43.45 30.6001 38.6227C30.684 37.4878 31.0029 36.4008 31.5233 35.3778C32.0268 34.3867 32.7318 33.5076 33.5711 32.7723C34.3935 32.053 35.3335 31.4935 36.3909 31.0619C37.4987 30.6143 38.6905 30.3906 39.899 30.3906H42.6182C43.8435 30.3906 45.0184 30.6143 46.1262 31.0619C47.1837 31.4935 48.1236 32.0849 48.9125 32.8202C49.7182 33.5715 50.3728 34.4667 50.826 35.4577C51.3296 36.5287 51.5646 37.6955 51.531 38.8784L51.5142 39.5338H52.471L52.2695 48.4053H51.2792L51.1617 52.9929C51.1282 54.2077 50.8092 55.3746 50.2218 56.4615C49.6846 57.4366 48.9797 58.2998 48.1069 59.0351C47.2508 59.7544 46.2605 60.3138 45.1695 60.7294C44.0952 61.129 42.9707 61.3528 41.7957 61.4008C40.8222 61.4487 39.8486 61.4967 38.8919 61.5447C38.6737 61.5926 38.4555 61.5926 38.2541 61.5926Z" fill="#DBA153"/>
<path d="M64.8256 61.7206L60.5286 61.5128C56.7856 61.3209 52.9754 61.241 49.2323 61.257L44.6836 61.289L44.8347 52.4175H45.7914L45.9593 39.2941H45.0529L45.2039 30.4226H64.0535L64.557 34.1151C64.7417 35.4738 64.9263 36.8325 65.1109 38.1911L65.7823 43.0345L63.6842 43.0185L63.8185 49.1406L65.9334 49.2365L65.5473 53.6163C65.4299 54.975 65.2956 56.3337 65.1781 57.6764L64.8256 61.7206Z" fill="#DBA153"/>
<path d="M83.3898 63.8305L77.8507 63.0952C76.1722 62.8715 74.4602 62.6637 72.7817 62.4878L70.8178 62.28L68.854 62.1042C66.9405 61.9284 64.9934 61.7845 63.0799 61.6726L59.0683 61.4169L58.7326 52.4974L59.7397 52.5614C59.5551 48.1336 59.3704 43.7059 59.2026 39.2941H58.2459L57.9102 30.4226H80.3181L81.1238 39.342H80.1671C80.6203 44.4252 81.0567 49.5243 81.5099 54.6074L82.5337 54.7353L83.3898 63.8305Z" fill="#DBA153"/>
<path d="M91.0271 65.0613C90.4228 65.0613 89.785 64.9973 89.1471 64.8854C86.1762 64.342 83.1717 63.8464 80.2007 63.4149L76.7598 62.9193L75.8534 53.7921L76.8773 53.936C76.3738 49.0606 75.8702 44.1693 75.3667 39.294H74.4099L73.5371 30.3906H86.6294C87.9051 30.3906 89.1639 30.6623 90.3557 31.1898C91.4131 31.6534 92.3699 32.3087 93.2091 33.092C94.0148 33.8432 94.703 34.7384 95.2401 35.7454C95.8108 36.7844 96.1968 37.9193 96.3647 39.0862L98.8489 56.1578C99.0335 57.4686 98.9328 58.7314 98.5635 59.8823C98.1439 61.1291 97.4557 62.2 96.5157 63.0632C95.5254 63.9583 94.3337 64.5498 92.9405 64.8535C92.3027 64.9973 91.6817 65.0613 91.0271 65.0613Z" fill="#DBA153"/>
<path d="M5.49023 61.7369C5.5238 61.5771 5.54059 61.4172 5.57416 61.2414C5.72522 61.2094 5.87629 61.0496 6.06092 60.7778C6.22877 60.5061 6.39662 60.1704 6.54769 59.8028C6.69875 59.4192 6.83303 59.0515 6.95053 58.6839C7.06802 58.3162 7.13516 58.0445 7.16873 57.8686C8.25976 51.3149 9.35078 44.7452 10.4418 38.1915C10.4418 37.9837 10.4418 37.696 10.4586 37.3603C10.4586 37.0246 10.4586 36.689 10.4418 36.3693C10.425 36.0496 10.3915 35.7619 10.3075 35.5061C10.2404 35.2504 10.1397 35.1225 10.0054 35.1225C10.039 34.9626 10.0558 34.8028 10.0893 34.627C11.8853 34.627 13.6813 34.627 15.4773 34.627C15.4605 34.7868 15.427 34.9307 15.4102 35.0905C15.2423 35.0905 15.0745 35.2344 14.9234 35.5381C14.7556 35.8418 14.6045 36.1775 14.4702 36.5611C14.3359 36.9447 14.2184 37.3124 14.1345 37.664C14.0506 38.0157 14.0002 38.2395 13.9834 38.3514C13.0267 44.5854 12.07 50.8194 11.0964 57.0534C12.221 56.8776 13.3456 56.7018 14.4702 56.5259C14.5709 56.5099 14.8227 56.446 15.2087 56.3501C15.5948 56.2382 15.9976 56.1263 16.4005 56.0144C16.8033 55.8865 17.1726 55.7587 17.4915 55.5988C17.8104 55.439 17.9783 55.2791 18.0118 55.1193C18.1629 55.1033 18.2972 55.0873 18.4483 55.0713C17.9951 56.5899 17.5419 58.1244 17.0887 59.6749C13.2449 60.2344 9.38435 60.9377 5.49023 61.7369Z" fill="#DBA153"/>
<path d="M19.3379 59.3068C19.3547 59.163 19.3715 59.0031 19.3882 58.8593C19.5393 58.8433 19.6904 58.6994 19.8414 58.4597C19.9925 58.2199 20.1268 57.9162 20.2443 57.5805C20.3618 57.2448 20.4625 56.9091 20.5632 56.5735C20.6639 56.2378 20.7143 55.998 20.731 55.8222C21.4528 49.8919 22.1746 43.9456 22.9131 38.0153C22.9299 37.8554 22.9299 37.5997 22.9299 37.28C22.9131 36.9603 22.8963 36.6246 22.8795 36.3049C22.846 35.9852 22.7956 35.6975 22.7117 35.4417C22.6277 35.202 22.5103 35.0741 22.3928 35.0741C22.4095 34.9302 22.4263 34.7704 22.4431 34.6265C25.968 34.6265 29.4928 34.6265 33.0177 34.6265C33.0512 36.0172 33.0848 37.4238 33.1184 38.8145C32.9673 38.8145 32.8162 38.8145 32.6652 38.8145C32.682 38.6866 32.5477 38.5747 32.2623 38.4788C31.977 38.3829 31.6581 38.287 31.3056 38.2071C30.9363 38.1431 30.6006 38.0792 30.2649 38.0632C29.9292 38.0313 29.711 38.0313 29.6103 38.0313C28.5696 38.0472 27.529 38.0632 26.4715 38.0952C26.3037 39.5818 26.1526 41.0683 25.9847 42.5549C26.5051 42.5389 27.0254 42.507 27.529 42.491C27.6297 42.491 27.8647 42.459 28.2339 42.4111C28.6032 42.3631 28.9725 42.2992 29.3585 42.2033C29.7446 42.1073 30.0803 42.0114 30.3824 41.8836C30.6845 41.7717 30.8356 41.6278 30.8524 41.468C31.0035 41.468 31.1545 41.452 31.3056 41.452C31.1545 43.1463 31.0035 44.8567 30.8524 46.5511C30.7013 46.5671 30.5335 46.5671 30.3824 46.583C30.3992 46.4552 30.2481 46.3433 29.9628 46.2314C29.6774 46.1195 29.3417 46.0396 28.9725 46.0076C28.5864 45.9596 28.2172 45.9277 27.8647 45.9117C27.4954 45.8797 27.2772 45.8797 27.1597 45.8797C26.6394 45.9117 26.119 45.9437 25.5819 45.9756C25.2462 49.0607 24.9105 52.1617 24.5748 55.2467C25.6994 55.1189 26.824 55.007 27.9486 54.9111C28.0493 54.8951 28.3011 54.8631 28.6536 54.7992C29.0228 54.7352 29.4089 54.6393 29.8117 54.5274C30.2146 54.4155 30.5671 54.2877 30.886 54.1598C31.2049 54.0319 31.3727 53.888 31.3727 53.7282C31.5406 53.7122 31.6916 53.6962 31.8595 53.6962C31.5742 55.1029 31.3056 56.5095 31.0202 57.9162C27.1429 58.2678 23.2488 58.7314 19.3379 59.3068Z" fill="#DBA153"/>
<path d="M46.7309 52.929C46.7141 53.5044 46.5631 54.0319 46.2945 54.5434C46.0092 55.0549 45.6399 55.5025 45.1867 55.8861C44.7335 56.2698 44.1796 56.5735 43.5585 56.8132C42.9375 57.037 42.2829 57.1649 41.5947 57.1969C40.6044 57.2448 39.6141 57.2928 38.6238 57.3407C37.9356 57.3727 37.2977 57.3088 36.6935 57.1329C36.0892 56.9571 35.5857 56.7013 35.166 56.3497C34.7464 55.998 34.4275 55.5664 34.2093 55.0709C33.9911 54.5594 33.9072 54.0159 33.9575 53.4405C34.3268 48.5971 34.6793 43.7538 35.0485 38.9104C35.0989 38.319 35.25 37.7755 35.5185 37.248C35.7871 36.7205 36.1396 36.2729 36.5928 35.8893C37.0292 35.5057 37.5327 35.202 38.1202 34.9622C38.6909 34.7384 39.2952 34.6265 39.9162 34.6265C40.8226 34.6265 41.729 34.6265 42.6354 34.6265C43.2564 34.6265 43.8439 34.7384 44.3978 34.9622C44.9517 35.186 45.4217 35.4897 45.8245 35.8573C46.2274 36.225 46.5463 36.6726 46.7813 37.1841C47.0163 37.6956 47.1337 38.2231 47.117 38.7985C47.1002 39.4219 47.0834 40.0613 47.0666 40.6847C45.8749 40.6847 44.6664 40.7007 43.4746 40.7167C43.1557 40.7167 42.8368 40.7167 42.5179 40.7327C42.5179 40.6048 42.5347 40.4609 42.5347 40.333C43.1053 40.333 43.441 39.8855 43.5418 39.0223C43.5418 38.9584 43.5418 38.8944 43.5418 38.8465C43.5585 38.5747 43.4578 38.351 43.2396 38.1432C43.0382 37.9513 42.7696 37.8554 42.4843 37.8554C41.5611 37.8554 40.6547 37.8714 39.7316 37.8714C39.4294 37.8714 39.1777 37.9673 38.9595 38.1751C38.7412 38.3669 38.6405 38.6067 38.6238 38.8784C38.3384 43.6579 38.0363 48.4533 37.7509 53.2327C37.7341 53.4724 37.8349 53.6962 38.0363 53.8721C38.2377 54.0639 38.5063 54.1438 38.8252 54.1278C39.7987 54.0799 40.789 54.0319 41.7625 53.9999C42.0815 53.9839 42.3668 53.888 42.6018 53.6802C42.8368 53.4724 42.9711 53.2646 42.9711 53.0089C43.055 51.0268 43.1389 49.0447 43.2228 47.0626C43.1221 47.0626 42.9039 47.0946 42.6018 47.1425C42.2829 47.1905 41.964 47.2544 41.6283 47.3183C41.2926 47.3823 40.9904 47.4782 40.7219 47.6061C40.4533 47.7339 40.319 47.8618 40.319 47.9737C40.168 47.9737 40.0001 47.9897 39.8491 47.9897C39.9162 46.631 40.0001 45.2723 40.0673 43.9136C42.3836 43.8657 44.6831 43.8177 46.9995 43.8017C47.3184 43.8017 47.6541 43.8017 47.973 43.8017C47.973 43.9296 47.973 44.0735 47.9562 44.2013C47.3016 44.2013 46.9659 44.7608 46.9323 45.8637C46.9323 45.8478 46.9323 45.8318 46.9323 45.8158C46.8652 48.2135 46.798 50.5632 46.7309 52.929Z" fill="#DBA153"/>
<path d="M49.2148 57.021C49.2148 56.8931 49.2148 56.7493 49.2148 56.6214C49.3659 56.6214 49.5002 56.5095 49.6177 56.3017C49.752 56.0939 49.8527 55.8382 49.9198 55.5344C49.987 55.2307 50.0541 54.943 50.1212 54.6393C50.1716 54.3356 50.2052 54.1118 50.2052 53.968C50.2723 48.5492 50.3394 43.1304 50.4066 37.7116C50.4066 37.5677 50.3898 37.3439 50.3394 37.0402C50.2891 36.7365 50.2387 36.4488 50.1716 36.1451C50.1045 35.8414 50.0205 35.5856 49.903 35.3618C49.7855 35.138 49.668 35.0261 49.5338 35.0261C49.5338 34.8983 49.5338 34.7544 49.5338 34.6265C53.0586 34.6265 56.5835 34.6265 60.1083 34.6265C60.2929 35.9852 60.4776 37.3439 60.679 38.7026C60.5279 38.7026 60.3769 38.7026 60.2258 38.7026C60.2258 38.5747 60.0747 38.4628 59.7894 38.3669C59.5041 38.255 59.1684 38.1591 58.7991 38.0952C58.4298 38.0153 58.0773 37.9673 57.7416 37.9353C57.4059 37.9034 57.1877 37.8874 57.087 37.8874C56.0463 37.8874 55.0057 37.8714 53.965 37.8714C53.965 39.2621 53.965 40.6527 53.965 42.0434C54.4853 42.0434 54.9889 42.0434 55.5092 42.0594C55.6099 42.0594 55.8449 42.0434 56.1974 42.0274C56.5499 41.9954 56.9192 41.9475 57.3052 41.8836C57.6745 41.8196 58.0102 41.7237 58.2955 41.6278C58.5809 41.5319 58.7319 41.404 58.7319 41.2442C58.883 41.2442 59.0341 41.2442 59.1851 41.2442C59.2187 42.8906 59.2523 44.521 59.3026 46.1674C59.1516 46.1674 59.0005 46.1674 58.8327 46.1515C58.8327 46.0396 58.6816 45.9117 58.3795 45.7838C58.0773 45.6559 57.7416 45.56 57.3556 45.4961C56.9695 45.4321 56.6002 45.3682 56.231 45.3203C55.8617 45.2723 55.6267 45.2403 55.526 45.2403C55.0057 45.2403 54.4853 45.2243 53.965 45.2243C53.965 48.1016 53.9818 50.9948 53.9818 53.872C55.0896 53.888 56.1974 53.92 57.322 53.952C57.4227 53.952 57.6577 53.952 58.027 53.936C58.3795 53.92 58.7655 53.872 59.1516 53.8241C59.5376 53.7602 59.8901 53.6802 60.1922 53.6003C60.4944 53.5044 60.6454 53.3925 60.6454 53.2327C60.8133 53.2327 60.9643 53.2486 61.1322 53.2486C61.0147 54.6073 60.8972 55.9501 60.7629 57.3087C56.9192 57.085 53.0754 57.005 49.2148 57.021Z" fill="#DBA153"/>
<path d="M77.2638 55.982C77.3477 56.3177 77.4316 56.6534 77.5491 57.021C77.6498 57.3887 77.7841 57.7084 77.9352 57.9961C78.0862 58.2838 78.2541 58.4437 78.4387 58.4597C78.4555 58.6035 78.4723 58.7474 78.4723 58.8912C76.7434 58.6675 75.0146 58.4597 73.3025 58.2678C71.2883 53.2007 69.3413 48.2614 67.4613 43.4341C67.6628 47.1745 67.8642 50.8989 68.0824 54.6393C68.0992 54.8311 68.1327 55.0709 68.1999 55.3586C68.267 55.6623 68.3509 55.966 68.4684 56.2857C68.5692 56.6054 68.6866 56.8772 68.8041 57.101C68.9216 57.3247 69.0727 57.4526 69.2573 57.4686C69.2573 57.6125 69.2741 57.7403 69.2741 57.8842C67.3103 57.7084 65.3296 57.5645 63.3658 57.4366C63.3658 57.2928 63.349 57.1649 63.349 57.021C63.5337 57.037 63.6847 56.9091 63.7854 56.6694C63.9029 56.4136 64.0036 56.1259 64.0708 55.8062C64.1379 55.4705 64.1883 55.1668 64.2218 54.8631C64.2386 54.5594 64.2554 54.3676 64.2554 54.2717C64.0372 48.8369 63.8022 43.3861 63.584 37.9513C63.584 37.8554 63.5504 37.6476 63.5169 37.3279C63.4665 37.0082 63.3994 36.6726 63.2987 36.3369C63.198 36.0012 63.0972 35.6975 62.963 35.4417C62.8287 35.186 62.6944 35.0581 62.5266 35.0581C62.5266 34.9142 62.5098 34.7864 62.5098 34.6425C64.1043 34.6425 65.6989 34.6425 67.2935 34.6425C69.0727 39.294 70.9358 44.0255 72.8493 48.8848C72.5808 45.2723 72.3122 41.6598 72.0436 38.0472C72.0436 37.9513 72.0101 37.7435 71.9429 37.4079C71.8926 37.0722 71.8087 36.7365 71.6912 36.3848C71.5905 36.0332 71.4562 35.7295 71.3219 35.4577C71.1876 35.186 71.0365 35.0581 70.8687 35.0581C70.8519 34.9142 70.8519 34.7704 70.8351 34.6265C72.6311 34.6265 74.4271 34.6265 76.2231 34.6265C76.2399 34.7704 76.2567 34.9142 76.2567 35.0581C76.0888 35.0581 75.9713 35.202 75.8706 35.4737C75.7867 35.7455 75.7196 36.0651 75.686 36.4168C75.6524 36.7685 75.6189 37.1201 75.6021 37.4558C75.5853 37.7915 75.5685 38.0153 75.5853 38.1112C75.5853 38.0952 75.5853 38.0792 75.5853 38.0632C76.0888 43.8497 76.5924 49.6361 77.1127 55.4386C77.1127 55.4066 77.1127 55.3746 77.0959 55.3426C77.1463 55.4386 77.1799 55.6464 77.2638 55.982Z" fill="#DBA153"/>
<path d="M80.8717 59.2269C80.8549 59.083 80.8381 58.9392 80.8213 58.7793C80.9724 58.7953 81.0899 58.7154 81.1906 58.5236C81.2913 58.3318 81.3752 58.092 81.4088 57.8043C81.4424 57.5166 81.476 57.2288 81.5095 56.9091C81.5263 56.6054 81.5431 56.3497 81.5599 56.1579C80.9388 50.0677 80.301 43.9775 79.68 37.9034C79.6296 37.7116 79.5625 37.4558 79.4785 37.1361C79.3946 36.8164 79.3107 36.5127 79.21 36.193C79.1093 35.8733 78.9918 35.6176 78.8575 35.3938C78.7232 35.186 78.5889 35.0741 78.4546 35.0741C78.4379 34.9302 78.4211 34.7864 78.4043 34.6265C81.1403 34.6265 83.8762 34.6265 86.5954 34.6265C87.2164 34.6265 87.8375 34.7544 88.4249 35.0261C89.0292 35.2979 89.5663 35.6495 90.0363 36.0971C90.5063 36.5447 90.9259 37.0882 91.2616 37.6956C91.5973 38.319 91.8155 38.9744 91.9162 39.6617C92.7387 45.3522 93.5612 51.0428 94.3836 56.7333C94.4843 57.4206 94.434 58.044 94.2493 58.6035C94.0647 59.163 93.7626 59.6265 93.3765 59.9782C92.9737 60.3299 92.4869 60.5856 91.8994 60.7135C91.312 60.8414 90.6573 60.8414 89.9524 60.7135C86.9479 60.17 83.9098 59.6585 80.8717 59.2269ZM85.3869 56.3976C86.7632 56.5894 88.1396 56.8132 89.516 57.021C89.8349 57.069 90.1034 57.005 90.3216 56.8132C90.5231 56.6214 90.607 56.3816 90.5734 56.1099C89.8349 50.5632 89.0963 45.0325 88.3578 39.4859C88.3074 39.1662 88.1732 38.8944 87.9214 38.6866C87.6696 38.4628 87.4011 38.3509 87.0989 38.3509C85.8233 38.319 84.5476 38.287 83.2887 38.2391C83.9937 44.2972 84.6987 50.3394 85.3869 56.3976Z" fill="#DBA153"/>
<path d="M80.7364 21.1676C80.5518 20.9758 80.3336 20.8159 80.0818 20.72L57.0528 12.0244C57.8081 11.2571 58.2781 10.2661 58.2949 9.25902C58.3284 8.17207 58.0263 5.59854 57.5899 4.04802C56.801 1.25071 52.6383 0.0198909 50.6913 0.00390625C50.6745 0.00390625 50.6745 0.00390625 50.6577 0.00390625C50.6577 0.00390625 50.6577 0.00390625 50.6409 0.00390625C48.6771 0.0198909 44.5479 1.25071 43.759 4.04802C43.3226 5.61452 43.0205 8.17207 43.0541 9.25902C43.0876 10.2501 43.5408 11.2411 44.2962 12.0084L21.2504 20.704C20.9986 20.7999 20.7636 20.9598 20.5958 21.1516C20.2433 21.5512 11.834 31.19 11.834 49.9879C11.834 57.5007 14.1839 64.7098 18.6487 70.8319C23.0464 76.8901 29.1897 81.4297 36.424 84.0033C38.3039 87.3441 41.9463 92.5071 48.9288 99.0129C48.9456 99.0289 48.9624 99.0448 48.9624 99.0448L49.5499 99.5563C49.8688 99.8281 50.2716 99.9719 50.6913 99.9719C51.1109 99.9719 51.4969 99.8281 51.8326 99.5563L52.4201 99.0448C52.4369 99.0288 52.4537 99.0129 52.4537 99.0129C59.4362 92.5071 63.0954 87.3281 64.9585 83.9873C72.1928 81.3978 78.3194 76.8581 82.717 70.8159C87.165 64.6778 89.5317 57.4847 89.5317 49.9719C89.515 31.206 81.1057 21.5672 80.7364 21.1676Z" fill="#DBA153"/>
<path d="M50.6755 18.2263L28.6032 27.913C17.6762 47.6061 32.212 69.0575 50.6755 69.0575C69.139 69.0575 83.6748 47.6061 72.7309 27.913L50.6755 18.2263Z" fill="#C3193D"/>
<path d="M50.6754 14.0705L24.0209 24.5404L25.3804 25.9471C16.199 40.0456 18.5993 75.9311 50.6754 75.9311V79.9912C88.9788 79.9912 87.8374 34.2112 77.33 24.5245L50.6754 14.0705ZM50.6754 72.7022C21.5535 72.7022 18.2972 37.7118 27.0925 27.114L50.6754 16.5641L74.2584 27.114L75.3158 26.3787C85.5714 39.7259 79.7974 72.7022 50.6754 72.7022Z" fill="#A7B0B5"/>
<path d="M50.6758 75.931C82.5841 75.931 86.9985 40.2533 75.8197 25.947L75.3162 26.3786C84.4304 46.3434 76.5079 72.1747 50.6758 72.7021V75.931Z" fill="white"/>
<path d="M74.2583 27.1139L50.6754 16.564L27.0925 27.1139C18.2971 37.7117 21.5534 72.7021 50.6754 72.7021C79.7974 72.7021 85.5714 39.7258 75.3158 26.3786L74.2583 27.1139ZM50.6754 69.0576C32.2119 69.0576 17.6761 47.6062 28.6031 27.9131L50.6754 18.2264L72.7309 27.9131C83.6747 47.6062 69.1221 69.0576 50.6754 69.0576Z" fill="#002F58"/>
<path d="M25.3811 25.9471L50.6761 15.3493V14.55L77.3306 24.5404L50.6761 14.0705L24.0215 24.5404L25.3811 25.9471Z" fill="white"/>
<path d="M50.7596 11.433H50.7261L21.9566 22.3025C21.9566 22.3025 13.5977 31.6696 13.5977 50.0999C13.5977 68.5302 28.6874 84.9304 50.7596 84.9304C72.8319 84.9304 87.9216 68.5302 87.9216 50.0999C87.9216 31.6696 79.5627 22.3025 79.5627 22.3025L50.7596 11.433ZM50.7429 80.0871V76.027C18.6667 76.027 16.2665 40.1414 25.4479 26.027L24.0883 24.6203L50.7429 14.1504L77.3974 24.6203C87.8881 34.323 89.0462 80.0871 50.7429 80.0871Z" fill="#002F58"/>
<path d="M50.6745 7.56482C50.4059 7.56482 50.1206 7.80459 50.1206 8.02837V8.7317L49.382 8.81162C49.3485 8.81162 49.3149 8.82761 49.2813 8.82761C49.1303 9.03541 48.8449 9.24321 48.3078 9.40306L48.291 9.59487C49.0128 9.32313 49.8856 9.17927 50.6577 9.16329C51.4298 9.16329 52.3026 9.30715 53.0244 9.59487L53.0076 9.40306C52.4705 9.22722 52.1851 9.01942 52.0341 8.82761C52.0005 8.82761 51.9669 8.81162 51.9334 8.81162L51.1948 8.7317V8.02837C51.2284 7.80459 50.943 7.56482 50.6745 7.56482Z" fill="#C3193D"/>
<path d="M52.9421 11.7047C52.875 11.4809 52.7575 11.2572 52.5057 11.1453C52.2036 11.0174 52.0525 10.6018 51.9854 10.2821C51.5825 10.1862 51.1293 10.1382 50.6761 10.1223C50.2229 10.1223 49.7697 10.1862 49.3669 10.2821C49.2998 10.6018 49.1487 11.0174 48.8466 11.1453C48.5948 11.2412 48.4773 11.4809 48.4102 11.7047C49.1151 11.4809 49.9376 11.3531 50.6593 11.3371C51.4147 11.3371 52.2204 11.465 52.9421 11.7047Z" fill="#C3193D"/>
<path d="M53.2936 20.6721C52.6557 20.3844 51.6318 20.1446 50.6751 20.1446C49.7351 20.1446 48.6945 20.3844 48.0566 20.6721C48.9127 20.6241 49.7855 20.6081 50.6583 20.6081C51.5647 20.6081 52.4375 20.6401 53.2936 20.6721Z" fill="#C3193D"/>
<path d="M53.2933 18.9616C52.8737 18.7538 52.4037 18.2103 52.303 17.2832C51.7995 17.1713 51.2456 17.0914 50.6749 17.0914C50.1042 17.0914 49.5503 17.1713 49.0467 17.2832C48.946 18.2103 48.476 18.7538 48.0564 18.9616C47.8046 19.0895 47.7375 19.4571 47.7207 19.7768C48.6103 19.3932 49.7853 19.1854 50.6749 19.1854C51.5477 19.1854 52.7394 19.3932 53.629 19.7768C53.629 19.4571 53.5451 19.0895 53.2933 18.9616Z" fill="#C3193D"/>
<path d="M46.6463 9.33897C46.6631 8.87542 46.8645 8.0602 48.0395 7.54869C48.2241 7.46877 48.4087 7.40483 48.5766 7.35688C48.8787 6.55764 49.718 5.96621 50.6747 5.96621C51.6315 5.96621 52.4539 6.55764 52.7728 7.35688C52.9407 7.40483 53.1253 7.46877 53.31 7.54869C54.4849 8.0602 54.6863 8.87542 54.7031 9.33897L54.7367 9.67465C54.8542 9.49882 54.9381 9.32299 54.9381 9.16314C54.9717 8.33194 54.6695 6.06212 54.3338 4.86327C54.1492 4.19192 52.2693 3.29677 50.9097 3.20087C49.9697 3.32874 49.9026 4.84729 49.9026 5.34281C49.9026 5.34281 48.6605 5.40675 48.2409 6.82938C48.2409 6.82938 46.3945 6.73348 46.3945 9.16314C46.3945 9.32299 46.4785 9.49882 46.596 9.67465L46.6463 9.33897Z" fill="#A7B0B5"/>
<path d="M47.9551 16.612C48.8111 16.2923 49.8686 16.1325 50.6742 16.1325C51.4799 16.1325 52.5374 16.2923 53.3934 16.612C53.3263 15.8927 52.8395 15.7968 52.5374 15.605C52.2688 15.4291 52.2856 15.2213 52.2856 14.8697C51.7821 14.7578 51.2282 14.6779 50.6575 14.6779C50.0868 14.6779 49.5161 14.7578 49.0293 14.8697C49.0461 15.2213 49.0629 15.4291 48.7775 15.605C48.509 15.7968 48.0222 15.8927 47.9551 16.612Z" fill="#C3193D"/>
<path d="M50.6756 13.7186C50.6756 13.7186 50.6924 13.7186 50.6756 13.7186C51.3974 13.7186 52.3206 13.8465 53.1095 14.1022C52.9416 13.5588 52.5388 13.4628 52.2031 13.1432C52.0017 12.9513 51.9681 12.6796 51.9849 12.4558C51.5652 12.3759 51.1288 12.312 50.6924 12.312C50.256 12.312 49.8028 12.3599 49.4 12.4558C49.4168 12.6796 49.3664 12.9513 49.1818 13.1432C48.8461 13.4628 48.4432 13.5588 48.2754 14.1022C49.0475 13.8465 49.9539 13.7186 50.6756 13.7186Z" fill="#C3193D"/>
<path d="M38.0351 29.0319C38.0015 28.984 37.9847 28.936 37.9512 28.9041C37.968 28.952 38.0015 29 38.0351 29.0319Z" fill="#A7B0B5"/>
<path d="M50.6761 22.2065C42.2332 22.2065 35.0996 24.3005 35.0996 26.7782C35.0996 28.9361 37.1474 29.9591 38.1209 30.3267C38.9266 29.5435 40.924 28.2807 45.5231 28.2807L45.6406 27.5934C43.4921 27.4975 41.9815 27.8651 41.9815 27.8651C41.1758 26.3306 37.097 27.5454 38.0034 29.048C38.0034 29.048 36.3921 28.1688 37.0467 26.7782C37.567 25.6592 39.5141 24.812 42.6696 24.1727C45.0867 23.6931 48.1416 23.3894 50.6425 23.3894C53.1603 23.3894 56.2151 23.6931 58.6154 24.1727C61.771 24.812 63.718 25.6592 64.2384 26.7782C64.893 28.1688 63.2816 29.048 63.2816 29.048C63.6509 28.5684 63.4327 27.3856 63.3488 27.2097C62.4927 25.5793 55.9298 24.3485 50.6425 24.3485C50.0215 24.3485 49.4004 24.3645 48.7626 24.3964C52.6903 24.3964 54.5366 25.7551 55.1913 26.4105C55.2584 26.4585 55.3087 26.5224 55.3591 26.5863C55.4598 26.6822 55.4766 26.7462 55.4766 26.7462L55.527 26.8261L55.7787 28.2807C60.3778 28.2807 62.392 29.5595 63.1809 30.3267C64.1544 29.9591 66.2022 28.9361 66.2022 26.7782C66.2694 24.3005 59.1357 22.2065 50.6761 22.2065Z" fill="#A7B0B5"/>
<path d="M55.5092 26.715C55.5092 26.715 55.4923 26.6827 55.4414 26.6343C55.4584 26.6666 55.4923 26.6989 55.5092 26.715Z" fill="#A7B0B5"/>
<path d="M54.8045 28.2647L54.6031 27.1778C54.3345 26.8741 53.5121 26.4265 51.1118 26.3785C51.2125 32.0531 52.1189 78.8402 52.1189 79.3197C52.1189 79.8472 51.6825 80.6145 50.6922 80.6145C49.7019 80.6145 49.2655 79.8312 49.2655 79.3197C49.2655 78.8242 50.1551 32.0371 50.2726 26.3785C47.8555 26.4265 47.0331 26.8741 46.7645 27.1778L46.5631 28.2647L38.0195 79.6234C38.1874 80.103 43.5418 88.8945 50.6922 93.3862C57.4901 88.9585 63.197 80.103 63.3649 79.6234L54.8045 28.2647Z" fill="#A7B0B5"/>
<path d="M50.6761 92.1874C50.6761 92.1874 42.4346 85.6337 38.9434 79.4796L43.6432 79.064L48.2422 27.0819C48.2422 27.0819 48.7122 26.906 49.82 26.8261L48.024 79.9431C48.024 79.9431 48.5108 81.7654 50.6929 81.7654V92.1874H50.6761Z" fill="white"/>
<path d="M50.675 92.1874C50.675 92.1874 58.9164 85.6337 62.4077 79.4796L57.7079 79.064L53.1088 27.0819C53.1088 27.0819 52.6388 26.906 51.531 26.8261L53.327 79.9431C53.327 79.9431 52.8403 81.7654 50.6582 81.7654V92.1874H50.675Z" fill="#002F58"/>
<path d="M50.6758 22.2065V22.734C56.047 22.734 65.0437 23.853 65.0437 27.1298C65.0437 29.032 63.1806 29.7353 63.1806 29.7353L63.2142 30.3108C63.2142 30.3108 66.2355 29.3517 66.2355 26.7622C66.2355 24.1727 58.7494 22.2065 50.6758 22.2065Z" fill="white"/>
<path d="M38.1203 30.3109L38.0196 29.0321C38.0196 29.0321 36.9118 28.1529 36.9118 27.4496C36.9118 26.2028 39.9163 23.3735 50.6755 23.3735V22.7341C42.3502 22.7341 35.9551 24.8921 35.9551 27.4336C35.9551 28.9681 38.1203 30.3109 38.1203 30.3109Z" fill="white"/>
<path d="M50.6914 5.96616V5.2948C50.6914 5.2948 52.5545 5.26283 52.9406 6.74941C52.9406 6.74941 53.4106 6.66948 53.998 7.26091C53.998 7.26091 53.5449 5.23086 53.2595 4.63943C52.7392 3.60043 50.9264 3.2168 50.9264 3.2168C50.9264 3.2168 54.0988 3.44058 54.4177 5.11897C54.7366 6.78137 55.3241 10.0422 55.3241 10.0422L54.2498 10.9374C54.2498 10.9374 52.7392 8.21999 52.7224 8.14007C52.6888 8.04416 50.6914 5.96616 50.6914 5.96616Z" fill="white"/>
<path d="M50.6753 10.1381C51.5145 10.2021 51.7999 10.33 51.9006 10.6177C52.0013 10.9054 52.2867 11.2091 52.4545 11.2571C52.6224 11.305 52.7398 11.7846 52.7398 11.7846L50.6753 12.2961C50.6753 12.2961 51.5985 12.376 51.6992 12.6477C51.7999 12.9355 52.0349 13.2711 52.3034 13.431C52.5888 13.5908 52.7566 13.8785 52.7231 14.1503L50.6585 14.6458C50.6585 14.6458 51.7999 14.7737 52.0013 15.0774C52.2027 15.3971 52.1859 15.6369 52.5049 15.8127C52.8238 15.9885 53.1763 16.2762 53.0755 16.6918L50.6417 17.0595C50.6417 17.0595 51.8167 17.2034 52.0349 17.587C52.2531 17.9706 52.5552 18.658 52.8741 18.9137C53.1763 19.1695 53.0923 19.8089 53.0923 19.8089L50.541 20.1285C50.541 20.1285 52.337 20.4163 52.7566 20.7679L54.2673 20.8798L53.6462 9.11512L51.0278 7.0531L50.6753 7.54863C50.6753 7.54863 51.0278 7.6765 51.0278 8.14006C51.0278 8.60361 51.0446 8.93929 51.0446 8.93929C51.0446 8.93929 52.0181 8.8274 52.6559 9.51474L50.6753 10.1381Z" fill="white"/>
<path d="M62.1398 22.0467C60.3271 21.5192 58.1282 21.1196 55.7951 20.8798L54.9223 11.6087C55.879 11.1291 56.6008 10.202 56.6176 9.22698C56.6511 8.2679 56.349 5.83823 55.963 4.46355C55.4594 2.62531 52.2199 1.60229 50.6925 1.60229C49.165 1.60229 45.9255 2.62531 45.422 4.46355C45.0359 5.83823 44.7338 8.2679 44.7674 9.22698C44.8009 10.1861 45.5227 11.1291 46.4627 11.6087L45.5898 20.8798C43.2399 21.1196 41.0579 21.5192 39.2451 22.0467C34.4446 23.4533 33.4375 25.4034 33.4375 26.7781C33.4375 28.4565 34.2767 29.8951 35.8713 30.9661C37.0127 31.7334 38.1709 32.0211 38.2212 32.0371L38.9094 32.2129L39.178 31.6534C39.2787 31.5256 40.4033 30.1029 44.6163 29.9111L36.3245 79.7513L36.3749 79.9111C36.4588 80.1988 38.5401 87.1202 50.1386 97.9258L50.726 98.4373L51.3135 97.9258C62.912 87.1202 64.9933 80.1988 65.0772 79.9111L65.1276 79.7513L56.8358 29.9111C61.0488 30.1029 62.1734 31.5256 62.2741 31.6534L62.5427 32.2129L63.2309 32.0371C63.2812 32.0211 64.4226 31.7334 65.5808 30.9661C67.1753 29.9111 68.0146 28.4565 68.0146 26.7781C67.9475 25.3875 66.9404 23.4533 62.1398 22.0467ZM46.4123 9.17902C46.4123 6.76534 48.2587 6.84526 48.2587 6.84526C48.6783 5.42263 49.9204 5.35869 49.9204 5.35869C49.9204 4.86316 49.9875 3.34462 50.9275 3.21675C52.3038 3.31265 54.167 4.20779 54.3516 4.87915C54.6873 6.078 54.9727 8.3638 54.9559 9.17902C54.9559 9.33887 54.8719 9.5147 54.7544 9.69053L54.7209 9.35485C54.7041 8.8913 54.5027 8.07608 53.3277 7.56457C53.1431 7.48465 52.9585 7.42071 52.7906 7.37276C52.4885 6.57352 51.6492 5.98209 50.6925 5.98209C49.7357 5.98209 48.9133 6.57352 48.5944 7.37276C48.4265 7.42071 48.2419 7.48465 48.0572 7.56457C46.8823 8.07608 46.6809 8.8913 46.6641 9.35485L46.6305 9.69053C46.4962 9.5147 46.4123 9.33887 46.4123 9.17902ZM50.6757 20.608C49.8029 20.608 48.9301 20.64 48.0572 20.672C48.6951 20.3843 49.7189 20.1445 50.6757 20.1445C51.6157 20.1445 52.6563 20.3843 53.2942 20.672C52.4381 20.64 51.5653 20.608 50.6757 20.608C50.6925 20.608 50.6757 20.608 50.6757 20.608ZM50.6925 19.2014C50.6925 19.2014 50.6757 19.2014 50.6925 19.2014C50.6757 19.2014 50.6757 19.2014 50.6925 19.2014C49.8029 19.2014 48.6111 19.4092 47.7215 19.7928C47.7383 19.4731 47.8222 19.1055 48.0572 18.9776C48.4769 18.7698 48.9468 18.2263 49.0475 17.2992C49.5511 17.1873 50.105 17.1074 50.6757 17.1074C51.2464 17.1074 51.8003 17.1873 52.3038 17.2992C52.4045 18.2263 52.8745 18.7698 53.2942 18.9776C53.5459 19.1055 53.6131 19.4731 53.6299 19.7928C52.757 19.3932 51.5653 19.2014 50.6925 19.2014ZM51.9681 8.81137C52.0017 8.81137 52.0353 8.82736 52.0688 8.82736C52.2199 9.03516 52.5053 9.24296 53.0424 9.40281L53.0592 9.59462C52.3374 9.32288 51.4646 9.17902 50.6925 9.16304C49.9204 9.16304 49.0475 9.3069 48.3258 9.59462L48.3426 9.40281C48.8797 9.22697 49.165 9.01917 49.3161 8.82736C49.3497 8.82736 49.3832 8.81137 49.4168 8.81137L50.1554 8.73145V8.02813C50.1554 7.80434 50.4239 7.56457 50.7093 7.56457C50.9778 7.56457 51.2632 7.80434 51.2632 8.02813V8.73145L51.9681 8.81137ZM50.6757 11.3369C49.9372 11.3369 49.1315 11.4648 48.4265 11.7046C48.4936 11.4808 48.6111 11.257 48.8629 11.1451C49.165 11.0173 49.3161 10.6017 49.3832 10.282C49.7861 10.1861 50.2393 10.1381 50.6925 10.1221C51.1457 10.1221 51.5989 10.1861 52.0017 10.282C52.0688 10.6017 52.2199 11.0173 52.522 11.1451C52.7738 11.241 52.8913 11.4808 52.9585 11.7046C52.2199 11.4648 51.4142 11.3369 50.6757 11.3369C50.6925 11.3369 50.6757 11.3369 50.6757 11.3369ZM49.165 13.1272C49.3665 12.9354 49.4 12.6637 49.3832 12.4399C49.8029 12.36 50.2393 12.296 50.6757 12.296C51.1121 12.296 51.5653 12.344 51.9681 12.4399C51.9514 12.6637 52.0017 12.9354 52.1863 13.1272C52.522 13.4469 52.9249 13.5428 53.0927 14.0863C52.3038 13.8465 51.3807 13.7027 50.6757 13.7027C49.9707 13.7027 49.0475 13.8306 48.2587 14.0863C48.4265 13.5428 48.8126 13.4469 49.165 13.1272ZM48.7958 15.6049C49.0643 15.429 49.0475 15.2212 49.0475 14.8696C49.5511 14.7577 50.105 14.6777 50.6757 14.6777C51.2464 14.6777 51.8171 14.7577 52.3038 14.8696C52.2871 15.2212 52.2703 15.429 52.5556 15.6049C52.8577 15.7967 53.3277 15.8926 53.4116 16.6119C52.5556 16.2922 51.4982 16.1323 50.6925 16.1323C49.8868 16.1323 48.8293 16.2922 47.9733 16.6119C48.0237 15.8926 48.5104 15.7967 48.7958 15.6049ZM63.3484 79.6234C63.1805 80.1029 57.4736 88.9584 50.6757 93.3862C43.5253 88.9105 38.1709 80.1029 38.003 79.6234L46.5634 28.2647L46.7648 27.1777C47.0333 26.874 47.8558 26.4265 50.2729 26.3785C50.1721 32.0531 49.2658 78.8401 49.2658 79.3197C49.2658 79.8472 49.7022 80.6144 50.6925 80.6144C51.6828 80.6144 52.1192 79.8312 52.1192 79.3197C52.1192 78.8242 51.2296 32.0371 51.1121 26.3785C53.5124 26.4265 54.3348 26.874 54.6034 27.1777L54.8048 28.2647L63.3484 79.6234ZM63.2309 30.3107C62.4252 29.5275 60.4278 28.2647 55.8287 28.2647L55.5769 26.8101L55.5266 26.7302C55.5098 26.6982 55.4762 26.6662 55.4594 26.6502C55.5098 26.6982 55.5266 26.7302 55.5266 26.7302C55.5266 26.7302 55.493 26.6662 55.4091 26.5703C55.3587 26.5064 55.2916 26.4584 55.2412 26.3945C54.5866 25.7551 52.7402 24.3964 48.8126 24.3804C49.4504 24.3485 50.0882 24.3325 50.6925 24.3325C55.9798 24.3325 62.5427 25.5633 63.3987 27.1937C63.4994 27.3696 63.7176 28.5684 63.3316 29.032C63.3316 29.032 64.9429 28.1528 64.2883 26.7621C63.768 25.6432 61.8209 24.796 58.6654 24.1566C56.2483 23.6771 53.1934 23.3734 50.6925 23.3734C48.1747 23.3734 45.1199 23.6771 42.7196 24.1566C39.564 24.796 37.617 25.6432 37.0966 26.7621C36.442 28.1528 38.0534 29.032 38.0534 29.032C38.0198 29 38.003 28.952 37.9694 28.9041C38.003 28.952 38.0198 29 38.0534 29.032C37.147 27.5294 41.2257 26.3146 42.0314 27.8491C42.0314 27.8491 43.5421 27.4974 45.6905 27.5774L45.5731 28.2647C40.974 28.2647 38.9598 29.5435 38.1709 30.3107C37.1973 29.9431 35.1496 28.9201 35.1496 26.7621C35.1496 24.2845 42.2832 22.2065 50.726 22.1905C59.1689 22.1905 66.3025 24.2845 66.3025 26.7621C66.269 28.9361 64.2044 29.9591 63.2309 30.3107Z" fill="#002F58"/>
<path d="M5.49023 61.7371C5.5238 61.5773 5.54059 61.4174 5.57416 61.2416C5.72522 61.2096 5.87629 61.0498 6.06092 60.778C6.22877 60.5063 6.39662 60.1706 6.54769 59.803C6.69875 59.4193 6.83303 59.0517 6.95053 58.684C7.06802 58.3164 7.13516 58.0447 7.16873 57.8688C8.25976 51.3151 9.35078 44.7454 10.4418 38.1917C10.4418 37.9839 10.4418 37.6962 10.4586 37.3605C10.4586 37.0248 10.4586 36.6892 10.4418 36.3695C10.425 36.0498 10.3915 35.762 10.3075 35.5063C10.2404 35.2505 10.1397 35.1227 10.0054 35.1227C10.039 34.9628 10.0558 34.803 10.0893 34.6271C11.8853 34.6271 13.6813 34.6271 15.4773 34.6271C15.4605 34.787 15.427 34.9308 15.4102 35.0907C15.2423 35.0907 15.0745 35.2346 14.9234 35.5383C14.7556 35.842 14.6045 36.1776 14.4702 36.5613C14.3359 36.9449 14.2184 37.3126 14.1345 37.6642C14.0506 38.0159 14.0002 38.2397 13.9834 38.3516C13.0267 44.5856 12.07 50.8196 11.0964 57.0536C12.221 56.8778 13.3456 56.7019 14.4702 56.5261C14.5709 56.5101 14.8227 56.4462 15.2087 56.3503C15.5948 56.2384 15.9976 56.1265 16.4005 56.0146C16.8033 55.8867 17.1726 55.7588 17.4915 55.599C17.8104 55.4392 17.9783 55.2793 18.0118 55.1195C18.1629 55.1035 18.2972 55.0875 18.4483 55.0715C17.9951 56.59 17.5419 58.1246 17.0887 59.6751C13.2449 60.2346 9.38435 60.9379 5.49023 61.7371Z" fill="black"/>
<path d="M19.3379 59.307C19.3547 59.1632 19.3715 59.0033 19.3882 58.8594C19.5393 58.8435 19.6904 58.6996 19.8414 58.4598C19.9925 58.2201 20.1268 57.9164 20.2443 57.5807C20.3618 57.245 20.4625 56.9093 20.5632 56.5736C20.6639 56.238 20.7143 55.9982 20.731 55.8224C21.4528 49.8921 22.1746 43.9458 22.9131 38.0155C22.9299 37.8556 22.9299 37.5999 22.9299 37.2802C22.9131 36.9605 22.8963 36.6248 22.8795 36.3051C22.846 35.9854 22.7956 35.6977 22.7117 35.4419C22.6277 35.2022 22.5103 35.0743 22.3928 35.0743C22.4095 34.9304 22.4263 34.7706 22.4431 34.6267C25.968 34.6267 29.4928 34.6267 33.0177 34.6267C33.0512 36.0174 33.0848 37.424 33.1184 38.8147C32.9673 38.8147 32.8162 38.8147 32.6652 38.8147C32.682 38.6868 32.5477 38.5749 32.2623 38.479C31.977 38.3831 31.6581 38.2872 31.3056 38.2073C30.9363 38.1433 30.6006 38.0794 30.2649 38.0634C29.9292 38.0314 29.711 38.0314 29.6103 38.0314C28.5696 38.0474 27.529 38.0634 26.4715 38.0954C26.3037 39.582 26.1526 41.0685 25.9847 42.5551C26.5051 42.5391 27.0254 42.5071 27.529 42.4912C27.6297 42.4912 27.8647 42.4592 28.2339 42.4112C28.6032 42.3633 28.9725 42.2993 29.3585 42.2034C29.7446 42.1075 30.0803 42.0116 30.3824 41.8837C30.6845 41.7718 30.8356 41.628 30.8524 41.4681C31.0035 41.4681 31.1545 41.4522 31.3056 41.4522C31.1545 43.1465 31.0035 44.8569 30.8524 46.5513C30.7013 46.5672 30.5335 46.5672 30.3824 46.5832C30.3992 46.4554 30.2481 46.3435 29.9628 46.2316C29.6774 46.1197 29.3417 46.0397 28.9725 46.0078C28.5864 45.9598 28.2172 45.9279 27.8647 45.9119C27.4954 45.8799 27.2772 45.8799 27.1597 45.8799C26.6394 45.9119 26.119 45.9438 25.5819 45.9758C25.2462 49.0609 24.9105 52.1619 24.5748 55.2469C25.6994 55.119 26.824 55.0071 27.9486 54.9112C28.0493 54.8953 28.3011 54.8633 28.6536 54.7993C29.0228 54.7354 29.4089 54.6395 29.8117 54.5276C30.2146 54.4157 30.5671 54.2878 30.886 54.16C31.2049 54.0321 31.3727 53.8882 31.3727 53.7284C31.5406 53.7124 31.6916 53.6964 31.8595 53.6964C31.5742 55.1031 31.3056 56.5097 31.0202 57.9163C27.1429 58.268 23.2488 58.7316 19.3379 59.307Z" fill="black"/>
<path d="M46.7309 52.9291C46.7141 53.5046 46.5631 54.0321 46.2945 54.5436C46.0091 55.0551 45.6399 55.5027 45.1867 55.8863C44.7335 56.2699 44.1796 56.5736 43.5585 56.8134C42.9375 57.0372 42.2829 57.1651 41.5947 57.197C40.6044 57.245 39.6141 57.2929 38.6238 57.3409C37.9356 57.3729 37.2977 57.3089 36.6935 57.1331C36.0892 56.9573 35.5857 56.7015 35.166 56.3499C34.7464 55.9982 34.4275 55.5666 34.2093 55.0711C33.9911 54.5596 33.9072 54.0161 33.9575 53.4406C34.3268 48.5973 34.6793 43.7539 35.0485 38.9106C35.0989 38.3192 35.25 37.7757 35.5185 37.2482C35.7871 36.7207 36.1396 36.2731 36.5928 35.8895C37.0292 35.5059 37.5327 35.2022 38.1202 34.9624C38.6909 34.7386 39.2951 34.6267 39.9162 34.6267C40.8226 34.6267 41.729 34.6267 42.6354 34.6267C43.2564 34.6267 43.8439 34.7386 44.3978 34.9624C44.9517 35.1862 45.4217 35.4899 45.8245 35.8575C46.2274 36.2252 46.5463 36.6727 46.7813 37.1843C47.0162 37.6958 47.1337 38.2233 47.117 38.7987C47.1002 39.4221 47.0834 40.0615 47.0666 40.6849C45.8749 40.6849 44.6663 40.7009 43.4746 40.7169C43.1557 40.7169 42.8368 40.7169 42.5179 40.7328C42.5179 40.605 42.5347 40.4611 42.5347 40.3332C43.1053 40.3332 43.441 39.8857 43.5418 39.0225C43.5418 38.9586 43.5418 38.8946 43.5418 38.8467C43.5585 38.5749 43.4578 38.3511 43.2396 38.1433C43.0382 37.9515 42.7696 37.8556 42.4843 37.8556C41.5611 37.8556 40.6547 37.8716 39.7316 37.8716C39.4294 37.8716 39.1777 37.9675 38.9595 38.1753C38.7412 38.3671 38.6405 38.6069 38.6238 38.8786C38.3384 43.658 38.0363 48.4534 37.7509 53.2328C37.7341 53.4726 37.8349 53.6964 38.0363 53.8722C38.2377 54.064 38.5063 54.144 38.8252 54.128C39.7987 54.08 40.789 54.0321 41.7625 54.0001C42.0815 53.9841 42.3668 53.8882 42.6018 53.6804C42.8368 53.4726 42.9711 53.2648 42.9711 53.0091C43.055 51.027 43.1389 49.0449 43.2228 47.0628C43.1221 47.0628 42.9039 47.0947 42.6018 47.1427C42.2829 47.1906 41.964 47.2546 41.6283 47.3185C41.2926 47.3825 40.9904 47.4784 40.7219 47.6062C40.4533 47.7341 40.319 47.862 40.319 47.9739C40.168 47.9739 40.0001 47.9899 39.8491 47.9899C39.9162 46.6312 40.0001 45.2725 40.0673 43.9138C42.3836 43.8658 44.6831 43.8179 46.9995 43.8019C47.3184 43.8019 47.6541 43.8019 47.973 43.8019C47.973 43.9298 47.973 44.0736 47.9562 44.2015C47.3016 44.2015 46.9659 44.761 46.9323 45.8639C46.9323 45.8479 46.9323 45.832 46.9323 45.816C46.8652 48.2137 46.798 50.5634 46.7309 52.9291Z" fill="black"/>
<path d="M49.2148 57.0212C49.2148 56.8933 49.2148 56.7495 49.2148 56.6216C49.3659 56.6216 49.5002 56.5097 49.6177 56.3019C49.752 56.0941 49.8527 55.8383 49.9198 55.5346C49.987 55.2309 50.0541 54.9432 50.1212 54.6395C50.1716 54.3358 50.2052 54.112 50.2052 53.9681C50.2723 48.5493 50.3394 43.1305 50.4066 37.7117C50.4066 37.5679 50.3898 37.3441 50.3394 37.0404C50.2891 36.7367 50.2387 36.449 50.1716 36.1453C50.1045 35.8415 50.0205 35.5858 49.903 35.362C49.7855 35.1382 49.668 35.0263 49.5338 35.0263C49.5338 34.8984 49.5338 34.7546 49.5338 34.6267C53.0586 34.6267 56.5835 34.6267 60.1083 34.6267C60.293 35.9854 60.4776 37.3441 60.679 38.7028C60.5279 38.7028 60.3769 38.7028 60.2258 38.7028C60.2258 38.5749 60.0747 38.463 59.7894 38.3671C59.5041 38.2552 59.1684 38.1593 58.7991 38.0954C58.4298 38.0155 58.0773 37.9675 57.7416 37.9355C57.4059 37.9036 57.1877 37.8876 57.087 37.8876C56.0463 37.8876 55.0057 37.8716 53.965 37.8716C53.965 39.2623 53.965 40.6529 53.965 42.0436C54.4853 42.0436 54.9889 42.0436 55.5092 42.0596C55.6099 42.0596 55.8449 42.0436 56.1974 42.0276C56.5499 41.9956 56.9192 41.9477 57.3052 41.8837C57.6745 41.8198 58.0102 41.7239 58.2955 41.628C58.5809 41.5321 58.7319 41.4042 58.7319 41.2444C58.883 41.2444 59.0341 41.2444 59.1851 41.2444C59.2187 42.8908 59.2523 44.5212 59.3026 46.1676C59.1516 46.1676 59.0005 46.1676 58.8327 46.1516C58.8327 46.0398 58.6816 45.9119 58.3795 45.784C58.0773 45.6561 57.7416 45.5602 57.3556 45.4963C56.9695 45.4323 56.6002 45.3684 56.231 45.3204C55.8617 45.2725 55.6267 45.2405 55.526 45.2405C55.0057 45.2405 54.4853 45.2245 53.965 45.2245C53.965 48.1018 53.9818 50.995 53.9818 53.8722C55.0896 53.8882 56.1974 53.9202 57.322 53.9522C57.4227 53.9522 57.6577 53.9522 58.027 53.9362C58.3795 53.9202 58.7655 53.8722 59.1516 53.8243C59.5376 53.7603 59.8901 53.6804 60.1922 53.6005C60.4944 53.5046 60.6454 53.3927 60.6454 53.2328C60.8133 53.2328 60.9643 53.2488 61.1322 53.2488C61.0147 54.6075 60.8972 55.9502 60.7629 57.3089C56.9192 57.0851 53.0754 57.0052 49.2148 57.0212Z" fill="black"/>
<path d="M77.2638 55.9822C77.3477 56.3179 77.4316 56.6536 77.5491 57.0212C77.6498 57.3889 77.7841 57.7085 77.9352 57.9963C78.0863 58.284 78.2541 58.4438 78.4387 58.4598C78.4555 58.6037 78.4723 58.7476 78.4723 58.8914C76.7435 58.6676 75.0146 58.4598 73.3025 58.268C71.2883 53.2009 69.3413 48.2616 67.4613 43.4343C67.6628 47.1747 67.8642 50.8991 68.0824 54.6395C68.0992 54.8313 68.1327 55.0711 68.1999 55.3588C68.267 55.6625 68.3509 55.9662 68.4684 56.2859C68.5692 56.6056 68.6866 56.8774 68.8041 57.1011C68.9216 57.3249 69.0727 57.4528 69.2573 57.4688C69.2573 57.6126 69.2741 57.7405 69.2741 57.8844C67.3103 57.7086 65.3296 57.5647 63.3658 57.4368C63.3658 57.2929 63.349 57.1651 63.349 57.0212C63.5337 57.0372 63.6847 56.9093 63.7854 56.6695C63.9029 56.4138 64.0036 56.1261 64.0708 55.8064C64.1379 55.4707 64.1883 55.167 64.2218 54.8633C64.2386 54.5596 64.2554 54.3678 64.2554 54.2719C64.0372 48.8371 63.8022 43.3863 63.584 37.9515C63.584 37.8556 63.5504 37.6478 63.5169 37.3281C63.4665 37.0084 63.3994 36.6727 63.2987 36.3371C63.198 36.0014 63.0972 35.6977 62.963 35.4419C62.8287 35.1862 62.6944 35.0583 62.5266 35.0583C62.5266 34.9144 62.5098 34.7866 62.5098 34.6427C64.1043 34.6427 65.6989 34.6427 67.2935 34.6427C69.0727 39.2942 70.9358 44.0257 72.8493 48.885C72.5808 45.2725 72.3122 41.66 72.0436 38.0474C72.0436 37.9515 72.0101 37.7437 71.9429 37.408C71.8926 37.0724 71.8087 36.7367 71.6912 36.385C71.5905 36.0334 71.4562 35.7296 71.3219 35.4579C71.1876 35.1862 71.0365 35.0583 70.8687 35.0583C70.8519 34.9144 70.8519 34.7706 70.8351 34.6267C72.6311 34.6267 74.4271 34.6267 76.2231 34.6267C76.2399 34.7706 76.2567 34.9144 76.2567 35.0583C76.0888 35.0583 75.9713 35.2022 75.8706 35.4739C75.7867 35.7456 75.7196 36.0653 75.686 36.417C75.6524 36.7687 75.6189 37.1203 75.6021 37.456C75.5853 37.7917 75.5685 38.0155 75.5853 38.1114C75.5853 38.0954 75.5853 38.0794 75.5853 38.0634C76.0888 43.8499 76.5924 49.6363 77.1127 55.4387C77.1127 55.4068 77.1127 55.3748 77.0959 55.3428C77.1463 55.4387 77.1799 55.6465 77.2638 55.9822Z" fill="black"/>
<path d="M80.8717 59.2271C80.8549 59.0832 80.8381 58.9394 80.8213 58.7795C80.9724 58.7955 81.0899 58.7156 81.1906 58.5238C81.2913 58.3319 81.3752 58.0922 81.4088 57.8045C81.4424 57.5167 81.476 57.229 81.5095 56.9093C81.5263 56.6056 81.5431 56.3498 81.5599 56.158C80.9388 50.0679 80.301 43.9777 79.68 37.9036C79.6296 37.7117 79.5625 37.456 79.4785 37.1363C79.3946 36.8166 79.3107 36.5129 79.21 36.1932C79.1093 35.8735 78.9918 35.6178 78.8575 35.394C78.7232 35.1862 78.5889 35.0743 78.4546 35.0743C78.4379 34.9304 78.4211 34.7866 78.4043 34.6267C81.1403 34.6267 83.8762 34.6267 86.5954 34.6267C87.2164 34.6267 87.8375 34.7546 88.4249 35.0263C89.0292 35.2981 89.5663 35.6497 90.0363 36.0973C90.5063 36.5449 90.9259 37.0883 91.2616 37.6958C91.5973 38.3192 91.8155 38.9745 91.9162 39.6619C92.7387 45.3524 93.5612 51.0429 94.3836 56.7335C94.4843 57.4208 94.434 58.0442 94.2493 58.6037C94.0647 59.1631 93.7626 59.6267 93.3765 59.9784C92.9737 60.33 92.4869 60.5858 91.8994 60.7137C91.312 60.8415 90.6573 60.8415 89.9524 60.7137C86.9479 60.1702 83.9098 59.6587 80.8717 59.2271ZM85.3869 56.3978C86.7632 56.5896 88.1396 56.8134 89.516 57.0212C89.8349 57.0692 90.1034 57.0052 90.3216 56.8134C90.5231 56.6216 90.607 56.3818 90.5734 56.1101C89.8349 50.5634 89.0963 45.0327 88.3578 39.486C88.3074 39.1663 88.1732 38.8946 87.9214 38.6868C87.6696 38.463 87.4011 38.3511 87.0989 38.3511C85.8233 38.3192 84.5476 38.2872 83.2887 38.2392C83.9937 44.2974 84.6987 50.3396 85.3869 56.3978Z" fill="black"/>
<path d="M5.49023 61.7371C5.5238 61.5773 5.54059 61.4174 5.57416 61.2416C5.72522 61.2096 5.87629 61.0498 6.06092 60.778C6.22877 60.5063 6.39662 60.1706 6.54769 59.803C6.69875 59.4193 6.83303 59.0517 6.95053 58.684C7.06802 58.3164 7.13516 58.0447 7.16873 57.8688C8.25976 51.3151 9.35078 44.7454 10.4418 38.1917C10.4418 37.9839 10.4418 37.6962 10.4586 37.3605C10.4586 37.0248 10.4586 36.6892 10.4418 36.3695C10.425 36.0498 10.3915 35.762 10.3075 35.5063C10.2404 35.2505 10.1397 35.1227 10.0054 35.1227C10.039 34.9628 10.0558 34.803 10.0893 34.6271C11.8853 34.6271 13.6813 34.6271 15.4773 34.6271C15.4605 34.787 15.427 34.9308 15.4102 35.0907C15.2423 35.0907 15.0745 35.2346 14.9234 35.5383C14.7556 35.842 14.6045 36.1776 14.4702 36.5613C14.3359 36.9449 14.2184 37.3126 14.1345 37.6642C14.0506 38.0159 14.0002 38.2397 13.9834 38.3516C13.0267 44.5856 12.07 50.8196 11.0964 57.0536C12.221 56.8778 13.3456 56.7019 14.4702 56.5261C14.5709 56.5101 14.8227 56.4462 15.2087 56.3503C15.5948 56.2384 15.9976 56.1265 16.4005 56.0146C16.8033 55.8867 17.1726 55.7588 17.4915 55.599C17.8104 55.4392 17.9783 55.2793 18.0118 55.1195C18.1629 55.1035 18.2972 55.0875 18.4483 55.0715C17.9951 56.5901 17.5419 58.1246 17.0887 59.6751C13.2449 60.2345 9.38435 60.9379 5.49023 61.7371Z" stroke="#002F58" stroke-width="5.57225"/>
<path d="M19.3379 59.307C19.3547 59.1632 19.3715 59.0033 19.3882 58.8594C19.5393 58.8435 19.6904 58.6996 19.8414 58.4598C19.9925 58.2201 20.1268 57.9164 20.2443 57.5807C20.3618 57.245 20.4625 56.9093 20.5632 56.5736C20.6639 56.238 20.7143 55.9982 20.731 55.8224C21.4528 49.8921 22.1746 43.9458 22.9131 38.0155C22.9299 37.8556 22.9299 37.5999 22.9299 37.2802C22.9131 36.9605 22.8963 36.6248 22.8795 36.3051C22.846 35.9854 22.7956 35.6977 22.7117 35.4419C22.6277 35.2022 22.5103 35.0743 22.3928 35.0743C22.4095 34.9304 22.4263 34.7706 22.4431 34.6267C25.968 34.6267 29.4928 34.6267 33.0177 34.6267C33.0512 36.0174 33.0848 37.424 33.1184 38.8147C32.9673 38.8147 32.8162 38.8147 32.6652 38.8147C32.682 38.6868 32.5477 38.5749 32.2623 38.479C31.977 38.3831 31.6581 38.2872 31.3056 38.2073C30.9363 38.1433 30.6006 38.0794 30.2649 38.0634C29.9292 38.0314 29.711 38.0314 29.6103 38.0314C28.5696 38.0474 27.529 38.0634 26.4715 38.0954C26.3037 39.582 26.1526 41.0685 25.9847 42.5551C26.5051 42.5391 27.0254 42.5071 27.529 42.4912C27.6297 42.4912 27.8647 42.4592 28.2339 42.4112C28.6032 42.3633 28.9725 42.2993 29.3585 42.2034C29.7446 42.1075 30.0803 42.0116 30.3824 41.8837C30.6845 41.7718 30.8356 41.628 30.8524 41.4681C31.0035 41.4681 31.1545 41.4522 31.3056 41.4522C31.1545 43.1465 31.0035 44.8569 30.8524 46.5513C30.7013 46.5672 30.5335 46.5672 30.3824 46.5832C30.3992 46.4554 30.2481 46.3435 29.9628 46.2316C29.6774 46.1197 29.3417 46.0397 28.9725 46.0078C28.5864 45.9598 28.2172 45.9279 27.8647 45.9119C27.4954 45.8799 27.2772 45.8799 27.1597 45.8799C26.6394 45.9119 26.119 45.9438 25.5819 45.9758C25.2462 49.0609 24.9105 52.1619 24.5748 55.2469C25.6994 55.119 26.824 55.0071 27.9486 54.9112C28.0493 54.8952 28.3011 54.8633 28.6536 54.7993C29.0228 54.7354 29.4089 54.6395 29.8117 54.5276C30.2146 54.4157 30.5671 54.2878 30.886 54.16C31.2049 54.0321 31.3727 53.8882 31.3727 53.7284C31.5406 53.7124 31.6916 53.6964 31.8595 53.6964C31.5742 55.103 31.3056 56.5097 31.0202 57.9163C27.1429 58.268 23.2488 58.7316 19.3379 59.307Z" stroke="#002F58" stroke-width="5.57225"/>
<path d="M46.7309 52.9291C46.7141 53.5046 46.5631 54.0321 46.2945 54.5436C46.0091 55.0551 45.6399 55.5027 45.1867 55.8863C44.7335 56.2699 44.1796 56.5736 43.5585 56.8134C42.9375 57.0372 42.2829 57.1651 41.5947 57.197C40.6044 57.245 39.6141 57.2929 38.6238 57.3409C37.9356 57.3729 37.2977 57.3089 36.6935 57.1331C36.0892 56.9573 35.5857 56.7015 35.166 56.3499C34.7464 55.9982 34.4275 55.5666 34.2093 55.0711C33.9911 54.5596 33.9072 54.0161 33.9575 53.4406C34.3268 48.5973 34.6793 43.7539 35.0485 38.9106C35.0989 38.3192 35.25 37.7757 35.5185 37.2482C35.7871 36.7207 36.1396 36.2731 36.5928 35.8895C37.0292 35.5059 37.5327 35.2022 38.1202 34.9624C38.6909 34.7386 39.2951 34.6267 39.9162 34.6267C40.8226 34.6267 41.729 34.6267 42.6354 34.6267C43.2564 34.6267 43.8439 34.7386 44.3978 34.9624C44.9517 35.1862 45.4217 35.4899 45.8245 35.8575C46.2274 36.2252 46.5463 36.6727 46.7813 37.1843C47.0162 37.6958 47.1337 38.2233 47.117 38.7987C47.1002 39.4221 47.0834 40.0615 47.0666 40.6849C45.8749 40.6849 44.6663 40.7009 43.4746 40.7169C43.1557 40.7169 42.8368 40.7169 42.5179 40.7328C42.5179 40.605 42.5347 40.4611 42.5347 40.3332C43.1053 40.3332 43.441 39.8857 43.5418 39.0225C43.5418 38.9586 43.5418 38.8946 43.5418 38.8467C43.5585 38.5749 43.4578 38.3511 43.2396 38.1433C43.0382 37.9515 42.7696 37.8556 42.4843 37.8556C41.5611 37.8556 40.6547 37.8716 39.7316 37.8716C39.4294 37.8716 39.1777 37.9675 38.9595 38.1753C38.7412 38.3671 38.6405 38.6069 38.6238 38.8786C38.3384 43.658 38.0363 48.4534 37.7509 53.2328C37.7341 53.4726 37.8349 53.6964 38.0363 53.8722C38.2377 54.064 38.5063 54.144 38.8252 54.128C39.7987 54.08 40.789 54.0321 41.7625 54.0001C42.0815 53.9841 42.3668 53.8882 42.6018 53.6804C42.8368 53.4726 42.9711 53.2648 42.9711 53.0091C43.055 51.027 43.1389 49.0449 43.2228 47.0628C43.1221 47.0628 42.9039 47.0947 42.6018 47.1427C42.2829 47.1906 41.964 47.2546 41.6283 47.3185C41.2926 47.3825 40.9904 47.4784 40.7219 47.6062C40.4533 47.7341 40.319 47.862 40.319 47.9739C40.168 47.9739 40.0001 47.9899 39.8491 47.9899C39.9162 46.6312 40.0001 45.2725 40.0673 43.9138C42.3836 43.8658 44.6831 43.8179 46.9995 43.8019C47.3184 43.8019 47.6541 43.8019 47.973 43.8019C47.973 43.9298 47.973 44.0736 47.9562 44.2015C47.3016 44.2015 46.9659 44.761 46.9323 45.8639C46.9323 45.8479 46.9323 45.832 46.9323 45.816C46.8652 48.2137 46.798 50.5634 46.7309 52.9291Z" stroke="#002F58" stroke-width="5.57225"/>
<path d="M49.2148 57.0212C49.2148 56.8933 49.2148 56.7495 49.2148 56.6216C49.3659 56.6216 49.5002 56.5097 49.6177 56.3019C49.752 56.0941 49.8527 55.8383 49.9198 55.5346C49.987 55.2309 50.0541 54.9432 50.1212 54.6395C50.1716 54.3358 50.2052 54.112 50.2052 53.9681C50.2723 48.5493 50.3394 43.1305 50.4066 37.7117C50.4066 37.5679 50.3898 37.3441 50.3394 37.0404C50.2891 36.7367 50.2387 36.449 50.1716 36.1453C50.1045 35.8415 50.0205 35.5858 49.903 35.362C49.7855 35.1382 49.668 35.0263 49.5338 35.0263C49.5338 34.8984 49.5338 34.7546 49.5338 34.6267C53.0586 34.6267 56.5835 34.6267 60.1083 34.6267C60.293 35.9854 60.4776 37.3441 60.679 38.7028C60.5279 38.7028 60.3769 38.7028 60.2258 38.7028C60.2258 38.5749 60.0747 38.463 59.7894 38.3671C59.5041 38.2552 59.1684 38.1593 58.7991 38.0954C58.4298 38.0155 58.0773 37.9675 57.7416 37.9355C57.4059 37.9036 57.1877 37.8876 57.087 37.8876C56.0463 37.8876 55.0057 37.8716 53.965 37.8716C53.965 39.2623 53.965 40.6529 53.965 42.0436C54.4853 42.0436 54.9889 42.0436 55.5092 42.0596C55.6099 42.0596 55.8449 42.0436 56.1974 42.0276C56.5499 41.9956 56.9192 41.9477 57.3052 41.8837C57.6745 41.8198 58.0102 41.7239 58.2955 41.628C58.5809 41.5321 58.7319 41.4042 58.7319 41.2444C58.883 41.2444 59.0341 41.2444 59.1851 41.2444C59.2187 42.8908 59.2523 44.5212 59.3026 46.1676C59.1516 46.1676 59.0005 46.1676 58.8327 46.1516C58.8327 46.0398 58.6816 45.9119 58.3795 45.784C58.0773 45.6561 57.7416 45.5602 57.3556 45.4963C56.9695 45.4323 56.6002 45.3684 56.231 45.3204C55.8617 45.2725 55.6267 45.2405 55.526 45.2405C55.0057 45.2405 54.4853 45.2245 53.965 45.2245C53.965 48.1018 53.9818 50.995 53.9818 53.8722C55.0896 53.8882 56.1974 53.9202 57.322 53.9522C57.4227 53.9522 57.6577 53.9522 58.027 53.9362C58.3795 53.9202 58.7655 53.8722 59.1516 53.8243C59.5376 53.7603 59.8901 53.6804 60.1922 53.6005C60.4944 53.5046 60.6454 53.3927 60.6454 53.2328C60.8133 53.2328 60.9643 53.2488 61.1322 53.2488C61.0147 54.6075 60.8972 55.9502 60.7629 57.3089C56.9192 57.0851 53.0754 57.0052 49.2148 57.0212Z" stroke="#002F58" stroke-width="5.57225"/>
<path d="M77.2638 55.9822C77.3477 56.3179 77.4316 56.6536 77.5491 57.0212C77.6498 57.3889 77.7841 57.7085 77.9352 57.9963C78.0863 58.284 78.2541 58.4438 78.4387 58.4598C78.4555 58.6037 78.4723 58.7476 78.4723 58.8914C76.7435 58.6676 75.0146 58.4598 73.3025 58.268C71.2883 53.2009 69.3413 48.2616 67.4613 43.4343C67.6628 47.1747 67.8642 50.8991 68.0824 54.6395C68.0992 54.8313 68.1327 55.0711 68.1999 55.3588C68.267 55.6625 68.3509 55.9662 68.4684 56.2859C68.5692 56.6056 68.6866 56.8774 68.8041 57.1011C68.9216 57.3249 69.0727 57.4528 69.2573 57.4688C69.2573 57.6126 69.2741 57.7405 69.2741 57.8844C67.3103 57.7086 65.3296 57.5647 63.3658 57.4368C63.3658 57.2929 63.349 57.1651 63.349 57.0212C63.5337 57.0372 63.6847 56.9093 63.7854 56.6695C63.9029 56.4138 64.0036 56.1261 64.0708 55.8064C64.1379 55.4707 64.1883 55.167 64.2218 54.8633C64.2386 54.5596 64.2554 54.3678 64.2554 54.2719C64.0372 48.8371 63.8022 43.3863 63.584 37.9515C63.584 37.8556 63.5504 37.6478 63.5169 37.3281C63.4665 37.0084 63.3994 36.6727 63.2987 36.3371C63.198 36.0014 63.0972 35.6977 62.963 35.4419C62.8287 35.1862 62.6944 35.0583 62.5266 35.0583C62.5266 34.9144 62.5098 34.7866 62.5098 34.6427C64.1043 34.6427 65.6989 34.6427 67.2935 34.6427C69.0727 39.2942 70.9358 44.0257 72.8493 48.885C72.5808 45.2725 72.3122 41.66 72.0436 38.0474C72.0436 37.9515 72.0101 37.7437 71.9429 37.408C71.8926 37.0724 71.8087 36.7367 71.6912 36.385C71.5905 36.0334 71.4562 35.7296 71.3219 35.4579C71.1876 35.1862 71.0365 35.0583 70.8687 35.0583C70.8519 34.9144 70.8519 34.7706 70.8351 34.6267C72.6311 34.6267 74.4271 34.6267 76.2231 34.6267C76.2399 34.7706 76.2567 34.9144 76.2567 35.0583C76.0888 35.0583 75.9713 35.2022 75.8706 35.4739C75.7867 35.7456 75.7196 36.0653 75.686 36.417C75.6524 36.7687 75.6189 37.1203 75.6021 37.456C75.5853 37.7917 75.5685 38.0155 75.5853 38.1114C75.5853 38.0954 75.5853 38.0794 75.5853 38.0634C76.0888 43.8499 76.5924 49.6363 77.1127 55.4387C77.1127 55.4068 77.1127 55.3748 77.0959 55.3428C77.1463 55.4387 77.1799 55.6465 77.2638 55.9822Z" stroke="#002F58" stroke-width="5.57225"/>
<path d="M80.8717 59.2271C80.8549 59.0832 80.8381 58.9394 80.8213 58.7795C80.9724 58.7955 81.0899 58.7156 81.1906 58.5238C81.2913 58.3319 81.3752 58.0922 81.4088 57.8045C81.4424 57.5167 81.476 57.229 81.5095 56.9093C81.5263 56.6056 81.5431 56.3498 81.5599 56.158C80.9388 50.0679 80.301 43.9777 79.68 37.9036C79.6296 37.7117 79.5625 37.456 79.4785 37.1363C79.3946 36.8166 79.3107 36.5129 79.21 36.1932C79.1093 35.8735 78.9918 35.6178 78.8575 35.394C78.7232 35.1862 78.5889 35.0743 78.4546 35.0743C78.4379 34.9304 78.4211 34.7866 78.4043 34.6267C81.1403 34.6267 83.8762 34.6267 86.5954 34.6267C87.2164 34.6267 87.8375 34.7546 88.4249 35.0263C89.0292 35.2981 89.5663 35.6497 90.0363 36.0973C90.5063 36.5449 90.9259 37.0883 91.2616 37.6958C91.5973 38.3192 91.8155 38.9745 91.9162 39.6619C92.7387 45.3524 93.5612 51.0429 94.3836 56.7335C94.4843 57.4208 94.434 58.0442 94.2493 58.6037C94.0647 59.1631 93.7626 59.6267 93.3765 59.9784C92.9737 60.33 92.4869 60.5858 91.8994 60.7137C91.312 60.8415 90.6573 60.8415 89.9524 60.7137C86.9479 60.1702 83.9098 59.6587 80.8717 59.2271ZM85.3869 56.3978C86.7632 56.5896 88.1396 56.8134 89.516 57.0212C89.8349 57.0692 90.1034 57.0052 90.3216 56.8134C90.5231 56.6216 90.607 56.3818 90.5734 56.1101C89.8349 50.5634 89.0963 45.0327 88.3578 39.486C88.3074 39.1663 88.1732 38.8946 87.9214 38.6868C87.6696 38.463 87.4011 38.3511 87.0989 38.3511C85.8233 38.3192 84.5476 38.2872 83.2887 38.2392C83.9937 44.2974 84.6987 50.3396 85.3869 56.3978Z" stroke="#002F58" stroke-width="5.57225"/>
<path d="M5.49023 61.7371C5.5238 61.5773 5.54059 61.4174 5.57416 61.2416C5.72522 61.2096 5.87629 61.0498 6.06092 60.778C6.22877 60.5063 6.39662 60.1706 6.54769 59.803C6.69875 59.4193 6.83303 59.0517 6.95053 58.684C7.06802 58.3164 7.13516 58.0447 7.16873 57.8688C8.25976 51.3151 9.35078 44.7454 10.4418 38.1917C10.4418 37.9839 10.4418 37.6962 10.4586 37.3605C10.4586 37.0248 10.4586 36.6892 10.4418 36.3695C10.425 36.0498 10.3915 35.762 10.3075 35.5063C10.2404 35.2505 10.1397 35.1227 10.0054 35.1227C10.039 34.9628 10.0558 34.803 10.0893 34.6271C11.8853 34.6271 13.6813 34.6271 15.4773 34.6271C15.4605 34.787 15.427 34.9308 15.4102 35.0907C15.2423 35.0907 15.0745 35.2346 14.9234 35.5383C14.7556 35.842 14.6045 36.1776 14.4702 36.5613C14.3359 36.9449 14.2184 37.3126 14.1345 37.6642C14.0506 38.0159 14.0002 38.2397 13.9834 38.3516C13.0267 44.5856 12.07 50.8196 11.0964 57.0536C12.221 56.8778 13.3456 56.7019 14.4702 56.5261C14.5709 56.5101 14.8227 56.4462 15.2087 56.3503C15.5948 56.2384 15.9976 56.1265 16.4005 56.0146C16.8033 55.8867 17.1726 55.7588 17.4915 55.599C17.8104 55.4392 17.9783 55.2793 18.0118 55.1195C18.1629 55.1035 18.2972 55.0875 18.4483 55.0715C17.9951 56.59 17.5419 58.1246 17.0887 59.6751C13.2449 60.2346 9.38435 60.9379 5.49023 61.7371Z" fill="white"/>
<path d="M19.3379 59.307C19.3547 59.1632 19.3715 59.0033 19.3882 58.8594C19.5393 58.8435 19.6904 58.6996 19.8414 58.4598C19.9925 58.2201 20.1268 57.9164 20.2443 57.5807C20.3618 57.245 20.4625 56.9093 20.5632 56.5736C20.6639 56.238 20.7143 55.9982 20.731 55.8224C21.4528 49.8921 22.1746 43.9458 22.9131 38.0155C22.9299 37.8556 22.9299 37.5999 22.9299 37.2802C22.9131 36.9605 22.8963 36.6248 22.8795 36.3051C22.846 35.9854 22.7956 35.6977 22.7117 35.4419C22.6277 35.2022 22.5103 35.0743 22.3928 35.0743C22.4095 34.9304 22.4263 34.7706 22.4431 34.6267C25.968 34.6267 29.4928 34.6267 33.0177 34.6267C33.0512 36.0174 33.0848 37.424 33.1184 38.8147C32.9673 38.8147 32.8162 38.8147 32.6652 38.8147C32.682 38.6868 32.5477 38.5749 32.2623 38.479C31.977 38.3831 31.6581 38.2872 31.3056 38.2073C30.9363 38.1433 30.6006 38.0794 30.2649 38.0634C29.9292 38.0314 29.711 38.0314 29.6103 38.0314C28.5696 38.0474 27.529 38.0634 26.4715 38.0954C26.3037 39.582 26.1526 41.0685 25.9847 42.5551C26.5051 42.5391 27.0254 42.5071 27.529 42.4912C27.6297 42.4912 27.8647 42.4592 28.2339 42.4112C28.6032 42.3633 28.9725 42.2993 29.3585 42.2034C29.7446 42.1075 30.0803 42.0116 30.3824 41.8837C30.6845 41.7718 30.8356 41.628 30.8524 41.4681C31.0035 41.4681 31.1545 41.4522 31.3056 41.4522C31.1545 43.1465 31.0035 44.8569 30.8524 46.5513C30.7013 46.5672 30.5335 46.5672 30.3824 46.5832C30.3992 46.4554 30.2481 46.3435 29.9628 46.2316C29.6774 46.1197 29.3417 46.0397 28.9725 46.0078C28.5864 45.9598 28.2172 45.9279 27.8647 45.9119C27.4954 45.8799 27.2772 45.8799 27.1597 45.8799C26.6394 45.9119 26.119 45.9438 25.5819 45.9758C25.2462 49.0609 24.9105 52.1619 24.5748 55.2469C25.6994 55.119 26.824 55.0071 27.9486 54.9112C28.0493 54.8953 28.3011 54.8633 28.6536 54.7993C29.0228 54.7354 29.4089 54.6395 29.8117 54.5276C30.2146 54.4157 30.5671 54.2878 30.886 54.16C31.2049 54.0321 31.3727 53.8882 31.3727 53.7284C31.5406 53.7124 31.6916 53.6964 31.8595 53.6964C31.5742 55.1031 31.3056 56.5097 31.0202 57.9163C27.1429 58.268 23.2488 58.7316 19.3379 59.307Z" fill="white"/>
<path d="M46.7309 52.9291C46.7141 53.5046 46.5631 54.0321 46.2945 54.5436C46.0091 55.0551 45.6399 55.5027 45.1867 55.8863C44.7335 56.2699 44.1796 56.5736 43.5585 56.8134C42.9375 57.0372 42.2829 57.1651 41.5947 57.197C40.6044 57.245 39.6141 57.2929 38.6238 57.3409C37.9356 57.3729 37.2977 57.3089 36.6935 57.1331C36.0892 56.9573 35.5857 56.7015 35.166 56.3499C34.7464 55.9982 34.4275 55.5666 34.2093 55.0711C33.9911 54.5596 33.9072 54.0161 33.9575 53.4406C34.3268 48.5973 34.6793 43.7539 35.0485 38.9106C35.0989 38.3192 35.25 37.7757 35.5185 37.2482C35.7871 36.7207 36.1396 36.2731 36.5928 35.8895C37.0292 35.5059 37.5327 35.2022 38.1202 34.9624C38.6909 34.7386 39.2951 34.6267 39.9162 34.6267C40.8226 34.6267 41.729 34.6267 42.6354 34.6267C43.2564 34.6267 43.8439 34.7386 44.3978 34.9624C44.9517 35.1862 45.4217 35.4899 45.8245 35.8575C46.2274 36.2252 46.5463 36.6727 46.7813 37.1843C47.0162 37.6958 47.1337 38.2233 47.117 38.7987C47.1002 39.4221 47.0834 40.0615 47.0666 40.6849C45.8749 40.6849 44.6663 40.7009 43.4746 40.7169C43.1557 40.7169 42.8368 40.7169 42.5179 40.7328C42.5179 40.605 42.5347 40.4611 42.5347 40.3332C43.1053 40.3332 43.441 39.8857 43.5418 39.0225C43.5418 38.9586 43.5418 38.8946 43.5418 38.8467C43.5585 38.5749 43.4578 38.3511 43.2396 38.1433C43.0382 37.9515 42.7696 37.8556 42.4843 37.8556C41.5611 37.8556 40.6547 37.8716 39.7316 37.8716C39.4294 37.8716 39.1777 37.9675 38.9595 38.1753C38.7412 38.3671 38.6405 38.6069 38.6238 38.8786C38.3384 43.658 38.0363 48.4534 37.7509 53.2328C37.7341 53.4726 37.8349 53.6964 38.0363 53.8722C38.2377 54.064 38.5063 54.144 38.8252 54.128C39.7987 54.08 40.789 54.0321 41.7625 54.0001C42.0815 53.9841 42.3668 53.8882 42.6018 53.6804C42.8368 53.4726 42.9711 53.2648 42.9711 53.0091C43.055 51.027 43.1389 49.0449 43.2228 47.0628C43.1221 47.0628 42.9039 47.0947 42.6018 47.1427C42.2829 47.1906 41.964 47.2546 41.6283 47.3185C41.2926 47.3825 40.9904 47.4784 40.7219 47.6062C40.4533 47.7341 40.319 47.862 40.319 47.9739C40.168 47.9739 40.0001 47.9899 39.8491 47.9899C39.9162 46.6312 40.0001 45.2725 40.0673 43.9138C42.3836 43.8658 44.6831 43.8179 46.9995 43.8019C47.3184 43.8019 47.6541 43.8019 47.973 43.8019C47.973 43.9298 47.973 44.0736 47.9562 44.2015C47.3016 44.2015 46.9659 44.761 46.9323 45.8639C46.9323 45.8479 46.9323 45.832 46.9323 45.816C46.8652 48.2137 46.798 50.5634 46.7309 52.9291Z" fill="white"/>
<path d="M49.2148 57.0212C49.2148 56.8933 49.2148 56.7495 49.2148 56.6216C49.3659 56.6216 49.5002 56.5097 49.6177 56.3019C49.752 56.0941 49.8527 55.8383 49.9198 55.5346C49.987 55.2309 50.0541 54.9432 50.1212 54.6395C50.1716 54.3358 50.2052 54.112 50.2052 53.9681C50.2723 48.5493 50.3394 43.1305 50.4066 37.7117C50.4066 37.5679 50.3898 37.3441 50.3394 37.0404C50.2891 36.7367 50.2387 36.449 50.1716 36.1453C50.1045 35.8415 50.0205 35.5858 49.903 35.362C49.7855 35.1382 49.668 35.0263 49.5338 35.0263C49.5338 34.8984 49.5338 34.7546 49.5338 34.6267C53.0586 34.6267 56.5835 34.6267 60.1083 34.6267C60.293 35.9854 60.4776 37.3441 60.679 38.7028C60.5279 38.7028 60.3769 38.7028 60.2258 38.7028C60.2258 38.5749 60.0747 38.463 59.7894 38.3671C59.5041 38.2552 59.1684 38.1593 58.7991 38.0954C58.4298 38.0155 58.0773 37.9675 57.7416 37.9355C57.4059 37.9036 57.1877 37.8876 57.087 37.8876C56.0463 37.8876 55.0057 37.8716 53.965 37.8716C53.965 39.2623 53.965 40.6529 53.965 42.0436C54.4853 42.0436 54.9889 42.0436 55.5092 42.0596C55.6099 42.0596 55.8449 42.0436 56.1974 42.0276C56.5499 41.9956 56.9192 41.9477 57.3052 41.8837C57.6745 41.8198 58.0102 41.7239 58.2955 41.628C58.5809 41.5321 58.7319 41.4042 58.7319 41.2444C58.883 41.2444 59.0341 41.2444 59.1851 41.2444C59.2187 42.8908 59.2523 44.5212 59.3026 46.1676C59.1516 46.1676 59.0005 46.1676 58.8327 46.1516C58.8327 46.0398 58.6816 45.9119 58.3795 45.784C58.0773 45.6561 57.7416 45.5602 57.3556 45.4963C56.9695 45.4323 56.6002 45.3684 56.231 45.3204C55.8617 45.2725 55.6267 45.2405 55.526 45.2405C55.0057 45.2405 54.4853 45.2245 53.965 45.2245C53.965 48.1018 53.9818 50.995 53.9818 53.8722C55.0896 53.8882 56.1974 53.9202 57.322 53.9522C57.4227 53.9522 57.6577 53.9522 58.027 53.9362C58.3795 53.9202 58.7655 53.8722 59.1516 53.8243C59.5376 53.7603 59.8901 53.6804 60.1922 53.6005C60.4944 53.5046 60.6454 53.3927 60.6454 53.2328C60.8133 53.2328 60.9643 53.2488 61.1322 53.2488C61.0147 54.6075 60.8972 55.9502 60.7629 57.3089C56.9192 57.0851 53.0754 57.0052 49.2148 57.0212Z" fill="white"/>
<path d="M77.2638 55.9822C77.3477 56.3179 77.4316 56.6536 77.5491 57.0212C77.6498 57.3889 77.7841 57.7085 77.9352 57.9963C78.0863 58.284 78.2541 58.4438 78.4387 58.4598C78.4555 58.6037 78.4723 58.7476 78.4723 58.8914C76.7435 58.6676 75.0146 58.4598 73.3025 58.268C71.2883 53.2009 69.3413 48.2616 67.4613 43.4343C67.6628 47.1747 67.8642 50.8991 68.0824 54.6395C68.0992 54.8313 68.1327 55.0711 68.1999 55.3588C68.267 55.6625 68.3509 55.9662 68.4684 56.2859C68.5692 56.6056 68.6866 56.8774 68.8041 57.1011C68.9216 57.3249 69.0727 57.4528 69.2573 57.4688C69.2573 57.6126 69.2741 57.7405 69.2741 57.8844C67.3103 57.7086 65.3296 57.5647 63.3658 57.4368C63.3658 57.2929 63.349 57.1651 63.349 57.0212C63.5337 57.0372 63.6847 56.9093 63.7854 56.6695C63.9029 56.4138 64.0036 56.1261 64.0708 55.8064C64.1379 55.4707 64.1883 55.167 64.2218 54.8633C64.2386 54.5596 64.2554 54.3678 64.2554 54.2719C64.0372 48.8371 63.8022 43.3863 63.584 37.9515C63.584 37.8556 63.5504 37.6478 63.5169 37.3281C63.4665 37.0084 63.3994 36.6727 63.2987 36.3371C63.198 36.0014 63.0972 35.6977 62.963 35.4419C62.8287 35.1862 62.6944 35.0583 62.5266 35.0583C62.5266 34.9144 62.5098 34.7866 62.5098 34.6427C64.1043 34.6427 65.6989 34.6427 67.2935 34.6427C69.0727 39.2942 70.9358 44.0257 72.8493 48.885C72.5808 45.2725 72.3122 41.66 72.0436 38.0474C72.0436 37.9515 72.0101 37.7437 71.9429 37.408C71.8926 37.0724 71.8087 36.7367 71.6912 36.385C71.5905 36.0334 71.4562 35.7296 71.3219 35.4579C71.1876 35.1862 71.0365 35.0583 70.8687 35.0583C70.8519 34.9144 70.8519 34.7706 70.8351 34.6267C72.6311 34.6267 74.4271 34.6267 76.2231 34.6267C76.2399 34.7706 76.2567 34.9144 76.2567 35.0583C76.0888 35.0583 75.9713 35.2022 75.8706 35.4739C75.7867 35.7456 75.7196 36.0653 75.686 36.417C75.6524 36.7687 75.6189 37.1203 75.6021 37.456C75.5853 37.7917 75.5685 38.0155 75.5853 38.1114C75.5853 38.0954 75.5853 38.0794 75.5853 38.0634C76.0888 43.8499 76.5924 49.6363 77.1127 55.4387C77.1127 55.4068 77.1127 55.3748 77.0959 55.3428C77.1463 55.4387 77.1799 55.6465 77.2638 55.9822Z" fill="white"/>
<path d="M80.8717 59.2271C80.8549 59.0832 80.8381 58.9394 80.8213 58.7795C80.9724 58.7955 81.0899 58.7156 81.1906 58.5238C81.2913 58.3319 81.3752 58.0922 81.4088 57.8045C81.4424 57.5167 81.476 57.229 81.5095 56.9093C81.5263 56.6056 81.5431 56.3498 81.5599 56.158C80.9388 50.0679 80.301 43.9777 79.68 37.9036C79.6296 37.7117 79.5625 37.456 79.4785 37.1363C79.3946 36.8166 79.3107 36.5129 79.21 36.1932C79.1093 35.8735 78.9918 35.6178 78.8575 35.394C78.7232 35.1862 78.5889 35.0743 78.4546 35.0743C78.4379 34.9304 78.4211 34.7866 78.4043 34.6267C81.1403 34.6267 83.8762 34.6267 86.5954 34.6267C87.2164 34.6267 87.8375 34.7546 88.4249 35.0263C89.0292 35.2981 89.5663 35.6497 90.0363 36.0973C90.5063 36.5449 90.9259 37.0883 91.2616 37.6958C91.5973 38.3192 91.8155 38.9745 91.9162 39.6619C92.7387 45.3524 93.5612 51.0429 94.3836 56.7335C94.4843 57.4208 94.434 58.0442 94.2493 58.6037C94.0647 59.1631 93.7626 59.6267 93.3765 59.9784C92.9737 60.33 92.4869 60.5858 91.8994 60.7137C91.312 60.8415 90.6573 60.8415 89.9524 60.7137C86.9479 60.1702 83.9098 59.6587 80.8717 59.2271ZM85.3869 56.3978C86.7632 56.5896 88.1396 56.8134 89.516 57.0212C89.8349 57.0692 90.1034 57.0052 90.3216 56.8134C90.5231 56.6216 90.607 56.3818 90.5734 56.1101C89.8349 50.5634 89.0963 45.0327 88.3578 39.486C88.3074 39.1663 88.1732 38.8946 87.9214 38.6868C87.6696 38.463 87.4011 38.3511 87.0989 38.3511C85.8233 38.3192 84.5476 38.2872 83.2887 38.2392C83.9937 44.2974 84.6987 50.3396 85.3869 56.3978Z" fill="white"/>
<path d="M50.7422 58.2519C61.9378 58.2519 68.249 59.6905 68.249 59.6905L67.695 61.7366C67.695 61.7366 73.9223 61.9763 75.349 68.0665C75.349 68.0665 68.6686 65.397 64.338 68.0665L64.5395 65.7647C64.5395 65.7647 60.2761 64.7896 50.7422 64.7896V58.2519Z" fill="#C3193D"/>
<path d="M50.7422 64.7898C50.7422 64.7898 58.5976 64.55 66.0837 65.8608C66.0837 65.8608 64.9591 66.3243 64.8584 66.6121C64.7577 66.8998 65.1101 67.6511 65.1101 67.6511C65.1101 67.6511 68.7021 65.4771 75.349 68.0667C75.349 68.0667 74.3755 62.536 67.695 61.7367L68.2489 59.6907C68.2489 59.6907 62.0888 58.2521 50.7422 58.2521V57.7885C50.7422 57.7885 62.9785 57.4209 70.0785 59.4829V60.3301C70.0785 60.3301 77.8164 62.6479 77.8164 71.0238C77.8164 71.0238 70.6492 66.8838 63.4316 70.0328C63.4316 70.0328 62.5253 68.1626 63.0456 66.9317C63.5659 65.7009 50.7422 65.8608 50.7422 65.8608V64.7898Z" fill="#002F58"/>
<path d="M50.7416 58.2519C39.546 58.2519 33.2348 59.6905 33.2348 59.6905L33.7887 61.7366C33.7887 61.7366 27.5615 61.9763 26.1348 68.0665C26.1348 68.0665 32.8152 65.397 37.1457 68.0665L36.9443 65.7647C36.9443 65.7647 41.2077 64.7896 50.7416 64.7896V58.2519Z" fill="#C3193D"/>
<path d="M50.7422 64.7898C50.7422 64.7898 42.8868 64.55 35.4007 65.8608C35.4007 65.8608 36.5253 66.3243 36.626 66.6121C36.7267 66.8998 36.3742 67.6511 36.3742 67.6511C36.3742 67.6511 32.7822 65.4771 26.1354 68.0667C26.1354 68.0667 27.1089 62.536 33.7893 61.7367L33.2354 59.6907C33.2354 59.6907 39.3955 58.2521 50.7422 58.2521V57.7885C50.7422 57.7885 38.5059 57.4209 31.4059 59.4829V60.3301C31.4059 60.3301 23.668 62.6479 23.668 71.0238C23.668 71.0238 30.8352 66.8838 38.0527 70.0328C38.0527 70.0328 38.9591 68.1626 38.4388 66.9317C37.9017 65.7169 50.7422 65.8608 50.7422 65.8608V64.7898Z" fill="#002F58"/>
<path d="M42.2824 60.0745C42.2152 60.0905 42.1313 60.1065 42.0642 60.1224C41.9802 60.1384 41.9131 60.1544 41.846 60.1864C41.7788 60.2183 41.7452 60.2343 41.7452 60.2503C41.7117 60.2503 41.6781 60.2503 41.6445 60.2503C41.6613 60.2024 41.6613 60.1544 41.6781 60.0905C41.762 59.8986 41.846 59.7068 41.9131 59.499C42.6852 59.4511 43.4573 59.4031 44.2126 59.3712C44.2294 59.563 44.263 59.7548 44.2798 59.9466C44.2798 59.9946 44.263 60.0425 44.263 60.1064C44.2294 60.1064 44.1959 60.1064 44.1623 60.1064C44.1623 60.0905 44.1455 60.0585 44.0784 60.0425C44.028 60.0265 43.9609 60.0105 43.8769 60.0105C43.8098 60.0105 43.7259 59.9946 43.6587 59.9946C43.5916 59.9946 43.5412 59.9946 43.5245 59.9946C43.4573 59.9946 43.3902 59.9946 43.323 60.0105C43.1888 60.9856 43.0545 61.9607 42.937 62.9357C42.937 62.9677 42.937 62.9997 42.937 63.0636C42.937 63.1116 42.9538 63.1755 42.9538 63.2235C42.9538 63.2874 42.9705 63.3353 42.9873 63.3673C43.0041 63.4153 43.0377 63.4313 43.0713 63.4313C43.0713 63.4632 43.0713 63.4792 43.0545 63.5112C42.6516 63.5272 42.2488 63.5431 41.8627 63.5751C41.8627 63.5431 41.8627 63.5272 41.8795 63.4952C41.9131 63.4952 41.9467 63.4792 41.9634 63.4313C41.997 63.3833 42.0306 63.3353 42.0474 63.2874C42.0809 63.2394 42.0977 63.1755 42.1145 63.1275C42.1313 63.0796 42.1481 63.0316 42.1481 62.9997C42.2824 62.0246 42.4334 61.0495 42.5845 60.0585C42.5174 60.0585 42.4502 60.0745 42.3831 60.0745C42.3999 60.0585 42.3495 60.0585 42.2824 60.0745Z" fill="white"/>
<path d="M46.4453 63.3672C46.4453 63.3352 46.4453 63.3192 46.4453 63.2873C46.4789 63.2873 46.4957 63.2713 46.5292 63.2233C46.5628 63.1914 46.5796 63.1434 46.5964 63.0795C46.6132 63.0315 46.6299 62.9676 46.6467 62.9196C46.6635 62.8717 46.6635 62.8237 46.6635 62.7917C46.7307 61.8007 46.7978 60.8256 46.8817 59.8346C46.8817 59.8026 46.8817 59.7706 46.8817 59.7067C46.8817 59.6588 46.8649 59.5948 46.8649 59.5469C46.8482 59.4989 46.8482 59.451 46.8146 59.403C46.7978 59.355 46.7642 59.3391 46.7474 59.3391C46.7474 59.3071 46.7474 59.2911 46.7474 59.2591C47.4692 59.2432 48.191 59.2272 48.9127 59.2112C48.9295 59.451 48.9631 59.7067 48.9799 59.9465C48.9463 59.9465 48.9127 59.9465 48.8959 59.9465C48.8959 59.9305 48.8624 59.8985 48.812 59.8825C48.7616 59.8666 48.6945 59.8506 48.6106 59.8346C48.5434 59.8186 48.4595 59.8186 48.3924 59.8026C48.3252 59.8026 48.2749 59.8026 48.2581 59.8026C48.0399 59.8026 47.8385 59.8186 47.6203 59.8186C47.6035 60.0744 47.5867 60.3301 47.5699 60.5699C47.6706 60.5699 47.7713 60.5699 47.8888 60.5699C47.9056 60.5699 47.956 60.5699 48.0231 60.5539C48.0903 60.5539 48.1742 60.5379 48.2413 60.5219C48.3252 60.5059 48.3924 60.49 48.4427 60.474C48.5099 60.458 48.5267 60.426 48.5267 60.41C48.5602 60.41 48.5938 60.41 48.6274 60.41C48.6106 60.7137 48.6106 61.0015 48.5938 61.3052C48.5602 61.3052 48.5267 61.3052 48.4931 61.3052C48.4931 61.2892 48.4595 61.2572 48.4092 61.2412C48.342 61.2253 48.2749 61.2093 48.2077 61.1933C48.1238 61.1773 48.0567 61.1773 47.9895 61.1613C47.9224 61.1613 47.872 61.1453 47.8553 61.1453C47.7545 61.1453 47.6371 61.1453 47.5363 61.1453C47.5028 61.6728 47.4692 62.2003 47.4524 62.7118C47.6706 62.7118 47.9056 62.6958 48.1238 62.6958C48.1406 62.6958 48.191 62.6958 48.2581 62.6799C48.3252 62.6799 48.4092 62.6639 48.4931 62.6479C48.577 62.6319 48.6442 62.6159 48.7113 62.5999C48.7784 62.5839 48.812 62.552 48.812 62.536C48.8456 62.536 48.8791 62.536 48.9127 62.536C48.8791 62.7758 48.8288 63.0315 48.7952 63.2713C47.9895 63.3192 47.2174 63.3352 46.4453 63.3672Z" fill="white"/>
<path d="M54.2499 62.8876C54.2834 62.9675 54.317 63.0474 54.3506 63.1274C54.4009 63.2073 54.4513 63.2552 54.5016 63.2552C54.5016 63.2872 54.5016 63.3032 54.5016 63.3352C54.0988 63.3192 53.7128 63.3192 53.3267 63.3192C53.3267 63.2872 53.3267 63.2712 53.3267 63.2393C53.3771 63.2393 53.4274 63.1913 53.461 63.0954C53.4946 62.9995 53.4946 62.9036 53.4778 62.7917C53.4778 62.7757 53.461 62.7597 53.461 62.7437C53.461 62.7278 53.461 62.6958 53.4442 62.6798C53.4442 62.6478 53.4274 62.6159 53.4106 62.5839C53.0581 62.5839 52.7224 62.5679 52.37 62.5679C52.37 62.6159 52.3532 62.6638 52.3532 62.7118C52.3532 62.7277 52.3364 62.7597 52.3364 62.8237C52.3364 62.8876 52.3364 62.9356 52.3364 62.9995C52.3364 63.0634 52.3532 63.1114 52.37 63.1593C52.3867 63.2073 52.4035 63.2233 52.4371 63.2233C52.4371 63.2552 52.4371 63.2712 52.4371 63.3032C52.0678 63.3032 51.6986 63.3032 51.3125 63.3032C51.3125 63.2712 51.3125 63.2552 51.3125 63.2233C51.3629 63.2233 51.4132 63.1753 51.4468 63.0954C51.4971 63.0155 51.5139 62.9196 51.5307 62.8556C51.7153 61.8486 51.9 60.8256 52.0846 59.8185C52.0846 59.8026 52.0846 59.7706 52.0846 59.7067C52.0846 59.6587 52.0846 59.5948 52.0846 59.5308C52.0846 59.4669 52.0678 59.4189 52.051 59.371C52.0343 59.323 52.0175 59.307 51.9839 59.307C51.9839 59.2751 51.9839 59.2591 51.9839 59.2271C52.4874 59.2271 53.0078 59.2431 53.5113 59.2431C53.5113 59.2751 53.5113 59.2911 53.5113 59.323C53.4778 59.323 53.461 59.339 53.4442 59.387C53.4442 59.4349 53.4274 59.4829 53.4274 59.5308C53.4274 59.5788 53.4274 59.6427 53.4274 59.6907C53.4274 59.7386 53.4442 59.7866 53.4442 59.8185C53.7463 60.8416 53.9981 61.8646 54.2499 62.8876ZM53.2763 62.0244C53.1253 61.3531 52.9574 60.6817 52.8064 60.0104C52.7057 60.6817 52.5882 61.3371 52.4707 62.0084C52.7392 62.0244 53.0078 62.0244 53.2763 62.0244Z" fill="white"/>
<path d="M59.3704 61.3532C59.3033 61.8007 59.2361 62.2643 59.169 62.7119C58.9172 62.6959 58.6822 62.6799 58.4305 62.6799C58.229 62.2163 58.0444 61.7528 57.8598 61.2732C57.9269 61.8167 57.994 62.3602 58.0612 62.9037C58.0612 62.9357 58.078 62.9676 58.0948 63.0316C58.1115 63.0795 58.1283 63.1435 58.1619 63.1914C58.1787 63.2394 58.2122 63.2873 58.2458 63.3353C58.2794 63.3832 58.2962 63.3992 58.3465 63.3992C58.3465 63.4312 58.3465 63.4472 58.3633 63.4791C57.9605 63.4632 57.5744 63.4472 57.1716 63.4312C57.1716 63.3992 57.1716 63.3832 57.1716 63.3513C57.2051 63.3513 57.2387 63.3353 57.2555 63.2873C57.2723 63.2394 57.2891 63.1914 57.3059 63.1275C57.3226 63.0635 57.3226 63.0156 57.3226 62.9516C57.3226 62.9037 57.3226 62.8557 57.3226 62.8398C57.2219 61.8647 57.1044 60.9056 57.0037 59.9305C57.0037 59.9146 56.9869 59.8826 56.9869 59.8186C56.9702 59.7707 56.9534 59.7068 56.9366 59.6428C56.9198 59.5789 56.8862 59.5309 56.8527 59.483C56.8191 59.435 56.7855 59.419 56.752 59.403C56.752 59.3711 56.752 59.3551 56.752 59.3231C57.0709 59.3391 57.3898 59.3551 57.7255 59.3711C58.0612 60.1383 58.3801 60.8896 58.7158 61.6569C58.8501 60.9216 58.9676 60.1863 59.0851 59.435C59.404 59.451 59.7397 59.467 60.0586 59.499C60.0586 59.5309 60.0586 59.5469 60.0754 59.5789C60.0418 59.5789 60.0082 59.5949 59.9915 59.6428C59.9747 59.6908 59.9579 59.7387 59.9579 59.8027C59.9579 59.8666 59.9411 59.9146 59.9579 59.9785C59.9579 60.0264 59.9579 60.0744 59.9579 60.0904C60.1257 61.0654 60.2768 62.0245 60.4279 62.9996C60.4279 63.0156 60.4446 63.0475 60.4614 63.1115C60.4782 63.1594 60.495 63.2234 60.5286 63.2873C60.5621 63.3513 60.5789 63.3992 60.6125 63.4472C60.6461 63.4951 60.6796 63.5271 60.7132 63.5271C60.7132 63.5591 60.7132 63.575 60.73 63.607C60.3272 63.591 59.9243 63.5591 59.5215 63.5431C59.5215 63.5111 59.5215 63.4951 59.5047 63.4632C59.5383 63.4632 59.555 63.4472 59.5718 63.4152C59.5886 63.3832 59.6054 63.3353 59.6222 63.2873C59.639 63.2394 59.639 63.1914 59.639 63.1275C59.639 63.0795 59.639 63.0316 59.639 62.9996C59.5215 62.4401 59.4375 61.8967 59.3704 61.3532Z" fill="white"/>
</g>
<defs>
<clipPath id="clip0">
<rect width="98.8636" height="100" fill="white" transform="translate(0.0683594 0.00402832)"/>
</clipPath>
</defs>
</svg>
