<svg width="99" height="101" viewBox="0 0 99 101" fill="none" xmlns="http://www.w3.org/2000/svg">
<g clip-path="url(#clip0)">
<path d="M48.9763 99.8244C43.2829 97.9088 38.4494 95.7536 34.6143 93.7866L30.3739 93.359C22.1303 92.5209 17.0695 90.4599 15.3397 87.2272C14.5786 85.799 14.6083 84.4221 14.8752 83.3188L10.872 84.0116L0.0683594 74.6641L6.58217 69.0282L0.671307 63.9141H9.74518V60.2452C8.61835 57.2947 8.55905 54.0107 9.58703 50.4958L11.0895 45.3474L12.3843 50.5385C12.3942 50.5813 12.6215 51.3424 13.3925 52.1036C13.0466 49.7346 13.2047 46.3309 15.8241 43.4146C16.8916 42.2259 17.6131 40.8917 17.969 39.455C16.6247 32.3909 18.1271 26.4301 18.1963 26.1735C19.0167 22.2139 21.2111 19.3233 22.4664 17.9378C21.9524 15.1584 22.6641 13.3197 22.6937 13.2427L24.206 9.43702L24.3049 9.762C25.5009 5.26359 28.7232 2.50125 28.9209 2.33021L31.6885 0.00402832L31.3524 3.33081C30.9966 6.82862 34.1992 11.977 36.1859 14.6624C40.4164 12.0796 45.0324 11.9342 45.9912 11.9342H46.1197L49.52 12.0198L52.9004 11.9342H53.0289C53.9877 11.9342 58.5938 12.0796 62.8243 14.6538C64.4948 12.4046 68.0532 7.09374 67.6677 3.33081L67.3119 0.00402832L70.0795 2.33021C70.2772 2.50125 73.4995 5.26359 74.6955 9.762L74.7943 9.43702L76.3066 13.2427C76.3363 13.3282 77.048 15.1584 76.534 17.9378C77.7893 19.3318 79.9836 22.2225 80.8139 26.2248H80.7942C81.0116 26.8406 81.239 27.9951 81.4366 30.2358C81.6343 32.4337 81.7233 35.7947 81.0314 39.455C81.3872 40.8917 82.1088 42.2173 83.1763 43.4146C85.7957 46.3223 85.9439 49.7261 85.6079 52.1036C86.3887 51.3424 86.6062 50.5813 86.6259 50.53L87.9801 45.5869L89.4133 50.4958C90.4413 54.0107 90.382 57.2862 89.2552 60.2452V63.9141H98.3291L92.4182 69.0282L98.932 74.6641L88.1284 84.0116L84.1252 83.3188C84.3921 84.4221 84.4217 85.799 83.6606 87.2272C81.9309 90.4599 76.8799 92.5209 68.6364 93.359L64.396 93.7866C60.5509 95.7536 55.7273 97.9088 50.0339 99.8244L49.5101 100.004L48.9763 99.8244Z" fill="url(#paint0_linear)"/>
<path d="M96.9068 74.6642L90.3929 69.0283L94.8706 65.1542H87.823V60.0401C88.7818 57.6369 89.1277 54.5923 88.0207 50.8038C88.0207 50.8038 87.2991 53.7029 83.4838 54.6095C83.4838 54.6095 86.0636 48.6486 82.0406 44.1759C78.0177 39.7031 79.6684 34.9823 79.6684 34.9823C79.6684 34.9823 77.1973 36.3934 76.5251 38.1723C76.5251 38.1723 74.6471 35.3586 72.176 32.4423C69.7049 29.5261 71.7905 23.933 71.7905 23.933C71.7905 23.933 70.7131 23.8731 68.163 25.9171C68.163 25.9171 69.2601 19.1438 49.6198 19.0839C49.5803 19.0839 49.5408 19.0839 49.5012 19.0839C49.4617 19.0839 49.4222 19.0839 49.3826 19.0839C29.7423 19.1352 30.8395 25.9171 30.8395 25.9171C28.2893 23.8646 27.2119 23.933 27.2119 23.933C27.2119 23.933 29.2975 29.5261 26.8264 32.4423C24.3553 35.3586 22.4773 38.1723 22.4773 38.1723C21.8052 36.3934 19.3341 34.9823 19.3341 34.9823C19.3341 34.9823 20.9848 39.7031 16.9618 44.1759C12.9389 48.6486 15.5187 54.6095 15.5187 54.6095C11.7033 53.6944 10.9818 50.8038 10.9818 50.8038C9.87472 54.5923 10.2207 57.6455 11.1795 60.0401V65.1457H4.13189L8.60952 69.0198L2.0957 74.6642L11.3475 82.669L17.1595 81.6598C17.1595 81.6598 10.6457 90.1179 30.5331 92.1276C30.5331 92.1276 27.0439 89.9126 25.1856 86.5944C25.1856 86.5944 34.2595 93.5387 49.5012 98.67C64.743 93.5387 73.8168 86.5944 73.8168 86.5944C71.9586 89.9126 68.4694 92.1276 68.4694 92.1276C88.3568 90.1179 81.8429 81.6598 81.8429 81.6598L87.655 82.669L96.9068 74.6642Z" fill="#101123"/>
<path d="M18.5628 44.1329C18.5628 44.1329 22.1014 45.5953 21.8048 50.2905C21.5083 54.9856 25.5807 58.9794 28.8623 59.7577C28.8623 59.7577 26.2923 57.4913 25.9563 54.8316C25.9563 54.8316 29.4455 61.5707 35.7319 62.0325C35.7319 62.0325 28.3186 66.0007 21.4391 62.768C21.4391 62.768 23.5643 64.906 25.5708 65.2994C25.5708 65.2994 18.5529 65.3679 18.2168 58.2439C18.2168 58.2439 21.5577 62.024 26.2923 61.8444C26.2923 61.8444 19.5117 58.7827 19.8082 53.4547C20.1047 48.1268 20.4606 46.271 18.5628 44.1329Z" fill="#EF3D3D"/>
<path d="M20.9644 51.6759C20.0649 57.0124 28.0515 61.0832 28.0515 61.0832C28.0515 61.0832 26.3316 61.2286 23.8408 60.3734C21.9331 58.9708 19.6399 56.619 19.8079 53.4633C20.0946 48.1268 20.4504 46.271 18.5625 44.1329C18.5625 44.1329 21.8738 46.3394 20.9644 51.6759Z" fill="url(#paint1_linear)"/>
<path d="M27.1225 64.0422C25.3038 64.0166 23.3566 63.6745 21.4489 62.7765C21.4489 62.7765 23.574 64.9145 25.5806 65.3079C25.5806 65.3079 18.5627 65.3763 18.2266 58.2524C18.2167 58.2524 20.9843 63.3495 27.1225 64.0422Z" fill="#F15B2B"/>
<path d="M80.4388 44.1329C80.4388 44.1329 76.9002 45.5953 77.1968 50.2905C77.4933 54.9856 73.411 58.9794 70.1294 59.7662C70.1294 59.7662 72.6994 57.4999 73.0354 54.8402C73.0354 54.8402 69.5462 61.5793 63.2598 62.0411C63.2598 62.0411 70.6731 66.0092 77.5526 62.7765C77.5526 62.7765 75.4275 64.9146 73.4209 65.308C73.4209 65.308 80.4388 65.3764 80.7749 58.2525C80.7749 58.2525 77.434 62.0325 72.6994 61.8529C72.6994 61.8529 79.4801 58.7913 79.1835 53.4633C78.8969 48.1268 78.541 46.271 80.4388 44.1329Z" fill="#EF3D3D"/>
<path d="M78.0363 51.6759C78.9358 57.0124 70.9492 61.0832 70.9492 61.0832C70.9492 61.0832 72.6691 61.2286 75.16 60.3734C77.0677 58.9708 79.3608 56.619 79.1928 53.4633C78.9062 48.1268 78.5503 46.271 80.4382 44.1329C80.4382 44.1329 77.127 46.3394 78.0363 51.6759Z" fill="url(#paint2_linear)"/>
<path d="M71.8789 64.0422C73.6976 64.0166 75.6449 63.6745 77.5526 62.7765C77.5526 62.7765 75.4274 64.9145 73.4209 65.3079C73.4209 65.3079 80.4388 65.3763 80.7749 58.2524C80.7848 58.2524 78.0171 63.3495 71.8789 64.0422Z" fill="#F15B2B"/>
<path d="M49.5004 93.5556L69.2 82.2754L49.5004 89.6473L29.8008 82.2754L49.5004 93.5556Z" fill="#F3B61D"/>
<path d="M11.2775 57.6709H87.7134V80.8471L85.8749 80.3597C78.0267 78.273 69.9018 76.8533 61.7373 76.152C57.6847 75.8014 53.5629 75.6218 49.4905 75.6218C45.4181 75.6218 41.2963 75.8014 37.2437 76.152C29.0792 76.8533 20.9543 78.273 13.1061 80.3597L11.2676 80.8471V57.6709H11.2775Z" fill="#101123"/>
<path d="M77.8483 81.7795C77.9274 81.5058 77.7791 81.2664 77.5715 81.0953C77.3639 80.9243 77.0971 80.8045 76.8302 80.6934C76.2865 80.4881 75.7034 80.3342 75.1202 80.223C73.944 79.9921 72.7381 79.8296 71.5223 79.7099C69.1006 79.4448 66.6493 79.3165 64.2078 79.1882C59.3151 78.9658 54.4124 78.906 49.5098 78.8974C44.6071 78.9145 39.7044 78.9658 34.8117 79.1882C32.3702 79.3165 29.9189 79.4448 27.4972 79.7013C26.2814 79.8211 25.0755 79.9835 23.8993 80.2144C23.3062 80.3256 22.7329 80.4796 22.1893 80.6848C21.9224 80.7874 21.6556 80.9072 21.448 81.0868C21.2305 81.2493 21.0921 81.4973 21.1712 81.7709C21.0131 81.5315 21.0823 81.1979 21.2799 80.967C21.4677 80.7276 21.7149 80.5394 21.9719 80.3684C22.4957 80.0434 23.069 79.7868 23.6522 79.5645C24.8186 79.1198 26.0244 78.8033 27.2303 78.504C29.6619 77.9481 32.1231 77.5462 34.5942 77.2554C39.5463 76.6653 44.528 76.4088 49.5098 76.4088C54.4915 76.4173 59.4732 76.6653 64.4253 77.2554C66.8964 77.5462 69.3675 77.9481 71.7892 78.504C72.995 78.8033 74.2108 79.1198 75.3673 79.5645C75.9505 79.7868 76.5238 80.0349 77.0476 80.3598C77.3046 80.5309 77.5616 80.7105 77.7396 80.9585C77.9372 81.2065 78.0064 81.54 77.8483 81.7795Z" fill="url(#paint3_radial)"/>
<path d="M29.8008 82.2754L49.5004 93.5556V91.3492L29.8008 82.2754Z" fill="#101123"/>
<path d="M94.1876 75.3396L89.4629 70.9695L94.5237 75.0488L94.1876 75.3396Z" fill="#FBB95A"/>
<path d="M93.06 76.3146L88.8789 72.3978L93.3961 76.0239L93.06 76.3146Z" fill="#FBB95A"/>
<path d="M91.9434 77.2808L88.6914 74.1849L92.2794 76.99L91.9434 77.2808Z" fill="#FBB95A"/>
<path d="M90.8169 78.2559L88.3359 75.81L91.153 77.9651L90.8169 78.2559Z" fill="#FBB95A"/>
<path d="M89.6995 79.2223L88.375 77.7855L90.0356 78.9315L89.6995 79.2223Z" fill="#FBB95A"/>
<path d="M94.1876 75.3396L89.4629 70.9695L94.5237 75.0488L94.1876 75.3396Z" fill="#EF3D3D"/>
<path d="M93.06 76.3146L88.8789 72.3978L93.3961 76.0239L93.06 76.3146Z" fill="#EF3D3D"/>
<path d="M91.9434 77.2808L88.6914 74.1849L92.2794 76.99L91.9434 77.2808Z" fill="#EF3D3D"/>
<path d="M90.8169 78.2559L88.3359 75.81L91.153 77.9651L90.8169 78.2559Z" fill="#EF3D3D"/>
<path d="M89.6995 79.2223L88.375 77.7855L90.0356 78.9315L89.6995 79.2223Z" fill="#EF3D3D"/>
<path d="M4.43763 75.3396L9.15249 70.9695L4.10156 75.0488L4.43763 75.3396Z" fill="#EF3D3D"/>
<path d="M5.55482 76.3146L9.7458 72.3978L5.21875 76.0239L5.55482 76.3146Z" fill="#EF3D3D"/>
<path d="M6.68177 77.2808L9.92385 74.1849L6.3457 76.99L6.68177 77.2808Z" fill="#EF3D3D"/>
<path d="M7.79896 78.2559L10.2898 75.81L7.46289 77.9651L7.79896 78.2559Z" fill="#EF3D3D"/>
<path d="M8.92591 79.2223L10.2504 77.7855L8.58984 78.9315L8.92591 79.2223Z" fill="#EF3D3D"/>
<path d="M80.1224 82.6688C80.3794 82.5747 80.676 82.7116 80.7353 82.9425C80.844 83.3188 80.9033 83.678 80.933 84.0543C80.9725 84.576 80.933 85.0976 80.8143 85.6108C80.587 86.637 79.9544 87.5863 79.0747 88.2705C78.2049 88.9718 77.1373 89.4165 76.05 89.7329C74.9529 90.0408 73.826 90.2119 72.6992 90.3145C73.8162 90.1434 74.9232 89.904 75.971 89.5362C76.999 89.1599 77.9973 88.6725 78.7386 87.9712C79.4997 87.287 79.9742 86.4147 80.1125 85.4996C80.2312 84.7128 80.1224 83.8747 79.8457 83.1306C79.7864 82.951 79.905 82.7458 80.1224 82.6688Z" fill="#BE202E"/>
<path d="M20.0148 82.6688C19.7578 82.5747 19.4613 82.7116 19.402 82.9425C19.2932 83.3188 19.2339 83.678 19.2043 84.0543C19.1647 84.576 19.2043 85.0976 19.3229 85.6108C19.5502 86.637 20.1828 87.5863 21.0625 88.2705C21.9324 88.9718 22.9999 89.4165 24.0872 89.7329C25.1843 90.0408 26.3112 90.2119 27.438 90.3145C26.321 90.1434 25.214 89.904 24.1662 89.5362C23.1383 89.1599 22.1399 88.6725 21.3986 87.9712C20.6375 87.287 20.1631 86.4147 20.0247 85.4996C19.9061 84.7128 20.0148 83.8747 20.2916 83.1306C20.3509 82.951 20.2323 82.7458 20.0148 82.6688Z" fill="#BE202E"/>
<path d="M57.5068 75.7587H51.3884L49.5005 70.73L47.6126 75.7587H41.4941L46.4462 78.8717L44.5484 83.9003L49.5005 80.7959L54.4525 83.9003L52.5547 78.8717L57.5068 75.7587Z" fill="#141129"/>
<path d="M54.6691 76.3146H50.7253L49.4996 73.0563L48.2739 76.3146H44.3301L47.5227 78.3244L46.307 81.5742L49.4996 79.5644L52.6923 81.5742L51.4765 78.3244L54.6691 76.3146Z" fill="white"/>
<path d="M19.5897 26.4559C19.5897 26.4559 15.1319 43.6798 28.0112 53.7371C28.0112 53.7371 25.5895 49.0164 25.7082 38.9249L29.6224 46.0659C29.6224 46.0659 27.2995 57.1323 44.1821 63.803C44.1821 63.803 39.0916 58.3895 37.5299 47.7079C35.9682 37.0263 19.5897 26.4559 19.5897 26.4559Z" fill="#3D4054"/>
<path d="M38.557 58.6802C30.4716 53.0187 31.717 46.4678 31.7368 46.3908L31.8653 45.8007L27.6545 38.1209L23.5624 38.8992C23.5327 41.5332 23.6711 43.8166 23.8985 45.7665C20.8046 40.0024 20.8145 33.6738 21.2 29.9964C25.7963 33.46 34.366 40.7977 35.4138 47.9302C36.0464 52.3773 37.2918 55.9692 38.557 58.6802Z" fill="#A8AAAD"/>
<path d="M24.5021 17.7926C24.5021 17.7926 2.26225 36.6757 49.4997 60.2881V25.9085L27.843 17.5275L24.5021 17.7926Z" fill="#101123"/>
<path d="M31.0545 27.2256C31.0545 27.2256 27.8322 31.6214 29.4433 36.0257C29.4433 36.0257 29.6015 34.435 31.0545 32.5279C31.0545 32.5279 30.6294 40.7465 38.3195 43.3292C38.3195 43.3292 37.0148 41.7043 36.9258 38.8394C36.9258 38.8394 40.0789 43.8424 48.5795 44.9028L47.2352 33.2805L39.7923 30.1333L35.7891 27.217H31.0545V27.2256Z" fill="#7A7E99"/>
<path d="M28.6924 24.737C28.6924 24.737 24.8968 33.2378 29.7896 38.6342C29.7896 38.6342 25.5096 36.2823 24.8375 31.6898C24.8375 31.6898 23.5525 36.8382 29.3052 41.6531C29.3052 41.6531 15.8427 34.7686 25.391 19.8452L28.6924 24.737Z" fill="#3D4255"/>
<path d="M45.2205 37.95C45.2205 37.95 42.3442 39.6433 39.2207 38.4887C39.2207 38.4887 41.4249 39.5407 44.0443 39.1644C44.0443 39.1644 42.4133 39.7972 41.079 39.4038C41.079 39.4038 41.9784 39.9597 43.1448 39.8998C43.1448 39.8998 43.0756 42.5681 47.9189 44.8173L49.5004 39.4038L47.7608 36.4277L45.2205 37.95Z" fill="#58536D"/>
<path d="M25.3928 19.8452L27.9528 23.6423C24.9678 27.8841 25.887 32.0234 25.887 32.0234C24.7898 30.4327 24.4735 27.525 24.4735 27.525C22.2594 35.487 26.144 39.4808 28.1802 40.9603C25.1556 38.8736 17.594 32.049 25.3928 19.8452Z" fill="#6D6E83"/>
<path d="M49.5005 14.0211C49.5005 14.0211 43.1053 13.8842 39.5272 17.0913C39.5272 17.0913 40.8715 14.9703 46.0706 13.1744C46.0706 13.1744 40.3772 13.0461 35.8502 16.4584C35.8502 16.4584 29.366 8.62467 29.9196 3.21973C29.9196 3.21973 23.3761 8.72729 25.8769 16.8261C25.8769 16.8261 24.4041 14.8164 24.0384 13.6533C24.0384 13.6533 22.5063 17.4932 25.9362 22.6159C29.366 27.7387 34.9309 28.6879 34.9309 28.6879C34.9309 28.6879 31.076 39.857 45.2107 37.9499C45.2107 37.9499 45.3985 43.3463 49.4906 46.2625V14.0211H49.5005Z" fill="#141129"/>
<path d="M46.3757 37.4196C46.3757 37.4196 46.9293 31.6982 40.4055 25.1901C33.8818 18.6819 29.2164 11.5323 28.9397 7.80359C28.9397 7.80359 25.0847 19.3147 34.2673 23.5309C34.2673 23.5309 29.5821 22.8126 26.9727 18.6904C26.9727 18.6904 27.111 24.5658 33.7138 26.7893C40.3166 29.0129 45.6443 35.598 46.3757 37.4196Z" fill="#F3B61D"/>
<path d="M49.4995 38.1381C49.4995 38.1381 49.4699 38.4545 48.2244 39.6432C48.2244 39.6432 48.6692 38.3177 48.9559 37.548C48.9559 37.548 48.4913 38.788 47.2656 39.6432C47.2656 39.6432 47.6412 43.4147 49.4995 45.3047V38.1381Z" fill="#F47421"/>
<path d="M49.501 16.142C49.501 16.142 41.7912 17.6472 43.8372 23.608C43.8372 23.608 41.5638 20.3924 44.0942 16.7749C44.0942 16.7749 39.3695 20.9141 42.4435 24.7455C45.5176 28.5768 46.4862 30.2017 47.9986 33.6568C47.9986 33.6568 47.4154 30.3043 45.4583 27.2341C45.4583 27.2341 48.2259 29.013 48.8684 30.7576L49.5109 22.8982V16.142H49.501Z" fill="#BABFCE"/>
<path d="M41.9282 17.5275C41.9282 17.5275 38.9431 19.5885 40.2281 22.6074C40.2281 22.6074 36.9662 19.0754 41.9282 17.5275Z" fill="#E6E7E7"/>
<path d="M38.5868 43.5261C41.9376 50 46.8699 51.7019 46.8699 51.7019C43.3214 49.1192 43.3511 44.3471 43.3511 44.3471C45.2291 47.3147 49.4992 49.8375 49.4992 49.8375V60.2968C45.8815 58.4923 42.679 56.7135 39.8322 54.9688C37.9147 50.154 38.5868 43.5261 38.5868 43.5261Z" fill="#BABFCE"/>
<path d="M31.0565 32.5365C29.5936 34.4436 29.4454 36.0343 29.4454 36.0343C27.8441 31.63 31.0565 27.2342 31.0565 27.2342H33.3991L34.9312 28.6881C34.9312 28.6881 28.6942 38.3776 38.3117 43.3378C30.6315 40.7551 31.0565 32.5365 31.0565 32.5365Z" fill="#3D4255"/>
<path d="M34.9411 28.688C34.9411 28.688 34.2295 35.7179 40.5555 36.4705C40.5555 36.4705 36.9872 36.2824 35.7418 34.4094C35.7418 34.4094 38.0943 38.4888 45.2209 37.9586C31.0862 39.8572 34.9411 28.688 34.9411 28.688Z" fill="#3D4255"/>
<path d="M49.5 16.142C49.5 16.142 39.1016 19.1609 48.1854 27.5249L49.5 22.3338V16.142Z" fill="white"/>
<path d="M47.6116 39.3782C47.9575 42.6707 49.4995 44.2785 49.4995 44.2785V45.3133C47.6412 43.4233 47.2656 39.6518 47.2656 39.6518C47.3941 39.5578 47.5029 39.4637 47.6116 39.3782Z" fill="#F3B61D"/>
<path d="M49.0155 41.14C49.0973 41.14 49.1637 40.9218 49.1637 40.6525C49.1637 40.3833 49.0973 40.165 49.0155 40.165C48.9336 40.165 48.8672 40.3833 48.8672 40.6525C48.8672 40.9218 48.9336 41.14 49.0155 41.14Z" fill="#231F20"/>
<path d="M38.5868 43.5261C40.0596 54.7123 49.4992 58.1502 49.4992 58.1502V60.2968C45.8815 58.4923 42.679 56.7135 39.8322 54.9688C37.9147 50.154 38.5868 43.5261 38.5868 43.5261Z" fill="#6D748C"/>
<path d="M43.3516 44.3471C45.2296 47.3147 49.4997 49.8376 49.4997 49.8376V51.9072C44.7255 49.4271 43.3516 44.3471 43.3516 44.3471Z" fill="#6D748C"/>
<path d="M49.4998 54.943C49.4998 54.943 44.2018 53.3095 42.0371 49.4867C42.0371 49.4867 43.5099 54.618 49.4998 57.2691V54.943Z" fill="white"/>
<path d="M32.2905 18.28C32.2905 18.28 29.8491 16.4498 28.999 14.5854C28.999 14.5854 29.177 19.6312 34.2674 23.5224C25.0848 19.3148 28.9397 7.79504 28.9397 7.79504C28.9397 7.79504 27.8821 14.0723 32.2905 18.28Z" fill="#CD5B28"/>
<path d="M32.8242 24.2408C32.8242 24.2408 30.2049 23.7619 28.7815 22.2311C28.7815 22.2311 29.8787 25.4381 34.1388 26.6012C38.3891 27.7643 42.8865 32.2285 42.8865 32.2285C42.8865 32.2285 41.4928 30.1931 39.0118 28.1919C39.0118 28.1919 44.8436 31.3391 46.3757 37.4197C45.6443 35.5895 40.3166 29.0044 33.7138 26.7808C27.111 24.5573 26.9727 18.6819 26.9727 18.6819C26.9727 18.6819 28.6036 23.0692 32.8242 24.2408Z" fill="#CD5B28"/>
<path d="M42.8477 24.2752C42.8477 24.2752 41.9779 23.42 41.6913 22.5135C41.6913 22.5135 41.9878 23.7877 43.2135 25.3271C44.3502 26.7639 47.5132 31.4077 47.9876 33.6483C46.4753 30.1933 45.5066 28.5684 42.4326 24.737C40.7325 22.6246 41.4145 20.4096 42.3733 18.8531C41.5924 20.2557 41.1773 22.2141 42.8477 24.2752Z" fill="#6D6E83"/>
<path d="M33.0723 18.6819C33.6851 19.6398 34.377 20.5634 35.1085 21.4614C35.8399 22.3594 36.6208 23.2231 37.4412 24.0612C38.2715 24.8993 39.1808 25.6605 40.0309 26.4644C40.4559 26.8663 40.871 27.2768 41.2664 27.6959C41.6618 28.1149 42.0572 28.5511 42.3438 29.0386C41.8793 28.0123 41.0391 27.1486 40.2384 26.3019C39.4279 25.4467 38.5284 24.677 37.7179 23.8474C36.8876 23.0264 36.1068 22.1712 35.3259 21.3074C34.9404 20.8798 34.5549 20.4437 34.1892 19.999C33.8037 19.5714 33.438 19.1267 33.0723 18.6819Z" fill="white"/>
<path d="M79.4107 26.4559C79.4107 26.4559 83.8686 43.6798 70.9892 53.7371C70.9892 53.7371 73.4109 49.0164 73.2923 38.9249L69.3781 46.0659C69.3781 46.0659 71.7009 57.1323 54.8184 63.803C54.8184 63.803 59.9088 58.3895 61.4706 47.7079C63.0323 37.0177 79.4107 26.4559 79.4107 26.4559Z" fill="#3D4054"/>
<path d="M60.4336 58.6888C61.6988 55.9778 62.9442 52.3859 63.5966 47.9302C64.6542 40.7977 73.2141 33.4686 77.8103 29.9964C78.1859 33.6738 78.2057 39.9938 75.1119 45.7665C75.3392 43.8166 75.4776 41.5332 75.4479 38.8992L71.3558 38.1209L67.1451 45.8007L67.2736 46.3908C67.323 46.7073 68.4399 53.1214 60.4336 58.6888Z" fill="#A8AAAD"/>
<path d="M74.4976 17.7926C74.4976 17.7926 96.7375 36.6757 49.5 60.2881V25.9085L71.1567 17.5275L74.4976 17.7926Z" fill="#101123"/>
<path d="M67.9332 27.2256C67.9332 27.2256 71.1555 31.6214 69.5444 36.0257C69.5444 36.0257 69.3862 34.435 67.9332 32.5279C67.9332 32.5279 68.3582 40.7465 60.6682 43.3293C60.6682 43.3293 61.9729 41.7044 62.0619 38.8394C62.0619 38.8394 58.9088 43.8424 50.4082 44.9029L51.7624 33.2891L59.2053 30.1419L63.2085 27.2256H67.9332Z" fill="#7A7E99"/>
<path d="M70.3062 24.737C70.3062 24.737 74.1018 33.2378 69.209 38.6342C69.209 38.6342 73.4889 36.2823 74.1611 31.6898C74.1611 31.6898 75.4461 36.8382 69.6933 41.6531C69.6933 41.6531 83.1559 34.7686 73.6076 19.8452L70.3062 24.737Z" fill="#3D4255"/>
<path d="M53.7799 37.95C53.7799 37.95 56.6563 39.6433 59.7798 38.4887C59.7798 38.4887 57.5755 39.5407 54.9562 39.1644C54.9562 39.1644 56.5871 39.7972 57.9215 39.4038C57.9215 39.4038 57.022 39.9597 55.8557 39.8998C55.8557 39.8998 55.9248 42.5681 51.0815 44.8173L49.5 39.4038L51.2397 36.4277L53.7799 37.95Z" fill="#58536D"/>
<path d="M73.6077 19.8452L71.0477 23.6423C74.0327 27.8841 73.1135 32.0234 73.1135 32.0234C74.2106 30.4327 74.5269 27.525 74.5269 27.525C76.741 35.487 72.8565 39.4808 70.8203 40.9603C73.8449 38.8736 81.4064 32.049 73.6077 19.8452Z" fill="#6D6E83"/>
<path d="M49.5 14.0211C49.5 14.0211 55.8952 13.8842 59.4734 17.0913C59.4734 17.0913 58.1291 14.9703 52.9299 13.1744C52.9299 13.1744 58.6233 13.0461 63.1504 16.4584C63.1504 16.4584 69.6345 8.62467 69.081 3.21973C69.081 3.21973 75.6245 8.72729 73.1237 16.8261C73.1237 16.8261 74.5965 14.8164 74.9622 13.6533C74.9622 13.6533 76.4943 17.4932 73.0644 22.6159C69.6345 27.7387 64.0696 28.6879 64.0696 28.6879C64.0696 28.6879 67.9245 39.857 53.7898 37.9499C53.7898 37.9499 53.602 43.3463 49.5099 46.2625V14.0211H49.5Z" fill="#141129"/>
<path d="M52.623 37.4196C52.623 37.4196 52.0694 31.6982 58.5932 25.1901C65.1169 18.6819 69.7823 11.5323 70.0591 7.80359C70.0591 7.80359 73.914 19.3147 64.7314 23.5309C64.7314 23.5309 69.4166 22.8126 72.0261 18.6904C72.0261 18.6904 71.8877 24.5658 65.2849 26.7893C58.6821 29.0129 53.3544 35.598 52.623 37.4196Z" fill="#F3B61D"/>
<path d="M49.5 38.1381C49.5 38.1381 49.5297 38.4545 50.7751 39.6432C50.7751 39.6432 50.3303 38.3177 50.0436 37.548C50.0436 37.548 50.5082 38.788 51.7339 39.6432C51.7339 39.6432 51.3583 43.4147 49.5 45.3047V38.1381Z" fill="#F47421"/>
<path d="M49.5001 16.142C49.5001 16.142 57.21 17.6472 55.1639 23.608C55.1639 23.608 57.4373 20.3924 54.9069 16.7749C54.9069 16.7749 59.6316 20.9141 56.5576 24.7455C53.4835 28.5683 52.5149 30.2017 51.0025 33.6568C51.0025 33.6568 51.5857 30.3043 53.5428 27.2341C53.5428 27.2341 50.7752 29.013 50.1327 30.7576L49.4902 22.8982V16.142H49.5001Z" fill="#BABFCE"/>
<path d="M57.0703 17.5275C57.0703 17.5275 60.0554 19.5885 58.7704 22.6074C58.7704 22.6074 62.0224 19.0754 57.0703 17.5275Z" fill="#E6E7E7"/>
<path d="M60.4123 43.5261C57.0615 50 52.1292 51.7019 52.1292 51.7019C55.6777 49.1192 55.6481 44.3471 55.6481 44.3471C53.77 47.3147 49.5 49.8375 49.5 49.8375V60.2968C53.1177 58.4923 56.3202 56.7135 59.1669 54.9688C61.0845 50.154 60.4123 43.5261 60.4123 43.5261Z" fill="#BABFCE"/>
<path d="M67.9347 32.5365C69.3976 34.4436 69.5458 36.0343 69.5458 36.0343C71.1471 31.63 67.9347 27.2342 67.9347 27.2342H65.602L64.0699 28.6881C64.0699 28.6881 70.3069 38.3776 60.6895 43.3378C68.3696 40.7551 67.9347 32.5365 67.9347 32.5365Z" fill="#3D4255"/>
<path d="M64.059 28.688C64.059 28.688 64.7707 35.7179 58.4447 36.4705C58.4447 36.4705 62.013 36.2824 63.2584 34.4094C63.2584 34.4094 60.9059 38.4888 53.7793 37.9586C67.9139 39.8572 64.059 28.688 64.059 28.688Z" fill="#3D4255"/>
<path d="M49.5 16.142C49.5 16.142 59.8984 19.1609 50.8146 27.5249L49.5 22.3338V16.142Z" fill="white"/>
<path d="M51.3879 39.3782C51.042 42.6707 49.5 44.2785 49.5 44.2785V45.3133C51.3583 43.4233 51.7339 39.6518 51.7339 39.6518C51.6054 39.5578 51.4966 39.4637 51.3879 39.3782Z" fill="#F3B61D"/>
<path d="M49.9842 41.14C50.0661 41.14 50.1324 40.9218 50.1324 40.6525C50.1324 40.3833 50.0661 40.165 49.9842 40.165C49.9023 40.165 49.8359 40.3833 49.8359 40.6525C49.8359 40.9218 49.9023 41.14 49.9842 41.14Z" fill="#231F20"/>
<path d="M60.4123 43.5261C58.9396 54.7123 49.5 58.1502 49.5 58.1502V60.2968C53.1177 58.4923 56.3202 56.7135 59.1669 54.9688C61.0845 50.154 60.4123 43.5261 60.4123 43.5261Z" fill="#6D748C"/>
<path d="M55.6482 44.3471C53.7701 47.3147 49.5 49.8376 49.5 49.8376V51.9072C54.2742 49.4271 55.6482 44.3471 55.6482 44.3471Z" fill="#6D748C"/>
<path d="M49.5 54.943C49.5 54.943 54.798 53.3095 56.9627 49.4867C56.9627 49.4867 55.4899 54.618 49.5 57.2691V54.943Z" fill="white"/>
<path d="M66.7093 18.28C66.7093 18.28 69.1507 16.4498 70.0008 14.5854C70.0008 14.5854 69.8229 19.6312 64.7324 23.5224C73.915 19.3148 70.0601 7.79504 70.0601 7.79504C70.0601 7.79504 71.1177 14.0723 66.7093 18.28Z" fill="#CD5B28"/>
<path d="M66.1745 24.2409C66.1745 24.2409 68.7939 23.762 70.2173 22.2311C70.2173 22.2311 69.1201 25.4382 64.8599 26.6013C60.6096 27.7644 56.1122 32.2286 56.1122 32.2286C56.1122 32.2286 57.5158 30.2017 59.9869 28.2005C59.9869 28.2005 54.1551 31.3477 52.623 37.4283C53.3545 35.5981 58.6822 29.013 65.2849 26.7894C71.8877 24.5659 72.0261 18.6906 72.0261 18.6906C72.0261 18.6906 70.3952 23.0692 66.1745 24.2409Z" fill="#CD5B28"/>
<path d="M56.1516 24.2752C56.1516 24.2752 57.0215 23.42 57.3081 22.5135C57.3081 22.5135 57.0116 23.7877 55.7859 25.3271C54.6492 26.7639 51.4862 31.4077 51.0117 33.6483C52.524 30.1933 53.4927 28.5684 56.5668 24.737C58.2669 22.6246 57.5849 20.4096 56.6261 18.8531C57.407 20.2557 57.8221 22.2141 56.1516 24.2752Z" fill="#6D6E83"/>
<path d="M65.9278 18.6819C65.315 19.6398 64.6231 20.5634 63.8916 21.4614C63.1602 22.3594 62.3793 23.2231 61.5589 24.0612C60.7286 24.8993 59.8193 25.6605 58.9692 26.4644C58.5442 26.8663 58.129 27.2768 57.7337 27.6959C57.3383 28.1149 56.9429 28.5511 56.6562 29.0386C57.1208 28.0123 57.961 27.1486 58.7616 26.3019C59.5721 25.4467 60.4716 24.677 61.2821 23.8474C62.1124 23.0264 62.8933 22.1712 63.6742 21.3074C64.0597 20.8798 64.4451 20.4437 64.8109 19.999C65.1964 19.5714 65.5621 19.1267 65.9278 18.6819Z" fill="white"/>
<path d="M60.1855 32.2115C60.235 32.22 60.3734 32.2115 60.4821 32.2029C60.6007 32.1944 60.7193 32.1858 60.8379 32.1687C61.0751 32.1345 61.3124 32.0918 61.5496 32.0319C62.024 31.9122 62.4787 31.7411 62.9038 31.5188C63.7637 31.074 64.4951 30.4155 65.0487 29.6373C65.6516 28.765 66.4522 27.9867 67.411 27.4137C68.3698 26.8579 69.4769 26.4816 70.6037 26.4217C69.4966 26.6098 68.5082 27.1059 67.7076 27.7302C66.9069 28.3716 66.3139 29.1498 65.8987 30.0136C65.4243 30.9458 64.7027 31.8352 63.734 32.5194C63.2596 32.8614 62.7159 33.1522 62.1427 33.3746C61.856 33.4858 61.5595 33.5798 61.2531 33.6653C61.0949 33.6996 60.9466 33.7423 60.7786 33.768C60.6106 33.8022 60.4722 33.8278 60.2449 33.8449L60.1855 32.2115Z" fill="url(#paint4_linear)"/>
<path d="M39.0327 33.8449C38.8053 33.8278 38.6669 33.8022 38.4989 33.768C38.3408 33.7423 38.1826 33.6996 38.0245 33.6653C37.718 33.5798 37.4215 33.4858 37.1349 33.3746C36.5616 33.1522 36.0179 32.8614 35.5435 32.5194C34.5748 31.8437 33.8532 30.9543 33.3788 30.0136C32.9637 29.1584 32.3607 28.3716 31.57 27.7302C30.7693 27.1059 29.7809 26.6098 28.6738 26.4217C29.8006 26.473 30.9077 26.8493 31.8665 27.4137C32.8154 27.9867 33.6259 28.765 34.2289 29.6373C34.7923 30.4155 35.5138 31.074 36.3738 31.5188C36.7988 31.7497 37.2634 31.9122 37.7279 32.0319C37.9651 32.0918 38.2024 32.1345 38.4396 32.1687C38.5582 32.1773 38.6768 32.1944 38.7954 32.2029C38.9042 32.2115 39.0425 32.2115 39.092 32.2115L39.0327 33.8449Z" fill="url(#paint5_linear)"/>
<path d="M43.8357 35.7349C43.8357 35.7349 41.6117 33.118 39.2494 31.5701C39.2494 31.5701 37.5295 32.3483 38.7947 34.9225L43.8357 35.7349Z" fill="white"/>
<path d="M55.1641 35.7349C55.1641 35.7349 57.3881 33.118 59.7504 31.5701C59.7504 31.5701 61.4703 32.3483 60.2051 34.9225L55.1641 35.7349Z" fill="white"/>
<path d="M59.7602 31.5613C57.3978 33.1092 55.1738 35.7262 55.1738 35.7262L56.36 35.538C56.9827 34.794 58.2973 33.3829 60.2939 32.006C60.037 31.6896 59.7602 31.5613 59.7602 31.5613Z" fill="#BABFCE"/>
<path d="M39.2506 31.5613C41.6129 33.1092 43.8369 35.7262 43.8369 35.7262L42.6508 35.538C42.0281 34.794 40.7134 33.3829 38.7168 32.006C38.9639 31.6896 39.2506 31.5613 39.2506 31.5613Z" fill="#BABFCE"/>
<path d="M21.3104 61.1945C21.3104 61.8957 21.3006 62.597 21.3006 63.2897C21.2907 64.0851 21.2907 64.8719 21.2808 65.6672C20.3813 65.7185 19.4917 65.7699 18.5922 65.8297C18.5922 65.0087 18.6021 64.1877 18.6021 63.3667C17.8509 63.3924 17.1096 63.4095 16.3584 63.4351C16.3584 64.4614 16.3485 65.4962 16.3485 66.5225C17.9794 67.1895 19.6202 67.8138 21.2511 68.4039C21.2511 68.4296 21.2511 68.4552 21.2511 68.4809C21.2511 68.5237 21.2511 68.5664 21.2511 68.6092C21.2511 69.242 21.2412 69.8749 21.2412 70.5078C21.2412 70.5676 21.2412 70.6275 21.2412 70.6959C21.2314 71.6024 21.2314 72.509 21.2215 73.424C21.2215 74.1253 21.2116 74.8266 21.2116 75.5193C20.322 75.6818 19.4324 75.8529 18.5428 76.0325C17.8015 76.1864 17.0601 76.3403 16.3287 76.4943C15.4391 76.691 14.5594 76.8877 13.6797 77.0929C13.6797 76.3147 13.6797 75.5364 13.6797 74.7667C13.6797 73.4668 13.6797 72.1669 13.6797 70.8584C14.5693 70.7301 15.4589 70.6104 16.3485 70.4907C16.3485 71.7393 16.3386 72.9964 16.3386 74.2451C17.0799 74.1082 17.8212 73.9714 18.5626 73.8517C18.5725 72.6287 18.5725 71.3972 18.5823 70.1742C18.8591 70.14 19.126 70.1058 19.4027 70.0716C19.383 70.063 19.3731 70.063 19.3533 70.0545C19.0963 69.969 18.8393 69.8749 18.5823 69.7894C16.9514 69.2078 15.3205 68.6006 13.6896 67.9336C13.6896 67.8822 13.6896 67.8224 13.6896 67.7711C13.6896 67.754 13.6896 67.7283 13.6896 67.7112C13.6896 67.0099 13.6896 66.3086 13.6896 65.6074C13.6896 65.539 13.6896 65.4705 13.6896 65.4021C13.6896 64.7778 13.6896 64.145 13.6896 63.5206C13.6896 62.7424 13.6896 61.9642 13.6896 61.1945C14.5891 61.1945 15.4885 61.1945 16.3781 61.1945C17.1293 61.1945 17.8707 61.1945 18.6219 61.1945C19.5115 61.1945 20.411 61.1945 21.3104 61.1945Z" fill="url(#paint6_linear)"/>
<path d="M25.531 69.7124C25.3432 69.6526 25.1554 69.5927 24.9676 69.5328C24.9577 70.7643 24.9478 71.9958 24.938 73.2273C24.938 73.7832 24.9281 74.3391 24.9281 74.895C24.2164 75.0062 23.5047 75.1259 22.793 75.2456C22.8029 74.6726 22.8128 74.1082 22.8227 73.5352C22.8326 72.7741 22.8326 72.0129 22.8425 71.2518C22.8524 70.542 22.8524 69.8236 22.8622 69.1138C23.0698 69.0967 23.2873 69.071 23.4948 69.0539C23.2774 68.977 23.0599 68.9085 22.8425 68.8316C22.8425 68.823 22.8425 68.823 22.8425 68.8145C22.6646 68.746 22.4866 68.6862 22.2988 68.6178C22.2988 68.5664 22.2988 68.5151 22.2988 68.4553C22.2988 67.9593 22.3087 67.4632 22.3087 66.9672C22.3087 66.9159 22.3087 66.8731 22.3087 66.8218C22.4866 66.8902 22.6744 66.9501 22.8524 67.01C22.8622 66.0265 22.8721 65.0515 22.8721 64.068C23.5838 64.0424 24.2955 64.0167 25.0072 63.9996C24.9973 65.2653 24.9874 66.5225 24.9775 67.7882C25.1653 67.8566 25.3531 67.9165 25.5409 67.9849C25.5409 68.5579 25.531 69.1309 25.531 69.7124Z" fill="url(#paint7_linear)"/>
<path d="M32.6864 71.2263C32.6864 71.4914 32.6864 71.765 32.6766 72.0302C32.6766 72.1499 32.6766 72.2611 32.6766 72.3808C32.6766 72.5347 32.6766 72.6887 32.6766 72.8426C32.6766 73.1761 32.6667 73.5182 32.6667 73.8518C31.955 73.9287 31.2334 74.0142 30.5218 74.0998C29.9287 74.1682 29.3257 74.2452 28.7327 74.3307C28.021 74.4247 27.3093 74.5274 26.5977 74.63C26.5977 74.1083 26.6075 73.5866 26.6075 73.065C26.6174 71.9361 26.6273 70.8072 26.6372 69.6783C26.6372 69.3619 26.6471 69.0455 26.6471 68.729C26.6471 68.6521 26.6471 68.5751 26.6471 68.4981C26.6471 68.1047 26.657 67.7113 26.657 67.3179C26.6668 66.1976 26.6767 65.0773 26.6866 63.957C27.3983 63.9313 28.11 63.9142 28.8315 63.8971C28.8019 66.8647 28.7722 69.8323 28.7525 72.8084C29.3455 72.74 29.9386 72.6716 30.5415 72.6032C30.5415 72.5775 30.5415 72.5604 30.5415 72.5347C30.5415 72.4407 30.5415 72.338 30.5415 72.244C30.5415 72.2269 30.5415 72.2183 30.5415 72.2012C30.5415 72.1499 30.5415 72.1071 30.5415 72.0558C30.5415 72.0045 30.5415 71.9532 30.5415 71.9019C30.5415 71.4999 30.5514 71.098 30.5514 70.7046C30.5514 70.6618 30.5514 70.6191 30.5514 70.5763C31.2532 70.7901 31.9748 71.0125 32.6864 71.2263Z" fill="url(#paint8_linear)"/>
<path d="M40.1213 63.6661C40.1213 64.1364 40.1114 64.5983 40.1114 65.0686C40.1114 65.5903 40.1015 66.112 40.1015 66.6337C39.3899 66.6508 38.6683 66.6764 37.9566 66.7021C37.9566 66.1719 37.9665 65.6502 37.9665 65.1199C37.3734 65.1371 36.7705 65.1456 36.1774 65.1627C36.1675 65.8298 36.1675 66.4883 36.1577 67.1554C36.8792 67.4034 37.6107 67.6599 38.3322 67.908C38.3322 68.4211 38.3223 68.9342 38.3223 69.4473C37.5909 69.2079 36.8693 68.9599 36.1379 68.7204C36.128 69.8493 36.1181 70.9696 36.1082 72.0985C36.7013 72.0558 37.3042 72.013 37.8973 71.9702C37.8973 71.9531 37.8973 71.9275 37.8973 71.9104C37.8973 71.8163 37.8973 71.7308 37.8973 71.6367C37.8973 71.6282 37.8973 71.6111 37.8973 71.6025C37.8973 71.5597 37.8973 71.5084 37.8973 71.4657C37.8973 71.4143 37.8973 71.363 37.8973 71.3203C37.8973 70.944 37.9072 70.5677 37.9072 70.1914C37.9072 70.1486 37.9072 70.1059 37.9072 70.0631C38.6189 70.294 39.3404 70.5249 40.0521 70.7558C40.0521 71.0124 40.0521 71.2604 40.0521 71.517C40.0521 71.6282 40.0521 71.7393 40.0521 71.8505C40.0521 71.9959 40.0521 72.1498 40.0521 72.2952C40.0521 72.6117 40.0521 72.9366 40.0422 73.2531C39.3207 73.2958 38.609 73.3471 37.8874 73.3985C37.2845 73.4412 36.6914 73.4925 36.0885 73.5438C35.3669 73.6037 34.6552 73.6721 33.9337 73.7405C33.9337 73.2531 33.9436 72.7656 33.9436 72.2781C33.9534 70.9269 33.9633 69.5842 33.9831 68.2329C34.1709 68.2244 34.3587 68.2158 34.5465 68.1987C34.3587 68.1389 34.1709 68.0704 33.9831 68.0106C33.8052 67.9507 33.6174 67.8823 33.4395 67.8224C33.4395 67.7711 33.4395 67.7284 33.4395 67.677C33.4395 67.2323 33.4493 66.7962 33.4493 66.3515C33.4493 66.3087 33.4493 66.2659 33.4493 66.2232C33.6273 66.283 33.8151 66.3429 33.993 66.4028C33.993 66.0094 34.0029 65.616 34.0029 65.2226C34.0029 64.7351 34.0127 64.2476 34.0127 63.7601C34.7244 63.743 35.446 63.7345 36.1577 63.7174C36.7507 63.7088 37.3438 63.7003 37.9467 63.6917C38.6979 63.6832 39.4096 63.6746 40.1213 63.6661Z" fill="url(#paint9_linear)"/>
<path d="M47.3255 63.6147C47.3255 64.3673 47.3255 65.1114 47.3255 65.864C47.3255 65.9067 47.3255 65.9409 47.3255 65.9837C47.3255 66.3942 47.3255 66.8132 47.3255 67.2237C47.3255 67.2665 47.3255 67.3093 47.3255 67.352C47.3255 68.4039 47.3255 69.4558 47.3255 70.5078C47.3255 71.3288 47.3255 72.1498 47.3255 72.9793C46.6039 72.9879 45.8823 73.005 45.1608 73.0221C45.1608 72.1925 45.1707 71.3715 45.1707 70.542C45.1707 69.3019 45.1806 68.0618 45.1806 66.8218C45.398 66.8218 45.6253 66.8132 45.8428 66.8132C45.0224 66.5225 44.2119 66.2317 43.3915 65.9409C43.3816 68.3184 43.3717 70.6959 43.3618 73.0819C42.6403 73.1076 41.9187 73.1418 41.207 73.176C41.2268 70.5163 41.2367 67.848 41.2565 65.1883C41.2565 65.1456 41.2565 65.1028 41.2565 65.0515C41.2565 65.0002 41.2565 64.9574 41.2565 64.9061C41.2565 64.5384 41.2565 64.1621 41.2663 63.7943C41.2663 63.7516 41.2663 63.7088 41.2663 63.6575C42.5711 64.1364 43.8857 64.6153 45.1904 65.0857C45.1904 64.5982 45.1904 64.1108 45.1904 63.6233C45.9021 63.6147 46.6138 63.6147 47.3255 63.6147Z" fill="url(#paint10_linear)"/>
<path d="M54.5419 65.0087C53.8797 65.0002 53.2273 64.9916 52.565 64.9916C52.5749 67.6599 52.5749 70.3282 52.5848 72.9964C51.8632 72.9793 51.1417 72.9708 50.4201 72.9622C50.4201 70.3025 50.4201 67.6342 50.4102 64.9745C49.7579 64.9745 49.1055 64.9745 48.4531 64.9745C48.4531 64.5213 48.4531 64.0595 48.4531 63.6062C49.1055 63.6062 49.7579 63.6062 50.4102 63.6062C51.1219 63.6062 51.8435 63.6062 52.5551 63.6148C53.2174 63.6148 53.8698 63.6233 54.532 63.6233C54.5419 64.0851 54.5419 64.5469 54.5419 65.0087Z" fill="url(#paint11_linear)"/>
<path d="M59.79 63.6832C60.4424 63.9398 61.0947 64.2049 61.7471 64.4614C61.7471 64.4871 61.7471 64.5128 61.7471 64.5384C61.7471 64.5726 61.7471 64.6154 61.7471 64.6496C61.7471 65.1114 61.757 65.5732 61.757 66.0265C61.757 66.0864 61.757 66.1548 61.757 66.2146C61.757 66.5396 61.7669 66.8646 61.7669 67.1896C61.7768 68.1218 61.7866 69.0454 61.7866 69.9776C61.7866 70.3111 61.7965 70.6361 61.7965 70.9696C61.7965 71.0295 61.7965 71.0979 61.7965 71.1578C61.7965 71.611 61.8064 72.0728 61.8064 72.5261C61.8064 72.5689 61.8064 72.6116 61.8064 72.6544C61.8064 72.6715 61.8064 72.6971 61.8064 72.7142C61.154 72.9195 60.5017 73.1162 59.8493 73.3214C59.8394 73.3214 59.8394 73.3214 59.8295 73.3214C59.1772 73.2787 58.5149 73.2359 57.8625 73.2017C57.5364 73.1846 57.2201 73.1675 56.8939 73.1504C56.4985 73.1333 56.1031 73.1162 55.6979 73.0991C55.6979 72.6373 55.6979 72.1755 55.688 71.7136C55.6781 69.4815 55.6682 67.258 55.6583 65.0259C55.6583 64.5641 55.6583 64.1023 55.6484 63.6404C56.0438 63.6404 56.4392 63.649 56.8346 63.649C57.1509 63.649 57.477 63.6575 57.7933 63.6575C58.4457 63.6661 59.0981 63.6747 59.7505 63.6832C59.7702 63.6832 59.7801 63.6832 59.79 63.6832ZM59.6417 69.8664C59.6318 68.9513 59.6318 68.0362 59.622 67.1212C59.622 66.5311 59.6121 65.9324 59.6121 65.3423C59.3946 65.2568 59.1673 65.1713 58.9498 65.0772C58.5742 65.0687 58.1986 65.0601 57.823 65.0515C57.8329 67.3008 57.8527 69.55 57.8625 71.7992C58.2381 71.8163 58.6236 71.8334 58.9992 71.859C59.2167 71.7906 59.444 71.7222 59.6615 71.6452C59.6516 71.0551 59.6417 70.465 59.6417 69.8664Z" fill="url(#paint12_linear)"/>
<path d="M66.7992 63.8115C67.5109 63.8286 68.2226 63.8457 68.9441 63.8628C68.9441 64.3674 68.954 64.8719 68.954 65.3765C68.9639 66.608 68.9738 67.8395 68.9936 69.0796C68.9936 69.1309 68.9936 69.1736 68.9936 69.225C68.9936 69.6782 69.0034 70.14 69.0034 70.5933C69.0034 70.6361 69.0034 70.6788 69.0034 70.7301C69.0133 71.8932 69.0232 73.0563 69.0331 74.2194C68.3214 74.1253 67.5999 74.0398 66.8882 73.9628C66.8783 72.6287 66.8585 71.2946 66.8486 69.9604C67.0661 69.9775 67.2836 69.9946 67.5109 70.0117C67.501 70.0032 67.4812 70.0032 67.4714 69.9946C67.2638 69.892 67.0562 69.7979 66.8486 69.6953C66.2457 69.4131 65.6526 69.1309 65.0497 68.8572C65.0695 70.4907 65.0793 72.1327 65.0991 73.7661C64.3874 73.6892 63.6659 73.6207 62.9443 73.5609C62.9245 71.6709 62.9147 69.7894 62.8949 67.8994C62.8949 67.8566 62.8949 67.8053 62.8949 67.7625C62.8949 67.3264 62.885 66.8988 62.885 66.4626C62.885 66.4199 62.885 66.3771 62.885 66.3343C62.885 65.9495 62.8751 65.5561 62.8751 65.1713C62.8751 64.6923 62.8652 64.2134 62.8652 63.7345C63.5769 63.7516 64.2985 63.7602 65.0101 63.7773C65.6131 63.7858 66.2062 63.8029 66.7992 63.8115ZM66.8388 68.0704C66.8289 67.1468 66.819 66.2232 66.8091 65.3081C66.216 65.2824 65.623 65.2653 65.02 65.2482C65.0299 65.9238 65.0299 66.5909 65.0398 67.2665C65.6427 67.5231 66.2457 67.7882 66.8388 68.0704Z" fill="url(#paint13_linear)"/>
<path d="M73.9945 64.0168C74.7062 64.0424 75.4179 64.0681 76.1296 64.0937C76.1296 64.6411 76.1394 65.1884 76.1394 65.7357C76.1493 66.7449 76.1592 67.754 76.1592 68.7632C75.8133 68.8829 75.4772 68.9941 75.1312 69.1138C75.4772 69.302 75.8231 69.4901 76.1691 69.6783C76.1691 69.7039 76.1691 69.7296 76.1691 69.7467C76.1691 69.798 76.1691 69.8493 76.1691 69.9092C76.1691 70.4052 76.179 70.9012 76.179 71.3972C76.179 71.4485 76.179 71.4913 76.179 71.5426C76.1889 72.7998 76.1987 74.0655 76.2086 75.3227C75.497 75.1944 74.7853 75.0746 74.0736 74.9635C74.0637 73.5267 74.0538 72.09 74.0341 70.6446C74.2515 70.6703 74.469 70.696 74.6864 70.7216C74.6766 70.7131 74.6568 70.7131 74.6469 70.7045C74.4393 70.5933 74.2318 70.4822 74.0242 70.371C73.4311 70.046 72.8282 69.7381 72.2351 69.4302C72.2549 71.1834 72.2648 72.9366 72.2845 74.6898C71.5729 74.5872 70.8612 74.4846 70.1495 74.3819C70.1297 72.3722 70.11 70.3624 70.0902 68.3527C70.0902 68.3014 70.0902 68.2501 70.0902 68.2073C70.0902 67.7455 70.0803 67.2837 70.0803 66.8218C70.0803 66.7791 70.0803 66.7363 70.0803 66.685C70.0803 66.2745 70.0704 65.8555 70.0704 65.445C70.0704 64.9318 70.0605 64.4187 70.0605 63.9141C70.7722 63.9312 71.4839 63.9569 72.2055 63.974C72.8084 63.9825 73.4015 63.9996 73.9945 64.0168ZM74.0341 68.6007C74.0242 67.6086 74.0143 66.6166 74.0044 65.616C73.4114 65.5818 72.8183 65.5561 72.2252 65.5305C72.2351 66.2489 72.2351 66.9758 72.245 67.6942C72.8381 67.9849 73.441 68.2928 74.0341 68.6007Z" fill="url(#paint14_linear)"/>
<path d="M84.8671 67.8224C84.4421 67.9935 84.0071 68.156 83.5821 68.3184C84.017 68.575 84.4421 68.8401 84.8671 69.1052C84.8671 69.1395 84.8671 69.1737 84.8671 69.2079C84.8671 69.2848 84.8671 69.3618 84.8671 69.4302C84.8671 70.1315 84.8671 70.8328 84.8671 71.5341C84.8671 71.6025 84.8671 71.6709 84.8671 71.7393C84.8671 73.5267 84.8671 75.3055 84.8671 77.0929C83.9874 76.8877 83.0978 76.6824 82.2181 76.4943C82.2082 74.4845 82.2082 72.4662 82.1983 70.4565C82.4751 70.4907 82.7419 70.5249 83.0187 70.5677C82.9989 70.5591 82.989 70.5506 82.9693 70.542C82.7123 70.3795 82.4553 70.2256 82.1983 70.0631C81.457 69.6098 80.7156 69.1737 79.9644 68.7461C79.9743 71.1749 79.9842 73.6037 80.004 76.0325C79.1144 75.8529 78.2248 75.6818 77.3352 75.5193C77.3154 72.7741 77.2956 70.0203 77.2759 67.2751C77.2759 67.2067 77.2759 67.1383 77.2759 67.0698C77.2759 66.437 77.266 65.8041 77.266 65.1713C77.266 65.1114 77.266 65.0515 77.266 64.9831C77.2561 63.7174 77.2462 62.4517 77.2363 61.1945C78.1358 61.1945 79.0353 61.1945 79.9249 61.1945C79.9348 62.9135 79.9447 64.641 79.9545 66.36C80.7058 66.762 81.4471 67.1725 82.1884 67.6001C82.1785 65.462 82.1785 63.324 82.1686 61.186C83.0681 61.186 83.9676 61.186 84.8572 61.186C84.8671 63.4095 84.8671 65.616 84.8671 67.8224Z" fill="url(#paint15_linear)"/>
<path d="M21.3104 61.1945C21.3104 61.8957 21.3006 62.597 21.3006 63.2897C21.2907 64.0851 21.2907 64.8719 21.2808 65.6672C20.3813 65.7185 19.4917 65.7699 18.5922 65.8297C18.5922 65.0087 18.6021 64.1877 18.6021 63.3667C17.8509 63.3924 17.1096 63.4095 16.3584 63.4351C16.3584 64.4614 16.3485 65.4962 16.3485 66.5225C17.9794 67.1895 19.6202 67.8138 21.2511 68.4039C21.2511 68.4296 21.2511 68.4552 21.2511 68.4809C21.2511 68.5237 21.2511 68.5664 21.2511 68.6092C21.2511 69.242 21.2412 69.8749 21.2412 70.5078C21.2412 70.5676 21.2412 70.6275 21.2412 70.6959C21.2314 71.6024 21.2314 72.509 21.2215 73.424C21.2215 74.1253 21.2116 74.8266 21.2116 75.5193C20.322 75.6818 19.4324 75.8529 18.5428 76.0325C17.8015 76.1864 17.0601 76.3403 16.3287 76.4943C15.4391 76.691 14.5594 76.8877 13.6797 77.0929C13.6797 76.3147 13.6797 75.5364 13.6797 74.7667C13.6797 73.4668 13.6797 72.1669 13.6797 70.8584C14.5693 70.7301 15.4589 70.6104 16.3485 70.4907C16.3485 71.7393 16.3386 72.9964 16.3386 74.2451C17.0799 74.1082 17.8212 73.9714 18.5626 73.8517C18.5725 72.6287 18.5725 71.3972 18.5823 70.1742C18.8591 70.14 19.126 70.1058 19.4027 70.0716C19.383 70.063 19.3731 70.063 19.3533 70.0545C19.0963 69.969 18.8393 69.8749 18.5823 69.7894C16.9514 69.2078 15.3205 68.6006 13.6896 67.9336C13.6896 67.8822 13.6896 67.8224 13.6896 67.7711C13.6896 67.754 13.6896 67.7283 13.6896 67.7112C13.6896 67.0099 13.6896 66.3086 13.6896 65.6074C13.6896 65.539 13.6896 65.4705 13.6896 65.4021C13.6896 64.7778 13.6896 64.145 13.6896 63.5206C13.6896 62.7424 13.6896 61.9642 13.6896 61.1945C14.5891 61.1945 15.4885 61.1945 16.3781 61.1945C17.1293 61.1945 17.8707 61.1945 18.6219 61.1945C19.5115 61.1945 20.411 61.1945 21.3104 61.1945Z" fill="url(#paint16_radial)"/>
<path d="M25.531 69.7124C25.3432 69.6526 25.1554 69.5927 24.9676 69.5328C24.9577 70.7643 24.9478 71.9958 24.938 73.2273C24.938 73.7832 24.9281 74.3391 24.9281 74.895C24.2164 75.0062 23.5047 75.1259 22.793 75.2456C22.8029 74.6726 22.8128 74.1082 22.8227 73.5352C22.8326 72.7741 22.8326 72.0129 22.8425 71.2518C22.8524 70.542 22.8524 69.8236 22.8622 69.1138C23.0698 69.0967 23.2873 69.071 23.4948 69.0539C23.2774 68.977 23.0599 68.9085 22.8425 68.8316C22.8425 68.823 22.8425 68.823 22.8425 68.8145C22.6646 68.746 22.4866 68.6862 22.2988 68.6178C22.2988 68.5664 22.2988 68.5151 22.2988 68.4553C22.2988 67.9593 22.3087 67.4632 22.3087 66.9672C22.3087 66.9159 22.3087 66.8731 22.3087 66.8218C22.4866 66.8902 22.6744 66.9501 22.8524 67.01C22.8622 66.0265 22.8721 65.0515 22.8721 64.068C23.5838 64.0424 24.2955 64.0167 25.0072 63.9996C24.9973 65.2653 24.9874 66.5225 24.9775 67.7882C25.1653 67.8566 25.3531 67.9165 25.5409 67.9849C25.5409 68.5579 25.531 69.1309 25.531 69.7124Z" fill="url(#paint17_radial)"/>
<path d="M32.6864 71.2263C32.6864 71.4914 32.6864 71.765 32.6766 72.0302C32.6766 72.1499 32.6766 72.2611 32.6766 72.3808C32.6766 72.5347 32.6766 72.6887 32.6766 72.8426C32.6766 73.1761 32.6667 73.5182 32.6667 73.8518C31.955 73.9287 31.2334 74.0142 30.5218 74.0998C29.9287 74.1682 29.3257 74.2452 28.7327 74.3307C28.021 74.4247 27.3093 74.5274 26.5977 74.63C26.5977 74.1083 26.6075 73.5866 26.6075 73.065C26.6174 71.9361 26.6273 70.8072 26.6372 69.6783C26.6372 69.3619 26.6471 69.0455 26.6471 68.729C26.6471 68.6521 26.6471 68.5751 26.6471 68.4981C26.6471 68.1047 26.657 67.7113 26.657 67.3179C26.6668 66.1976 26.6767 65.0773 26.6866 63.957C27.3983 63.9313 28.11 63.9142 28.8315 63.8971C28.8019 66.8647 28.7722 69.8323 28.7525 72.8084C29.3455 72.74 29.9386 72.6716 30.5415 72.6032C30.5415 72.5775 30.5415 72.5604 30.5415 72.5347C30.5415 72.4407 30.5415 72.338 30.5415 72.244C30.5415 72.2269 30.5415 72.2183 30.5415 72.2012C30.5415 72.1499 30.5415 72.1071 30.5415 72.0558C30.5415 72.0045 30.5415 71.9532 30.5415 71.9019C30.5415 71.4999 30.5514 71.098 30.5514 70.7046C30.5514 70.6618 30.5514 70.6191 30.5514 70.5763C31.2532 70.7901 31.9748 71.0125 32.6864 71.2263Z" fill="url(#paint18_radial)"/>
<path d="M40.1213 63.6661C40.1213 64.1364 40.1114 64.5983 40.1114 65.0686C40.1114 65.5903 40.1015 66.112 40.1015 66.6337C39.3899 66.6508 38.6683 66.6764 37.9566 66.7021C37.9566 66.1719 37.9665 65.6502 37.9665 65.1199C37.3734 65.1371 36.7705 65.1456 36.1774 65.1627C36.1675 65.8298 36.1675 66.4883 36.1577 67.1554C36.8792 67.4034 37.6107 67.6599 38.3322 67.908C38.3322 68.4211 38.3223 68.9342 38.3223 69.4473C37.5909 69.2079 36.8693 68.9599 36.1379 68.7204C36.128 69.8493 36.1181 70.9696 36.1082 72.0985C36.7013 72.0558 37.3042 72.013 37.8973 71.9702C37.8973 71.9531 37.8973 71.9275 37.8973 71.9104C37.8973 71.8163 37.8973 71.7308 37.8973 71.6367C37.8973 71.6282 37.8973 71.6111 37.8973 71.6025C37.8973 71.5597 37.8973 71.5084 37.8973 71.4657C37.8973 71.4143 37.8973 71.363 37.8973 71.3203C37.8973 70.944 37.9072 70.5677 37.9072 70.1914C37.9072 70.1486 37.9072 70.1059 37.9072 70.0631C38.6189 70.294 39.3404 70.5249 40.0521 70.7558C40.0521 71.0124 40.0521 71.2604 40.0521 71.517C40.0521 71.6282 40.0521 71.7393 40.0521 71.8505C40.0521 71.9959 40.0521 72.1498 40.0521 72.2952C40.0521 72.6117 40.0521 72.9366 40.0422 73.2531C39.3207 73.2958 38.609 73.3471 37.8874 73.3985C37.2845 73.4412 36.6914 73.4925 36.0885 73.5438C35.3669 73.6037 34.6552 73.6721 33.9337 73.7405C33.9337 73.2531 33.9436 72.7656 33.9436 72.2781C33.9534 70.9269 33.9633 69.5842 33.9831 68.2329C34.1709 68.2244 34.3587 68.2158 34.5465 68.1987C34.3587 68.1389 34.1709 68.0704 33.9831 68.0106C33.8052 67.9507 33.6174 67.8823 33.4395 67.8224C33.4395 67.7711 33.4395 67.7284 33.4395 67.677C33.4395 67.2323 33.4493 66.7962 33.4493 66.3515C33.4493 66.3087 33.4493 66.2659 33.4493 66.2232C33.6273 66.283 33.8151 66.3429 33.993 66.4028C33.993 66.0094 34.0029 65.616 34.0029 65.2226C34.0029 64.7351 34.0127 64.2476 34.0127 63.7601C34.7244 63.743 35.446 63.7345 36.1577 63.7174C36.7507 63.7088 37.3438 63.7003 37.9467 63.6917C38.6979 63.6832 39.4096 63.6746 40.1213 63.6661Z" fill="url(#paint19_radial)"/>
<path d="M47.3255 63.6147C47.3255 64.3673 47.3255 65.1114 47.3255 65.864C47.3255 65.9067 47.3255 65.9409 47.3255 65.9837C47.3255 66.3942 47.3255 66.8132 47.3255 67.2237C47.3255 67.2665 47.3255 67.3093 47.3255 67.352C47.3255 68.4039 47.3255 69.4558 47.3255 70.5078C47.3255 71.3288 47.3255 72.1498 47.3255 72.9793C46.6039 72.9879 45.8823 73.005 45.1608 73.0221C45.1608 72.1925 45.1707 71.3715 45.1707 70.542C45.1707 69.3019 45.1806 68.0618 45.1806 66.8218C45.398 66.8218 45.6253 66.8132 45.8428 66.8132C45.0224 66.5225 44.2119 66.2317 43.3915 65.9409C43.3816 68.3184 43.3717 70.6959 43.3618 73.0819C42.6403 73.1076 41.9187 73.1418 41.207 73.176C41.2268 70.5163 41.2367 67.848 41.2565 65.1883C41.2565 65.1456 41.2565 65.1028 41.2565 65.0515C41.2565 65.0002 41.2565 64.9574 41.2565 64.9061C41.2565 64.5384 41.2565 64.1621 41.2663 63.7943C41.2663 63.7516 41.2663 63.7088 41.2663 63.6575C42.5711 64.1364 43.8857 64.6153 45.1904 65.0857C45.1904 64.5982 45.1904 64.1108 45.1904 63.6233C45.9021 63.6147 46.6138 63.6147 47.3255 63.6147Z" fill="url(#paint20_radial)"/>
<path d="M54.5419 65.0087C53.8797 65.0002 53.2273 64.9916 52.565 64.9916C52.5749 67.6599 52.5749 70.3282 52.5848 72.9964C51.8632 72.9793 51.1417 72.9708 50.4201 72.9622C50.4201 70.3025 50.4201 67.6342 50.4102 64.9745C49.7579 64.9745 49.1055 64.9745 48.4531 64.9745C48.4531 64.5213 48.4531 64.0595 48.4531 63.6062C49.1055 63.6062 49.7579 63.6062 50.4102 63.6062C51.1219 63.6062 51.8435 63.6062 52.5551 63.6148C53.2174 63.6148 53.8698 63.6233 54.532 63.6233C54.5419 64.0851 54.5419 64.5469 54.5419 65.0087Z" fill="url(#paint21_radial)"/>
<path d="M59.79 63.6832C60.4424 63.9398 61.0947 64.2049 61.7471 64.4614C61.7471 64.4871 61.7471 64.5128 61.7471 64.5384C61.7471 64.5726 61.7471 64.6154 61.7471 64.6496C61.7471 65.1114 61.757 65.5732 61.757 66.0265C61.757 66.0864 61.757 66.1548 61.757 66.2146C61.757 66.5396 61.7669 66.8646 61.7669 67.1896C61.7768 68.1218 61.7866 69.0454 61.7866 69.9776C61.7866 70.3111 61.7965 70.6361 61.7965 70.9696C61.7965 71.0295 61.7965 71.0979 61.7965 71.1578C61.7965 71.611 61.8064 72.0728 61.8064 72.5261C61.8064 72.5689 61.8064 72.6116 61.8064 72.6544C61.8064 72.6715 61.8064 72.6971 61.8064 72.7142C61.154 72.9195 60.5017 73.1162 59.8493 73.3214C59.8394 73.3214 59.8394 73.3214 59.8295 73.3214C59.1772 73.2787 58.5149 73.2359 57.8625 73.2017C57.5364 73.1846 57.2201 73.1675 56.8939 73.1504C56.4985 73.1333 56.1031 73.1162 55.6979 73.0991C55.6979 72.6373 55.6979 72.1755 55.688 71.7136C55.6781 69.4815 55.6682 67.258 55.6583 65.0259C55.6583 64.5641 55.6583 64.1023 55.6484 63.6404C56.0438 63.6404 56.4392 63.649 56.8346 63.649C57.1509 63.649 57.477 63.6575 57.7933 63.6575C58.4457 63.6661 59.0981 63.6747 59.7505 63.6832C59.7702 63.6832 59.7801 63.6832 59.79 63.6832ZM59.6417 69.8664C59.6318 68.9513 59.6318 68.0362 59.622 67.1212C59.622 66.5311 59.6121 65.9324 59.6121 65.3423C59.3946 65.2568 59.1673 65.1713 58.9498 65.0772C58.5742 65.0687 58.1986 65.0601 57.823 65.0515C57.8329 67.3008 57.8527 69.55 57.8625 71.7992C58.2381 71.8163 58.6236 71.8334 58.9992 71.859C59.2167 71.7906 59.444 71.7222 59.6615 71.6452C59.6516 71.0551 59.6417 70.465 59.6417 69.8664Z" fill="url(#paint22_radial)"/>
<path d="M66.7992 63.8115C67.5109 63.8286 68.2226 63.8457 68.9441 63.8628C68.9441 64.3674 68.954 64.8719 68.954 65.3765C68.9639 66.608 68.9738 67.8395 68.9936 69.0796C68.9936 69.1309 68.9936 69.1736 68.9936 69.225C68.9936 69.6782 69.0034 70.14 69.0034 70.5933C69.0034 70.6361 69.0034 70.6788 69.0034 70.7301C69.0133 71.8932 69.0232 73.0563 69.0331 74.2194C68.3214 74.1253 67.5999 74.0398 66.8882 73.9628C66.8783 72.6287 66.8585 71.2946 66.8486 69.9604C67.0661 69.9775 67.2836 69.9946 67.5109 70.0117C67.501 70.0032 67.4812 70.0032 67.4714 69.9946C67.2638 69.892 67.0562 69.7979 66.8486 69.6953C66.2457 69.4131 65.6526 69.1309 65.0497 68.8572C65.0695 70.4907 65.0793 72.1327 65.0991 73.7661C64.3874 73.6892 63.6659 73.6207 62.9443 73.5609C62.9245 71.6709 62.9147 69.7894 62.8949 67.8994C62.8949 67.8566 62.8949 67.8053 62.8949 67.7625C62.8949 67.3264 62.885 66.8988 62.885 66.4626C62.885 66.4199 62.885 66.3771 62.885 66.3343C62.885 65.9495 62.8751 65.5561 62.8751 65.1713C62.8751 64.6923 62.8652 64.2134 62.8652 63.7345C63.5769 63.7516 64.2985 63.7602 65.0101 63.7773C65.6131 63.7858 66.2062 63.8029 66.7992 63.8115ZM66.8388 68.0704C66.8289 67.1468 66.819 66.2232 66.8091 65.3081C66.216 65.2824 65.623 65.2653 65.02 65.2482C65.0299 65.9238 65.0299 66.5909 65.0398 67.2665C65.6427 67.5231 66.2457 67.7882 66.8388 68.0704Z" fill="url(#paint23_radial)"/>
<path d="M73.9945 64.0168C74.7062 64.0424 75.4179 64.0681 76.1296 64.0937C76.1296 64.6411 76.1394 65.1884 76.1394 65.7357C76.1493 66.7449 76.1592 67.754 76.1592 68.7632C75.8133 68.8829 75.4772 68.9941 75.1312 69.1138C75.4772 69.302 75.8231 69.4901 76.1691 69.6783C76.1691 69.7039 76.1691 69.7296 76.1691 69.7467C76.1691 69.798 76.1691 69.8493 76.1691 69.9092C76.1691 70.4052 76.179 70.9012 76.179 71.3972C76.179 71.4485 76.179 71.4913 76.179 71.5426C76.1889 72.7998 76.1987 74.0655 76.2086 75.3227C75.497 75.1944 74.7853 75.0746 74.0736 74.9635C74.0637 73.5267 74.0538 72.09 74.0341 70.6446C74.2515 70.6703 74.469 70.696 74.6864 70.7216C74.6766 70.7131 74.6568 70.7131 74.6469 70.7045C74.4393 70.5933 74.2318 70.4822 74.0242 70.371C73.4311 70.046 72.8282 69.7381 72.2351 69.4302C72.2549 71.1834 72.2648 72.9366 72.2845 74.6898C71.5729 74.5872 70.8612 74.4846 70.1495 74.3819C70.1297 72.3722 70.11 70.3624 70.0902 68.3527C70.0902 68.3014 70.0902 68.2501 70.0902 68.2073C70.0902 67.7455 70.0803 67.2837 70.0803 66.8218C70.0803 66.7791 70.0803 66.7363 70.0803 66.685C70.0803 66.2745 70.0704 65.8555 70.0704 65.445C70.0704 64.9318 70.0605 64.4187 70.0605 63.9141C70.7722 63.9312 71.4839 63.9569 72.2055 63.974C72.8084 63.9825 73.4015 63.9996 73.9945 64.0168ZM74.0341 68.6007C74.0242 67.6086 74.0143 66.6166 74.0044 65.616C73.4114 65.5818 72.8183 65.5561 72.2252 65.5305C72.2351 66.2489 72.2351 66.9758 72.245 67.6942C72.8381 67.9849 73.441 68.2928 74.0341 68.6007Z" fill="url(#paint24_radial)"/>
<path d="M84.8671 67.8224C84.4421 67.9935 84.0071 68.156 83.5821 68.3184C84.017 68.575 84.4421 68.8401 84.8671 69.1052C84.8671 69.1395 84.8671 69.1737 84.8671 69.2079C84.8671 69.2848 84.8671 69.3618 84.8671 69.4302C84.8671 70.1315 84.8671 70.8328 84.8671 71.5341C84.8671 71.6025 84.8671 71.6709 84.8671 71.7393C84.8671 73.5267 84.8671 75.3055 84.8671 77.0929C83.9874 76.8877 83.0978 76.6824 82.2181 76.4943C82.2082 74.4845 82.2082 72.4662 82.1983 70.4565C82.4751 70.4907 82.7419 70.5249 83.0187 70.5677C82.9989 70.5591 82.989 70.5506 82.9693 70.542C82.7123 70.3795 82.4553 70.2256 82.1983 70.0631C81.457 69.6098 80.7156 69.1737 79.9644 68.7461C79.9743 71.1749 79.9842 73.6037 80.004 76.0325C79.1144 75.8529 78.2248 75.6818 77.3352 75.5193C77.3154 72.7741 77.2956 70.0203 77.2759 67.2751C77.2759 67.2067 77.2759 67.1383 77.2759 67.0698C77.2759 66.437 77.266 65.8041 77.266 65.1713C77.266 65.1114 77.266 65.0515 77.266 64.9831C77.2561 63.7174 77.2462 62.4517 77.2363 61.1945C78.1358 61.1945 79.0353 61.1945 79.9249 61.1945C79.9348 62.9135 79.9447 64.641 79.9545 66.36C80.7058 66.762 81.4471 67.1725 82.1884 67.6001C82.1785 65.462 82.1785 63.324 82.1686 61.186C83.0681 61.186 83.9676 61.186 84.8572 61.186C84.8671 63.4095 84.8671 65.616 84.8671 67.8224Z" fill="url(#paint25_radial)"/>
</g>
<defs>
<linearGradient id="paint0_linear" x1="49.4999" y1="7.66795" x2="49.4999" y2="105.357" gradientUnits="userSpaceOnUse">
<stop stop-color="#FDE901"/>
<stop offset="0.1013" stop-color="#FCE40B"/>
<stop offset="0.2349" stop-color="#FBD91B"/>
<stop offset="0.3866" stop-color="#F8C628"/>
<stop offset="0.5516" stop-color="#F5AB33"/>
<stop offset="0.7275" stop-color="#F28939"/>
<stop offset="0.9097" stop-color="#F05D3C"/>
<stop offset="1" stop-color="#EF3D3D"/>
</linearGradient>
<linearGradient id="paint1_linear" x1="23.7542" y1="57.7773" x2="19.8365" y2="46.8818" gradientUnits="userSpaceOnUse">
<stop stop-color="#FDE901"/>
<stop offset="1" stop-color="#EF3D3D"/>
</linearGradient>
<linearGradient id="paint2_linear" x1="72.3608" y1="63.5215" x2="80.5327" y2="42.0041" gradientUnits="userSpaceOnUse">
<stop stop-color="#FDE901"/>
<stop offset="1" stop-color="#EF3D3D"/>
</linearGradient>
<radialGradient id="paint3_radial" cx="0" cy="0" r="1" gradientUnits="userSpaceOnUse" gradientTransform="translate(49.4996 79.1019) scale(20.2252 17.4992)">
<stop stop-color="#FDE901"/>
<stop offset="1" stop-color="#EF3D3D"/>
</radialGradient>
<linearGradient id="paint4_linear" x1="60.1888" y1="30.1346" x2="70.6038" y2="30.1346" gradientUnits="userSpaceOnUse">
<stop stop-color="#FDE901"/>
<stop offset="1" stop-color="#EF3D3D"/>
</linearGradient>
<linearGradient id="paint5_linear" x1="28.6619" y1="30.1346" x2="39.0769" y2="30.1346" gradientUnits="userSpaceOnUse">
<stop stop-color="#EF3D3D"/>
<stop offset="1" stop-color="#FDE901"/>
</linearGradient>
<linearGradient id="paint6_linear" x1="49.2744" y1="75.8194" x2="49.2744" y2="59.9161" gradientUnits="userSpaceOnUse">
<stop stop-color="#FDE901"/>
<stop offset="0.5" stop-color="white"/>
</linearGradient>
<linearGradient id="paint7_linear" x1="49.2743" y1="75.8194" x2="49.2743" y2="59.9162" gradientUnits="userSpaceOnUse">
<stop stop-color="#FDE901"/>
<stop offset="0.5" stop-color="white"/>
</linearGradient>
<linearGradient id="paint8_linear" x1="49.2735" y1="75.8195" x2="49.2735" y2="59.9163" gradientUnits="userSpaceOnUse">
<stop stop-color="#FDE901"/>
<stop offset="0.5" stop-color="white"/>
</linearGradient>
<linearGradient id="paint9_linear" x1="49.2753" y1="75.8195" x2="49.2753" y2="59.9162" gradientUnits="userSpaceOnUse">
<stop stop-color="#FDE901"/>
<stop offset="0.5" stop-color="white"/>
</linearGradient>
<linearGradient id="paint10_linear" x1="49.2737" y1="75.8194" x2="49.2737" y2="59.9162" gradientUnits="userSpaceOnUse">
<stop stop-color="#FDE901"/>
<stop offset="0.5" stop-color="white"/>
</linearGradient>
<linearGradient id="paint11_linear" x1="49.2745" y1="75.8194" x2="49.2745" y2="59.9162" gradientUnits="userSpaceOnUse">
<stop stop-color="#FDE901"/>
<stop offset="0.5" stop-color="white"/>
</linearGradient>
<linearGradient id="paint12_linear" x1="49.274" y1="75.8194" x2="49.274" y2="59.9162" gradientUnits="userSpaceOnUse">
<stop stop-color="#FDE901"/>
<stop offset="0.5" stop-color="white"/>
</linearGradient>
<linearGradient id="paint13_linear" x1="49.2752" y1="75.8194" x2="49.2752" y2="59.9162" gradientUnits="userSpaceOnUse">
<stop stop-color="#FDE901"/>
<stop offset="0.5" stop-color="white"/>
</linearGradient>
<linearGradient id="paint14_linear" x1="49.2747" y1="75.8194" x2="49.2747" y2="59.9162" gradientUnits="userSpaceOnUse">
<stop stop-color="#FDE901"/>
<stop offset="0.5" stop-color="white"/>
</linearGradient>
<linearGradient id="paint15_linear" x1="49.2744" y1="75.8194" x2="49.2744" y2="59.9162" gradientUnits="userSpaceOnUse">
<stop stop-color="#FDE901"/>
<stop offset="0.5" stop-color="white"/>
</linearGradient>
<radialGradient id="paint16_radial" cx="0" cy="0" r="1" gradientUnits="userSpaceOnUse" gradientTransform="translate(48.8176 76.7789) scale(131.916 22.4848)">
<stop stop-color="#EB6D23"/>
<stop offset="0.3" stop-color="white" stop-opacity="0"/>
</radialGradient>
<radialGradient id="paint17_radial" cx="0" cy="0" r="1" gradientUnits="userSpaceOnUse" gradientTransform="translate(48.8176 76.7789) scale(131.916 22.4846)">
<stop stop-color="#EB6D23"/>
<stop offset="0.3" stop-color="white" stop-opacity="0"/>
</radialGradient>
<radialGradient id="paint18_radial" cx="0" cy="0" r="1" gradientUnits="userSpaceOnUse" gradientTransform="translate(48.8167 76.779) scale(131.916 22.4847)">
<stop stop-color="#EB6D23"/>
<stop offset="0.3" stop-color="white" stop-opacity="0"/>
</radialGradient>
<radialGradient id="paint19_radial" cx="0" cy="0" r="1" gradientUnits="userSpaceOnUse" gradientTransform="translate(48.8185 76.779) scale(131.916 22.4848)">
<stop stop-color="#EB6D23"/>
<stop offset="0.3" stop-color="white" stop-opacity="0"/>
</radialGradient>
<radialGradient id="paint20_radial" cx="0" cy="0" r="1" gradientUnits="userSpaceOnUse" gradientTransform="translate(48.8169 76.7789) scale(131.916 22.4847)">
<stop stop-color="#EB6D23"/>
<stop offset="0.3" stop-color="white" stop-opacity="0"/>
</radialGradient>
<radialGradient id="paint21_radial" cx="0" cy="0" r="1" gradientUnits="userSpaceOnUse" gradientTransform="translate(48.8178 76.7789) scale(131.916 22.4847)">
<stop stop-color="#EB6D23"/>
<stop offset="0.3" stop-color="white" stop-opacity="0"/>
</radialGradient>
<radialGradient id="paint22_radial" cx="0" cy="0" r="1" gradientUnits="userSpaceOnUse" gradientTransform="translate(48.8172 76.7789) scale(131.915 22.4847)">
<stop stop-color="#EB6D23"/>
<stop offset="0.3" stop-color="white" stop-opacity="0"/>
</radialGradient>
<radialGradient id="paint23_radial" cx="0" cy="0" r="1" gradientUnits="userSpaceOnUse" gradientTransform="translate(48.8184 76.7789) scale(131.916 22.4847)">
<stop stop-color="#EB6D23"/>
<stop offset="0.3" stop-color="white" stop-opacity="0"/>
</radialGradient>
<radialGradient id="paint24_radial" cx="0" cy="0" r="1" gradientUnits="userSpaceOnUse" gradientTransform="translate(48.8179 76.7789) scale(131.915 22.4847)">
<stop stop-color="#EB6D23"/>
<stop offset="0.3" stop-color="white" stop-opacity="0"/>
</radialGradient>
<radialGradient id="paint25_radial" cx="0" cy="0" r="1" gradientUnits="userSpaceOnUse" gradientTransform="translate(48.8176 76.7789) scale(131.916 22.4847)">
<stop stop-color="#EB6D23"/>
<stop offset="0.3" stop-color="white" stop-opacity="0"/>
</radialGradient>
<clipPath id="clip0">
<rect width="98.8636" height="100" fill="white" transform="translate(0.0683594 0.00402832)"/>
</clipPath>
</defs>
</svg>
