<svg width="99" height="101" viewBox="0 0 99 101" fill="none" xmlns="http://www.w3.org/2000/svg">
<g clip-path="url(#clip0)">
<path d="M96.1916 40.8072L87.6252 2.48611H11.376L2.80957 40.8072L24.2772 63.3823L51.2724 25.447L50.3435 24.6415C50.8366 24.6529 51.3297 24.6529 51.8228 24.6756L51.2724 25.4583L83.772 53.8871L96.1916 40.8072Z" fill="#020202"/>
<path d="M44.0243 96.8143C25.7218 86.1733 13.2678 69.8602 8.88708 50.8245L0.0683594 41.5448L9.35725 0.00201416H89.6316L98.9205 41.5448L90.1133 50.8245C85.7326 69.8602 73.2901 86.1733 54.9875 96.8143L49.5059 100.002L44.0243 96.8143Z" fill="url(#paint0_linear)"/>
<path d="M96.1912 40.8071L49.5059 28.5099L2.80916 40.8071L0.0683594 41.5445L8.88708 50.8241L11.1921 49.6217H87.8083L90.1133 50.8241L98.932 41.5445L96.1912 40.8071Z" fill="#77111A"/>
<path d="M96.1916 40.8072L87.6252 2.48611H11.376L2.80957 40.8072L11.1925 49.6217C15.2062 67.9654 27.3277 84.2218 45.2862 94.6699L49.4949 97.1202L53.7035 94.6699C71.6621 84.2218 83.7835 67.9654 87.7972 49.6217L96.1916 40.8072Z" fill="black"/>
<path d="M45.2969 94.6702C23.0265 81.7263 9.73535 59.8432 9.73535 36.1336C9.73535 35.9634 9.73535 35.7932 9.73535 35.6231L9.83856 31.437L13.7032 29.3383C24.6435 23.4053 37.0172 20.2629 49.4941 20.2629C61.971 20.2629 74.3448 23.4053 85.285 29.3383L89.1497 31.437L89.2643 35.6231C89.2643 35.7932 89.2643 35.9748 89.2643 36.1336C89.2643 59.8318 75.9732 81.715 53.7028 94.6702L49.4941 97.1205L45.2969 94.6702Z" fill="black"/>
<path d="M46.914 92.0837C25.5954 79.6844 12.8662 58.7655 12.8662 36.1336C12.8662 35.9861 12.8662 35.8387 12.8662 35.7025L12.9235 33.2408L15.24 31.9816C25.7101 26.2981 37.5563 23.3032 49.4943 23.3032C61.4322 23.3032 73.2784 26.3095 83.7485 31.9816L86.0535 33.2408L86.1224 35.7025C86.1224 35.85 86.1224 35.9975 86.1224 36.145C86.1224 58.7768 73.3931 79.6844 52.0745 92.0837L49.4828 93.5925L46.914 92.0837Z" fill="url(#paint1_linear)"/>
<path d="M83.2552 37.6081C83.2552 60.7959 69.8264 81.1929 49.5055 93.0137C29.1846 81.1929 15.7559 60.7959 15.7559 37.6081C15.7559 37.4947 15.7559 37.3699 15.7559 37.2564C25.8246 31.7885 37.3153 28.6915 49.5055 28.6915C61.6958 28.6915 73.175 31.7885 83.2552 37.2564C83.2552 37.3699 83.2552 37.4833 83.2552 37.6081Z" fill="#020202"/>
<path d="M87.3956 19.0943H10.5615V46.7743C36.8801 32.957 62.4876 32.957 87.3956 46.7743V19.0943Z" fill="black"/>
<path d="M49.5056 81.2045C34.3452 70.8698 25.0563 55.0786 24.0586 37.9033C32.0058 34.0916 40.7327 32.0837 49.5056 32.0837C58.2784 32.0837 67.0054 34.0803 74.9526 37.9033C73.9549 55.0786 64.666 70.8698 49.5056 81.2045Z" fill="#020202"/>
<path d="M77.2466 41.0458C72.9462 39.0265 68.3706 37.5518 63.7032 36.5875C59.0243 35.6232 54.2423 35.1468 49.4717 35.2375C44.7011 35.3056 39.9534 35.9182 35.3663 37.0526C30.7678 38.1757 26.3297 39.8093 22.1669 41.908L21.2725 42.3617L21.3413 43.2579C21.6968 47.8184 22.6027 52.3221 24.0362 56.6669C24.9651 59.4463 26.1004 62.1462 27.4421 64.7554H28.5774C25.2632 58.0282 23.2793 50.7338 22.8321 43.1785C31.1462 39.1853 40.2745 37.098 49.4602 37.098C58.6459 37.098 67.7742 39.1967 76.0769 43.1785C75.0333 61.1479 65.3087 77.6539 49.4602 88.465C44.0933 84.8008 39.4259 80.49 35.5728 75.6913H34.6668C35.8709 77.1434 37.1438 78.5614 38.4856 79.9001C39.3227 80.7055 40.1484 81.511 41.0085 82.3051C41.8915 83.0538 42.7745 83.8252 43.669 84.5626L46.4557 86.684C47.4648 87.376 48.4969 88.0566 49.4832 88.7032C50.4694 88.1474 51.5703 87.5461 52.6597 86.8655C53.646 86.2075 54.6207 85.5495 55.584 84.8689C56.5244 84.1655 57.4418 83.4281 58.3707 82.7021C59.2652 81.942 60.1367 81.1479 61.0197 80.3652C61.8683 79.5597 62.7055 78.7203 63.5197 77.8808C64.311 77.0186 65.0793 76.1224 65.8591 75.2489C66.6045 74.3414 67.327 73.4111 68.038 72.4809C68.7146 71.528 69.3683 70.5524 70.0219 69.5881C72.5907 65.663 74.5746 61.3975 76.0769 56.9846C77.5218 52.5603 78.4163 47.9431 78.6228 43.3033L78.6916 41.7265L77.2466 41.0458Z" fill="url(#paint2_linear)"/>
<path d="M24.4148 44.0523C28.1992 42.396 32.1556 41.1141 36.2037 40.2406C40.5614 39.3104 45.0339 38.8679 49.4834 38.936C53.9329 39.0268 58.3594 39.6167 62.6369 40.7057C66.3754 41.6586 69.9877 42.9746 73.4395 44.5741C73.084 48.3177 72.4074 52.05 71.3524 55.6802C70.2056 59.8322 68.5084 63.8481 66.4557 67.7051C65.9052 68.6467 65.3777 69.611 64.8158 70.5526C64.208 71.4714 63.6461 72.413 63.0268 73.3319C62.3731 74.2281 61.7539 75.147 61.0773 76.0318C60.3663 76.894 59.7126 77.7902 58.9901 78.6524C58.2447 79.4919 57.5223 80.3427 56.7539 81.1822C55.9741 81.9989 55.1943 82.8157 54.403 83.6325L51.9375 85.9921C51.1577 86.6728 50.3664 87.4329 49.4719 88.227C48.5774 87.5236 47.7288 86.8316 46.8573 86.1736L44.2426 83.9502C43.4055 83.1788 42.5798 82.3847 41.7541 81.6019C40.9514 80.7965 40.183 79.957 39.3917 79.1402C38.3826 78.0171 37.4078 76.8713 36.4904 75.6802H35.5844C39.4491 80.4788 44.105 84.801 49.4719 88.4539C65.3318 77.6427 75.045 61.1254 76.0886 43.1674C67.7745 39.1742 58.6461 37.0869 49.4719 37.0869C40.2862 37.0869 31.1579 39.1856 22.8438 43.1674C23.2795 50.7227 25.2634 58.0171 28.5891 64.7443H29.7129C26.6166 58.1986 24.8047 51.1538 24.4148 44.0523Z" fill="#77111A"/>
<path d="M76.2721 42.9063C72.1437 40.8076 67.7745 39.1741 63.2562 38.1077C58.7493 37.03 54.1049 36.4855 49.4719 36.4968C44.8389 36.5308 40.206 37.1434 35.7221 38.2665C31.2382 39.401 26.9033 41.0799 22.8438 43.2353C26.9951 41.2501 31.3528 39.7186 35.8253 38.6976C40.2977 37.6653 44.8848 37.1548 49.4604 37.1888C54.0361 37.2002 58.6117 37.7674 63.0612 38.8564C67.419 39.9341 71.6621 41.477 75.6872 43.4622C75.5152 46.5592 75.1024 49.6449 74.4602 52.6738C73.7951 55.7935 72.9235 58.8678 71.7882 61.8513C70.6644 64.8462 69.2882 67.739 67.7401 70.541C66.1805 73.3431 64.3915 76.0203 62.442 78.5728C64.5176 76.1111 66.3754 73.4679 68.0268 70.7112C69.6896 67.9545 71.1001 65.0391 72.2928 62.0555C73.474 59.0606 74.4602 55.975 75.1368 52.8326C75.8248 49.6902 76.2721 46.4798 76.4556 43.2694L76.467 43.0198L76.2721 42.9063Z" fill="#F69AA3"/>
<path d="M24.4148 54.8859C24.8621 56.7917 25.3781 58.6976 26.0777 60.5467C26.7887 62.3845 27.5799 64.1882 28.5547 65.9012L28.6006 65.8785C27.9125 64.0408 27.2015 62.2143 26.5937 60.3652C25.9745 58.5161 25.3437 56.667 24.8391 54.7838C23.8414 51.0175 23.1763 47.1491 22.8896 43.2466H22.8667H22.8438C22.9699 47.1604 23.4974 51.0629 24.4148 54.8859Z" fill="#F69AA3"/>
<path d="M78.7039 41.7262L75.8828 42.8607L76.2268 43.5867L78.7039 41.8056V41.7262Z" fill="#F69AA3"/>
<path d="M46.903 69.6563C46.903 69.6563 53.9327 66.0375 53.818 73.9898C53.6804 83.3715 59.3914 85.924 59.3914 85.924C59.3914 85.924 74.4256 73.6722 79.4141 50.371C79.4141 50.371 65.6642 38.1759 46.3755 43.9955C46.3755 43.9955 46.9374 40.8645 45.4695 37.0641C45.4695 37.0641 40.0682 43.0879 32.4651 45.9467C24.8619 48.8055 25.0913 55.2263 25.0913 55.2263C25.0913 55.2263 14.8162 60.9552 17.5111 65.7198C17.5111 65.7198 19.151 68.7828 21.3413 70.2008C21.3413 70.2008 23.05 73.0255 26.9261 72.6852C26.9261 72.6852 25.8138 71.3239 25.6876 69.3727C25.6876 69.3727 28.2105 65.4362 33.199 68.2496C33.199 68.2496 33.7724 68.7147 33.4857 70.2235C33.1875 71.7209 35.4925 72.9915 35.4925 72.9915C35.4925 72.9915 34.2884 74.9768 31.0201 73.8764C31.0201 73.8764 31.1233 76.5082 34.3687 77.5973C34.3687 77.5973 36.2609 80.422 39.3113 79.8321C42.3503 79.2422 46.903 76.4969 46.903 69.6563Z" fill="#020202"/>
<path d="M45.8706 46.083C44.5518 48.8056 41.5701 50.3598 41.5701 50.3598C45.5724 45.8334 44.3224 40.1158 44.3224 40.1158C43.233 41.9082 39.2537 44.8124 35.0106 46.514C30.7675 48.2157 29.0129 49.9173 27.4418 52.6286C25.8708 55.3399 28.7606 55.1697 28.7606 55.1697C31.49 48.8623 38.405 48.5106 38.405 48.5106C34.7812 49.6224 34.2537 55.1584 34.2537 55.1584C35.584 54.784 36.9257 53.8084 36.9257 53.8084C31.6964 59.3104 26.8111 56.5424 26.8111 56.5424C19.0933 60.0591 18.7607 63.6439 18.7607 63.6439C20.7561 62.2146 24.3914 62.294 24.3914 62.294C21.7309 62.7477 19.0245 64.6649 19.8616 67.1266C20.6873 69.5884 24.4258 69.1913 24.4258 69.1913C24.5061 66.6615 27.2813 65.9015 28.5772 65.6746C27.5221 65.4023 26.2263 65.1754 24.9304 65.1754C24.9304 65.1754 27.224 64.9372 29.3914 65.3002C29.529 65.0279 29.6207 64.7557 29.6895 64.4834C28.6804 64.3586 26.2721 64.1431 24.0359 64.6422C24.0359 64.6422 27.224 63.5645 29.7813 63.8141C29.7927 63.4965 29.7698 63.2015 29.7125 62.9179C28.6804 62.8158 26.3524 62.8158 22.9465 64.1998C22.9465 64.1998 26.7194 62.1578 29.3914 61.9423C29.162 61.4545 28.9097 61.1595 28.9097 61.1595C31.9716 62.7024 32.178 65.8901 32.178 65.8901C38.0725 65.8107 39.4486 70.0989 39.4486 70.0989C38.5885 68.7375 36.983 68.2497 36.983 68.2497C38.6229 70.0308 38.1183 74.3416 38.1183 74.3416C38.061 73.4114 37.6367 72.5606 37.6367 72.5606C37.2927 74.7046 35.6642 77.1664 35.6642 77.1664C35.6642 77.1664 37.6138 79.3558 42.1779 76.9735C46.7421 74.5912 46.616 69.3842 46.616 69.3842C52.0746 62.362 56.9943 70.7909 56.9943 70.7909C56.5012 67.8867 54.1503 65.9015 54.1503 65.9015C54.1503 65.9015 58.4163 67.6031 58.7603 72.1068C59.0929 76.6105 61.3177 81.0575 61.3177 81.0575C72.8313 71.7892 77.3955 51.8685 77.3955 51.8685C62.6135 39.5259 45.8706 46.083 45.8706 46.083Z" fill="white"/>
<path d="M28.5775 65.6865C27.5224 65.4143 26.2266 65.1874 24.9307 65.1874C24.9307 65.1874 27.2243 64.9492 29.3917 65.3122C29.5293 65.0399 29.621 64.7677 29.6898 64.4954C29.1394 64.4273 28.1876 64.3366 27.0752 64.3366C26.8458 64.5067 26.5362 64.6315 26.1578 64.7223C23.0041 65.3916 23.2564 68.4092 23.2564 68.4092C21.2496 68.8176 20.1601 67.7172 20.1143 67.6718C21.2725 69.5209 24.4261 69.2033 24.4261 69.2033C24.5064 66.6622 27.2816 65.9021 28.5775 65.6865Z" fill="#A8AAAD"/>
<path d="M27.7744 62.2379C28.3363 62.0905 28.8868 61.977 29.3914 61.943C29.2079 61.5686 29.0244 61.3077 28.9441 61.2056C28.0038 60.3548 26.9717 59.9123 26.9717 59.9123C26.9717 59.9123 27.6253 61.0581 27.7744 62.2379Z" fill="#A8AAAD"/>
<path d="M29.7243 62.9187C29.3 62.8733 28.6463 62.8507 27.8092 62.9301C27.7862 63.2704 27.6945 63.588 27.5225 63.8716C28.2679 63.7809 29.0591 63.7355 29.7931 63.8036C29.8046 63.4973 29.7702 63.191 29.7243 62.9187Z" fill="#A8AAAD"/>
<path d="M45.8705 46.083C44.5518 48.8056 41.5701 50.3598 41.5701 50.3598C45.5724 45.8334 44.3224 40.1158 44.3224 40.1158C43.233 41.9082 39.2536 44.8124 35.0106 46.514C30.7675 48.2157 29.0129 49.9173 27.4418 52.6286C25.8708 55.3399 28.7606 55.1697 28.7606 55.1697C31.49 48.8623 38.405 48.5106 38.405 48.5106C34.7812 49.6224 34.2537 55.1584 34.2537 55.1584C35.584 54.784 36.9257 53.8084 36.9257 53.8084C31.6964 59.3104 26.8111 56.5424 26.8111 56.5424C19.0933 60.0591 18.7607 63.6439 18.7607 63.6439C20.7561 62.2146 24.3914 62.294 24.3914 62.294C24.3914 62.294 26.7882 62.2372 29.0129 61.2843C28.9556 61.1936 28.9097 61.1482 28.9097 61.1482C28.9785 61.1822 29.0359 61.2163 29.0932 61.2503C29.873 60.91 30.6299 60.4562 31.2606 59.8549C31.2606 59.8549 30.6413 61.2276 30.1482 61.6133C30.1482 61.6133 36.9372 63.6893 40.3431 60.2066C40.3431 60.2066 40.3087 62.4755 38.967 63.2923C38.967 63.2923 47.4875 63.8935 49.1618 52.1635C49.1618 52.1635 53.7145 55.5328 53.0035 62.4074C53.0035 62.4074 59.4828 63.0654 62.8543 68.6581C62.8543 68.6581 61.6387 64.8124 58.6456 62.1578C58.6456 62.1578 65.4346 64.4267 69.0354 71.982C74.9069 62.6003 77.3725 51.8459 77.3725 51.8459C62.6135 39.5259 45.8705 46.083 45.8705 46.083Z" fill="url(#paint3_linear)"/>
<path d="M22.4189 69.6792C22.4189 69.6792 23.9786 69.8834 24.5061 69.6566C24.5061 69.6566 24.8043 71.2221 25.5726 71.9254C25.5611 71.9254 22.9121 71.4263 22.4189 69.6792Z" fill="white"/>
<path d="M36.8451 72.1292C36.8451 72.1292 36.0882 74.5115 34.735 75.5665C34.735 75.5665 34.6089 75.4417 34.563 75.2035C34.563 75.2035 32.9116 75.5665 32.0859 74.9085C32.0859 74.9085 32.6479 76.3039 34.6318 76.7236C34.6433 76.7236 36.7648 75.1354 36.8451 72.1292Z" fill="#A8AAAD"/>
<path d="M32.9697 67.7169C32.9697 67.7169 34.472 68.0912 34.3 69.5433C34.128 70.9954 34.667 72.1184 36.1807 72.4134C36.1807 72.4134 37.5798 66.9795 32.9697 67.7169Z" fill="#BE202E"/>
<path d="M34.3 69.5429C34.128 70.995 34.667 72.1181 36.1807 72.413C36.1807 72.413 36.2151 72.2769 36.261 72.05C35.8481 71.9592 35.0683 71.6983 34.8504 70.9156C34.5523 69.8265 35.0339 67.7392 32.9697 67.7165C32.9697 67.7165 34.472 68.0908 34.3 69.5429Z" fill="#F15B2B"/>
<path d="M44.2539 68.7942C44.2539 68.7942 51.7882 64.9371 51.0887 55.5214C51.0887 55.5214 64.8959 56.7239 70.8591 67.7619C70.8591 67.7619 67.3271 54.7613 49.1621 52.1748C49.1621 52.1635 50.8364 61.6019 44.2539 68.7942Z" fill="#020202"/>
<path d="M30.1025 55.1127C30.1025 55.1127 31.2837 55.124 31.8915 53.6719C32.4993 52.2312 33.2906 51.8001 34.5062 51.2556C34.5062 51.2556 33.1415 52.0043 32.7975 53.3656C32.442 54.7383 31.4557 55.8841 30.1025 55.1127Z" fill="#BCBDBF"/>
<path d="M38.0843 55.4875C37.0637 56.1341 35.1142 56.3497 35.1142 56.3497C37.9008 55.34 38.8641 52.2317 38.8641 52.2317C37.6256 53.3774 36.0774 53.1165 36.0774 53.1165C36.0201 50.53 38.3939 48.5107 38.3939 48.5107C34.7701 49.6225 34.2426 55.1585 34.2426 55.1585C35.5729 54.7841 36.9146 53.8085 36.9146 53.8085C32.9697 57.9605 29.2197 57.4047 27.6143 56.8828C34.3458 59.4693 38.0843 55.4875 38.0843 55.4875Z" fill="#BE202E"/>
<path d="M35.0111 46.5252C30.7681 48.2269 29.0135 49.9285 27.4424 52.6398C25.8713 55.3511 28.7612 55.1809 28.7612 55.1809C31.4905 48.8735 38.4056 48.5218 38.4056 48.5218C38.4056 48.5218 33.6694 48.3403 29.8392 52.3222C29.8392 52.3222 30.2061 49.4974 34.3919 47.705C38.4515 45.958 40.6189 45.3114 44.0248 40.5581C42.6257 42.3505 38.9331 44.9484 35.0111 46.5252Z" fill="#F69AA3"/>
<path d="M26.8111 56.5416C19.0933 60.0583 18.7607 63.6431 18.7607 63.6431C19.4259 63.1667 20.263 62.8604 21.0887 62.6675C21.9258 61.3062 24.1621 58.2206 27.7744 56.9273C27.1666 56.7458 26.8111 56.5416 26.8111 56.5416Z" fill="#F69AA3"/>
<path d="M34.6435 76.7238C34.6435 76.7238 35.6985 75.9297 36.3522 74.4096C35.7673 75.6915 34.7123 76.1339 34.7123 76.1339C32.9463 76.1112 32.0977 74.9087 32.0977 74.9087C32.0977 74.9087 32.6596 76.3041 34.6435 76.7238Z" fill="white"/>
<path d="M24.4953 69.6566C23.9793 69.8834 22.4082 69.6792 22.4082 69.6792C22.4082 69.6792 22.9816 70.0876 23.7958 70.099C23.7958 70.099 24.0366 71.3128 25.5618 71.9254C24.805 71.2221 24.4953 69.6566 24.4953 69.6566Z" fill="#A8AAAD"/>
<path d="M20.8816 65.6516C21.0843 65.6516 21.2486 65.4891 21.2486 65.2886C21.2486 65.0881 21.0843 64.9255 20.8816 64.9255C20.6789 64.9255 20.5146 65.0881 20.5146 65.2886C20.5146 65.4891 20.6789 65.6516 20.8816 65.6516Z" fill="#A8AAAD"/>
<path d="M21.742 64.9825C21.9446 64.9825 22.1089 64.82 22.1089 64.6195C22.1089 64.419 21.9446 64.2565 21.742 64.2565C21.5393 64.2565 21.375 64.419 21.375 64.6195C21.375 64.82 21.5393 64.9825 21.742 64.9825Z" fill="#A8AAAD"/>
<path d="M21.6277 66.2989C21.8304 66.2989 21.9947 66.1363 21.9947 65.9358C21.9947 65.7353 21.8304 65.5728 21.6277 65.5728C21.425 65.5728 21.2607 65.7353 21.2607 65.9358C21.2607 66.1363 21.425 66.2989 21.6277 66.2989Z" fill="#A8AAAD"/>
<path d="M22.4994 66.9903C22.6387 66.9903 22.7517 66.8786 22.7517 66.7408C22.7517 66.6029 22.6387 66.4912 22.4994 66.4912C22.36 66.4912 22.2471 66.6029 22.2471 66.7408C22.2471 66.8786 22.36 66.9903 22.4994 66.9903Z" fill="#A8AAAD"/>
<path d="M21.4554 67.1035C21.5694 67.1035 21.6619 67.012 21.6619 66.8993C21.6619 66.7865 21.5694 66.6951 21.4554 66.6951C21.3414 66.6951 21.249 66.7865 21.249 66.8993C21.249 67.012 21.3414 67.1035 21.4554 67.1035Z" fill="#A8AAAD"/>
<path d="M22.6365 65.7539C22.8392 65.7539 23.0035 65.5914 23.0035 65.3909C23.0035 65.1904 22.8392 65.0279 22.6365 65.0279C22.4338 65.0279 22.2695 65.1904 22.2695 65.3909C22.2695 65.5914 22.4338 65.7539 22.6365 65.7539Z" fill="#A8AAAD"/>
<path d="M20.4461 66.628C20.6487 66.628 20.813 66.4655 20.813 66.265C20.813 66.0645 20.6487 65.902 20.4461 65.902C20.2434 65.902 20.0791 66.0645 20.0791 66.265C20.0791 66.4655 20.2434 66.628 20.4461 66.628Z" fill="#A8AAAD"/>
<path d="M20.6862 67.4673C20.7938 67.4673 20.8811 67.381 20.8811 67.2745C20.8811 67.1679 20.7938 67.0816 20.6862 67.0816C20.5785 67.0816 20.4912 67.1679 20.4912 67.2745C20.4912 67.381 20.5785 67.4673 20.6862 67.4673Z" fill="#A8AAAD"/>
<path d="M23.2448 66.3889C23.3524 66.3889 23.4397 66.3026 23.4397 66.1961C23.4397 66.0895 23.3524 66.0032 23.2448 66.0032C23.1371 66.0032 23.0498 66.0895 23.0498 66.1961C23.0498 66.3026 23.1371 66.3889 23.2448 66.3889Z" fill="#A8AAAD"/>
<path d="M22.6705 64.7558C22.7782 64.7558 22.8655 64.6695 22.8655 64.5629C22.8655 64.4564 22.7782 64.3701 22.6705 64.3701C22.5629 64.3701 22.4756 64.4564 22.4756 64.5629C22.4756 64.6695 22.5629 64.7558 22.6705 64.7558Z" fill="#A8AAAD"/>
<path d="M61.9596 72.6286C59.5973 63.9615 50.8933 64.5968 50.8933 64.5968C53.2556 65.1527 54.1157 66.843 54.1157 66.843C49.3795 63.8254 46.4323 69.0097 46.4323 69.0097C46.2144 72.4924 43.9323 73.7063 43.9323 73.7063C44.3566 72.2656 44.1617 69.7244 44.1617 69.7244C43.4736 74.7159 39.1617 75.6802 39.1617 75.6802C39.7351 70.4164 36.9829 68.2383 36.9829 68.2383C38.6227 70.0194 38.1182 74.3302 38.1182 74.3302C38.0608 73.4 37.6365 72.5492 37.6365 72.5492C37.2925 74.6932 35.6641 77.155 35.6641 77.155C35.6641 77.155 37.6136 79.3444 42.1778 76.9621C46.7419 74.5798 46.6158 69.3728 46.6158 69.3728C52.0744 62.3506 56.9941 70.7795 56.9941 70.7795C56.501 67.8753 54.1501 65.8901 54.1501 65.8901C54.1501 65.8901 58.4161 67.5917 58.7601 72.0954C59.0927 76.5991 61.3174 81.0461 61.3174 81.0461C62.5101 80.0818 63.6339 79.0041 64.689 77.8356C63.5881 76.6672 62.6133 74.9995 61.9596 72.6286Z" fill="#A8AAAD"/>
<path d="M48.1997 45.3795C46.7203 45.7539 45.8717 46.0829 45.8717 46.0829C44.5529 48.8055 41.5713 50.3597 41.5713 50.3597C41.5713 50.3597 45.9749 49.3841 48.1997 45.3795Z" fill="#BE202E"/>
<path d="M41.5137 46.4117C41.5137 46.4117 42.8095 45.6516 43.5893 44.8802C43.5893 44.8802 43.5779 47.9545 41.5595 50.3708C45.5618 45.8445 44.3118 40.1269 44.3118 40.1269C44.3118 40.1269 44.1971 44.3016 41.5137 46.4117Z" fill="#BE202E"/>
<path d="M42.1239 57.2677C42.5931 56.6525 42.6006 55.8755 42.1405 55.5321C41.6805 55.1887 40.9272 55.409 40.458 56.0241C39.9888 56.6392 39.9813 57.4163 40.4414 57.7597C40.9014 58.103 41.6547 57.8828 42.1239 57.2677Z" fill="#020202"/>
<path d="M45.0062 55.934C45.4335 55.3739 45.4438 54.669 45.0292 54.3595C44.6147 54.0501 43.9323 54.2533 43.505 54.8134C43.0778 55.3735 43.0675 56.0785 43.482 56.3879C43.8966 56.6973 44.579 56.4941 45.0062 55.934Z" fill="#020202"/>
<path d="M45.5099 57.2679C45.6777 57.0479 45.6826 56.7716 45.5209 56.6509C45.3591 56.5301 45.0919 56.6106 44.924 56.8306C44.7562 57.0507 44.7513 57.327 44.913 57.4477C45.0748 57.5685 45.342 57.488 45.5099 57.2679Z" fill="#020202"/>
<path d="M43.3405 58.8744C43.6228 58.5043 43.6304 58.0391 43.3574 57.8354C43.0844 57.6316 42.6342 57.7664 42.3519 58.1365C42.0697 58.5065 42.0621 58.9717 42.3351 59.1755C42.6081 59.3792 43.0583 59.2444 43.3405 58.8744Z" fill="#020202"/>
<path d="M27.3667 59.3164C27.7744 59.1144 27.983 58.7099 27.8327 58.413C27.6823 58.1161 27.2299 58.0392 26.8222 58.2412C26.4145 58.4433 26.2059 58.8478 26.3562 59.1447C26.5066 59.4416 26.959 59.5185 27.3667 59.3164Z" fill="#020202"/>
<path d="M28.3046 60.4123C28.4631 60.3337 28.5434 60.1747 28.4838 60.057C28.4242 59.9394 28.2474 59.9077 28.0889 59.9863C27.9303 60.0649 27.85 60.2239 27.9096 60.3416C27.9692 60.4592 28.146 60.4909 28.3046 60.4123Z" fill="#020202"/>
<path d="M25.3024 61.215C25.5686 61.0831 25.7038 60.8172 25.6045 60.6212C25.5052 60.4251 25.209 60.3731 24.9428 60.505C24.6767 60.6369 24.5414 60.9027 24.6407 61.0988C24.74 61.2949 25.0362 61.3469 25.3024 61.215Z" fill="#020202"/>
<path d="M57.3128 60.9648C57.3754 60.3288 56.6341 59.7368 55.657 59.6427C54.6799 59.5486 53.8371 59.988 53.7745 60.624C53.7119 61.2601 54.4532 61.852 55.4303 61.9461C56.4074 62.0402 57.2502 61.6009 57.3128 60.9648Z" fill="#020202"/>
<path d="M68.3293 65.7606C68.3858 65.1869 67.7162 64.6529 66.8337 64.5679C65.9511 64.4829 65.19 64.8791 65.1335 65.4527C65.077 66.0264 65.7467 66.5604 66.6292 66.6454C67.5117 66.7304 68.2729 66.3343 68.3293 65.7606Z" fill="#020202"/>
<path d="M64.3209 69.0475C64.343 68.8231 64.0799 68.614 63.7332 68.5806C63.3865 68.5472 63.0875 68.7021 63.0654 68.9266C63.0433 69.1511 63.3064 69.3601 63.6531 69.3935C63.9998 69.4269 64.2988 69.272 64.3209 69.0475Z" fill="#231F20"/>
<path d="M36.8231 60.0602C37.0677 59.8612 37.1583 59.5704 37.0255 59.4107C36.8927 59.2511 36.5868 59.283 36.3422 59.482C36.0977 59.681 36.0071 59.9718 36.1398 60.1314C36.2726 60.2911 36.5785 60.2592 36.8231 60.0602Z" fill="#020202"/>
<path d="M62.806 60.8038C62.8434 60.4234 62.3986 60.0693 61.8123 60.0128C61.2261 59.9563 60.7205 60.2189 60.683 60.5993C60.6456 60.9797 61.0905 61.3338 61.6767 61.3903C62.263 61.4468 62.7686 61.1842 62.806 60.8038Z" fill="#020202"/>
<path d="M53.7044 49.9847C53.7418 49.6043 53.297 49.2502 52.7107 49.1937C52.1245 49.1373 51.6189 49.3998 51.5815 49.7802C51.544 50.1606 51.9889 50.5147 52.5751 50.5712C53.1614 50.6277 53.667 50.3651 53.7044 49.9847Z" fill="#020202"/>
<path d="M61.903 49.8784C61.992 48.9742 60.9399 48.1329 59.5531 47.9993C58.1662 47.8657 56.9699 48.4904 56.8809 49.3946C56.7919 50.2988 57.844 51.1401 59.2308 51.2737C60.6176 51.4073 61.814 50.7826 61.903 49.8784Z" fill="#020202"/>
<path d="M68.3302 48.8552C68.3836 48.3127 67.7319 47.806 66.8746 47.7234C66.0173 47.6408 65.279 48.0137 65.2256 48.5562C65.1722 49.0987 65.8239 49.6055 66.6812 49.6881C67.5385 49.7706 68.2768 49.3978 68.3302 48.8552Z" fill="#020202"/>
<path d="M74.3368 55.0377C74.4073 54.3206 73.5396 53.6502 72.3987 53.5403C71.2577 53.4304 70.2755 53.9226 70.205 54.6398C70.1344 55.3569 71.0021 56.0273 72.143 56.1372C73.284 56.2471 74.2662 55.7549 74.3368 55.0377Z" fill="#020202"/>
<path d="M66.1693 55.1939C66.1993 54.8883 65.8353 54.6032 65.3563 54.5571C64.8772 54.5109 64.4644 54.7212 64.4343 55.0268C64.4043 55.3324 64.7683 55.6175 65.2473 55.6636C65.7264 55.7098 66.1392 55.4995 66.1693 55.1939Z" fill="#020202"/>
<path d="M34.7588 67.7961C35.3322 68.3066 35.9629 69.4751 36.2496 72.0502C36.4331 71.0746 36.7083 68.4427 34.7588 67.7961Z" fill="#72111D"/>
<path d="M58.5088 44.3927C58.6693 44.4154 70.9399 45.7314 76.6164 54.6707C77.1325 52.9236 77.3733 51.8686 77.3733 51.8686C70.9513 46.4914 64.1395 44.699 58.5088 44.3927Z" fill="url(#paint4_linear)"/>
<path d="M34.5064 51.2669C33.2908 51.8114 32.511 52.2312 31.8918 53.6832C31.8459 53.7739 31.8115 53.8647 31.7656 53.9554C32.0523 53.8987 32.3849 53.7626 32.7633 53.4903C32.7748 53.4563 32.7863 53.4223 32.7977 53.3882C33.1418 52.0043 34.5064 51.2669 34.5064 51.2669Z" fill="#F2F2F2"/>
<path d="M32.9929 65.9014C32.4539 62.4188 28.9219 61.1482 28.9219 61.1482C31.9838 62.691 32.1902 65.8788 32.1902 65.8788C32.4539 65.8788 32.7292 65.8901 32.9929 65.9014Z" fill="#A8AAAD"/>
<path d="M32.2814 65.6294L32.1553 65.6521C32.1782 65.7996 32.1782 65.8903 32.1782 65.8903C38.0726 65.8109 39.4488 70.0991 39.4488 70.0991C38.5887 68.7378 36.9832 68.25 36.9832 68.25C37.2011 68.4995 37.3846 68.7831 37.5451 69.1008C38.9901 69.702 40.0107 70.8024 40.0107 70.8024C37.6942 64.9374 32.2814 65.6294 32.2814 65.6294Z" fill="#A8AAAD"/>
<path d="M49.5052 30.9151C54.3217 30.9151 59.1152 31.4142 63.817 32.3785L66.489 25.1408C61.0074 23.9383 55.3309 23.2917 49.5052 23.2917C43.6796 23.2917 37.9916 23.927 32.5215 25.1408L35.1935 32.3785C39.8953 31.4142 44.6888 30.9151 49.5052 30.9151Z" fill="url(#paint5_linear)"/>
<path d="M66.9702 28.1586L64.9404 33.8647L57.5781 32.3786L68.9542 36.4626L67.9221 32.0383L71.5344 29.8035L66.9702 28.1586Z" fill="#77111A"/>
<path d="M32.0283 28.1586L34.0581 33.8647L41.4204 32.3786L30.0444 36.4626L31.0879 32.0383L27.4756 29.8035L32.0283 28.1586Z" fill="#77111A"/>
<path d="M49.5052 30.9152C54.3217 30.9152 59.1152 31.4144 63.817 32.3786L66.489 25.141L63.3354 31.6753C63.3354 31.6753 51.8217 28.2833 35.8471 31.6753L32.5215 25.141L35.1935 32.3786C39.8953 31.4144 44.6888 30.9152 49.5052 30.9152Z" fill="#77111A"/>
<path d="M77.1538 22.6911L73.7822 26.3893L77.0391 22.192L77.1538 22.6911Z" fill="#434244"/>
<path d="M91.248 33.2635L84.333 40.4899L90.7435 32.5829L91.248 33.2635Z" fill="#434244"/>
<path d="M84.1149 29.0097L80.1699 33.1164L83.5873 28.556L84.1149 29.0097Z" fill="#434244"/>
<path d="M80.1013 27.0586L78.4385 29.3841L80.4683 27.0586H80.1013Z" fill="#434244"/>
<path d="M71.3172 20.785L69.792 22.4866L71.042 20.524L71.3172 20.785Z" fill="#434244"/>
<path d="M7.7627 33.1612L14.6778 40.3875L8.27875 32.4806L7.7627 33.1612Z" fill="#434244"/>
<path d="M17.9805 26.8878L21.9139 30.9944L18.508 26.434L17.9805 26.8878Z" fill="#434244"/>
<path d="M21.9486 22.2594L23.7146 24.9253L21.6963 22.5998L21.9486 22.2594Z" fill="#434244"/>
<path d="M27.7969 20.7622L29.3106 22.4525L28.0721 20.4899L27.7969 20.7622Z" fill="#434244"/>
<path d="M67.9235 32.0389L71.5359 29.8041L66.9717 28.1591L70.5038 29.8721L67.9235 32.0389Z" fill="#BE202E"/>
<path d="M31.0879 32.0389L27.4756 29.8041L32.0283 28.1591L28.4962 29.8721L31.0879 32.0389Z" fill="#BE202E"/>
<path d="M33.6808 6.77455C33.2565 8.98669 32.8437 11.1988 32.4194 13.4223C32.4079 13.479 32.3964 13.5471 32.385 13.6038C32.2703 14.1824 32.1671 14.7723 32.0524 15.3508C32.0409 15.4076 32.0295 15.4643 32.018 15.521C31.7313 16.9958 31.4561 18.4819 31.1694 19.9566C30.0341 20.2062 28.9102 20.4671 27.7979 20.7621C28.1763 18.9243 28.5662 17.0752 28.9446 15.2374C29.2772 15.1807 29.5983 15.1353 29.9309 15.0786C29.9079 15.0786 29.8965 15.0672 29.8735 15.0672C29.5868 14.9992 29.3001 14.9424 29.0135 14.8744C28.1992 14.6815 27.385 14.4887 26.5823 14.2845C26.0548 16.7008 25.5273 19.1172 24.9997 21.5335C23.8874 21.8625 22.7865 22.2141 21.6855 22.5999C22.3736 19.5596 23.0502 16.5193 23.7383 13.479C23.7497 13.3996 23.7727 13.3316 23.7842 13.2521C23.9447 12.5488 24.0938 11.8568 24.2543 11.1535C24.2658 11.0854 24.2887 11.0173 24.3002 10.9493C24.6098 9.5539 24.9309 8.15855 25.2406 6.75186C26.2268 6.75186 27.2245 6.75186 28.2107 6.75186C27.8323 8.46485 27.4653 10.1778 27.0869 11.9022C27.8667 12.1517 28.658 12.39 29.4607 12.6169C29.8621 10.6656 30.2749 8.70308 30.6763 6.75186C31.6969 6.77455 32.6946 6.77455 33.6808 6.77455Z" fill="url(#paint6_linear)"/>
<path d="M43.8984 6.77455C43.8526 7.33042 43.8067 7.89763 43.7608 8.45351C43.7149 9.07744 43.6576 9.70138 43.6117 10.3253C42.5682 10.348 41.5361 10.382 40.4925 10.4274C40.5728 9.78079 40.6416 9.14551 40.7219 8.49888C39.8732 8.51023 39.0361 8.53292 38.1875 8.5556C38.0613 9.38374 37.9467 10.2005 37.8205 11.0287C38.8297 11.3123 39.8503 11.5959 40.8939 11.8795C40.8251 12.5034 40.7563 13.1274 40.6875 13.7513C39.6209 13.4904 38.5774 13.2295 37.5338 12.9685C37.3274 14.3639 37.121 15.7706 36.9146 17.1659C37.8434 17.0411 38.7838 16.939 39.7242 16.8369C39.7242 16.8142 39.7356 16.7916 39.7356 16.7575C39.7471 16.6441 39.7586 16.5306 39.77 16.4285C39.77 16.4172 39.77 16.3945 39.77 16.3832C39.7815 16.3264 39.7815 16.2697 39.793 16.213C39.8044 16.1563 39.8044 16.0882 39.8159 16.0315C39.8732 15.5664 39.9306 15.1126 39.9764 14.6475C39.9879 14.6021 39.9879 14.5454 39.9994 14.5C41.0544 14.7382 42.1209 14.9878 43.2104 15.2374C43.1874 15.5437 43.1645 15.85 43.1416 16.1563C43.1301 16.2924 43.1186 16.4172 43.1072 16.5533C43.0957 16.7348 43.0727 16.905 43.0613 17.0865C43.0269 17.4722 43.0039 17.8579 42.9695 18.2323C41.8228 18.323 40.6645 18.4251 39.5177 18.5613C38.5659 18.6747 37.6026 18.7995 36.6508 18.947C35.504 19.1171 34.3687 19.31 33.2334 19.5369C33.3481 18.9129 33.4513 18.289 33.566 17.6651C33.8756 15.9407 34.1738 14.2051 34.4834 12.4807C34.7586 12.458 35.0338 12.4354 35.3205 12.4013C35.0568 12.3333 34.793 12.2652 34.5407 12.1971C34.2884 12.1291 34.0361 12.061 33.7953 11.9816C33.8068 11.9249 33.8183 11.8568 33.8297 11.8001C33.9329 11.2329 34.0361 10.6543 34.1394 10.0871C34.1508 10.0304 34.1623 9.97364 34.1738 9.91692C34.4146 9.99633 34.6669 10.0644 34.9077 10.1325C34.9994 9.63331 35.0797 9.12282 35.1715 8.62367C35.2861 7.99973 35.3893 7.3758 35.504 6.75186C36.4902 6.75186 37.4879 6.75186 38.4742 6.75186C39.2998 6.75186 40.1255 6.75186 40.9512 6.75186C41.9145 6.77455 42.9007 6.77455 43.8984 6.77455Z" fill="url(#paint7_linear)"/>
<path d="M53.8752 6.77466C53.9325 7.6822 53.9899 8.60109 54.0472 9.50863C54.0472 9.55401 54.0587 9.61073 54.0587 9.65611C54.0931 10.1553 54.1275 10.6544 54.1504 11.1649C54.1504 11.2216 54.1619 11.267 54.1619 11.3237C54.2421 12.6056 54.3224 13.8762 54.4027 15.1581C54.4715 16.1564 54.5288 17.1547 54.5976 18.153C53.4394 18.0849 52.2926 18.0395 51.1344 18.0169C51.1114 17.0299 51.0885 16.043 51.077 15.056C51.0426 13.5699 51.0197 12.0951 50.9853 10.609C51.3064 10.609 51.6275 10.609 51.9486 10.6204C50.7445 10.246 49.5518 9.883 48.3821 9.53132C48.3363 12.3561 48.2904 15.1921 48.2445 18.0169C47.0863 18.0282 45.9395 18.0736 44.7812 18.1416C44.9647 14.9652 45.1597 11.7888 45.3432 8.61243C45.3432 8.55571 45.3546 8.51034 45.3546 8.45361C45.3546 8.39689 45.3661 8.34017 45.3661 8.28345C45.389 7.84102 45.4234 7.39859 45.4464 6.95617C45.4464 6.89945 45.4578 6.85407 45.4578 6.79735C47.2353 7.38725 49.0702 7.95447 50.9394 8.54437C50.928 7.96581 50.9165 7.37591 50.905 6.79735C51.8913 6.77466 52.8775 6.77466 53.8752 6.77466Z" fill="url(#paint8_linear)"/>
<path d="M64.1849 8.64637C63.256 8.61234 62.3272 8.58965 61.3868 8.56696C61.9258 12.061 62.4533 15.5551 62.9923 19.0491C61.8455 18.8676 60.7102 18.7088 59.552 18.5726C59.1506 15.2147 58.7492 11.8568 58.3364 8.49889C57.4075 8.47621 56.4901 8.46486 55.5612 8.45352C55.5153 7.8863 55.4694 7.33043 55.4121 6.76321C56.3181 6.76321 57.224 6.76321 58.1185 6.76321C59.1047 6.76321 60.1024 6.76321 61.0886 6.76321C62.0061 6.76321 62.912 6.76321 63.8294 6.76321C63.9671 7.3985 64.0703 8.02243 64.1849 8.64637Z" fill="url(#paint9_linear)"/>
<path d="M70.8593 6.77466C71.8455 6.77466 72.8432 6.77466 73.8295 6.77466C74.0015 7.54607 74.1735 8.32883 74.357 9.10024C74.7813 10.9947 75.2056 12.8779 75.6299 14.7724C75.6414 14.8518 75.6643 14.9199 75.6758 14.9993C75.8363 15.7026 75.9969 16.3946 76.146 17.098C76.1574 17.166 76.1804 17.2341 76.1918 17.3022C76.5932 19.0832 76.9946 20.8643 77.3959 22.6453C76.295 22.271 75.1941 21.908 74.0818 21.579C73.6574 19.6278 73.2331 17.6879 72.8088 15.7367C73.1299 15.7934 73.4625 15.8614 73.7836 15.9295C73.7606 15.9182 73.7492 15.9068 73.7262 15.8955C73.3937 15.714 73.0611 15.5325 72.7285 15.351C71.7653 14.8405 70.8134 14.364 69.8616 13.9102C70.3433 16.2018 70.8134 18.5047 71.2951 20.7962C70.1712 20.5013 69.0474 20.229 67.9236 19.9794C67.4419 17.4497 66.9603 14.9085 66.4786 12.3787C66.4671 12.322 66.4557 12.254 66.4442 12.1972C66.3295 11.6187 66.2263 11.0288 66.1116 10.4502C66.1002 10.3935 66.0887 10.3368 66.0772 10.28C65.974 9.75821 65.8823 9.23637 65.7791 8.71453C65.6529 8.06791 65.5383 7.42128 65.4121 6.77466C66.3983 6.77466 67.396 6.77466 68.3823 6.77466C69.2079 6.77466 70.0336 6.77466 70.8593 6.77466ZM72.2125 12.9686C71.9143 11.6187 71.6276 10.28 71.3295 8.93008C70.4923 8.8847 69.6552 8.85067 68.8066 8.81663C69.0015 9.75821 69.1965 10.6998 69.3914 11.6414C70.3318 12.0724 71.2721 12.5035 72.2125 12.9686Z" fill="url(#paint10_linear)"/>
<path d="M18.3367 13.6719C18.6119 12.458 18.8872 11.2442 19.1509 10.019C18.1303 10.0984 17.1097 10.1892 16.0776 10.2799C14.839 15.9294 13.612 21.5902 12.3735 27.2397C13.4514 26.6951 14.5294 26.1847 15.6188 25.6968C16.0776 23.6776 16.5248 21.6469 16.9835 19.6276C17.0867 19.1739 17.1899 18.7201 17.2931 18.255C17.4537 17.5289 17.6257 16.7916 17.7862 16.0655C18.9101 16.4059 20.0454 16.7008 21.2036 16.9617C21.1807 17.0525 21.1578 17.1546 21.1348 17.2453C20.9284 18.1415 20.7335 19.0264 20.527 19.9226C20.5041 20.0134 20.4926 20.0928 20.4697 20.1835C20.183 21.4654 19.8848 22.7473 19.5982 24.0292C19.3688 25.0162 19.1509 26.0031 18.9216 26.9901C17.5684 27.5913 16.2152 28.2493 14.8849 28.93C13.7725 29.5085 12.6831 30.1098 11.5937 30.7451C10.2978 31.5051 9.01341 32.3106 7.75195 33.1501C8.01571 31.8568 8.27947 30.5749 8.5547 29.2816C9.83909 23.065 11.1235 16.8369 12.4079 10.6203C12.6716 9.32702 12.9354 8.04511 13.2106 6.75186C14.4262 6.75186 15.6303 6.75186 16.8459 6.75186C17.8551 6.75186 18.8642 6.75186 19.8734 6.75186C21.089 6.75186 22.2931 6.75186 23.5087 6.75186C23.2793 7.73882 23.0614 8.72577 22.8321 9.71272C22.5798 10.8245 22.3275 11.9362 22.0752 13.0366C20.8367 13.2521 19.5752 13.4563 18.3367 13.6719Z" fill="url(#paint11_linear)"/>
<path d="M85.8125 6.86562C86.7299 11.3012 87.6358 15.7369 88.5532 20.1611C88.5762 20.2859 88.5991 20.4107 88.6335 20.5355C88.8743 21.704 89.1152 22.8611 89.356 24.0295C89.3789 24.143 89.4019 24.2564 89.4248 24.3699C90.0326 27.3307 90.6519 30.2916 91.2596 33.2638C89.9982 32.413 88.7138 31.6075 87.4179 30.8475C86.7299 27.6938 86.0418 24.54 85.3537 21.3863C85.7436 21.5338 86.1335 21.6699 86.512 21.8174C86.489 21.7947 86.4661 21.7834 86.4432 21.7607C86.0303 21.4204 85.629 21.0914 85.2161 20.7624C84.0349 19.8322 82.8652 18.9586 81.6841 18.1419C82.4983 21.772 83.3125 25.4022 84.1267 29.0324C82.7964 28.3404 81.4547 27.6938 80.09 27.0812C79.207 23.2014 78.3355 19.3103 77.4525 15.4306C77.4295 15.3398 77.4066 15.2377 77.3836 15.147C77.1772 14.2508 76.9823 13.3659 76.7759 12.4697C76.7529 12.379 76.7415 12.2995 76.7185 12.2088C76.3171 10.4277 75.9043 8.63533 75.5029 6.85428C76.7185 6.85428 77.9226 6.85428 79.1382 6.86562C79.7116 9.44078 80.2965 12.0159 80.8698 14.5911C82.0281 15.3171 83.1978 16.0885 84.356 16.928C83.6221 13.5814 82.8882 10.2235 82.1657 6.87697C83.3928 6.86562 84.5969 6.86562 85.8125 6.86562Z" fill="url(#paint12_linear)"/>
<path d="M33.6808 6.77455C33.2565 8.98669 32.8437 11.1988 32.4194 13.4223C32.4079 13.479 32.3964 13.5471 32.385 13.6038C32.2703 14.1824 32.1671 14.7723 32.0524 15.3508C32.0409 15.4076 32.0295 15.4643 32.018 15.521C31.7313 16.9958 31.4561 18.4819 31.1694 19.9566C30.0341 20.2062 28.9102 20.4671 27.7979 20.7621C28.1763 18.9243 28.5662 17.0752 28.9446 15.2374C29.2772 15.1807 29.5983 15.1353 29.9309 15.0786C29.9079 15.0786 29.8965 15.0672 29.8735 15.0672C29.5868 14.9992 29.3001 14.9424 29.0135 14.8744C28.1992 14.6815 27.385 14.4887 26.5823 14.2845C26.0548 16.7008 25.5273 19.1172 24.9997 21.5335C23.8874 21.8625 22.7865 22.2141 21.6855 22.5999C22.3736 19.5596 23.0502 16.5193 23.7383 13.479C23.7497 13.3996 23.7727 13.3316 23.7842 13.2521C23.9447 12.5488 24.0938 11.8568 24.2543 11.1535C24.2658 11.0854 24.2887 11.0173 24.3002 10.9493C24.6098 9.5539 24.9309 8.15855 25.2406 6.75186C26.2268 6.75186 27.2245 6.75186 28.2107 6.75186C27.8323 8.46485 27.4653 10.1778 27.0869 11.9022C27.8667 12.1517 28.658 12.39 29.4607 12.6169C29.8621 10.6656 30.2749 8.70308 30.6763 6.75186C31.6969 6.77455 32.6946 6.77455 33.6808 6.77455Z" fill="url(#paint13_radial)"/>
<path d="M43.8984 6.77455C43.8526 7.33042 43.8067 7.89763 43.7608 8.45351C43.7149 9.07744 43.6576 9.70138 43.6117 10.3253C42.5682 10.348 41.5361 10.382 40.4925 10.4274C40.5728 9.78079 40.6416 9.14551 40.7219 8.49888C39.8732 8.51023 39.0361 8.53292 38.1875 8.5556C38.0613 9.38374 37.9467 10.2005 37.8205 11.0287C38.8297 11.3123 39.8503 11.5959 40.8939 11.8795C40.8251 12.5034 40.7563 13.1274 40.6875 13.7513C39.6209 13.4904 38.5774 13.2295 37.5338 12.9685C37.3274 14.3639 37.121 15.7706 36.9146 17.1659C37.8434 17.0411 38.7838 16.939 39.7242 16.8369C39.7242 16.8142 39.7356 16.7916 39.7356 16.7575C39.7471 16.6441 39.7586 16.5306 39.77 16.4285C39.77 16.4172 39.77 16.3945 39.77 16.3832C39.7815 16.3264 39.7815 16.2697 39.793 16.213C39.8044 16.1563 39.8044 16.0882 39.8159 16.0315C39.8732 15.5664 39.9306 15.1126 39.9764 14.6475C39.9879 14.6021 39.9879 14.5454 39.9994 14.5C41.0544 14.7382 42.1209 14.9878 43.2104 15.2374C43.1874 15.5437 43.1645 15.85 43.1416 16.1563C43.1301 16.2924 43.1186 16.4172 43.1072 16.5533C43.0957 16.7348 43.0727 16.905 43.0613 17.0865C43.0269 17.4722 43.0039 17.8579 42.9695 18.2323C41.8228 18.323 40.6645 18.4251 39.5177 18.5613C38.5659 18.6747 37.6026 18.7995 36.6508 18.947C35.504 19.1171 34.3687 19.31 33.2334 19.5369C33.3481 18.9129 33.4513 18.289 33.566 17.6651C33.8756 15.9407 34.1738 14.2051 34.4834 12.4807C34.7586 12.458 35.0338 12.4354 35.3205 12.4013C35.0568 12.3333 34.793 12.2652 34.5407 12.1971C34.2884 12.1291 34.0361 12.061 33.7953 11.9816C33.8068 11.9249 33.8183 11.8568 33.8297 11.8001C33.9329 11.2329 34.0361 10.6543 34.1394 10.0871C34.1508 10.0304 34.1623 9.97364 34.1738 9.91692C34.4146 9.99633 34.6669 10.0644 34.9077 10.1325C34.9994 9.63331 35.0797 9.12282 35.1715 8.62367C35.2861 7.99973 35.3893 7.3758 35.504 6.75186C36.4902 6.75186 37.4879 6.75186 38.4742 6.75186C39.2998 6.75186 40.1255 6.75186 40.9512 6.75186C41.9145 6.77455 42.9007 6.77455 43.8984 6.77455Z" fill="url(#paint14_radial)"/>
<path d="M53.8752 6.77466C53.9325 7.6822 53.9899 8.60109 54.0472 9.50863C54.0472 9.55401 54.0587 9.61073 54.0587 9.65611C54.0931 10.1553 54.1275 10.6544 54.1504 11.1649C54.1504 11.2216 54.1619 11.267 54.1619 11.3237C54.2421 12.6056 54.3224 13.8762 54.4027 15.1581C54.4715 16.1564 54.5288 17.1547 54.5976 18.153C53.4394 18.0849 52.2926 18.0395 51.1344 18.0169C51.1114 17.0299 51.0885 16.043 51.077 15.056C51.0426 13.5699 51.0197 12.0951 50.9853 10.609C51.3064 10.609 51.6275 10.609 51.9486 10.6204C50.7445 10.246 49.5518 9.883 48.3821 9.53132C48.3363 12.3561 48.2904 15.1921 48.2445 18.0169C47.0863 18.0282 45.9395 18.0736 44.7812 18.1416C44.9647 14.9652 45.1597 11.7888 45.3432 8.61243C45.3432 8.55571 45.3546 8.51034 45.3546 8.45361C45.3546 8.39689 45.3661 8.34017 45.3661 8.28345C45.389 7.84102 45.4234 7.39859 45.4464 6.95617C45.4464 6.89945 45.4578 6.85407 45.4578 6.79735C47.2353 7.38725 49.0702 7.95447 50.9394 8.54437C50.928 7.96581 50.9165 7.37591 50.905 6.79735C51.8913 6.77466 52.8775 6.77466 53.8752 6.77466Z" fill="url(#paint15_radial)"/>
<path d="M64.1849 8.64637C63.256 8.61234 62.3272 8.58965 61.3868 8.56696C61.9258 12.061 62.4533 15.5551 62.9923 19.0491C61.8455 18.8676 60.7102 18.7088 59.552 18.5726C59.1506 15.2147 58.7492 11.8568 58.3364 8.49889C57.4075 8.47621 56.4901 8.46486 55.5612 8.45352C55.5153 7.8863 55.4694 7.33043 55.4121 6.76321C56.3181 6.76321 57.224 6.76321 58.1185 6.76321C59.1047 6.76321 60.1024 6.76321 61.0886 6.76321C62.0061 6.76321 62.912 6.76321 63.8294 6.76321C63.9671 7.3985 64.0703 8.02243 64.1849 8.64637Z" fill="url(#paint16_radial)"/>
<path d="M70.8593 6.77466C71.8455 6.77466 72.8432 6.77466 73.8295 6.77466C74.0015 7.54607 74.1735 8.32883 74.357 9.10024C74.7813 10.9947 75.2056 12.8779 75.6299 14.7724C75.6414 14.8518 75.6643 14.9199 75.6758 14.9993C75.8363 15.7026 75.9969 16.3946 76.146 17.098C76.1574 17.166 76.1804 17.2341 76.1918 17.3022C76.5932 19.0832 76.9946 20.8643 77.3959 22.6453C76.295 22.271 75.1941 21.908 74.0818 21.579C73.6574 19.6278 73.2331 17.6879 72.8088 15.7367C73.1299 15.7934 73.4625 15.8614 73.7836 15.9295C73.7606 15.9182 73.7492 15.9068 73.7262 15.8955C73.3937 15.714 73.0611 15.5325 72.7285 15.351C71.7653 14.8405 70.8134 14.364 69.8616 13.9102C70.3433 16.2018 70.8134 18.5047 71.2951 20.7962C70.1712 20.5013 69.0474 20.229 67.9236 19.9794C67.4419 17.4497 66.9603 14.9085 66.4786 12.3787C66.4671 12.322 66.4557 12.254 66.4442 12.1972C66.3295 11.6187 66.2263 11.0288 66.1116 10.4502C66.1002 10.3935 66.0887 10.3368 66.0772 10.28C65.974 9.75821 65.8823 9.23637 65.7791 8.71453C65.6529 8.06791 65.5383 7.42128 65.4121 6.77466C66.3983 6.77466 67.396 6.77466 68.3823 6.77466C69.2079 6.77466 70.0336 6.77466 70.8593 6.77466ZM72.2125 12.9686C71.9143 11.6187 71.6276 10.28 71.3295 8.93008C70.4923 8.8847 69.6552 8.85067 68.8066 8.81663C69.0015 9.75821 69.1965 10.6998 69.3914 11.6414C70.3318 12.0724 71.2721 12.5035 72.2125 12.9686Z" fill="url(#paint17_radial)"/>
<path d="M18.3367 13.6719C18.6119 12.458 18.8872 11.2442 19.1509 10.019C18.1303 10.0984 17.1097 10.1892 16.0776 10.2799C14.839 15.9294 13.612 21.5902 12.3735 27.2397C13.4514 26.6951 14.5294 26.1847 15.6188 25.6968C16.0776 23.6776 16.5248 21.6469 16.9835 19.6276C17.0867 19.1739 17.1899 18.7201 17.2931 18.255C17.4537 17.5289 17.6257 16.7916 17.7862 16.0655C18.9101 16.4059 20.0454 16.7008 21.2036 16.9617C21.1807 17.0525 21.1578 17.1546 21.1348 17.2453C20.9284 18.1415 20.7335 19.0264 20.527 19.9226C20.5041 20.0134 20.4926 20.0928 20.4697 20.1835C20.183 21.4654 19.8848 22.7473 19.5982 24.0292C19.3688 25.0162 19.1509 26.0031 18.9216 26.9901C17.5684 27.5913 16.2152 28.2493 14.8849 28.93C13.7725 29.5085 12.6831 30.1098 11.5937 30.7451C10.2978 31.5051 9.01341 32.3106 7.75195 33.1501C8.01571 31.8568 8.27947 30.5749 8.5547 29.2816C9.83909 23.065 11.1235 16.8369 12.4079 10.6203C12.6716 9.32702 12.9354 8.04511 13.2106 6.75186C14.4262 6.75186 15.6303 6.75186 16.8459 6.75186C17.8551 6.75186 18.8642 6.75186 19.8734 6.75186C21.089 6.75186 22.2931 6.75186 23.5087 6.75186C23.2793 7.73882 23.0614 8.72577 22.8321 9.71272C22.5798 10.8245 22.3275 11.9362 22.0752 13.0366C20.8367 13.2521 19.5752 13.4563 18.3367 13.6719Z" fill="url(#paint18_radial)"/>
<path d="M85.8125 6.86562C86.7299 11.3012 87.6358 15.7369 88.5532 20.1611C88.5762 20.2859 88.5991 20.4107 88.6335 20.5355C88.8743 21.704 89.1152 22.8611 89.356 24.0295C89.3789 24.143 89.4019 24.2564 89.4248 24.3699C90.0326 27.3307 90.6519 30.2916 91.2596 33.2638C89.9982 32.413 88.7138 31.6075 87.4179 30.8475C86.7299 27.6938 86.0418 24.54 85.3537 21.3863C85.7436 21.5338 86.1335 21.6699 86.512 21.8174C86.489 21.7947 86.4661 21.7834 86.4432 21.7607C86.0303 21.4204 85.629 21.0914 85.2161 20.7624C84.0349 19.8322 82.8652 18.9586 81.6841 18.1419C82.4983 21.772 83.3125 25.4022 84.1267 29.0324C82.7964 28.3404 81.4547 27.6938 80.09 27.0812C79.207 23.2014 78.3355 19.3103 77.4525 15.4306C77.4295 15.3398 77.4066 15.2377 77.3836 15.147C77.1772 14.2508 76.9823 13.3659 76.7759 12.4697C76.7529 12.379 76.7415 12.2995 76.7185 12.2088C76.3171 10.4277 75.9043 8.63533 75.5029 6.85428C76.7185 6.85428 77.9226 6.85428 79.1382 6.86562C79.7116 9.44078 80.2965 12.0159 80.8698 14.5911C82.0281 15.3171 83.1978 16.0885 84.356 16.928C83.6221 13.5814 82.8882 10.2235 82.1657 6.87697C83.3928 6.86562 84.5969 6.86562 85.8125 6.86562Z" fill="url(#paint19_radial)"/>
</g>
<defs>
<linearGradient id="paint0_linear" x1="49.5017" y1="-1.97954" x2="49.5017" y2="79.4451" gradientUnits="userSpaceOnUse">
<stop stop-color="#EF4654"/>
<stop offset="0.5391" stop-color="#BE202E"/>
<stop offset="1" stop-color="#77111A"/>
</linearGradient>
<linearGradient id="paint1_linear" x1="49.5013" y1="40.5107" x2="49.5013" y2="88.6397" gradientUnits="userSpaceOnUse">
<stop stop-color="#EF4654"/>
<stop offset="0.5391" stop-color="#BE202E"/>
<stop offset="1" stop-color="#77111A"/>
</linearGradient>
<linearGradient id="paint2_linear" x1="67.8064" y1="18.8992" x2="38.1265" y2="69.7104" gradientUnits="userSpaceOnUse">
<stop stop-color="#F69AA3"/>
<stop offset="0.5391" stop-color="#EC2227"/>
<stop offset="1" stop-color="#BE202E"/>
</linearGradient>
<linearGradient id="paint3_linear" x1="34.3071" y1="48.7578" x2="80.422" y2="79.0221" gradientUnits="userSpaceOnUse">
<stop stop-color="#EF4654"/>
<stop offset="0.5391" stop-color="#BE202E"/>
<stop offset="1" stop-color="#77111A"/>
</linearGradient>
<linearGradient id="paint4_linear" x1="67.6055" y1="47.7558" x2="79.301" y2="60.9552" gradientUnits="userSpaceOnUse">
<stop stop-color="#EF4654"/>
<stop offset="0.5391" stop-color="#BE202E"/>
<stop offset="1" stop-color="#77111A"/>
</linearGradient>
<linearGradient id="paint5_linear" x1="49.5008" y1="21.77" x2="49.5008" y2="32.9602" gradientUnits="userSpaceOnUse">
<stop stop-color="#EF4654"/>
<stop offset="0.5391" stop-color="#BE202E"/>
<stop offset="1" stop-color="#77111A"/>
</linearGradient>
<linearGradient id="paint6_linear" x1="49.5141" y1="25.6945" x2="49.5141" y2="-0.799404" gradientUnits="userSpaceOnUse">
<stop stop-color="#BCBDBF"/>
<stop offset="0.5" stop-color="white"/>
<stop offset="1" stop-color="white"/>
</linearGradient>
<linearGradient id="paint7_linear" x1="49.5139" y1="25.6944" x2="49.5139" y2="-0.799397" gradientUnits="userSpaceOnUse">
<stop stop-color="#BCBDBF"/>
<stop offset="0.5" stop-color="white"/>
<stop offset="1" stop-color="white"/>
</linearGradient>
<linearGradient id="paint8_linear" x1="49.5137" y1="25.6946" x2="49.5137" y2="-0.799296" gradientUnits="userSpaceOnUse">
<stop stop-color="#BCBDBF"/>
<stop offset="0.5" stop-color="white"/>
<stop offset="1" stop-color="white"/>
</linearGradient>
<linearGradient id="paint9_linear" x1="49.514" y1="25.6945" x2="49.514" y2="-0.799403" gradientUnits="userSpaceOnUse">
<stop stop-color="#BCBDBF"/>
<stop offset="0.5" stop-color="white"/>
<stop offset="1" stop-color="white"/>
</linearGradient>
<linearGradient id="paint10_linear" x1="49.5141" y1="25.6946" x2="49.5141" y2="-0.799301" gradientUnits="userSpaceOnUse">
<stop stop-color="#BCBDBF"/>
<stop offset="0.5" stop-color="white"/>
<stop offset="1" stop-color="white"/>
</linearGradient>
<linearGradient id="paint11_linear" x1="49.5139" y1="25.6945" x2="49.5139" y2="-0.799406" gradientUnits="userSpaceOnUse">
<stop stop-color="#BCBDBF"/>
<stop offset="0.5" stop-color="white"/>
<stop offset="1" stop-color="white"/>
</linearGradient>
<linearGradient id="paint12_linear" x1="49.5133" y1="25.6948" x2="49.5133" y2="-0.799084" gradientUnits="userSpaceOnUse">
<stop stop-color="#BCBDBF"/>
<stop offset="0.5" stop-color="white"/>
<stop offset="1" stop-color="white"/>
</linearGradient>
<radialGradient id="paint13_radial" cx="0" cy="0" r="1" gradientUnits="userSpaceOnUse" gradientTransform="translate(49.2889 40.581) scale(158.966 79.3976)">
<stop stop-color="#434244"/>
<stop offset="0.3" stop-color="white" stop-opacity="0"/>
<stop offset="1" stop-color="white" stop-opacity="0"/>
</radialGradient>
<radialGradient id="paint14_radial" cx="0" cy="0" r="1" gradientUnits="userSpaceOnUse" gradientTransform="translate(49.2887 40.581) scale(158.966 79.3976)">
<stop stop-color="#434244"/>
<stop offset="0.3" stop-color="white" stop-opacity="0"/>
<stop offset="1" stop-color="white" stop-opacity="0"/>
</radialGradient>
<radialGradient id="paint15_radial" cx="0" cy="0" r="1" gradientUnits="userSpaceOnUse" gradientTransform="translate(49.2885 40.5811) scale(158.965 79.3976)">
<stop stop-color="#434244"/>
<stop offset="0.3" stop-color="white" stop-opacity="0"/>
<stop offset="1" stop-color="white" stop-opacity="0"/>
</radialGradient>
<radialGradient id="paint16_radial" cx="0" cy="0" r="1" gradientUnits="userSpaceOnUse" gradientTransform="translate(49.2887 40.5811) scale(158.965 79.3977)">
<stop stop-color="#434244"/>
<stop offset="0.3" stop-color="white" stop-opacity="0"/>
<stop offset="1" stop-color="white" stop-opacity="0"/>
</radialGradient>
<radialGradient id="paint17_radial" cx="0" cy="0" r="1" gradientUnits="userSpaceOnUse" gradientTransform="translate(49.2888 40.5812) scale(158.966 79.3977)">
<stop stop-color="#434244"/>
<stop offset="0.3" stop-color="white" stop-opacity="0"/>
<stop offset="1" stop-color="white" stop-opacity="0"/>
</radialGradient>
<radialGradient id="paint18_radial" cx="0" cy="0" r="1" gradientUnits="userSpaceOnUse" gradientTransform="translate(49.2886 40.581) scale(158.966 79.3977)">
<stop stop-color="#434244"/>
<stop offset="0.3" stop-color="white" stop-opacity="0"/>
<stop offset="1" stop-color="white" stop-opacity="0"/>
</radialGradient>
<radialGradient id="paint19_radial" cx="0" cy="0" r="1" gradientUnits="userSpaceOnUse" gradientTransform="translate(49.288 40.5813) scale(158.966 79.3976)">
<stop stop-color="#434244"/>
<stop offset="0.3" stop-color="white" stop-opacity="0"/>
<stop offset="1" stop-color="white" stop-opacity="0"/>
</radialGradient>
<clipPath id="clip0">
<rect width="98.8636" height="100" fill="white" transform="translate(0.0683594 0.00201416)"/>
</clipPath>
</defs>
</svg>
