<svg width="99" height="101" viewBox="0 0 99 101" fill="none" xmlns="http://www.w3.org/2000/svg">
<g clip-path="url(#clip0)">
<path d="M19.4681 42.6559C19.4681 42.6559 9.93995 59.9534 20.2303 68.2969C20.2303 68.2969 27.0905 59.9534 28.9962 59.9534L29.3773 81.321L39.096 79.0825L39.2865 86.612L51.4825 83.763L63.869 99.229L71.6821 78.065L79.114 76.437V68.5004L87.8799 66.4654L88.0704 46.1154L83.1158 46.9294V42.4524C83.1158 42.4524 87.1176 42.0454 88.0704 43.8769C88.0704 43.8769 89.4044 38.1789 87.1176 32.8879L98.3608 0.531372L61.9634 7.04338C61.811 7.00268 45.8038 1.71167 34.9036 11.3169C34.9036 11.3169 28.8056 10.0959 25.3755 14.1659L0.792969 18.6429L19.4681 42.6559Z" fill="black" stroke="white" stroke-width="2" stroke-miterlimit="10"/>
<path d="M79.6854 21.6951C79.4948 21.6951 78.8469 20.8811 77.0556 20.8811C77.9322 22.0614 79.8759 24.2592 80.7525 25.4395C83.2298 18.6426 84.3732 16.282 85.8977 12.4155C82.3914 12.9446 78.0084 13.7586 72.9395 14.9389C77.7797 16.6483 80.0665 21.6951 79.6854 21.6951Z" fill="#D1D3D4"/>
<path d="M26.024 22.9974C26.024 22.9974 25.338 30.1199 26.3289 33.1724C26.3289 33.1724 25.3761 34.719 25.2617 35.94L16.8008 24.6661L26.024 22.9974Z" fill="#D1D3D4"/>
<path d="M59.2969 79.7744L61.2787 82.6234L62.9176 78.879L59.2969 79.7744Z" fill="#D1D3D4"/>
<path d="M38.5625 53.2781L45.6895 51.7722C45.6895 51.7722 44.4318 54.7433 43.136 55.5573C41.8783 56.3713 40.8492 56.0864 40.8492 56.0864L38.5625 53.2781Z" fill="#D1D3D4"/>
<path d="M48.3574 55.4767C48.3574 55.4767 51.0253 54.1336 51.2921 53.1568V54.7848L48.3574 55.4767Z" fill="#D1D3D4"/>
<path d="M31.0153 15.5087C30.3293 17.9914 30.1768 21.3695 31.2059 23.2824C32.8447 12.4969 51.7866 7.49076 61.2766 12.3341C55.7121 12.212 48.2802 13.5551 41.4962 19.9857C34.0643 23.0789 31.0534 29.1839 29.7957 37.853C28.195 33.4981 25.4509 21.573 31.0153 15.5087Z" fill="#012297"/>
<path d="M76.4069 19.5383C72.4813 17.9917 67.7553 16.5265 64.8588 16.8521C73.6247 18.9278 75.5303 21.5733 80.866 28.2888C72.8243 20.4744 56.7409 15.3055 43.2109 19.8639C43.2109 19.8639 60.3234 5.41537 76.4069 19.5383Z" fill="#012297"/>
<path d="M78.9982 40.7013C78.579 37.7302 77.5118 34.8405 75.873 32.3171C79.2269 34.1079 83.5336 36.265 85.4011 39.6024C81.1706 31.0147 74.4628 28.2878 66.1543 27.718C73.0526 30.5263 77.7024 38.1779 78.9982 40.7013Z" fill="#012297"/>
<path d="M69.0522 60.5226C70.7292 57.5922 72.5586 52.3419 72.2918 48.5161C76.2936 52.9931 77.3226 60.3598 77.2464 65.1217C80.6003 50.1034 73.3589 40.1726 65.584 37.6085C72.3299 47.1323 69.2809 57.0224 69.0522 60.5226Z" fill="#012297"/>
<path d="M59.2572 27.5151C71.1864 23.5672 83.2299 31.9107 83.2299 31.9107C71.4913 18.1134 38.4859 11.4386 31.74 32.8061C31.6257 33.0096 30.5585 37.7309 30.6348 37.853C31.5495 38.7484 34.6747 38.7891 35.2845 36.7948C36.1229 34.1899 35.8562 31.7072 38.2572 29.7536C38.2572 29.7536 37.6093 31.9921 38.3716 33.0503C38.3716 33.0503 40.6202 24.8696 47.5186 25.8057C46.0703 26.8232 41.3443 27.8814 42.9451 31.9107C43.1737 31.9107 45.2699 35.126 42.9451 38.0158C40.6202 40.9055 34.5222 40.6613 34.5222 40.6613C34.5222 40.6613 37.838 41.516 39.5912 41.6788C43.4024 42.0044 46.5657 42.737 47.9378 45.7895C49.3098 48.842 48.7 52.1387 46.7563 54.8656C49.3861 53.0748 51.3679 51.1212 52.2064 48.842C53.8452 54.6621 53.6928 62.5986 53.0067 67.1977C54.1501 64.9999 58.1519 59.1798 60.2481 52.1794C63.259 59.7089 62.9541 69.192 62.6492 73.1399C69.2808 61.5811 71.9105 39.3182 60.7817 35.3295C65.0884 36.1029 73.4731 35.8179 81.0194 53.4818C78.0466 33.3759 66.994 27.9221 59.2572 27.5151Z" fill="#012297"/>
<path d="M79.8379 36.672C80.219 37.893 80.5239 39.1954 80.6764 40.4571L80.7145 40.7013L81.6292 38.0151C81.0575 37.5267 80.4477 37.079 79.8379 36.672Z" fill="#012297"/>
<path d="M64.0583 11.7641C65.8115 12.0083 67.5266 12.456 69.2035 13.0665L88.7552 9.52559L82.5048 27.515L82.5429 27.5557L82.4666 27.6371L82.238 28.329C83.0002 29.0209 83.6862 29.7128 84.296 30.4454L92.8713 5.78119L63.0293 11.1943L64.0583 11.7641Z" fill="#012297"/>
<path d="M50.034 75.9475L50.6819 71.674L41.916 60.4001L39.515 62.0281L41.2681 59.5861L36.6565 53.5625C35.5894 53.8474 34.4841 54.1323 33.4551 54.4986L50.034 75.9475Z" fill="#012297"/>
<path d="M24.3837 40.1727L24.4218 39.8064C24.4218 39.6436 24.4599 39.4808 24.498 39.318L24.5743 38.911C24.6124 38.7075 24.6886 38.4633 24.7648 38.2598L13.1024 23.2008L26.518 20.7588C26.7467 19.6599 27.1278 18.6017 27.5851 17.5842L7.65234 21.2065L23.2403 41.3123C23.6215 40.9053 24.0026 40.4983 24.3837 40.1727Z" fill="#012297"/>
<path d="M73.4731 53.6849C72.8634 56.2897 71.9105 58.7724 71.0339 60.5225L62.0394 86.367L51.9015 73.2616L50.3008 76.3141L62.7254 92.3499L74.769 57.7549C74.4641 56.2897 74.0067 54.9059 73.4731 53.6849Z" fill="#012297"/>
<path d="M42.3732 81.4424V73.7501L32.2734 76.2735V61.2552L85.1735 49.4115L85.0973 63.7786L76.0646 65.6915L75.9884 73.6687L42.3732 81.4424ZM43.8215 71.8372V79.5702L74.5401 72.4477L74.6164 64.4298L83.649 62.5169L83.7252 51.243L33.6836 62.5169V74.3606L43.8215 71.8372Z" fill="#012297"/>
<path d="M41.2667 18.5208C37.5316 21.4919 39.1705 18.8464 35.4355 21.8989C34.3683 22.7536 32.4246 25.8468 31.9291 27.1899C31.7386 27.1085 31.5861 26.905 31.548 26.7015C30.0997 28.7365 29.0707 31.0971 28.5371 33.5798C28.9182 35.3299 29.3756 36.7951 29.7567 37.8533C30.9763 29.1842 34.0253 23.0792 41.4191 19.986C48.2031 13.5554 55.635 12.2123 61.1995 12.3344C59.9418 11.6832 58.5316 11.2355 57.0071 10.9099C52.4336 11.9681 46.0688 14.695 41.2667 18.5208Z" fill="#000880"/>
<path d="M80.9032 28.2878C79.0738 26.0086 77.6636 24.2178 76.2535 22.7526C73.8143 21.4095 71.1464 20.5141 68.5166 19.6594C66.6872 19.0489 64.8197 18.4791 62.9903 17.9093C61.7326 17.5023 60.4368 17.0953 59.1029 16.9732C57.7308 16.8104 56.3588 16.9732 54.9867 17.0953C51.5185 17.4616 48.0503 17.8279 44.6583 18.8454C44.6201 18.8454 44.5439 18.8861 44.5058 18.8861C43.6673 19.4966 43.1719 19.8629 43.1719 19.8629C56.778 15.3045 72.8615 20.4734 80.9032 28.2878Z" fill="#000880"/>
<path d="M75.4931 28.1658C69.5857 25.8866 63.1447 25.3982 57.2754 27.596C61.3153 28.5321 65.279 29.9973 68.7472 32.3172C72.2536 34.6371 75.2645 37.8931 77.0558 41.841C72.8253 37.2012 66.6892 34.6371 60.6674 35.0034C60.7817 35.1255 60.8961 35.2476 61.0104 35.3697C65.3552 36.1023 73.6256 36.0616 81.0957 53.4812C78.0086 33.3347 66.9559 27.8809 59.2191 27.5146C65.1266 25.6017 70.9959 26.6192 75.4931 28.1658Z" fill="#000880"/>
<path d="M80.7891 29.4273C81.2464 30.0785 81.7419 30.689 82.2373 31.2995C82.8852 31.6658 83.2282 31.9507 83.2282 31.9507C82.5041 31.0553 81.6656 30.2413 80.7891 29.4273Z" fill="#000880"/>
<path d="M61.0858 35.4103C63.182 37.8116 63.9824 41.2304 64.1729 44.5271C64.3635 48.0273 63.9824 51.5276 64.2491 54.9871C63.7537 52.1381 61.8481 49.5739 59.2945 48.5157C58.5323 50.7949 58.0368 53.1555 57.8081 55.5569C57.084 51.0798 56.0931 46.1144 52.6248 43.4689C52.663 44.3643 52.4343 45.3004 52.015 46.0737C50.7573 42.9398 47.6321 41.2304 44.7356 39.7652C46.0695 39.0326 46.908 37.4046 46.7936 35.858C46.6793 34.1486 45.5359 32.6427 45.3454 30.9333C45.1548 29.3867 45.8408 27.7587 47.0223 26.8633C47.6702 26.3749 48.5468 25.9679 48.6612 25.1132C47.4797 25.0318 46.2982 25.3167 45.1929 25.8865C45.9171 25.7644 46.7174 25.7237 47.594 25.8458C46.1457 26.8633 41.4198 27.9215 43.0205 31.9508C43.2492 31.9508 45.3454 35.1661 43.0205 38.0558C40.6956 40.9455 34.5977 40.7013 34.5977 40.7013C34.5977 40.7013 37.9134 41.556 39.6666 41.7188C43.4779 42.0444 46.6412 42.777 48.0132 45.8295C49.3853 48.882 48.7755 52.1787 46.8318 54.9056C49.4615 53.1148 51.4434 51.1612 52.2818 48.882C53.9207 54.7021 53.7682 62.6387 53.0822 67.2378C54.2256 65.04 58.2274 59.2199 60.3236 52.2194C63.3344 59.749 63.0295 69.2321 62.7246 73.18C69.3181 61.6619 71.986 39.5617 61.0858 35.4103Z" fill="#000880"/>
<path d="M77.397 32.8877C76.4061 31.8702 75.1484 31.0969 73.8145 30.9341C74.3861 31.0155 74.6148 32.6028 74.691 34.3529C76.8635 36.917 78.3498 39.4404 78.9977 40.7428C78.5785 37.7717 77.5114 34.882 75.8725 32.3586C76.5204 32.7249 77.2065 33.0912 77.9306 33.4575C77.74 33.254 77.5876 33.0505 77.397 32.8877Z" fill="#000880"/>
<path d="M72.5191 45.3009C72.481 46.1149 72.138 46.9289 71.5663 47.4173C70.6897 45.9521 69.8131 44.4869 68.9365 43.0217C68.9365 43.4694 68.8984 43.9171 68.8984 44.3241C71.0327 51.4466 69.2033 57.8365 69.0509 60.5227C70.7278 57.5923 72.5572 52.342 72.2904 48.5162C76.2923 52.9932 77.3213 60.3599 77.2451 65.1218C78.6171 58.9354 78.1979 53.6444 76.7115 49.3302C75.4157 47.865 73.9674 46.5219 72.5191 45.3009Z" fill="#000880"/>
<path d="M92.6811 5.82189C91.1566 7.04289 89.6321 8.26389 88.2219 9.60699L88.7555 9.52559L82.5051 27.515L82.5432 27.5557L82.467 27.6371L82.2383 28.329C83.0005 29.0209 83.6866 29.7128 84.2964 30.4454L92.8717 5.78119L92.6811 5.82189Z" fill="#000880"/>
<path d="M24.4214 39.8071C24.4214 39.6443 24.4595 39.4815 24.4976 39.3187L24.5739 38.9117C24.612 38.7082 24.6882 38.464 24.7644 38.2605L23.2399 36.2662C23.2018 36.7546 23.2018 37.2837 23.1637 37.7721C23.1256 38.3012 23.1256 38.871 22.8588 39.3594C22.7063 39.6443 22.4777 39.8885 22.2871 40.1327L23.2018 41.313C23.621 40.8653 24.0022 40.499 24.3833 40.1327L24.4214 39.8071Z" fill="#000880"/>
<path d="M27.5843 17.6253L24.9164 18.1137C24.6115 19.0905 24.4209 20.1487 24.3828 21.2069L26.5552 20.7999C26.7839 19.701 27.1269 18.6428 27.5843 17.6253Z" fill="#000880"/>
<path d="M36.6546 53.5625C35.5874 53.8474 34.4822 54.1323 33.4531 54.4986L35.2825 56.8592C36.3878 56.615 37.4168 56.3301 38.4077 55.7603L36.6546 53.5625Z" fill="#000880"/>
<path d="M67.4112 70.9418L64.4766 79.4074C65.5056 79.1632 66.5346 78.8783 67.5256 78.6341L70.1934 70.9418C69.2787 70.8604 68.3259 70.8604 67.4112 70.9418Z" fill="#000880"/>
<path d="M57.5402 81.1575C57.6926 81.1168 57.807 81.0761 57.9594 81.0354L52.6618 74.2385C52.0139 74.6048 51.366 74.9711 50.7562 75.3781L50.2988 76.2735L54.6055 81.8087C55.5965 81.6052 56.5874 81.4017 57.5402 81.1575Z" fill="#000880"/>
<path d="M72.4056 53.8075L83.725 51.2841L83.6488 62.558L74.6162 64.4709L74.5399 72.4888L44.9266 79.3671C44.0881 80.059 43.2115 80.7509 42.373 81.4428V81.4835L75.912 73.7098L75.9882 65.7326L85.0209 63.8197L85.0971 49.4526L73.9301 51.9353C73.4728 52.5458 72.9392 53.197 72.4056 53.8075Z" fill="#000880"/>
<path d="M42.6413 13.7589C45.8809 12.0902 49.3872 11.0726 52.9317 10.5028C43.4798 10.34 32.4272 15.1834 31.2076 23.2827C30.1785 21.3698 30.331 17.9917 31.017 15.509C27.8537 18.9685 27.3963 24.2595 27.8537 29.0214C28.0442 26.0503 28.5397 23.0792 29.3401 20.1895C29.6831 21.9803 30.331 23.6897 31.2076 25.2363C33.5705 20.1488 37.801 16.2009 42.6413 13.7589Z" fill="#00BCDD"/>
<path d="M70.9195 15.9979C69.052 15.8351 67.1464 15.6723 65.2789 15.5095C64.4785 15.4281 63.297 15.7537 63.4495 16.6084C68.6328 18.5213 74.121 20.6784 77.9703 24.7078C74.464 20.5563 71.8342 18.5213 64.8596 16.8526C67.7562 16.527 72.4821 17.9922 76.4077 19.5388C63.2589 7.93933 49.386 15.5502 44.8125 18.6841C50.4531 15.9165 56.6274 14.3292 62.8397 14.1257C62.4586 14.2071 62.0774 14.3699 61.7344 14.6141C64.8215 14.5327 67.9467 14.9804 70.9195 15.9979Z" fill="#00BCDD"/>
<path d="M79.7227 26.8653C79.7989 26.9874 79.8751 27.1095 79.9513 27.2316V27.1909C79.8751 27.0688 79.7989 26.9467 79.7227 26.8653Z" fill="#00BCDD"/>
<path d="M31.74 32.8477C31.6257 33.0106 30.5585 37.7318 30.6348 37.8539C30.9015 38.0981 31.3208 38.3016 31.8162 38.383C31.8925 38.3423 31.8925 38.3016 31.9306 38.2609C33.4551 22.8762 44.4314 20.8412 45.9178 20.4342C48.7 19.6202 52.5875 19.3353 56.5131 19.2539C45.6129 18.2771 35.2082 21.8587 31.74 32.8477Z" fill="#00BCDD"/>
<path d="M42.3353 26.0912C40.6965 27.068 39.4388 28.696 38.8671 30.6089C38.7909 29.9984 38.7146 29.3879 38.6765 28.7774C37.2664 28.8588 36.2373 30.324 35.8562 31.7485C35.4751 33.2137 35.4751 34.7603 34.9796 36.1848C34.6747 37.0395 34.103 37.8942 33.3789 38.3826C34.2555 38.2198 35.0177 37.7314 35.3226 36.836C36.1611 34.2312 35.8943 31.7485 38.2954 29.7949C38.2954 29.7949 37.6475 32.0334 38.4097 33.0916C38.4097 33.0916 40.1629 26.7831 45.27 25.847C46.0703 25.5621 46.9088 25.3993 47.7473 25.3586C45.956 24.8295 43.9742 25.1144 42.3353 26.0912Z" fill="#00BCDD"/>
<path d="M66.1172 27.7592C68.3277 28.6546 70.3096 30.0384 72.0246 31.6257C71.491 30.6896 70.805 29.8349 69.9665 29.2244C74.883 29.6314 79.5328 32.4397 82.5818 36.5504C83.7251 37.4865 84.6779 38.504 85.364 39.725C81.1335 31.0559 74.4638 28.2883 66.1172 27.7592Z" fill="#00BCDD"/>
<path d="M65.584 37.5684C66.4987 38.8708 67.2228 40.1732 67.7945 41.4756C67.6421 40.4988 67.4515 39.522 66.8798 38.7487C69.7763 40.3767 72.4061 42.4931 74.6547 45.0572C72.3299 41.2721 69.0141 38.708 65.584 37.5684Z" fill="#00BCDD"/>
<path d="M53.5409 62.111C54.4555 58.3666 54.4555 54.378 53.4265 50.6743C53.236 50.0231 52.9692 49.2498 52.3594 49.0056C53.4265 52.9942 53.6933 57.9596 53.5409 62.111Z" fill="#00BCDD"/>
<path d="M48.0149 45.7898C49.3869 48.8423 48.7771 52.139 46.8334 54.8659C47.2907 54.5403 47.71 54.2554 48.1292 53.9298C48.6247 53.1158 49.0439 52.3018 49.3488 51.3657C50.2254 48.8016 50.2635 45.3828 48.2817 43.6327C47.5194 42.9408 46.4141 42.3303 45.4994 41.9233C43.7463 41.1907 41.7644 40.8244 39.8969 40.8244C38.7535 40.8244 37.6102 41.0686 36.4668 41.0686C37.5339 41.3128 38.7917 41.557 39.6682 41.6384C43.4795 42.0047 46.6428 42.7373 48.0149 45.7898Z" fill="#00BCDD"/>
<path d="M79.3052 49.6156C79.1909 48.8016 79.0003 48.0283 78.7335 47.255C77.6283 43.9583 75.2272 41.3535 72.6736 39.1557C71.111 37.8126 69.4341 36.5509 67.5666 35.7776C65.6991 35.0043 63.6029 34.7601 61.6973 35.452C65.8134 36.1032 72.7118 36.7951 79.3052 49.6156Z" fill="#00BCDD"/>
<path d="M62.0401 58.2436C61.8496 55.9644 61.5447 53.6852 60.5537 51.6909C60.5918 52.0165 60.5537 52.3828 60.5156 52.7084C61.2017 54.4992 61.6971 56.3714 62.0401 58.2436Z" fill="#00BCDD"/>
<path d="M7.61523 21.207L23.2032 41.3128C23.3938 41.1093 23.5843 40.9058 23.7749 40.7023C23.0508 39.6034 22.2885 38.5045 21.5644 37.3649C19.2395 33.8647 16.9147 30.3645 14.5898 26.905C13.5608 25.3584 11.1216 22.3466 11.1216 22.3466C11.3884 22.7536 17.9818 21.1256 20.3829 20.5965C22.5934 20.1081 24.7658 19.6604 26.9001 19.2534C27.0907 18.6836 27.2813 18.1545 27.548 17.6254L7.61523 21.207Z" fill="#00BCDD"/>
<path d="M64.0603 11.7646C65.0131 11.8867 65.9278 12.0902 66.8425 12.3344C69.2817 11.6425 71.8734 11.1948 74.2745 10.5843C80.4487 9.03766 86.5848 7.49106 92.759 5.98516L92.7971 5.82236L62.9551 11.2355L64.0603 11.7646Z" fill="#00BCDD"/>
<path d="M33.418 54.4993L37.8771 60.238C37.3054 58.0809 36.5432 55.9238 36.0477 53.726C35.1711 53.9702 34.2946 54.2144 33.418 54.4993Z" fill="#00BCDD"/>
<path d="M54.9124 79.8153C53.6166 78.228 52.2826 76.6814 50.9106 75.1348L50.3008 76.2744L62.7254 92.3102L65.279 84.9842C64.4405 86.5308 63.4877 87.996 62.4586 89.4205C62.8017 88.9728 55.5984 80.67 54.9124 79.8153Z" fill="#00BCDD"/>
<path d="M32.2734 76.2744L42.3732 73.751V81.4433C42.8306 80.7107 43.326 80.0188 43.7834 79.3269V71.8788L33.6836 74.4022V62.5585L62.4204 56.1279C63.0302 55.4767 63.6781 54.8255 64.326 54.1743L32.2734 61.3375V76.2744V76.2744Z" fill="#00BCDD"/>
<path d="M52.092 45.9124C51.8633 44.1623 51.6346 43.4704 50.6437 42.0866C53.0448 43.5925 54.6074 46.3194 55.6745 49.0463C55.484 46.238 54.15 43.5111 52.1301 41.761C50.1864 40.0923 47.2898 39.034 44.8125 39.5632C47.8615 39.8074 51.2916 43.9995 52.092 45.9124Z" fill="#00BCDD"/>
<path d="M64.0983 26.4567C62.7643 25.3985 62.1545 25.1136 60.5157 24.9101C63.1836 24.0961 66.1182 24.7473 68.7099 25.8462C66.6518 24.0554 63.9077 23.2007 61.3161 23.567C58.8387 23.8926 56.1328 25.3985 54.7988 27.7184C57.0093 25.5206 62.2307 25.7648 64.0983 26.4567Z" fill="#00BCDD"/>
<path d="M34.18 46.4405C34.6374 45.7079 35.6283 45.0567 36.0857 44.3241C35.1329 44.4869 33.1891 43.9171 32.3507 43.1845C31.1692 42.167 29.9115 39.5622 29.8733 38.7482C26.5576 39.9285 22.3652 43.7136 20.2309 49.5337C17.8679 55.9237 19.24 63.0055 20.0022 61.9066C27.1292 51.8943 37.8007 51.9757 46.033 49.3302C43.4795 47.1731 40.3162 44.6904 34.18 46.4405ZM29.9496 44.609C29.8733 44.6497 29.7971 44.6904 29.7209 44.6904C28.8062 44.9346 27.9296 45.3823 27.1674 46.0335C27.0149 46.1556 26.8625 46.2777 26.71 46.237C26.6719 45.9928 26.7862 45.7893 26.9006 45.5858C27.2817 44.8939 27.8153 44.3648 28.4251 43.8357C28.6537 43.6322 28.9586 43.2659 29.2635 43.3066C29.4922 43.3473 29.9496 43.8764 30.0639 44.1206C30.102 44.3241 30.0639 44.4869 29.9496 44.609Z" fill="#F7941D"/>
<path d="M26.1387 40.0099C26.3673 38.0563 27.7775 36.1434 28.5016 35.6957C28.6541 36.876 29.2639 37.8935 29.2639 37.9749C28.5398 38.3819 27.93 38.5447 26.1387 40.0099Z" fill="#F7941D"/>
<path d="M37.2661 44.8122C37.6091 44.6901 42.9068 44.8936 46.7561 48.3531C46.7561 48.0275 46.7942 43.1842 38.2952 42.6958C38.2952 42.6958 32.2353 42.0853 30.9395 39.0328C30.9395 39.0328 32.5402 43.6726 36.7325 43.754L38.905 43.6319L37.2661 44.8122Z" fill="#F7941D"/>
<path d="M41.7637 33.1725C41.7637 33.1725 40.7347 33.6609 39.5532 34.5563C39.6675 34.8412 39.7437 35.1668 39.7056 35.4924C39.6294 36.4692 38.829 37.1611 37.9143 37.0797C37.6857 37.039 37.457 36.9576 37.2664 36.8355C36.7328 37.5681 36.1612 38.5043 36.123 38.5857C36.123 38.5857 39.0577 38.5857 40.7347 36.9983C42.1448 35.6145 41.7637 33.1725 41.7637 33.1725Z" fill="#F7941D"/>
<path d="M20.0011 61.9062C27.1281 51.894 37.7996 51.9754 46.0318 49.3299C43.4783 47.1728 40.315 44.6901 34.1789 46.4402C34.217 46.3995 34.217 46.3995 34.2551 46.3588C33.2642 46.8065 32.3114 47.3356 31.3967 47.9054C28.1571 49.8997 25.3368 52.6266 23.1263 55.8419C22.021 57.4292 21.1063 59.1386 20.3441 60.9294C20.2297 61.2143 20.0011 61.6213 19.8867 62.0283C19.9248 62.0283 19.9629 61.9876 20.0011 61.9062Z" fill="#F08702"/>
<path d="M28.8818 37.1614C28.615 37.5277 28.3482 37.9754 28.0052 38.2603C27.929 38.301 27.8909 38.3417 27.8147 38.3824C27.7003 38.3824 27.6241 38.301 27.5098 38.301C27.2049 38.2196 26.9381 38.4638 26.7094 38.708C26.6332 38.7894 26.4807 38.9522 26.2902 39.1964C26.2139 39.4813 26.1377 39.8069 26.0996 40.0918C27.8909 38.6266 28.5007 38.4231 29.2248 38.0568C29.2248 37.9347 29.0724 37.6091 28.8818 37.1614Z" fill="#F08702"/>
<path d="M38.9054 44.0391C38.9435 43.7542 38.9435 43.51 38.9816 43.2251C38.9816 43.3472 38.5243 43.51 38.0669 43.6728L38.9435 43.6321L37.3047 44.8531C37.6477 44.731 42.9453 44.9345 46.7947 48.394C46.7947 48.2312 46.7947 47.0509 45.88 45.7892C45.194 45.4229 44.4698 45.138 43.7457 44.8938C42.145 44.3647 40.5061 44.0798 38.9054 44.0391Z" fill="#F08702"/>
<path d="M40.7727 36.9577C42.1829 35.6146 41.8017 33.1725 41.8017 33.1725C41.8017 33.1725 41.7255 33.2132 41.5731 33.2946C41.3444 33.6202 41.0776 33.9458 40.9633 34.0272C40.8489 34.1086 40.7346 34.2307 40.6584 34.3528C40.544 34.5563 40.544 34.8005 40.5059 35.0447C40.3916 35.5738 39.9723 35.9809 39.6674 36.3879C39.3244 36.8356 39.1339 37.4054 39.0195 37.9752C39.6293 37.7717 40.2391 37.4461 40.7727 36.9577Z" fill="#F08702"/>
<path d="M24.6517 44.406C25.9856 43.2664 27.0909 43.4699 28.2723 42.1268C28.4248 41.964 28.5772 41.7605 28.8059 41.7198C29.3395 41.5163 29.8731 42.0861 30.2542 42.5338C31.4357 43.8769 33.1507 44.7316 34.8658 44.813C34.1417 45.3828 33.57 46.1968 33.1888 47.0515C34.6752 47.2957 36.1997 46.8073 37.6861 46.5224C38.7914 46.3189 39.9347 46.2375 41.0781 46.3189C39.2868 45.7491 37.0763 45.6677 34.2179 46.4817C34.6752 45.7491 35.6662 45.0979 36.1235 44.3653C35.1707 44.5281 33.227 43.9583 32.3885 43.2257C31.207 42.2082 29.9493 39.6034 29.9112 38.7894C26.5954 39.9697 22.403 43.7548 20.2687 49.5749C18.1344 55.395 19.0491 61.7035 19.8114 62.0291C19.8114 61.8256 17.7533 50.3075 24.6517 44.406Z" fill="#FFF200"/>
<path d="M27.5488 37.0803C27.5107 37.2838 27.5869 37.528 27.7394 37.6501C27.6632 37.5687 28.1586 36.7954 28.5398 35.9814C28.5016 35.8593 28.5016 35.7779 28.5016 35.6558C27.7775 36.1442 26.3673 38.0164 26.1387 39.97L26.1768 39.9293C26.4055 39.5223 26.5198 39.0339 26.6722 38.6269C26.8628 38.0978 27.1677 37.5687 27.5488 37.0803Z" fill="#FFF200"/>
<path d="M34.6755 43.2257C35.5139 43.4699 36.5049 43.3885 37.1909 43.6734H37.229C36.2762 43.1443 35.2472 42.7373 34.2181 42.4117C36.6573 42.2082 39.1346 42.8594 41.1546 44.2839C41.1546 43.7955 40.964 43.3478 40.6591 42.9408C39.935 42.8187 39.1727 42.6966 38.258 42.6559C38.258 42.6559 32.1982 42.0454 30.9023 38.9929C30.9786 38.9929 32.0076 42.0454 34.6755 43.2257Z" fill="#FFF200"/>
<path d="M36.81 38.2192C37.0387 37.8529 37.1911 37.4866 37.3055 37.0796C37.8391 37.3645 38.5251 37.2017 38.9824 36.7947C39.0205 36.754 39.0205 36.754 39.0587 36.7133C38.7538 36.9575 38.3726 37.0796 37.9534 37.0389C37.7247 36.9982 37.496 36.9168 37.3055 36.7947C36.7719 37.5273 36.2002 38.4634 36.1621 38.5448C36.1621 38.5448 37.0387 38.5448 38.144 38.2599C37.6104 38.2599 37.1149 38.2192 36.81 38.2192Z" fill="#FFF200"/>
<path d="M39.7452 35.4521C39.7452 35.5742 39.7071 35.6963 39.669 35.7777C39.7452 35.5742 39.8214 35.3707 39.8976 35.1265C39.9358 34.8823 39.9739 34.6381 40.1263 34.4346C40.2788 34.1904 40.5456 34.0276 40.8123 33.8648C41.0791 33.702 41.3078 33.4985 41.5746 33.295C41.1935 33.4985 40.4312 33.9055 39.6309 34.516C39.7071 34.8009 39.7833 35.1265 39.7452 35.4521Z" fill="#FFF200"/>
<path d="M32.959 61.8659V75.2969L43.0969 72.8142V80.5065L75.2257 73.0584L75.3019 65.0812L84.3727 63.1683L84.4489 50.3478L32.959 61.8659Z" fill="black"/>
<path d="M38.2189 68.2966L37.914 68.378V69.7618L38.8287 69.5583V71.4712L35.2461 72.3259V70.413L35.7034 70.2909V65.6511L35.2461 65.7732V63.8603L41.0773 62.4765V64.715L39.286 65.122V64.7964L37.914 65.122V66.4651L38.2189 66.3837V66.0581L40.0101 65.6511V68.2152L38.2189 68.6222V68.2966Z" fill="white"/>
<path d="M46.679 61.0921V63.005L46.2979 63.0864L48.0511 67.3192L48.5084 67.1971V69.11L45.4594 69.8426V67.9297L45.7262 67.889L45.6119 67.5227L43.5157 68.0111L43.4013 68.4181L43.6681 68.3774V70.2903L40.6191 71.0229V69.11L41.0765 68.9879L42.8297 63.9411L42.4867 64.0225V62.1096L46.679 61.0921ZM44.0493 66.261L45.0402 66.0168L44.5447 64.7958L44.0493 66.261Z" fill="white"/>
<path d="M51.5585 61.8653V66.5051L52.9687 66.1795V65.6911L54.7599 65.2841V67.6854L48.8906 69.0692V67.1563L49.348 67.0342V62.3944L48.8906 62.5165V60.6036L52.0158 59.871V61.7839L51.5585 61.8653Z" fill="white"/>
<path d="M61.2015 60.9294L59.029 61.4585V60.4003L58.8004 60.1968L57.657 60.4817L57.3902 60.8073V64.918L57.657 65.1215L58.8004 64.8366L59.029 64.511V63.4935L61.2015 62.9644V64.7959L59.9437 66.4239L56.4374 67.2379L55.1797 66.1797V60.441L56.4374 58.7723L59.9437 57.9583L61.2015 59.0165V60.9294Z" fill="white"/>
<path d="M61.7715 58.8943L63.0292 57.2256L66.5355 56.4116L67.7933 57.4698V63.2085L66.5355 64.8365L63.0292 65.6505L61.7715 64.5923V58.8943ZM65.6208 58.8129L65.3922 58.6094L64.2488 58.8943L63.982 59.2199V63.3306L64.2488 63.5341L65.3922 63.2492L65.6208 62.9236V58.8129Z" fill="white"/>
<path d="M73.1674 63.2903L71.0331 60.0343V61.9065L71.4905 61.7844V63.6973L68.3652 64.4299V62.517L68.8226 62.3949V57.7551L68.3652 57.8772V55.9643L70.9569 55.3538L73.1293 58.6912V56.7376L72.6719 56.8597V54.9468L75.7972 54.2142V56.1271L75.3398 56.2492V60.889L75.7972 60.7669V62.6798L73.1674 63.2903Z" fill="white"/>
<path d="M79.9146 58.447L77.5897 59.0168L76.332 57.9586V55.4759L77.5897 53.8072L81.0961 52.9932L82.3538 54.0514V55.7201L80.1814 56.2492V55.4352L79.9527 55.2317L78.8093 55.5166L78.5425 55.8422V56.6969L78.8093 56.9004L81.1342 56.3713L82.3919 57.4295V59.8715L81.1342 61.4995L77.6279 62.3135L76.3701 61.2553V59.6273L78.5425 59.0982V59.8715L78.8093 60.075L79.9527 59.7901L80.1814 59.4645V58.6505L79.9146 58.447Z" fill="white"/>
<path d="M47.0609 76.3553L48.0518 76.1111V75.8669L49.3095 75.582V77.1694L45.1934 78.1461V76.803L45.5364 76.7216V73.4656L45.1934 73.547V72.2039L49.3095 71.2271V72.8144L48.0518 73.0993V72.8551L47.0609 73.0993V74.0761L47.2895 74.0354V73.7912L48.5472 73.5063V75.2971L47.2895 75.582V75.3378L47.0609 75.3785V76.3553Z" fill="white"/>
<path d="M52.2068 74.1578L50.568 74.5648L49.6914 73.8322V72.0821L50.568 70.9018L53.0453 70.332L53.9219 71.0646V72.2449L52.3974 72.6112V72.0414L52.2068 71.8786L51.4065 72.0821L51.2159 72.3263V72.9368L51.4065 73.0589L53.0453 72.6519L53.9219 73.3845V75.0939L53.0453 76.2742L50.568 76.844L49.6914 76.1114V74.9718L51.2159 74.6055V75.1753L51.4065 75.3381L52.2068 75.1346L52.3974 74.8904V74.3206L52.2068 74.1578Z" fill="white"/>
<path d="M57.771 72.8959L56.1702 73.2622V74.1576L56.5133 74.0762V75.4193L54.3027 75.9484V74.6053L54.6457 74.5239V71.2679L54.3027 71.3493V70.0062L57.771 69.1922L58.6475 69.9248V71.7156L57.771 72.8959ZM56.1702 71.9191L56.9325 71.7563L57.1231 71.5121V70.8609L56.9325 70.6981L56.1702 70.8609V71.9191Z" fill="white"/>
<path d="M59.0664 69.8436L59.943 68.6633L62.4203 68.0935L63.2969 68.8261V72.8554L62.4203 74.0357L59.943 74.6055L59.0664 73.8729V69.8436ZM61.7724 69.8029L61.5818 69.6401L60.7815 69.8436L60.5909 70.0878V72.9775L60.7815 73.1403L61.5818 72.9368L61.7724 72.6926V69.8029Z" fill="white"/>
<path d="M65.5843 71.9603L65.9273 71.8789V73.222L63.7168 73.7511V72.408L64.0598 72.3266V69.0706L63.7168 69.152V67.8089L67.185 66.9949L68.0616 67.7275V69.2334L67.6805 69.7218L68.0616 70.0067V71.3498L68.4046 71.2684V72.6115L66.5371 73.0592V70.8614L66.3466 70.6986L65.5843 70.8614V71.9603ZM65.5843 69.559L66.3466 69.3962L66.5371 69.152V68.6636L66.3466 68.5008L65.5843 68.6636V69.559Z" fill="white"/>
<path d="M73.5111 67.1574L72.2534 67.4423V67.076L71.9104 67.1574V70.4134L72.2534 70.332V71.6751L70.0429 72.2042V70.8611L70.3859 70.7797V67.5237L70.0429 67.6051V67.9714L68.7852 68.2563V66.5469L73.5111 65.448V67.1574V67.1574Z" fill="white"/>
</g>
<defs>
<clipPath id="clip0">
<rect width="98.8636" height="100" fill="white" transform="translate(0.0683594 0.00201416)"/>
</clipPath>
</defs>
</svg>
