<svg width="99" height="101" viewBox="0 0 99 101" fill="none" xmlns="http://www.w3.org/2000/svg">
<g clip-path="url(#clip0)">
<path d="M48.0865 48.2635C47.8915 48.3192 47.6722 48.347 47.5259 48.5419C47.2334 48.9318 47.5259 49.5166 47.6722 49.99C47.9403 50.8811 47.5747 51.9672 46.8434 52.4127C46.5509 52.5798 46.1853 52.6912 46.0634 53.0532C45.8928 53.4709 46.2097 53.9443 46.5266 54.2785C47.4528 53.6937 48.379 53.0811 49.3053 52.4127C50.0853 51.8558 50.9628 51.1039 51.0115 50.0457C51.1578 47.6787 49.4515 47.985 48.0865 48.2635Z" fill="#3177C4"/>
<path d="M40.3594 44.7545C40.2375 44.9216 39.9206 45.8963 39.75 46.4254C41.0662 46.8152 42.6993 45.8406 43.0162 46.2026C43.2843 46.5367 42.4312 48.2633 43.9424 48.8759C42.9918 47.7899 43.7718 46.119 44.4543 45.9798C44.7956 45.9241 59.6397 42.6938 59.786 42.666C59.9322 42.6381 60.1272 44.114 59.981 44.1697C59.8347 44.2254 44.6737 47.4836 44.6737 47.4836C44.5518 47.8456 44.7224 47.957 44.7224 47.957C44.7224 47.957 53.2048 46.0633 53.4729 46.0355C53.7411 46.0076 53.936 46.2304 53.936 46.2304L61.2484 44.6431C60.8828 44.0026 60.176 38.461 61.1997 37.3471C61.1997 37.3471 60.8828 37.4028 60.4441 37.4863C60.1516 37.9319 59.591 39.0179 59.6641 40.3825L46.063 43.1672C45.4293 44.7824 42.9918 44.8381 42.4068 43.1672C41.6025 43.8077 40.4812 44.5874 40.3594 44.7545Z" fill="#3177C4"/>
<path d="M46.5271 36.4282C45.4546 36.456 44.9671 37.3471 44.9671 37.3471C44.699 39.018 43.8946 41.1344 43.334 42.1369C43.5534 43.1115 44.7965 43.4457 45.674 41.8584L58.7875 39.2964C58.8119 38.656 59.0556 38.0712 59.2506 37.737C58.2756 37.9041 57.2763 38.0433 57.0813 38.0155C56.7157 37.9598 55.1069 35.8712 55.1069 35.8712C55.1069 35.8712 48.0383 37.737 47.7214 37.737C47.4045 37.737 46.5271 36.4282 46.5271 36.4282Z" fill="#3177C4"/>
<path d="M25.6616 44.1977C25.6129 44.2256 25.491 44.3091 25.3691 44.3927C28.2697 44.5876 31.7797 47.6508 33.8759 46.6761C36.2159 45.6179 36.8252 44.7547 38.6046 45.785C38.7508 45.1167 39.0677 44.337 39.0677 44.337C32.9984 46.0913 25.8079 44.1142 25.6616 44.1977Z" fill="#3177C4"/>
<path d="M75.6539 41.8028L76.4826 41.6357C74.8252 39.6029 75.0445 36.4004 75.1177 35.5928L73.7283 35.8713C73.1189 37.1523 73.2896 38.9345 73.2896 38.9345C74.5814 38.9345 75.142 40.9674 75.6539 41.8028Z" fill="#3177C4"/>
<path d="M70.7552 39.6864C71.6814 39.6585 72.3883 41.4129 72.9977 42.304L73.3633 42.2205C71.6327 39.575 72.2908 36.8738 72.5346 36.0941L71.194 36.3725C70.5115 37.8763 70.7552 39.6864 70.7552 39.6864Z" fill="#3177C4"/>
<path d="M78.7494 41.1901L79.0907 41.1344C77.6038 38.3219 77.7744 35.0916 77.7744 35.0916L76.3851 35.37C76.0194 36.6232 76.2632 38.4054 76.2632 38.4054C77.3113 38.3497 77.9207 40.2712 78.7494 41.1901Z" fill="#3177C4"/>
<path d="M84.6977 33.9777C84.6977 33.9777 84.3565 31.5549 84.3077 29.8841C84.3077 29.8841 83.5521 29.9398 83.4302 30.0233C83.3084 30.1069 83.6252 34.0891 83.6252 34.0891L84.6977 33.9777Z" fill="#3177C4"/>
<path d="M68.2456 63.7188C68.6844 63.3846 68.3431 62.939 67.9775 63.1618C67.7825 63.2732 66.9294 63.7188 66.9294 63.7188L66.0275 62.2985C65.6863 62.4099 64.9551 62.9112 64.2969 62.8276C63.3463 62.7441 62.347 60.7391 62.932 59.9037C61.8595 59.9594 61.1282 58.205 61.6889 57.0911C60.2264 56.2835 59.422 53.4709 62.2495 52.1342C61.6401 52.0507 60.787 50.5191 61.2989 49.6558C60.9576 48.8482 60.7139 47.79 60.7139 47.79C60.2507 47.9571 59.5439 48.1242 58.8858 48.2913C59.0564 49.2659 59.4464 50.8811 59.4951 51.2988C59.5439 51.7722 59.0808 52.2456 58.5201 51.5216C58.0814 50.9646 57.7645 49.2938 57.667 48.5698C57.3258 48.6533 57.082 48.6812 57.082 48.6812C59.032 58.205 62.8588 64.5263 63.0538 64.8605C63.2245 65.1947 63.0782 65.6124 63.0782 65.6124C64.3213 65.6959 67.8069 64.0529 68.2456 63.7188Z" fill="#3177C4"/>
<path d="M58.2996 57.3695L57.0565 53.5266C57.0565 53.5266 56.3496 54.1393 56.3496 54.4734C56.3496 54.8076 57.5196 58.0379 57.6902 58.0657C57.8365 58.0936 58.2996 57.3695 58.2996 57.3695Z" fill="#3177C4"/>
<path d="M25.2235 50.4912C27.8803 58.1492 32.5359 54.362 37.5083 63.0782C35.6558 60.8504 32.7552 60.377 32.7552 60.377C32.7552 60.377 37.5571 65.5566 39.9701 66.4756C42.3589 67.3946 48.16 67.4224 48.16 67.4224C43.9432 64.3871 44.6745 60.8226 44.6745 60.8226C44.9426 61.3517 45.6251 62.02 45.6251 62.02C47.6238 63.0504 49.4763 62.6327 49.4763 62.6327C45.2594 61.4074 45.3813 56.0885 45.3813 56.0885L45.2107 56.2278C45.3326 56.4227 45.5032 57.7872 44.577 58.6505C44.9913 60.2099 43.4313 61.658 43.4313 61.658C42.9682 63.4959 43.4313 64.4427 43.4313 64.4427C44.3576 65.3896 45.5519 66.3364 45.5519 66.3364C31.7559 60.2935 34.7052 48.5419 38.4833 47.6229C36.5333 46.8989 30.8784 51.2431 28.2947 50.2684C29.489 49.8786 30.7321 48.7368 30.7321 48.7368C26.9297 48.3469 24.2972 42.8053 17.7648 50.9925C19.8123 47.066 21.7623 45.5622 22.8591 45.0053C23.2979 43.8078 24.4922 42.3598 25.2478 42.1648C25.8572 41.9977 29.0747 42.861 29.5134 42.8053C28.8797 41.8585 27.0028 40.9674 27.0028 40.9674C29.879 40.6611 33.0234 43.2509 34.364 43.1952C31.1221 40.6889 31.1953 37.3751 31.1953 37.3751C34.1933 42.0813 40.2139 42.4155 40.2139 42.4155C42.1882 41.2737 42.3345 40.0206 42.3345 40.0206C35.9483 34.7574 34.6077 28.0183 34.6077 28.0183C35.144 29.6892 37.8008 30.1626 39.8239 31.555C39.0927 28.6867 37.0696 25.9576 36.9477 24.8994C38.6052 26.9323 41.8714 27.9905 41.8714 27.9905C33.4621 21.4464 37.947 8.94288 47.9407 13.0921C45.6738 11.2264 43.1876 10.7808 43.1876 10.7808C55.0824 6.0189 55.8868 18.4667 59.0068 22.3375C58.8118 22.2261 56.4962 20.9173 55.4724 19.8869C55.6431 20.5552 58.2999 28.7424 63.9792 31.6942C63.6136 31.722 59.6892 30.9702 57.398 29.1044C59.3967 34.5903 61.7855 35.1194 61.7855 35.1194C59.7136 35.7599 56.423 34.1726 56.423 34.1726C57.1299 35.6485 58.0074 36.3169 58.0074 36.3169C58.0074 36.3169 61.6392 35.565 62.1511 35.565C62.663 35.5371 63.3698 36.1219 63.3698 36.1219L65.1735 35.7321C64.6129 35.6485 62.8092 34.3119 61.9317 33.0587C63.6136 34.4232 68.001 33.2815 70.8041 34.6182C69.1466 31.3322 61.7123 29.912 60.0549 24.1197C61.2248 25.5121 62.9311 26.069 62.9311 26.069C60.7617 23.5628 58.568 13.8719 54.8631 9.66691C56.0574 10.196 61.3467 15.8212 62.2973 16.0161C63.2479 16.2389 64.6129 15.3199 64.6129 15.3199C62.6142 15.2642 60.4449 12.7858 60.4449 12.7858C64.3936 14.7073 65.7342 13.3985 66.1242 8.58086C64.8323 10.1682 60.7617 9.58337 60.7617 9.58337C61.5661 10.6137 64.7104 12.2289 64.7104 12.2289C57.3493 13.2314 56.1062 4.65438 50.1588 3.56833C48.16 3.20631 40.872 5.23917 38.3614 9.94538C39.507 8.99857 41.0914 8.41378 41.0914 8.41378C33.0477 19.6363 35.3633 23.34 36.4846 27.4892C35.2902 26.0969 34.4127 24.064 34.4127 24.064C29.4403 32.2233 39.9214 41.3851 39.9214 41.3851C34.949 39.4636 31.7071 35.8992 30.3665 32.4739C27.1978 34.6182 26.1253 36.6789 26.1253 36.6789C27.3928 36.3447 28.7822 35.4258 28.7822 35.4258C26.8078 39.7143 22.0304 41.0509 21.2504 41.775C20.446 42.5268 17.3748 46.3419 17.3748 46.3419C18.1548 46.1748 19.5442 45.4787 19.5442 45.4787C17.3261 49.8507 15.7417 49.3216 15.5467 51.6886C15.2786 54.8632 20.6898 60.6276 22.201 60.5441C20.6898 59.2353 18.1792 52.8304 21.6404 50.1013C20.1048 53.0253 27.2953 65.0832 33.4377 64.8883C28.7822 62.382 24.1754 55.7822 25.2235 50.4912Z" fill="#3177C4"/>
<path d="M51.0605 66.2529C51.0605 66.2529 56.423 72.8527 63.6622 72.3515C63.6622 72.3515 61.176 71.9059 59.9573 70.7642C58.3486 70.792 52.523 66.6427 51.0605 66.2529Z" fill="#3177C4"/>
<path d="M70.7559 49.1265C73.754 49.5721 75.7284 54.7238 78.629 55.7542C78.5071 55.2529 76.4352 46.9823 72.8522 45.0051C73.4372 45.0051 75.7284 44.6152 79.1652 49.2658C78.2633 44.6152 75.8015 43.39 75.8015 43.39L69.8785 44.4482C69.8785 44.4482 72.5109 45.4785 74.1196 48.3468C69.0985 44.0861 65.9785 46.4253 65.9785 46.4253C68.221 46.0355 69.2691 48.7645 68.1722 50.129C70.2928 51.6885 68.8547 54.139 68.8547 54.139C70.0247 55.0859 69.6103 56.8124 69.6103 56.8124C70.5853 58.4554 74.1928 60.6832 74.1928 63.1894C74.1928 65.7236 70.4147 65.9185 69.9028 65.7236C75.4603 64.4147 72.1209 60.3212 69.2691 61.5465C70.6828 62.4654 70.6341 64.8603 67.1485 66.4476C73.5834 68.7868 77.5565 63.2451 77.5565 63.2451C76.4596 63.0781 71.0241 59.0959 70.7803 54.5011C71.6822 56.3668 76.5815 61.9363 81.2858 59.9313C72.9253 59.2073 72.584 51.0201 70.7559 49.1265Z" fill="#3177C4"/>
<path d="M79.871 35.1193C79.871 35.1193 79.3592 35.1193 79.091 35.1471C79.091 35.1471 78.9935 38.1268 80.5535 40.7166C80.5535 40.7166 81.0654 40.1596 81.1142 39.2685C80.3585 39.3242 78.7985 37.542 79.871 35.1193Z" fill="#3177C4"/>
<path d="M92.0825 33.2816C91.8632 33.3373 87.7682 34.4234 87.7682 34.4234C87.7682 34.4234 87.5976 34.6461 87.5488 35.0638C87.5488 35.0638 91.4244 34.4234 91.7413 34.4234C92.0338 34.4234 92.0825 36.2891 92.5456 36.5676C93.4475 35.2309 92.375 33.1981 92.0825 33.2816Z" fill="#3177C4"/>
<path d="M80.9199 36.4284C80.8955 36.9575 81.1149 37.3473 81.1149 37.3473L86.3554 36.2056C86.331 35.9828 86.2823 35.3145 86.2823 35.3145L80.9199 36.4284Z" fill="#3177C4"/>
<path d="M57.8375 64.7769C54.9856 61.8808 52.8894 57.9543 49.7207 56.8961C51.4757 58.9568 51.6463 62.2707 57.8375 64.7769Z" fill="#3177C4"/>
<path d="M70.6098 42.7775L70.8292 42.7218C68.9036 40.3269 69.7567 37.3194 70.0005 36.6232L68.4649 36.9296C67.9286 38.0991 68.0749 40.1877 68.0749 40.1877C69.4398 39.9092 69.6836 41.6358 70.6098 42.7775Z" fill="#3177C4"/>
<path d="M64.9539 37.6535L63.8082 37.8763C62.9308 39.213 63.0526 40.9116 63.0526 40.9116C63.0526 40.9116 63.6376 41.0787 63.8082 41.218C64.2957 41.58 64.3689 42.5825 65.1488 43.8356L65.9045 43.6964C63.9301 41.0787 64.6857 38.3775 64.9539 37.6535Z" fill="#3177C4"/>
<path d="M68.1221 43.251L68.3659 43.1953C66.5134 40.9675 67.1471 37.9043 67.3421 37.1524L65.8553 37.4587C65.1484 38.8789 65.3922 40.5498 65.3922 40.5498C66.8059 40.2713 66.879 41.97 68.1221 43.251Z" fill="#3177C4"/>
<path d="M45.2336 24.0197C45.5665 23.5558 45.2204 22.6027 44.4604 21.8908C43.7005 21.1789 42.8146 20.9778 42.4817 21.4416C42.1488 21.9054 42.4949 22.8586 43.2549 23.5705C44.0148 24.2824 44.9007 24.4835 45.2336 24.0197Z" fill="#00F9FF"/>
<path d="M51.7681 23.7826C52.6512 23.1336 53.1368 22.1986 52.8528 21.6941C52.5687 21.1897 51.6226 21.3069 50.7396 21.9559C49.8565 22.6049 49.3709 23.5399 49.6549 24.0444C49.9389 24.5488 50.8851 24.4316 51.7681 23.7826Z" fill="#00F9FF"/>
<path d="M45.0164 53.8052C44.2121 54.3065 43.164 53.9166 42.5059 54.3343C42.5059 54.3343 43.0665 55.2812 42.6034 56.228C45.5283 55.1698 45.0408 53.9445 45.0164 53.8052Z" fill="#FFDF97"/>
<path d="M42.0907 49.795C42.0907 49.795 41.1401 48.8203 40.0433 48.7646C39.8483 48.7646 39.0926 49.2102 38.4102 50.157C38.9464 50.1292 41.3839 50.0456 42.0907 49.795Z" fill="#FFDF97"/>
<path d="M37.3125 53.2481C37.5562 53.1367 38.2387 52.8583 39.1162 52.8861C40.2375 52.914 41.2368 53.7772 41.7243 53.5266C42.2118 53.276 42.1143 51.271 41.1149 51.1039C40.2862 50.9646 38.7262 51.1874 37.995 50.7975C37.6537 51.4659 37.3856 52.2735 37.3125 53.2481Z" fill="#FFDF97"/>
<path d="M44.0415 56.7569C42.9203 57.1468 42.1159 56.7569 41.9453 57.0075C41.9453 57.0075 42.6034 57.8429 42.0184 58.9568C42.0184 58.9568 43.8465 58.5113 44.0415 56.7569Z" fill="#FFDF97"/>
<path d="M37.7522 56.3116C38.0203 56.228 38.6784 56.0888 38.849 56.1166C39.0684 56.1723 40.4334 56.7293 40.7746 56.6179C42.5296 56.0052 41.8715 54.7243 41.5303 54.585C40.5309 54.1673 38.6784 54.8635 37.2891 53.7217C37.3134 54.5015 37.4353 55.3647 37.7522 56.3116Z" fill="#FFDF97"/>
<path d="M39.7012 60.0428C39.9449 60.3769 40.213 60.739 40.4812 61.101C40.6274 61.0453 40.7249 60.1263 40.4812 60.0706C40.3349 60.0149 39.9205 60.0149 39.7012 60.0428Z" fill="#FFDF97"/>
<path d="M67.6113 54.947C67.9769 55.4761 68.3426 56.2558 68.1232 57.1748C68.7569 56.4507 68.6351 54.6963 67.6113 54.947Z" fill="#FFDF97"/>
<path d="M47.2343 50.2407C47.2343 50.2407 44.4312 50.1572 42.3594 50.7976C42.3594 50.7976 43.31 51.8837 42.8956 53.3875C44.285 52.1343 46.3081 52.5799 47.2343 50.2407Z" fill="#FFDF97"/>
<path d="M43.1141 59.4581C41.7248 59.8201 41.3835 59.5695 41.2129 59.8479C41.2129 59.8479 41.5785 60.572 41.2129 61.2681C41.2129 61.2403 42.6022 60.7669 43.1141 59.4581Z" fill="#FFDF97"/>
<path d="M68.7808 57.9544C68.7808 57.9544 68.5614 58.1215 68.4883 58.2329C68.4883 58.2329 68.9026 58.762 68.927 59.2911C68.927 59.3189 69.2926 58.762 68.7808 57.9544Z" fill="#FFDF97"/>
<path d="M40.9447 57.4531C40.4815 57.2303 39.3847 57.7037 38.1172 57.286C38.3366 57.8151 38.6291 58.3721 38.9703 58.9569C39.3847 59.0404 40.2134 59.2075 40.6765 59.0682C41.2859 58.8733 41.6759 57.7873 40.9447 57.4531Z" fill="#FFDF97"/>
<path d="M65.9777 51.8837C65.2465 51.7723 62.1265 53.4988 61.8096 54.2786C61.4684 55.0861 61.6146 55.9494 62.0534 56.0886C62.5652 56.2279 63.4427 55.2811 64.4908 54.8355C64.8321 54.6963 65.7583 54.557 66.2458 54.0001C66.7333 53.4153 66.6846 51.9951 65.9777 51.8837Z" fill="#FFDF97"/>
<path d="M66.4407 55.4202C65.5388 56.0886 64.2713 56.1721 63.5157 56.7291C63.3207 56.8961 62.4189 58.2607 62.9551 58.6227C63.3695 58.929 63.6863 58.372 64.4663 58.1214C65.1488 57.8986 65.9776 58.0379 66.6601 57.286C66.8063 57.1468 67.44 56.2278 66.4407 55.4202Z" fill="#FFDF97"/>
<path d="M63.9559 60.6278C64.0047 60.9063 64.2971 61.3797 64.5653 61.4632C64.8334 61.5467 65.6134 60.7949 66.1984 60.6835C67.8558 60.3493 68.3677 59.0962 67.4171 58.3443C66.369 59.319 64.5165 59.486 64.5165 59.486C64.5165 59.486 63.9072 60.3493 63.9559 60.6278Z" fill="#FFDF97"/>
<path d="M67.1484 51.2154C67.1484 51.2154 68.0503 52.1622 67.4653 53.8331C68.5378 53.2204 68.4647 50.9091 67.1484 51.2154Z" fill="#FFDF97"/>
<path d="M66.7832 47.9571C66.4176 47.8179 65.1014 48.0964 65.1014 48.0964C65.1501 48.2913 65.1258 48.5419 65.1258 48.5419C64.9795 48.347 64.687 48.2635 64.687 48.2635C64.3701 48.6533 62.9808 49.4609 62.6639 49.8508C62.152 50.4913 62.6395 51.633 63.4927 51.3545C63.8827 51.2431 64.7845 50.4913 64.9551 50.2406C65.1258 49.99 65.3695 49.2938 65.3695 49.2938C65.3695 49.2938 66.1495 50.3242 66.442 50.3242C66.9539 50.352 68.1726 48.4862 66.7832 47.9571Z" fill="#FFDF97"/>
<path d="M43.1152 69.4274C48.307 71.1261 51.3295 72.8248 55.2782 73.521C52.2557 71.8502 49.8914 68.9819 43.1152 69.4274Z" fill="#1F378C"/>
<path d="M34.6336 67.5617C36.608 69.1212 37.6561 70.6249 40.5567 72.6021C38.9723 72.2122 32.4399 68.5364 30.2949 67.7566C35.4867 73.8552 42.6529 73.5211 47.3816 75.3868C47.3816 75.3868 45.1878 73.8552 43.7985 72.435C42.8966 72.1844 35.7305 67.9237 34.6336 67.5617Z" fill="#1F378C"/>
<path d="M67.953 33.8942C65.4181 32.3905 62.81 34.0335 59.1538 31.1652C60.6894 31.8057 63.98 31.6386 63.98 31.6386C60.8113 28.6868 57.7157 22.5046 57.7157 22.5046C58.6907 23.3401 60.0069 24.0363 60.0069 24.0363C57.935 19.6921 56.8138 13.8163 55.6926 10.7252C56.8382 11.5049 62.5419 17.9934 62.5419 17.9934C68.538 15.2643 66.0274 8.88727 66.0274 8.88727C64.6868 10.8366 62.6394 11.0037 62.6394 11.0037L60.6406 11.6163C57.545 12.1176 54.4251 7.80122 52.1826 7.18858C53.6451 8.72018 55.327 12.8694 55.327 12.8694C54.3763 11.2265 50.9395 8.10754 49.5014 7.94046C48.0877 7.80122 42.189 9.47206 42.189 9.47206C44.0902 6.35316 47.9414 5.60128 47.9414 5.60128C45.6258 5.48989 41.3359 6.46455 41.3359 6.46455C41.3359 6.46455 38.9959 6.04683 36.2416 13.0365C33.4872 20.0262 29.9773 31.8614 34.511 38.0713C30.4648 35.6208 28.9779 39.1295 29.2217 39.4916C29.3923 39.77 30.416 40.0207 31.0498 40.6055C31.0498 40.6055 25.7848 38.2663 19.4718 45.3395L15.2794 50.3242C15.2794 50.3242 12.4032 60.8505 29.2948 64.7213C46.1864 68.6199 48.9408 68.0073 48.9408 68.0073C48.9408 68.0073 60.2506 73.8274 64.9062 72.7414C69.5861 71.6553 65.8812 64.777 65.8812 64.777C65.8812 64.777 65.3206 63.5517 64.5162 61.6859C64.1506 61.6024 63.6387 61.1568 63.1756 59.486C63.1756 59.486 62.1519 58.5392 61.0794 54.5013C61.0794 54.4178 61.2012 54.195 61.3719 53.9165C60.5675 51.7444 59.8606 49.628 59.5194 48.0407L60.1288 44.7826C60.1288 44.7826 59.7144 43.4737 59.6656 41.8586C59.6656 41.8586 41.6528 45.5345 40.7996 46.3699C40.7996 46.3699 41.3359 48.8761 45.1871 49.0154C49.0627 49.1546 50.7201 48.4306 50.7201 48.4306C50.7201 48.4306 51.3783 53.2482 45.5283 55.0583C45.5283 55.0583 43.1152 59.9594 42.1403 62.3543L37.0216 59.3189C37.0216 59.3189 32.756 56.757 33.341 51.6887C33.341 51.6887 29.5873 53.8887 26.1748 50.0736C26.1748 50.0736 27.1986 50.3521 28.2711 50.0736C28.2711 50.0736 29.6848 49.99 30.221 48.9597C30.221 48.9597 24.8586 49.0989 24.298 50.1571C23.7374 51.2432 24.0299 56.0051 25.7117 58.762C25.7117 58.762 21.568 53.7773 22.4455 48.4584C17.2293 50.9925 18.3993 53.4988 18.9112 56.3114C17.3025 53.471 16.9368 52.19 17.7412 50.8255C17.7412 50.8255 19.0818 48.904 20.0324 47.8179C20.983 46.7319 24.103 45.4231 24.103 45.4231L24.6636 43.3624C24.6636 43.3624 38.6547 44.1978 40.7509 43.0282C42.8471 41.8586 41.5796 41.2181 41.5796 41.2181C39.7028 41.2738 32.2441 31.9728 34.6085 27.8792C34.6085 27.8792 35.9491 31.4437 37.6797 32.5019C39.4103 33.5322 42.0428 31.75 38.0697 25.8742C37.7528 25.4565 34.6572 20.8338 37.7772 16.963C38.9959 15.0972 51.7195 14.6238 53.8401 20.5832C55.9607 26.5425 54.1082 33.5879 57.35 37.0688C57.35 37.0688 61.1525 37.2638 63.98 36.5397C66.9049 35.8992 67.953 33.8942 67.953 33.8942Z" fill="#1F378C"/>
<path d="M79.5792 36.0663L63.1751 39.3802C63.1751 39.3802 62.4926 40.1321 62.9069 41.1903C63.2969 42.2485 64.9057 44.4206 64.9057 44.4206C64.9057 44.4206 80.0911 41.8029 80.9198 41.1624C81.7242 40.5219 81.4805 38.684 81.4805 38.684C81.4805 38.684 79.6767 37.5423 79.5792 36.0663Z" fill="#1F378C"/>
<path d="M78.1415 46.1192C78.1415 46.1192 74.924 43.6129 71.0241 45.061L74.1197 48.347C74.1197 48.347 75.0946 49.3495 75.3871 50.1571C75.3871 50.1571 73.8515 48.1799 69.7322 47.623C69.7322 47.623 69.8785 50.4077 72.1697 54.3063C72.1697 54.3063 70.3903 52.7747 69.2691 51.7165L68.5379 54L69.4885 57.4531C69.4885 57.4531 69.8297 60.5999 68.7085 61.491C68.7085 61.491 70.0247 64.2479 66.5879 66.42C66.5879 66.42 68.3916 69.5667 71.536 68.3971C74.6803 67.2275 83.3089 59.3189 83.3089 59.3189C83.3089 59.3189 79.5065 46.5369 78.1415 46.1192Z" fill="#1F378C"/>
<path d="M65.0511 48.3749L65.1242 48.5419C65.1242 48.5419 65.1486 48.6255 65.1486 48.709C65.1486 48.709 66.7817 48.6533 67.4154 48.8483C68.0492 49.0432 67.2204 50.6862 65.2949 51.1874C63.3449 51.6887 63.0036 53.1646 63.0036 53.1646C63.0036 53.1646 62.7111 53.8051 62.9061 53.9722C63.1743 54.195 65.8555 53.1646 66.5867 53.1368C67.3179 53.1089 66.0017 55.1139 65.0755 55.5316C64.1492 55.9493 64.0274 56.4784 64.0274 56.4784C64.0274 56.4784 63.7349 57.0354 64.1736 57.2303C64.6367 57.4253 66.148 56.8126 66.9767 56.8126C66.9767 56.8126 67.3179 58.0936 64.7586 59.4581C65.0999 60.1822 66.8305 59.3746 67.8786 59.5138C67.8786 59.5138 68.5854 59.6252 67.4398 60.6556C66.2942 61.6859 64.5636 62.6606 64.1005 62.0758C63.6374 61.491 61.0293 54.362 61.0293 54.362L62.7843 52.1621C62.7843 52.1621 61.3949 51.6887 62.0287 50.4356C62.6624 49.1824 64.5392 47.2053 65.0511 48.3749Z" fill="#C6976A"/>
<path d="M40.2616 48.7647C40.2616 48.7647 40.1641 49.2103 40.2129 49.2938C40.286 49.4052 40.6516 49.4609 41.0903 49.9622C41.5291 50.4634 39.311 51.0204 39.311 51.0204C39.311 51.0204 38.9454 51.5495 38.9941 51.7444C39.0429 51.9393 40.2616 52.7748 41.9922 52.6355L42.7478 51.5216C43.5034 51.2432 45.2828 51.8001 46.6965 50.2407C46.6965 50.2407 47.2815 50.0179 47.4521 50.2407C47.6228 50.4634 45.5022 53.4153 42.5528 54.0001C40.1885 54.1114 38.7504 54.3342 38.7504 54.3342C38.7504 54.3342 38.5554 54.8355 38.7991 55.0861C39.0429 55.3367 41.0903 55.7544 41.8703 55.7544C42.626 55.7544 42.7478 54.8076 42.6991 54.8355C42.9428 54.6405 43.9178 54.9469 45.039 54.1671C45.039 54.1671 46.014 56.2835 39.6766 57.4531C39.6766 57.4531 39.1647 57.7316 39.6522 57.9544C40.1641 58.205 40.9197 58.1772 41.2366 58.5113L42.2116 57.7038C42.2116 57.7038 43.2841 57.3974 43.8934 57.4253C44.5028 57.4531 42.8453 59.2632 40.9928 59.5974L41.3341 60.21C41.3341 60.21 41.7241 59.9316 42.7722 60.0151C43.8203 60.0986 40.9197 61.6859 40.9197 61.6859C33.2661 60.3493 37.6048 45.0889 40.2616 48.7647Z" fill="#C6976A"/>
<path d="M43.9668 4.98864C43.9668 4.98864 47.9155 3.12286 51.8642 5.15572C51.8642 5.15572 49.4998 5.32281 48.208 6.60379C53.2048 4.62662 54.7404 8.33033 57.836 9.69485L61.8334 10.5581C61.8334 10.5581 63.4422 10.5303 64.4415 9.44422C64.4659 9.41638 52.0104 -1.30487 43.9668 4.98864Z" fill="#00F9FF"/>
<path d="M58.6406 16.5176C58.6406 16.5176 59.835 22.3377 61.5656 25.373C62.2481 26.3756 61.5656 27.016 61.5656 27.016C63.0281 30.302 67.4642 32.6969 68.9998 34.0336L71.4617 35.3424L58.6406 16.5176Z" fill="#00F9FF"/>
<path d="M77.7738 35.5373L63.4902 38.4891L63.6609 37.3752C63.6609 37.3752 78.31 34.6183 78.2125 34.674C78.1394 34.7018 77.7738 35.5373 77.7738 35.5373Z" fill="#00F9FF"/>
<path d="M71.1201 46.3976C71.1201 46.3976 69.5845 46.0635 67.7564 46.871L65.0021 46.5926C64.9777 46.6204 68.1708 44.4483 71.1201 46.3976Z" fill="#00F9FF"/>
<path d="M84.5017 30.664L83.1367 31.2209V29.8564L84.5017 29.4666V30.664Z" fill="#00F9FF"/>
<path d="M59.371 40.4383L46.1843 43.6407C45.38 45.2559 42.8694 45.4229 42.1138 43.3901C42.2356 42.6661 41.9188 40.9674 41.9188 40.9674C41.9188 40.9674 37.1413 37.4586 36.3613 32.5296L43.3081 39.0737L43.8444 36.651L47.0131 35.8713H56.5923C56.5923 35.8713 47.5493 38.3776 47.1106 38.294C46.6718 38.2105 46.2087 37.2637 45.9406 37.3194C45.6725 37.375 44.795 41.4965 43.5519 42.6661C43.5519 42.6661 43.6981 44.0306 45.8187 42.7217C47.988 41.3851 59.371 40.4383 59.371 40.4383Z" fill="#00F9FF"/>
<path d="M54.668 35.9551C54.668 35.9551 56.3986 39.9651 58.9579 38.4056L59.5917 37.3753C59.5917 37.3753 58.0317 37.9044 57.1298 37.3753C56.2279 36.8462 55.2042 35.3424 55.1798 35.3424C55.1555 35.3424 54.668 35.9551 54.668 35.9551Z" fill="#00F9FF"/>
<path d="M35.4355 54.9747C35.4355 54.9747 33.8024 53.0811 35.5573 48.904C35.5573 48.904 32.3399 50.6583 29.8049 50.3242L30.5118 48.904C26.6606 49.266 25.3443 47.1496 22.6875 46.8154C22.6875 46.8154 23.0287 45.9243 24.735 46.0914C26.4656 46.2584 30.463 48.6533 32.9005 48.0964C35.338 47.5394 38.726 46.0078 38.8235 47.4837C38.9698 48.9596 35.5086 53.0811 35.4355 54.9747Z" fill="#00F9FF"/>
<path d="M26.344 38.5167C26.344 38.5167 25.0521 41.1901 19.8359 43.2229C19.8359 43.2229 20.5184 41.5799 21.0059 41.1901C21.4934 40.8002 26.344 38.5167 26.344 38.5167Z" fill="#00F9FF"/>
<path d="M30.8042 33.4488C30.8042 33.4488 28.1229 34.2842 26.2461 36.3449C26.2461 36.3449 27.8792 32.8918 30.3167 32.1121C30.2923 32.1121 31.0479 32.9197 30.8042 33.4488Z" fill="#00F9FF"/>
<path d="M53.523 38.8233C53.6936 38.7676 55.5461 38.322 55.5461 38.322C55.5461 38.322 54.4979 36.874 54.2786 36.9297C54.0592 36.9854 46.5518 38.9068 46.5518 38.9068C46.5518 38.9068 46.4055 39.9929 45.9668 41.1346L53.1817 39.6866C53.2061 39.7422 53.3523 38.879 53.523 38.8233Z" fill="#05002D"/>
<path d="M92.985 30.1906C92.7169 30.1071 87.5494 31.1931 87.2082 31.3045C86.8669 31.4159 86.4769 31.8614 86.4769 31.8614C86.4769 31.8614 86.0382 27.6565 85.4776 27.378C84.917 27.0717 82.1139 27.6286 81.8945 27.8514C81.6751 28.0742 80.2858 32.1956 80.2858 32.1956C80.2858 32.1956 78.9695 31.3045 77.7021 32.669C77.7021 32.669 76.3371 31.9728 75.2402 33.2538C75.2402 33.2538 74.1677 32.8361 73.4365 33.2538C72.3153 29.4944 64.6616 28.3248 63.6623 20.8617C68.3178 18.439 70.7065 7.46712 67.0016 4.34821C62.3704 11.6442 56.228 0.700202 50.6218 0.0597121C46.21 -0.441541 37.947 4.57099 36.6064 6.85448C34.8758 9.83415 34.9977 12.1176 34.7052 12.5353C31.3658 17.158 32.3896 20.3883 32.1214 20.8339C31.9021 21.1959 30.1471 24.2313 29.7083 27.4894C28.0509 29.383 25.1503 31.7222 24.4434 32.8083C23.6878 33.9778 22.5422 36.6512 22.0791 37.0967C21.616 37.5423 18.6179 38.4613 16.741 40.8561C14.8642 43.251 14.6936 45.6459 14.1573 46.5092C13.6211 47.3724 11.793 49.6281 11.793 51.466C11.793 54.752 15.9367 61.0177 18.106 62.1316C20.1047 63.1619 22.0791 63.1619 22.0791 63.1619C33.9739 80.9286 41.7494 74.3566 51.8162 78.7286C51.8162 78.7286 51.3774 77.2249 50.8656 76.1945C50.8656 76.1945 62.7604 81.6804 72.1934 70.987C81.1876 68.7592 83.3326 59.8202 87.0132 57.314C87.0132 57.314 85.6482 57.0912 84.8682 57.2583C84.8682 57.2583 87.0376 55.9773 86.7451 53.109C86.7451 53.109 85.0876 53.4153 84.0639 51.7445C83.0645 50.0736 82.3332 46.0079 80.7001 43.7801C82.1139 43.3903 82.772 41.97 82.7964 40.0207L86.4769 39.1296C86.4769 39.1296 87.5982 39.8258 88.0613 39.9372C88.5244 40.0486 93.375 39.1575 93.8137 38.7119C96.1781 36.4006 94.3012 30.5805 92.985 30.1906ZM83.4301 30.0514C83.552 29.9678 84.3076 29.9121 84.3076 29.9121C84.332 31.583 84.6976 34.0057 84.6976 34.0057L83.6251 34.1449C83.6251 34.1171 83.3326 30.1349 83.4301 30.0514ZM76.3858 35.3424L77.7752 35.0639C77.7752 35.0639 77.6046 38.322 79.0914 41.1068L78.7502 41.1625C77.8971 40.2435 77.3121 38.322 76.264 38.3499C76.264 38.3777 76.0202 36.5955 76.3858 35.3424ZM73.7046 35.8993L75.094 35.6208C75.0208 36.4006 74.8015 39.603 76.459 41.6637L75.6302 41.8308C75.1183 40.9954 74.5577 38.9625 73.2415 38.9625C73.2659 38.9347 73.0953 37.1803 73.7046 35.8993ZM72.5346 36.1221C72.2909 36.9018 71.6328 39.5752 73.3634 42.2485L72.9978 42.3321C72.3884 41.4409 71.6815 39.6866 70.7553 39.7144C70.7553 39.7144 70.4872 37.9043 71.194 36.4284L72.5346 36.1221ZM68.0984 57.1747C68.3422 56.2558 67.9766 55.476 67.5866 54.9469C68.6347 54.6963 68.7566 56.4507 68.0984 57.1747ZM68.7809 57.9545C69.2928 58.762 68.9272 59.319 68.9272 59.319C68.9028 58.7899 68.4884 58.2608 68.4884 58.2608C68.5616 58.1215 68.7809 57.9545 68.7809 57.9545ZM63.0529 64.8885C62.8823 64.5543 59.0554 58.2329 57.0811 48.7091C57.0811 48.7091 57.3005 48.6534 57.6661 48.5977C57.788 49.3218 58.0805 50.9926 58.5192 51.5496C59.0798 52.2736 59.5429 51.828 59.4942 51.3268C59.4454 50.9091 59.0554 49.2939 58.8848 48.3193C59.5429 48.1522 60.2498 47.9851 60.7129 47.818C60.7129 47.818 60.9567 48.8762 61.2979 49.6838C60.786 50.5749 61.6392 52.1065 62.2485 52.1622C59.4211 53.5267 60.2254 56.3115 61.6879 57.119C61.1273 58.2329 61.8585 59.9873 62.931 59.9316C62.346 60.7949 63.3454 62.772 64.296 62.8556C64.9541 62.9113 65.6854 62.4379 66.0266 62.3265L66.9285 63.7467C66.9285 63.7467 67.806 63.3012 67.9766 63.1898C68.3178 62.967 68.6834 63.4125 68.2447 63.7467C67.806 64.0809 64.3204 65.7239 63.0773 65.6403C63.0773 65.6403 63.2235 65.2226 63.0529 64.8885ZM41.2132 59.8481C41.3594 59.5696 41.7251 59.8202 43.1144 59.4582C42.6025 60.767 41.2132 61.2683 41.2132 61.2683C41.5788 60.5443 41.2132 59.8481 41.2132 59.8481ZM38.9951 58.957C38.6538 58.3722 38.3614 57.8152 38.142 57.2861C39.4095 57.7317 40.5063 57.2583 40.9694 57.4532C41.7007 57.7874 41.3107 58.8734 40.7013 59.0405C40.2382 59.1797 39.3851 59.0405 38.9951 58.957ZM40.482 61.1012C40.1895 60.7392 39.9457 60.3772 39.702 60.043C39.9213 60.043 40.3357 60.0152 40.482 60.0709C40.7257 60.1265 40.6282 61.0455 40.482 61.1012ZM40.0432 48.7648C41.1401 48.8205 42.0907 49.7952 42.0907 49.7952C41.3594 50.0458 38.9463 50.1293 38.3857 50.1572C39.0926 49.2104 39.8482 48.737 40.0432 48.7648ZM38.6051 45.7851C36.8014 44.7548 36.2164 45.6181 33.8764 46.6763C31.7802 47.6509 28.2702 44.5877 25.3697 44.3928C25.4915 44.3092 25.589 44.2257 25.6622 44.1978C25.8084 44.1143 32.9746 46.0915 39.0682 44.3371C39.0682 44.3371 38.7514 45.1168 38.6051 45.7851ZM55.0824 35.8436C55.0824 35.8436 56.6911 37.96 57.0567 37.9879C57.2517 38.0157 58.2511 37.8486 59.2261 37.7094C59.0311 38.0436 58.7873 38.6284 58.763 39.2688L45.6494 41.8308C44.7719 43.4181 43.5288 43.0839 43.3094 42.1093C43.87 41.1068 44.6744 38.9904 44.9425 37.3195C44.9425 37.3195 45.43 36.4284 46.5025 36.4006C46.5025 36.4006 47.38 37.6815 47.6968 37.6815C48.0137 37.6815 55.0824 35.8436 55.0824 35.8436ZM50.7437 21.9756C51.6212 21.3351 52.5718 21.1959 52.8643 21.6971C53.1568 22.1984 52.6693 23.1452 51.7674 23.7857C50.8899 24.4262 49.9393 24.5654 49.6468 24.0642C49.3787 23.5351 49.8662 22.6161 50.7437 21.9756ZM45.235 24.0085C44.8938 24.4819 44.0163 24.2591 43.2607 23.5629C42.505 22.8389 42.1638 21.8921 42.4807 21.4465C42.8219 20.9731 43.6994 21.1959 44.455 21.8921C45.2106 22.5883 45.5519 23.5351 45.235 24.0085ZM46.0638 43.1675L59.6648 40.3827C59.6161 39.0182 60.1767 37.96 60.4448 37.4866C60.8835 37.4031 61.2004 37.3474 61.2004 37.3474C60.1767 38.4613 60.8592 43.9751 61.2492 44.6434L53.9368 46.2307C53.9368 46.2307 53.7418 46.0079 53.4736 46.0358C53.2055 46.0636 44.7231 47.9572 44.7231 47.9572C44.7231 47.9572 44.5525 47.8458 44.6744 47.4838C44.6744 47.4838 59.8111 44.2257 59.9573 44.17C60.1036 44.1143 59.9086 42.6384 59.7623 42.6662C59.6161 42.6941 44.7963 45.9244 44.4306 45.9801C43.7482 46.0915 42.9682 47.7901 43.9188 48.8762C42.4075 48.2636 43.285 46.537 42.9925 46.2028C42.7 45.8408 41.0426 46.8155 39.7263 46.4256C39.897 45.8965 40.1895 44.9219 40.3357 44.7548C40.4819 44.5877 41.5788 43.808 42.3588 43.1675C42.9925 44.8105 45.43 44.7826 46.0638 43.1675ZM41.1401 51.104C42.1394 51.2711 42.2369 53.2482 41.7494 53.5267C41.2619 53.8052 40.2626 52.9419 39.1413 52.8862C38.2639 52.8584 37.5814 53.1369 37.3376 53.2482C37.4107 52.2736 37.6789 51.4382 38.0201 50.7977C38.727 51.1875 40.3113 50.9648 41.1401 51.104ZM41.5301 54.5849C41.8713 54.7242 42.5538 56.0051 40.7744 56.6178C40.4088 56.7292 39.0682 56.1722 38.8488 56.1165C38.6782 56.0887 38.0201 56.2279 37.752 56.3115C37.4351 55.3646 37.3132 54.5014 37.2889 53.7216C38.6782 54.8355 40.5307 54.1672 41.5301 54.5849ZM42.0176 58.957C42.6025 57.8431 41.9444 57.0076 41.9444 57.0076C42.1151 56.757 42.9194 57.119 44.0406 56.757C43.8456 58.5114 42.0176 58.957 42.0176 58.957ZM42.6269 56.2558C43.09 55.2811 42.5294 54.3621 42.5294 54.3621C43.1875 53.9444 44.2356 54.3343 45.04 53.833C45.04 53.9444 45.5275 55.1697 42.6269 56.2558ZM42.895 53.4153C43.3094 51.9116 42.3588 50.8255 42.3588 50.8255C44.4306 50.2129 47.2337 50.2686 47.2337 50.2686C46.3075 52.5799 44.2844 52.1343 42.895 53.4153ZM48.0381 49.461L49.7931 49.1547C49.5981 49.6838 49.8174 50.8812 49.2325 52.0508C48.8181 52.8305 46.4294 53.2761 46.4294 53.2761C48.4768 52.19 48.55 49.7116 48.0381 49.461ZM57.8367 64.7771C51.6455 62.2708 51.4749 58.957 49.7199 56.8963C52.913 57.9545 55.0093 61.8809 57.8367 64.7771ZM57.6661 58.0658C57.4955 58.038 56.3255 54.8355 56.3255 54.4735C56.3255 54.1115 57.0323 53.5267 57.0323 53.5267L58.2755 57.3697C58.2998 57.3697 57.8367 58.0937 57.6661 58.0658ZM66.6603 57.314C65.9779 58.0937 65.1247 57.9266 64.4666 58.1494C63.6866 58.4 63.3698 58.957 62.9554 58.6506C62.4191 58.2608 63.321 56.8963 63.516 56.757C64.2716 56.1722 65.5391 56.0887 66.441 55.4482C67.4403 56.2279 66.8066 57.1469 66.6603 57.314ZM67.416 58.3443C68.3666 59.0962 67.8547 60.3493 66.1972 60.6835C65.6366 60.7949 64.8566 61.5468 64.5641 61.4632C64.296 61.3797 63.9791 60.9063 63.9548 60.6278C63.9304 60.3493 64.5154 59.4861 64.5154 59.4861C64.5154 59.4861 66.3435 59.3468 67.416 58.3443ZM66.246 54.0001C65.7585 54.5571 64.8322 54.6963 64.491 54.8355C63.4429 55.2811 62.541 56.2279 62.0535 56.0887C61.6148 55.9494 61.4685 55.0862 61.8098 54.2786C62.151 53.471 65.271 51.7723 65.9778 51.8837C66.6847 51.9951 66.7335 53.4153 66.246 54.0001ZM67.4891 53.8609C68.0741 52.19 67.1722 51.2432 67.1722 51.2432C68.4641 50.9091 68.5372 53.2482 67.4891 53.8609ZM66.441 50.3521C66.1485 50.3521 65.3685 49.3218 65.3685 49.3218C65.3685 49.3218 65.1247 49.9901 64.9541 50.2686C64.7835 50.5192 63.8816 51.2711 63.4916 51.3825C62.6141 51.6609 62.151 50.5192 62.6629 49.8787C62.9798 49.4888 64.3691 48.7091 64.686 48.2914C64.686 48.2914 65.0029 48.3749 65.1247 48.5699C65.1247 48.5699 65.1491 48.2914 65.1004 48.1243C65.1004 48.1243 66.4166 47.8458 66.7822 47.9851C68.1716 48.4863 66.9528 50.3521 66.441 50.3521ZM65.1491 43.8358C64.3447 42.5827 64.296 41.5802 63.8085 41.2182C63.6379 41.1068 63.0529 40.9118 63.0529 40.9118C63.0529 40.9118 62.931 39.2132 63.8085 37.8765L64.9541 37.6537C64.686 38.3777 63.9304 41.1068 65.9291 43.6966L65.1491 43.8358ZM65.4172 40.5498C65.4172 40.5498 65.1735 38.879 65.8803 37.4588L67.3672 37.1524C67.1722 37.9043 66.5385 40.9675 68.3909 43.1953L68.1472 43.251C66.8797 41.97 66.8066 40.2714 65.4172 40.5498ZM68.0497 40.2157C68.0497 40.2157 67.9278 38.1271 68.4397 36.9575L69.9753 36.6512C69.7315 37.3474 68.9028 40.3549 70.804 42.7498L70.5847 42.8055C69.6828 41.6359 69.439 39.9093 68.0497 40.2157ZM21.5672 50.0179C18.106 52.747 20.6166 59.1519 22.1278 60.4607C20.6166 60.5443 15.2054 54.7799 15.4735 51.6052C15.6685 49.2661 17.2529 49.7673 19.471 45.3953C19.471 45.3953 18.0816 46.0636 17.3016 46.2585C17.3016 46.2585 20.3729 42.4435 21.1772 41.6916C21.9816 40.9397 26.7346 39.6309 28.709 35.3424C28.709 35.3424 27.3196 36.2613 26.0521 36.5955C26.0521 36.5955 27.1246 34.5348 30.2933 32.3905C31.6339 35.8158 34.8758 39.3802 39.8482 41.3017C39.8482 41.3017 29.3671 32.1121 34.3395 23.9806C34.3395 23.9806 35.217 26.0135 36.4114 27.4059C35.2901 23.2566 32.9746 19.5529 41.0182 8.33039C41.0182 8.33039 39.4338 8.91518 38.2882 9.862C40.7988 5.15579 48.0868 3.12293 50.0856 3.48494C56.033 4.57099 57.2517 13.148 64.6372 12.1455C64.6372 12.1455 61.4929 10.5582 60.6885 9.49998C60.6885 9.49998 64.7591 10.1126 66.051 8.49747C65.661 13.3151 64.3204 14.6239 60.3717 12.7024C60.3717 12.7024 62.541 15.1808 64.5397 15.2365C64.5397 15.2365 63.1748 16.1555 62.2242 15.9327C61.2735 15.7099 55.9599 10.1126 54.7899 9.58352C58.5192 13.7606 60.6885 23.4515 62.8579 25.9856C62.8579 25.9856 61.1517 25.4565 59.9817 24.0363C61.6392 29.8564 69.0734 31.2766 70.7309 34.5348C67.9278 33.226 63.5404 34.3677 61.8585 32.9753C62.7604 34.2285 64.5397 35.5651 65.1004 35.6487L63.2966 36.0385C63.2966 36.0385 62.5898 35.4538 62.0779 35.4816C61.566 35.5094 57.9342 36.2335 57.9342 36.2335C57.9342 36.2335 57.0323 35.5651 56.3499 34.0892C56.3499 34.0892 59.6648 35.6765 61.7123 35.036C61.7123 35.036 59.3236 34.5348 57.3248 29.021C59.6161 30.8868 63.5404 31.6387 63.906 31.6108C58.2267 28.659 55.5699 20.4719 55.3992 19.8035C56.4474 20.8339 58.7386 22.1705 58.9336 22.2541C55.8136 18.4111 55.0093 5.96336 43.1144 10.6974C43.1144 10.6974 45.625 11.143 47.8675 13.0088C37.8982 8.88734 33.3889 21.363 41.8469 27.8793C41.8469 27.8793 38.5807 26.7932 36.9232 24.7882C37.0451 25.8186 39.0682 28.5476 39.7995 31.4437C37.8007 30.0792 35.1439 29.578 34.5833 27.9071C34.5833 27.9071 35.9239 34.6462 42.3101 39.9093C42.3101 39.9093 42.1638 41.1625 40.1895 42.3042C40.1895 42.3042 34.1689 41.9422 31.1708 37.2638C31.1708 37.2638 31.0733 40.5777 34.3395 43.0839C32.9989 43.1675 29.879 40.5498 26.9784 40.8561C26.9784 40.8561 28.8309 41.7473 29.489 42.6941C29.0259 42.7498 25.8328 41.8865 25.2234 42.0536C24.4678 42.2485 23.2978 43.6966 22.8347 44.894C21.7378 45.451 19.7879 46.9547 17.7404 50.8812C24.2728 42.6941 26.9053 48.2357 30.7077 48.6256C30.7077 48.6256 29.4402 49.7673 28.2702 50.1572C30.854 51.1318 36.4845 46.7876 38.4589 47.5117C34.6808 48.4306 31.7314 60.1822 45.5275 66.2251C45.5275 66.2251 44.3088 65.3062 43.4069 64.3315C43.4069 64.3315 42.9438 63.3847 43.4069 61.5468C43.4069 61.5468 44.9669 60.0987 44.5525 58.5392C45.4544 57.676 45.3081 56.3115 45.1863 56.1165L45.3569 55.9773C45.3569 55.9773 45.2594 61.324 49.4518 62.5214C49.4518 62.5214 47.5994 62.967 45.6006 61.9088C45.6006 61.9088 44.9425 61.2404 44.65 60.7113C44.65 60.7113 43.9188 64.2758 48.1356 67.3112C48.1356 67.3112 42.3344 67.2833 39.9457 66.3644C37.5326 65.4454 32.7308 60.2658 32.7308 60.2658C32.7308 60.2658 35.6314 60.767 37.4839 62.967C32.5358 54.2507 27.8559 58.0658 25.199 50.38C24.1265 55.6988 28.7577 62.2708 33.3158 64.7214C27.2221 64.9998 20.0316 52.9419 21.5672 50.0179ZM30.269 67.7846C32.4139 68.5643 38.9463 72.2402 40.5307 72.63C37.6301 70.6529 36.6064 69.1491 34.6077 67.5897C35.7045 67.9517 42.8707 72.2123 43.7482 72.463C45.1375 73.8832 47.3312 75.4148 47.3312 75.4148C42.6269 73.5211 35.4608 73.8553 30.269 67.7846ZM43.1144 69.4276C49.8906 68.982 52.2549 71.8225 55.2774 73.5211C51.3287 72.825 48.3062 71.1263 43.1144 69.4276ZM51.0606 66.253C52.523 66.6428 58.3486 70.7643 59.9573 70.7643C61.176 71.906 63.6623 72.3516 63.6623 72.3516C56.423 72.8528 51.0606 66.253 51.0606 66.253ZM81.2608 59.9316C76.5565 61.9366 71.6571 56.3671 70.7553 54.5014C70.999 59.0962 76.4346 63.0784 77.5314 63.2455C77.5314 63.2455 73.5584 68.7871 67.1235 66.4479C70.609 64.8606 70.6578 62.4379 69.244 61.5468C72.1203 60.3215 75.4596 64.415 69.8778 65.7239C70.414 65.9467 74.1921 65.7517 74.1677 63.1898C74.1677 60.6835 70.5603 58.4557 69.5853 56.8127C69.5853 56.8127 69.9997 55.0862 68.8297 54.1394C68.8297 54.1394 70.2678 51.6888 68.1472 50.1293C69.244 48.7648 68.1959 46.0358 65.9535 46.4256C65.9535 46.4256 69.0734 44.0864 74.0946 48.3471C72.4859 45.4788 69.8534 44.4485 69.8534 44.4485L75.7765 43.3903C75.7765 43.3903 78.2383 44.6155 79.1402 49.2661C75.7033 44.6434 73.3877 45.0054 72.8271 45.0054C76.4102 46.9826 78.4821 55.2533 78.6039 55.7545C75.7277 54.7242 73.729 49.5724 70.7309 49.1268C72.5834 51.0204 72.9246 59.2076 81.2608 59.9316ZM80.5539 40.7448C78.9939 38.155 79.0914 35.1753 79.0914 35.1753C79.3595 35.1474 79.8714 35.1474 79.8714 35.1474C78.7989 37.5702 80.3589 39.3524 81.1145 39.3245C81.0658 40.16 80.5539 40.7448 80.5539 40.7448ZM81.1145 37.3474C81.1145 37.3474 80.8951 36.9297 80.9195 36.4284L86.2819 35.3424C86.2819 35.3424 86.3307 35.9829 86.3551 36.2335L81.1145 37.3474ZM92.5462 36.5676C92.0831 36.2892 92.0344 34.4234 91.7419 34.4234C91.4494 34.4234 87.5494 35.0639 87.5494 35.0639C87.5982 34.6462 87.7688 34.4234 87.7688 34.4234C87.7688 34.4234 91.8637 33.3652 92.0831 33.2817C92.3756 33.1981 93.4481 35.231 92.5462 36.5676Z" fill="#05002D"/>
<path d="M13.4264 77.03C11.1596 77.1135 11.5739 74.0224 11.7202 73.2984C11.7933 73.744 12.0127 73.7997 12.1589 73.7997C12.5245 73.7997 12.7439 73.382 12.817 72.9921C12.9145 72.5187 12.817 71.8225 12.0614 71.8503C11.5496 71.8503 10.7696 72.5465 10.5014 73.9389C10.2333 75.3034 10.6477 76.6123 11.4277 77.1971C13.3289 78.673 15.8882 79.5641 14.962 84.9665C14.0845 90.0904 10.5502 93.8219 7.28399 94.1561C4.33466 94.4346 2.45781 91.7055 3.28655 87.8905C3.89591 85.0779 5.35839 83.6576 6.84525 83.5741C7.96648 83.5184 8.94147 84.2703 9.13647 85.6905C8.99022 85.6348 8.89272 85.607 8.77084 85.607C8.38085 85.6348 8.08835 85.9968 7.94211 86.7209C7.79586 87.4727 8.1371 88.0297 8.6246 88.0018C9.18521 87.9461 9.77021 87.1107 9.91645 86.3031C10.0627 85.5234 9.91645 84.688 9.50209 84.0754C6.99149 81.0121 4.89527 80.9564 6.08963 75.4427C7.04024 71.0428 9.69708 67.534 12.9633 67.534C16.2539 67.534 16.912 70.6251 16.4732 73.2427C16.0832 75.4984 14.7914 76.9743 13.4264 77.03Z" fill="black"/>
<path d="M19.277 91.3437C18.2045 91.4272 16.6689 91.7057 14.8164 92.2905C16.2545 89.2551 17.6682 80.9566 17.8632 79.7313C17.912 79.425 19.3745 70.2353 19.082 68.0075C20.252 68.3695 21.3244 68.5088 22.2263 68.5088C23.4694 68.5088 24.2981 68.2582 24.2981 68.2582C23.3475 70.9315 22.7625 73.4656 22.5188 75.3035C22.1776 77.6427 22.4457 78.7009 23.1038 78.6731C23.9325 78.6452 24.4444 77.1415 24.7613 74.7466C25.1025 72.1011 25.1513 69.2885 24.9075 67.6455C26.1019 68.0354 27.2231 68.1189 28.0762 68.1189C29.2462 68.1189 29.9531 67.924 29.9531 67.924C29.3925 70.2632 28.7831 73.939 28.32 77.9769C27.7837 82.5439 27.4912 87.5286 27.7593 91.3715C27.7593 91.3715 27.1256 91.288 26.0044 91.3715C24.9319 91.455 23.3963 91.7057 21.5682 92.2905C22.1288 91.0373 22.86 88.3083 23.1525 86.2197C23.4207 84.2147 23.1769 83.2122 22.5432 83.2401C21.9826 83.2679 21.4707 84.1312 21.2026 85.8856C20.9588 87.5564 20.9588 89.6171 21.0563 91.288C21.0319 91.3437 20.3982 91.2601 19.277 91.3437Z" fill="black"/>
<path d="M34.9005 91.4272C30.8299 91.6499 29.4405 86.6931 30.123 80.3439C30.8543 73.2707 33.9255 67.6455 36.7286 67.6733C39.8973 67.6733 41.7497 72.9922 41.4329 80.0097C41.116 86.1918 38.9954 91.2322 34.9005 91.4272ZM36.2898 73.4656C35.5098 73.4656 34.5836 76.3617 34.3886 78.868C34.1936 81.2629 34.608 83.1286 35.5586 83.0729C36.5092 83.0451 37.2404 81.1793 37.411 78.7844C37.606 75.7212 37.0942 73.4656 36.2898 73.4656Z" fill="black"/>
<path d="M48.6474 89.9233C47.5993 89.9233 46.2587 90.0347 44.7962 90.3688C45.9175 84.3816 46.0637 78.7843 46.0637 78.7843C46.0637 78.7843 46.1124 76.3894 46.0637 73.4376C44.7962 75.2477 43.4312 77.6983 42.5781 79.9539C42.8219 76.0831 43.0656 72.2123 43.285 68.3415C44.455 68.5643 45.7956 68.6757 47.1606 68.6757C49.1105 68.6757 51.1336 68.4529 52.7423 68.0352C52.913 71.9339 53.0592 75.8325 53.2542 79.759C52.2792 76.9742 51.0849 74.4123 49.8174 72.7971C49.7199 74.1616 49.6711 75.6932 49.6468 77.2527C49.6224 81.3463 49.9393 85.9411 50.6705 90.0625C50.6949 90.0347 49.8905 89.9233 48.6474 89.9233Z" fill="black"/>
<path d="M59.2752 78.3946C59.8602 76.0833 60.3965 73.5491 60.884 70.8201C61.7127 73.8555 62.4927 76.4174 63.4433 78.8402C63.4189 78.3667 63.3702 77.8933 63.3458 77.4199C63.1264 74.2175 62.7608 71.0429 62.1514 68.2581C62.2733 68.3974 63.2239 68.648 64.4914 68.648C65.4908 68.648 66.6608 68.5088 67.7576 68.0075C67.1726 70.7644 67.2701 79.592 67.8795 86.8045C68.0014 88.3361 68.172 89.7842 68.3426 91.093C66.9045 90.6475 65.7833 90.4525 64.9545 90.4247C63.8577 90.369 63.3214 90.5361 63.3214 90.5361C62.7608 86.8602 62.2246 83.4907 61.2496 81.1236C60.7621 83.7413 60.6402 86.721 60.8352 90.7032C59.3971 90.2854 58.2759 90.1462 57.4715 90.1184C56.3747 90.0905 55.8384 90.2576 55.8384 90.2576C55.8628 89.1437 55.8384 87.9463 55.814 86.721C55.6434 79.8148 54.839 71.7669 53.7422 68.286C53.7422 68.286 54.6684 68.648 56.1309 68.648C57.0328 68.648 58.154 68.5088 59.3484 68.0354C59.1046 71.8505 59.129 75.2478 59.2752 78.3946Z" fill="black"/>
<path d="M80.3842 91.6778C79.263 91.5664 78.1418 91.6499 76.9718 91.8727C77.0205 90.8702 77.2399 90.5082 76.9718 88.5032C76.7037 86.4703 76.0699 84.6046 75.3387 84.5489C74.5099 84.4932 74.4368 86.1362 74.6562 88.0298C74.8756 89.9513 75.3387 90.6753 75.5093 91.455C74.5099 91.2044 73.5593 91.0373 72.6331 90.9816C71.7069 90.8981 70.7806 90.9259 69.7812 91.0373C70.805 83.6577 70.8537 76.4453 70.2687 68.3417C71.2194 68.5366 72.3893 68.648 73.5593 68.648C74.5587 68.648 75.5093 68.5923 76.2649 68.3417C77.5568 76.5567 80.043 84.3539 82.8948 92.179C82.0173 91.9006 81.213 91.7613 80.3842 91.6778ZM73.9737 74.7187C74.0468 76.9465 73.7787 78.0604 73.9006 79.1186C74.0224 80.1768 74.4612 80.7895 74.8512 80.8173C75.2655 80.8452 75.5093 80.1211 75.4118 79.1743C75.4118 79.1743 75.2899 78.2553 73.9737 74.7187Z" fill="black"/>
<path d="M93.4738 93.0422C90.8413 92.8194 90.0126 93.265 90.0126 93.265C89.8907 91.9004 89.8176 90.8979 89.5739 89.6727C88.6964 84.7437 87.9651 83.3234 87.0145 82.2374C87.1608 83.2399 87.307 84.1589 87.4776 85.1892C87.8433 87.2499 88.3307 89.5891 89.3301 92.903C89.2814 92.7359 87.7214 92.3182 86.0395 92.1511C84.9427 92.0397 83.8214 92.0397 82.9927 92.2903C83.9677 89.7283 82.6514 80.3716 82.6514 80.3995C82.2371 77.7818 81.2133 70.3187 79.6777 68.0352C80.6283 68.2858 81.5546 68.3415 82.1396 68.3415C83.1877 68.3415 83.8214 68.1466 84.9914 68.1466C87.3801 68.1466 90.1832 69.2883 91.2801 74.8857C91.6701 76.9185 91.5238 79.0628 90.232 80.483C92.3769 81.8475 92.7913 84.5766 93.4494 87.8069C93.4494 87.8069 94.4244 92.346 95.8625 93.3485C94.9607 93.1814 94.1563 93.0979 93.4738 93.0422ZM87.2339 74.6351C87.112 73.911 86.7464 73.4098 86.4295 73.4098C85.6252 73.3819 86.0151 76.4451 86.1858 77.4476C86.2345 77.7261 86.2833 78.0324 86.3564 78.3388C86.8195 77.6147 87.502 76.111 87.2339 74.6351Z" fill="black"/>
<path d="M8.50171 100.004C6.50298 100.004 4.69926 99.1129 3.48052 97.5256C2.18867 95.799 1.72555 93.3763 2.21304 90.9257C2.62741 88.8929 3.55365 87.2499 4.79676 86.1917C4.16302 84.7993 3.94364 82.9892 4.50426 80.3437C5.60112 74.9692 9.33045 71.2376 13.5716 71.2655C16.2772 71.2655 17.8128 72.6022 18.6172 73.7161C19.7384 75.2755 20.1772 77.5033 19.8116 79.7589C19.5434 81.3184 18.8853 82.6829 17.9835 83.6854C18.7147 85.0778 19.1291 86.9993 18.6659 89.7005C17.7641 95.1586 13.6448 99.5863 9.0867 100.004C8.8917 100.004 8.6967 100.004 8.50171 100.004ZM12.4017 85.9967C12.4504 86.0246 12.4748 86.0803 12.5235 86.1081C12.5723 86.1638 12.5967 86.1917 12.6454 86.2474C13.011 86.6929 13.3035 87.1663 13.5229 87.7233C13.5716 86.8322 13.3035 86.5537 12.4017 85.9967ZM14.2298 79.5918V79.2855C14.2298 79.2855 14.2298 79.2855 14.2054 79.2855L14.2298 79.5918Z" fill="#05002D"/>
<path d="M22.5408 98.4166C21.8583 98.4166 21.2002 98.1103 20.6883 97.5812C20.6395 97.5812 20.5664 97.5812 20.4933 97.5812C19.8352 97.6369 18.4702 97.804 16.7152 98.3052C15.6671 98.6116 14.5703 98.166 13.9121 97.1913C13.254 96.2167 13.1809 94.88 13.7415 93.794C14.4971 92.318 15.4721 87.8068 16.0571 84.1031C16.4958 81.2348 17.0808 76.3615 16.959 75.2476C16.7883 74.2451 17.0808 73.1869 17.739 72.4629C18.3971 71.7388 19.3233 71.4325 20.2252 71.6831C21.2489 71.9616 22.1264 72.0173 22.687 72.0173C23.077 72.0173 23.4183 71.9894 23.662 71.9616C24.2957 71.3768 25.1489 71.1819 25.9532 71.4046C26.7332 71.6274 27.5619 71.7388 28.4151 71.7388C29.2194 71.7388 29.7313 71.6274 29.7313 71.6274C30.5113 71.4603 31.34 71.6831 31.9494 72.2679C32.7781 73.0476 33.1194 74.3008 32.8269 75.4704C32.3394 77.4197 31.8275 80.4551 31.4863 83.5461C31.0231 87.7232 30.9013 91.5105 31.1694 94.2117C31.2425 94.9357 31.0719 95.6597 30.7307 96.2724C30.1944 97.1913 29.2438 97.6926 28.2688 97.609C28.2688 97.609 27.7813 97.5534 26.977 97.609C26.3188 97.6647 24.9539 97.804 23.1989 98.3052C22.9795 98.3888 22.7601 98.4166 22.5408 98.4166Z" fill="#05002D"/>
<path d="M35.1183 97.6648C33.0952 97.6648 31.3646 96.8294 30.0727 95.27C28.2203 92.9865 27.4646 89.3663 27.9278 84.8272C28.7077 77.1413 32.5346 71.3491 36.8489 71.3491H36.8733C38.6039 71.3491 40.1882 72.1566 41.4557 73.6882C43.4544 76.111 44.4782 80.2602 44.2588 85.0778C43.9175 92.5966 40.5538 97.4421 35.4839 97.6648C35.3864 97.6648 35.2402 97.6648 35.1183 97.6648ZM33.3389 89.2828C33.4852 90.146 33.7533 90.7308 34.0214 91.065C34.1433 91.2042 34.4358 91.5663 35.2889 91.5106C36.2883 91.4549 37.0195 90.8979 37.5557 90.0904C37.0926 90.3688 36.5808 90.5081 36.0201 90.5359C34.9964 90.5916 34.0458 90.146 33.3389 89.2828Z" fill="#05002D"/>
<path d="M44.9179 96.718C44.1866 96.718 43.4798 96.3838 42.9679 95.7433C42.3585 94.9914 42.0904 93.9332 42.3098 92.9307C42.6998 91.1206 42.9435 89.3384 43.1141 87.8346C42.7485 87.8903 42.3829 87.8625 42.0173 87.7511C40.7742 87.3612 39.9454 86.0246 40.0429 84.5765C40.2623 81.2905 40.4573 78.0045 40.6767 74.7185C40.7254 73.8831 41.091 73.1034 41.676 72.5464C42.261 72.0173 42.9923 71.7667 43.7235 71.9059C44.7716 72.073 45.966 72.1566 47.1603 72.1566C48.9641 72.1566 50.7678 71.9895 52.1084 71.6553C52.864 71.4882 53.6684 71.6832 54.2777 72.2401C54.8871 72.7971 55.2771 73.6046 55.3259 74.4957C55.4721 77.8096 55.6427 81.1234 55.789 84.4373C55.8621 85.9132 55.009 87.222 53.7415 87.584C53.3271 87.6954 52.8884 87.6954 52.474 87.584C52.6203 89.3663 52.8884 91.0928 53.2053 92.6801C53.4246 93.7661 53.1078 94.9079 52.3765 95.6598C51.7915 96.2446 51.0359 96.523 50.2803 96.4116C50.2559 96.4116 49.6222 96.3002 48.6472 96.3281C47.8916 96.3281 46.7216 96.3838 45.4054 96.6623C45.2347 96.718 45.0885 96.718 44.9179 96.718Z" fill="#05002D"/>
<path d="M67.611 97.3585C67.3916 97.3585 67.1966 97.3306 66.9772 97.2749C65.6366 96.9129 64.7348 96.8015 64.2229 96.7737C63.6379 96.7459 63.321 96.8015 63.2723 96.8015C62.736 96.9129 62.1754 96.8572 61.6879 96.6066C61.1273 96.9686 60.4448 97.1079 59.7867 96.9408C58.3974 96.5788 57.4711 96.5231 57.0568 96.4952C56.4718 96.4674 56.1549 96.5231 56.1061 96.5509C55.3261 96.7459 54.4974 96.5231 53.8637 95.9661C53.2056 95.3813 52.8399 94.4624 52.8643 93.5156C52.8887 92.6244 52.8887 91.6498 52.8643 90.6473C52.7181 84.7158 51.9624 78.4223 51.1093 76.0552C50.6462 74.7743 51.0118 73.2705 51.9868 72.4351C52.6693 71.8503 53.5468 71.6832 54.3512 71.9617C54.3512 71.9617 54.9849 72.1566 55.9355 72.1566C56.4718 72.1566 57.3492 72.1009 58.3486 71.7667C59.1286 71.4883 59.9817 71.6554 60.6398 72.1845C61.3223 71.7946 62.1267 71.7389 62.8335 72.0731C63.0285 72.1009 63.516 72.1845 64.1742 72.1845C64.7835 72.1845 65.6854 72.1288 66.5385 71.7946C67.4891 71.4326 68.5372 71.711 69.2441 72.5186C69.951 73.3262 70.2191 74.4958 69.951 75.5818C69.5122 77.2527 69.3903 84.1031 69.9022 90.3966C69.9997 91.5105 70.1216 92.6801 70.2922 93.8497C70.4384 94.8522 70.1216 95.8826 69.4635 96.5788C68.9272 97.08 68.2691 97.3585 67.611 97.3585ZM64.0767 86.6929C64.1742 86.9993 64.2473 87.3334 64.3448 87.6398C64.3204 87.2777 64.3204 86.9436 64.296 86.5816C64.2229 86.6094 64.1498 86.6372 64.0767 86.6929Z" fill="#05002D"/>
<path d="M81.6249 98.2496C81.4299 98.2496 81.2592 98.2217 81.0642 98.1939C80.3817 98.0268 79.7236 97.9154 78.9924 97.8597C78.1149 97.804 77.2374 97.8319 76.2868 97.9989C75.7018 98.0825 75.1412 97.9711 74.6293 97.6648C74.4099 97.6648 74.215 97.6648 73.9956 97.6091C73.0937 97.4142 72.2894 97.3028 71.5581 97.2471C70.8512 97.1914 70.0713 97.2192 69.1694 97.2749C68.3407 97.3306 67.5119 96.9686 66.9757 96.2446C66.4394 95.5205 66.1957 94.5459 66.3663 93.6269C67.3413 88.0017 67.585 82.1259 67.1463 75.1362C67.0976 74.2173 67.4144 73.2983 67.9994 72.6578C68.6088 72.0173 69.4131 71.7389 70.2419 71.8781C71.0219 72.0173 72.0212 72.1009 73.045 72.1009C73.3862 72.1009 74.4343 72.1009 75.0193 71.9338C75.7506 71.711 76.5062 71.8502 77.1399 72.3237C77.7737 72.7971 78.2124 73.5211 78.3343 74.3565C79.4555 81.4854 81.8442 88.2245 84.0623 93.9054C84.4767 94.9636 84.3304 96.1889 83.6967 97.08C83.2092 97.8597 82.4292 98.2496 81.6249 98.2496Z" fill="#05002D"/>
<path d="M94.1066 99.3078C93.9847 99.3078 93.8385 99.3078 93.7166 99.2799C93.0097 99.1685 92.3028 99.0572 91.6204 99.0293C90.1335 98.9179 89.451 99.0572 89.3048 99.085C89.0366 99.1964 88.7441 99.2521 88.4516 99.2521C87.9642 99.2521 87.4767 99.085 87.0867 98.8344C86.9404 98.7787 86.8185 98.723 86.6723 98.6673C86.331 98.5837 85.5023 98.4167 84.4786 98.3331C83.138 98.2217 82.5286 98.3331 82.358 98.3888C81.3342 98.6673 80.2618 98.2496 79.628 97.2749C78.9943 96.3281 78.8968 95.075 79.3599 94.0168C79.6524 93.0421 79.5305 89.2549 79.0674 85.7461L78.9943 85.1891C78.068 78.8956 77.4099 77.1969 77.093 76.7235C76.3618 75.721 76.2643 74.3287 76.8249 73.2148C77.4099 72.1009 78.5312 71.5161 79.6524 71.7667C80.5299 71.9616 81.3342 71.9616 81.5536 71.9895C81.9436 71.9895 82.2605 71.9616 82.6505 71.9338C83.1136 71.8781 83.6498 71.8224 84.3323 71.8224H84.3567C88.8904 71.8224 91.9372 74.7185 92.9122 79.9817C93.2535 81.7639 93.1316 83.4348 92.6441 84.8828C93.7409 86.5537 94.1309 88.5865 94.4722 90.3409C94.5209 90.5358 94.5453 90.7308 94.5941 90.9257C94.8134 92.0118 95.2766 93.3206 95.5691 93.7383C96.5928 94.4902 97.0803 95.9382 96.6903 97.3028C96.2759 98.4724 95.2278 99.3078 94.1066 99.3078ZM91.0354 96.9686C90.7916 97.9433 90.1579 98.723 89.3291 99.0293C89.8898 98.8622 90.7429 98.166 91.0354 96.9686ZM85.2829 96.8572C85.2829 96.8851 85.3073 96.9129 85.3073 96.9408C85.3073 96.9129 85.2829 96.8851 85.2829 96.8572Z" fill="#05002D"/>
<path d="M6.89352 97.6926C4.84605 97.6926 2.99357 96.7458 1.72609 95.075C0.190483 93.0421 -0.29701 90.146 0.336731 87.1106C0.921723 84.4373 2.04296 82.655 3.31044 81.569C2.62795 79.926 2.43295 77.8096 3.11544 74.6907C4.48042 68.3693 8.40475 64.1365 12.9384 64.1365H12.9628C15.7171 64.1365 17.3015 65.5568 18.1546 66.7263C19.4708 68.5643 19.934 71.2098 19.4465 73.9945C19.1296 75.8603 18.3496 77.4754 17.3259 78.6172C18.1059 80.2602 18.5202 82.488 17.9596 85.6904C16.8628 92.0396 12.4022 97.1914 7.57601 97.6648C7.35664 97.6648 7.11289 97.6926 6.89352 97.6926ZM11.281 81.207C11.4272 81.3741 11.5978 81.569 11.7441 81.7361C11.7928 81.7918 11.8172 81.8475 11.8659 81.9032C11.9391 82.0146 12.0122 82.1259 12.0853 82.2095C12.0609 82.0703 12.0122 81.9589 11.9634 81.8753C11.8416 81.6804 11.5978 81.4576 11.281 81.207Z" fill="#05002D"/>
<path d="M21.5661 95.7989C20.7861 95.7989 20.0305 95.4647 19.4455 94.8242C18.763 94.8799 17.4224 95.0749 15.6675 95.6597C14.4975 96.0495 13.23 95.5761 12.45 94.4901C11.6944 93.404 11.5725 91.8724 12.1575 90.6471C13.0106 88.8649 14.1562 83.4904 14.8875 79.0905C15.4481 75.6095 16.2037 69.7337 16.0818 68.4806C15.9356 67.311 16.3256 66.1693 17.0812 65.3896C17.8612 64.6098 18.9093 64.3313 19.9087 64.6655C20.8593 64.9718 21.688 65.0275 22.2243 65.0275C22.5167 65.0275 22.7849 64.9997 23.0042 64.9718C23.7842 64.2478 24.808 63.9972 25.7586 64.3314C26.4654 64.5541 27.2698 64.6934 28.0742 64.6934C28.8298 64.6934 29.2929 64.582 29.2929 64.582C30.6091 64.2478 31.9741 64.944 32.6322 66.2807C33.0222 67.0604 33.1197 68.0072 32.9004 68.8705C32.3397 71.2097 31.7791 74.802 31.3404 78.4778C30.7798 83.4347 30.5848 87.9459 30.8041 91.1484C30.8773 92.2344 30.5116 93.2648 29.8048 93.9888C29.171 94.6572 28.3179 94.9635 27.4404 94.8799C27.4404 94.8799 26.9773 94.8242 26.1973 94.8799C25.5392 94.9356 24.1742 95.1027 22.3705 95.6597C22.1024 95.7711 21.8343 95.7989 21.5661 95.7989Z" fill="#05002D"/>
<path d="M34.6311 94.9358C32.5836 94.9358 30.8043 94.0725 29.4393 92.4295C26.7581 89.1435 26.6849 83.8247 27.0749 79.9539C27.4893 76.0831 28.513 72.4072 30.0243 69.5668C31.8524 66.1137 34.2167 64.1923 36.7029 64.1923H36.7273C38.4579 64.1923 40.0666 65.0277 41.3585 66.5593C43.6009 69.2883 44.7466 74.2452 44.4541 80.2045C44.0397 88.9764 40.4322 94.6016 35.0454 94.9079C34.8992 94.9358 34.7529 94.9358 34.6311 94.9358ZM33.1686 85.6348C33.3392 86.6373 33.6073 87.3056 33.8998 87.6398C33.9973 87.779 34.168 87.9739 34.7529 87.9461C35.6548 87.8904 36.3617 87.2499 36.9223 86.2752C36.5323 86.4423 36.0936 86.5537 35.6548 86.5537C34.7286 86.6094 33.8755 86.2752 33.1686 85.6348Z" fill="#05002D"/>
<path d="M44.7961 93.8217C43.9917 93.8217 43.2117 93.4597 42.6267 92.7914C41.8955 91.956 41.603 90.7585 41.8224 89.6168C42.2367 87.389 42.5049 85.2447 42.6999 83.4346C42.4317 83.4346 42.1392 83.4068 41.8711 83.3511C40.433 82.9612 39.458 81.4018 39.5555 79.7309C39.7993 75.8601 40.043 71.9894 40.2624 68.1186C40.3111 67.1439 40.7499 66.2528 41.408 65.6402C42.0905 65.0275 42.9436 64.7769 43.7967 64.944C44.8448 65.1389 46.0148 65.2503 47.1848 65.2503C48.9885 65.2503 50.7679 65.0554 52.0597 64.6933C52.9372 64.4427 53.8635 64.6655 54.5947 65.306C55.3259 65.9186 55.7647 66.8933 55.8134 67.9236C55.9841 71.8223 56.1303 75.7209 56.3253 79.6195C56.3984 81.3182 55.3991 82.822 53.9366 83.184C53.5953 83.2676 53.2541 83.2954 52.9372 83.2397C53.1079 85.4118 53.3516 87.5004 53.6928 89.394C53.9122 90.6193 53.5466 91.9003 52.7179 92.7078C52.0597 93.3762 51.1823 93.6825 50.3048 93.5432C50.3048 93.5432 49.671 93.4319 48.696 93.4597C47.9404 93.4597 46.7704 93.5154 45.4542 93.8217C45.2105 93.7939 44.9911 93.8217 44.7961 93.8217Z" fill="#05002D"/>
<path d="M68.3417 94.5737C68.0736 94.5737 67.8055 94.5459 67.5373 94.4623C66.1967 94.0446 65.2949 93.9332 64.783 93.9054C64.2955 93.8775 64.003 93.9332 63.9543 93.9332C63.3693 94.0725 62.7599 94.0168 62.2237 93.794C61.5656 94.1838 60.8099 94.2952 60.0787 94.0725C58.6893 93.6826 57.7875 93.5991 57.3731 93.5712C56.8612 93.5434 56.5931 93.5991 56.5444 93.6269C55.6425 93.8775 54.6919 93.6547 53.9607 93.0143C53.205 92.3459 52.7663 91.3156 52.7663 90.2017C52.7907 89.1435 52.7663 88.0017 52.7419 86.8043C52.5713 79.7589 51.7426 72.2958 50.8407 69.4554C50.4507 68.2022 50.7188 66.782 51.5232 65.8352C52.3276 64.8884 53.5463 64.5542 54.6675 64.9719C54.7163 64.9998 55.2769 65.1669 56.1056 65.1669C56.6175 65.1669 57.4219 65.0833 58.3481 64.7213C59.2256 64.3871 60.1762 64.4985 60.9562 65.0555C61.7118 64.6935 62.5649 64.6935 63.3205 65.0555C63.5155 65.1112 63.9299 65.1669 64.4905 65.1669C65.0511 65.1669 65.8799 65.1112 66.6599 64.777C67.708 64.3036 68.9023 64.5542 69.7554 65.4175C70.6086 66.2807 70.9742 67.5896 70.7061 68.8427C70.2673 70.8756 70.2673 79.007 70.9011 86.498C71.0229 87.8346 71.1692 89.1992 71.3398 90.5915C71.486 91.7611 71.1204 92.9307 70.3648 93.7104C69.8042 94.2674 69.073 94.5737 68.3417 94.5737ZM64.0274 93.8775C64.003 93.8775 64.003 93.8775 63.9786 93.8775C64.003 93.9054 64.003 93.9054 64.0274 93.8775ZM56.5931 93.5712C56.5687 93.5712 56.5687 93.5712 56.5444 93.5712C56.5687 93.5991 56.5931 93.5712 56.5931 93.5712Z" fill="#05002D"/>
<path d="M82.9181 95.6319C82.6744 95.6319 82.4306 95.6041 82.2113 95.5484C81.5288 95.3534 80.8707 95.242 80.1394 95.1864C79.2863 95.1028 78.4088 95.1585 77.4826 95.3534C76.8001 95.4927 76.1176 95.3534 75.5326 94.9914C75.3132 94.9914 75.0939 94.9636 74.8745 94.9079C73.9483 94.6851 73.1439 94.5459 72.437 94.4902C71.7302 94.4345 70.9502 94.4623 70.0239 94.5459C69.0977 94.6294 68.1715 94.2117 67.5377 93.432C66.904 92.6522 66.6115 91.5662 66.7577 90.5358C67.684 83.7968 67.8302 77.0577 67.2208 68.6756C67.1477 67.5896 67.5133 66.5314 68.2202 65.8073C68.9271 65.0833 69.8777 64.777 70.8039 64.9719C71.5352 65.139 72.5589 65.2226 73.5583 65.2226C74.6308 65.2226 75.1426 65.139 75.362 65.0555C76.1907 64.777 77.0926 64.8884 77.8238 65.4175C78.5551 65.9466 79.0669 66.782 79.2376 67.7567C80.5782 76.2501 83.2594 84.2145 85.6969 90.87C86.1356 92.0674 85.9406 93.4598 85.2094 94.4623C84.6487 95.1864 83.7956 95.6319 82.9181 95.6319Z" fill="#05002D"/>
<path d="M95.8859 96.8572C95.7153 96.8572 95.5447 96.8293 95.374 96.8015C94.6428 96.6623 93.9359 96.5509 93.2534 96.4952C91.8885 96.3838 91.2304 96.4952 91.0597 96.523C90.7429 96.6623 90.4016 96.7179 90.0604 96.7458C89.4266 96.7458 88.866 96.5509 88.3785 96.1888C88.2323 96.1331 88.1104 96.0775 87.9642 95.9939C87.5985 95.8825 86.7942 95.7154 85.8192 95.6319C84.4298 95.5205 83.8936 95.6319 83.8205 95.6597C82.6992 96.0218 81.4805 95.5762 80.7249 94.5737C79.9693 93.5712 79.7743 92.1788 80.213 90.9535C80.5055 89.8118 80.2618 85.1613 79.6768 80.9842L79.5793 80.3158C78.4093 72.7135 77.6537 70.6806 77.2881 70.1515C76.5081 68.9819 76.4593 67.3946 77.1418 66.1694C77.8243 64.9441 79.1162 64.3314 80.3593 64.6378C81.188 64.8605 81.968 64.8605 82.1874 64.8605C82.553 64.8605 82.8455 64.8327 83.2355 64.777C83.6986 64.7213 84.2836 64.6656 85.0148 64.6656H85.0392C87.7935 64.6656 92.6928 65.8909 94.3016 74.1337C94.7159 76.2501 94.6428 78.1994 94.1553 79.8703C95.3984 81.7917 95.8859 84.1588 96.3247 86.3309C96.3734 86.5536 96.4222 86.7764 96.4709 87.0271C96.7634 88.3637 97.324 90.0067 97.6653 90.5358C98.7865 91.4269 99.2496 93.0978 98.7865 94.6015C98.299 95.9661 97.1534 96.8572 95.8859 96.8572ZM92.7903 94.7129C92.4491 95.5484 91.8641 96.1888 91.1085 96.523C91.596 96.3281 92.376 95.7433 92.7903 94.7129ZM97.4459 90.3687C97.4459 90.3687 97.4459 90.3966 97.4459 90.3687C97.4459 90.3966 97.4459 90.3687 97.4459 90.3687Z" fill="#05002D"/>
<path d="M13.4264 77.03C11.1596 77.1135 11.5739 74.0224 11.7202 73.2984C11.7933 73.744 12.0127 73.7997 12.1589 73.7997C12.5245 73.7997 12.7439 73.382 12.817 72.9921C12.9145 72.5187 12.817 71.8225 12.0614 71.8503C11.5496 71.8503 10.7696 72.5465 10.5014 73.9389C10.2333 75.3034 10.6477 76.6123 11.4277 77.1971C13.3289 78.673 15.8882 79.5641 14.962 84.9665C14.0845 90.0904 10.5502 93.8219 7.28399 94.1561C4.33466 94.4346 2.45781 91.7055 3.28655 87.8905C3.89591 85.0779 5.35839 83.6576 6.84525 83.5741C7.96648 83.5184 8.94147 84.2703 9.13647 85.6905C8.99022 85.6348 8.89272 85.607 8.77084 85.607C8.38085 85.6348 8.08835 85.9968 7.94211 86.7209C7.79586 87.4727 8.1371 88.0297 8.6246 88.0018C9.18521 87.9461 9.77021 87.1107 9.91645 86.3031C10.0627 85.5234 9.91645 84.688 9.50209 84.0754C6.99149 81.0121 4.89527 80.9564 6.08963 75.4427C7.04024 71.0428 9.69708 67.534 12.9633 67.534C16.2539 67.534 16.912 70.6251 16.4732 73.2427C16.0832 75.4984 14.7914 76.9743 13.4264 77.03Z" fill="white"/>
<path d="M19.277 91.3437C18.2045 91.4272 16.6689 91.7057 14.8164 92.2905C16.2545 89.2551 17.6682 80.9566 17.8632 79.7313C17.912 79.425 19.3745 70.2353 19.082 68.0075C20.252 68.3695 21.3244 68.5088 22.2263 68.5088C23.4694 68.5088 24.2981 68.2582 24.2981 68.2582C23.3475 70.9315 22.7625 73.4656 22.5188 75.3035C22.1776 77.6427 22.4457 78.7009 23.1038 78.6731C23.9325 78.6452 24.4444 77.1415 24.7613 74.7466C25.1025 72.1011 25.1513 69.2885 24.9075 67.6455C26.1019 68.0354 27.2231 68.1189 28.0762 68.1189C29.2462 68.1189 29.9531 67.924 29.9531 67.924C29.3925 70.2632 28.7831 73.939 28.32 77.9769C27.7837 82.5439 27.4912 87.5286 27.7593 91.3715C27.7593 91.3715 27.1256 91.288 26.0044 91.3715C24.9319 91.455 23.3963 91.7057 21.5682 92.2905C22.1288 91.0373 22.86 88.3083 23.1525 86.2197C23.4207 84.2147 23.1769 83.2122 22.5432 83.2401C21.9826 83.2679 21.4707 84.1312 21.2026 85.8856C20.9588 87.5564 20.9588 89.6171 21.0563 91.288C21.0319 91.3437 20.3982 91.2601 19.277 91.3437Z" fill="white"/>
<path d="M34.9005 91.4272C30.8299 91.6499 29.4405 86.6931 30.123 80.3439C30.8543 73.2707 33.9255 67.6455 36.7286 67.6733C39.8973 67.6733 41.7497 72.9922 41.4329 80.0097C41.116 86.1918 38.9954 91.2322 34.9005 91.4272ZM36.2898 73.4656C35.5098 73.4656 34.5836 76.3617 34.3886 78.868C34.1936 81.2629 34.608 83.1286 35.5586 83.0729C36.5092 83.0451 37.2404 81.1793 37.411 78.7844C37.606 75.7212 37.0942 73.4656 36.2898 73.4656Z" fill="white"/>
<path d="M48.6474 89.9233C47.5993 89.9233 46.2587 90.0347 44.7962 90.3688C45.9175 84.3816 46.0637 78.7843 46.0637 78.7843C46.0637 78.7843 46.1124 76.3894 46.0637 73.4376C44.7962 75.2477 43.4312 77.6983 42.5781 79.9539C42.8219 76.0831 43.0656 72.2123 43.285 68.3415C44.455 68.5643 45.7956 68.6757 47.1606 68.6757C49.1105 68.6757 51.1336 68.4529 52.7423 68.0352C52.913 71.9339 53.0592 75.8325 53.2542 79.759C52.2792 76.9742 51.0849 74.4123 49.8174 72.7971C49.7199 74.1616 49.6711 75.6932 49.6468 77.2527C49.6224 81.3463 49.9393 85.9411 50.6705 90.0625C50.6949 90.0347 49.8905 89.9233 48.6474 89.9233Z" fill="white"/>
<path d="M59.2752 78.3946C59.8602 76.0833 60.3965 73.5491 60.884 70.8201C61.7127 73.8555 62.4927 76.4174 63.4433 78.8402C63.4189 78.3667 63.3702 77.8933 63.3458 77.4199C63.1264 74.2175 62.7608 71.0429 62.1514 68.2581C62.2733 68.3974 63.2239 68.648 64.4914 68.648C65.4908 68.648 66.6608 68.5088 67.7576 68.0075C67.1726 70.7644 67.2701 79.592 67.8795 86.8045C68.0014 88.3361 68.172 89.7842 68.3426 91.093C66.9045 90.6475 65.7833 90.4525 64.9545 90.4247C63.8577 90.369 63.3214 90.5361 63.3214 90.5361C62.7608 86.8602 62.2246 83.4907 61.2496 81.1236C60.7621 83.7413 60.6402 86.721 60.8352 90.7032C59.3971 90.2854 58.2759 90.1462 57.4715 90.1184C56.3747 90.0905 55.8384 90.2576 55.8384 90.2576C55.8628 89.1437 55.8384 87.9463 55.814 86.721C55.6434 79.8148 54.839 71.7669 53.7422 68.286C53.7422 68.286 54.6684 68.648 56.1309 68.648C57.0328 68.648 58.154 68.5088 59.3484 68.0354C59.1046 71.8505 59.129 75.2478 59.2752 78.3946Z" fill="white"/>
<path d="M80.3842 91.6778C79.263 91.5664 78.1418 91.6499 76.9718 91.8727C77.0205 90.8702 77.2399 90.5082 76.9718 88.5032C76.7037 86.4703 76.0699 84.6046 75.3387 84.5489C74.5099 84.4932 74.4368 86.1362 74.6562 88.0298C74.8756 89.9513 75.3387 90.6753 75.5093 91.455C74.5099 91.2044 73.5593 91.0373 72.6331 90.9816C71.7069 90.8981 70.7806 90.9259 69.7812 91.0373C70.805 83.6577 70.8537 76.4453 70.2687 68.3417C71.2194 68.5366 72.3893 68.648 73.5593 68.648C74.5587 68.648 75.5093 68.5923 76.2649 68.3417C77.5568 76.5567 80.043 84.3539 82.8948 92.179C82.0173 91.9006 81.213 91.7613 80.3842 91.6778ZM73.9737 74.7187C74.0468 76.9465 73.7787 78.0604 73.9006 79.1186C74.0224 80.1768 74.4612 80.7895 74.8512 80.8173C75.2655 80.8452 75.5093 80.1211 75.4118 79.1743C75.4118 79.1743 75.2899 78.2553 73.9737 74.7187Z" fill="white"/>
<path d="M93.4738 93.0422C90.8413 92.8194 90.0126 93.265 90.0126 93.265C89.8907 91.9004 89.8176 90.8979 89.5739 89.6727C88.6964 84.7437 87.9651 83.3234 87.0145 82.2374C87.1608 83.2399 87.307 84.1589 87.4776 85.1892C87.8433 87.2499 88.3307 89.5891 89.3301 92.903C89.2814 92.7359 87.7214 92.3182 86.0395 92.1511C84.9427 92.0397 83.8214 92.0397 82.9927 92.2903C83.9677 89.7283 82.6514 80.3716 82.6514 80.3995C82.2371 77.7818 81.2133 70.3187 79.6777 68.0352C80.6283 68.2858 81.5546 68.3415 82.1396 68.3415C83.1877 68.3415 83.8214 68.1466 84.9914 68.1466C87.3801 68.1466 90.1832 69.2883 91.2801 74.8857C91.6701 76.9185 91.5238 79.0628 90.232 80.483C92.3769 81.8475 92.7913 84.5766 93.4494 87.8069C93.4494 87.8069 94.4244 92.346 95.8625 93.3485C94.9607 93.1814 94.1563 93.0979 93.4738 93.0422ZM87.2339 74.6351C87.112 73.911 86.7464 73.4098 86.4295 73.4098C85.6252 73.3819 86.0151 76.4451 86.1858 77.4476C86.2345 77.7261 86.2833 78.0324 86.3564 78.3388C86.8195 77.6147 87.502 76.111 87.2339 74.6351Z" fill="white"/>
</g>
<defs>
<clipPath id="clip0">
<rect width="98.8636" height="100" fill="white" transform="translate(0.0683594 0.00402832)"/>
</clipPath>
</defs>
</svg>
