<svg width="99" height="101" viewBox="0 0 99 101" fill="none" xmlns="http://www.w3.org/2000/svg">
<g clip-path="url(#clip0)">
<path d="M54.178 49.3618C54.0676 50.529 53.4939 50.8882 53.9794 51.1351C54.4428 51.3596 55.3255 49.8107 55.3255 49.8107C54.4207 49.676 54.178 49.3618 54.178 49.3618Z" fill="#A8B9BD"/>
<path d="M57.1585 46.7591C57.1585 46.7591 57.0923 45.5694 56.342 45.7938C56.3861 46.3326 55.2165 47.2304 54.6428 47.5896C53.6718 48.1957 54.8635 49.3404 55.4814 49.0711C56.1213 48.8017 56.4303 48.4426 56.6289 48.4426C56.8275 48.4426 57.8867 48.5548 57.9529 47.9487C58.0633 47.3651 57.1585 46.7591 57.1585 46.7591Z" fill="#A8B9BD"/>
<path d="M44.7339 48.1948C41.2913 49.362 39.3273 49.1825 39.3273 49.1825C37.9591 51.3373 42.483 50.9782 44.6677 50.417C44.3367 49.2947 44.7339 48.1948 44.7339 48.1948Z" fill="#A8B9BD"/>
<path d="M43.9179 53.9416C44.5579 53.8967 46.4998 52.9315 46.875 52.6397C47.2501 52.3478 48.5301 49.4747 48.7066 49.0033C48.9273 48.3972 48.0887 47.9932 47.7798 48.7115C47.5591 49.2277 46.4116 51.8091 46.213 52.1458C46.0585 52.3927 44.6461 52.8417 43.9179 53.0213C43.1897 53.2008 43.2779 53.9865 43.9179 53.9416Z" fill="#A8B9BD"/>
<path d="M56.3424 50.754C56.3203 51.3825 56.9382 51.9213 57.2692 52.1457C58.4167 51.9437 60.6677 52.5498 62.8082 52.1008C63.073 51.8988 63.4703 50.8438 63.1834 50.5296C62.8965 50.2153 59.9394 50.7091 57.7988 49.9459C57.3134 49.7888 56.3865 49.901 56.3424 50.754Z" fill="#A8B9BD"/>
<path d="M61.4166 43.2787C61.3062 43.8399 61.1297 45.8601 62.2331 46.309C62.0345 46.0172 61.9903 43.7726 61.9903 43.2787C62.0124 42.6951 61.549 42.7176 61.4166 43.2787Z" fill="#A8B9BD"/>
<path d="M59.0347 44.6706C58.5713 43.9523 56.188 45.7256 58.4389 47.1397C59.9174 48.0601 61.2415 49.362 61.2415 49.362C62.6097 49.0926 63.338 49.4518 63.338 49.4518C64.1324 47.9703 61.2857 48.105 59.0347 44.6706Z" fill="#A8B9BD"/>
<path d="M53.9358 46.3093C53.9799 46.0175 54.1344 45.5012 54.1344 45.5012L50.8242 46.8929C50.8684 47.1622 51.0228 47.3418 51.0228 47.3418L53.9358 46.3093Z" fill="#A8B9BD"/>
<path d="M56.4732 52.3707C55.7891 52.034 55.4581 51.2035 55.4581 51.2035C54.6637 52.3932 53.5161 52.9319 53.6044 53.3584C53.781 54.0767 56.054 53.1115 56.4732 52.3707Z" fill="#A8B9BD"/>
<path d="M56.9378 58.0491C56.5847 57.3532 56.5185 56.7921 56.5406 56.388C56.0551 56.5452 54.6428 57.039 54.5766 57.241C54.4662 57.4879 54.6428 58.4756 54.8855 58.6776C55.1062 58.8572 56.9378 58.0491 56.9378 58.0491Z" fill="#A8B9BD"/>
<path d="M54.4438 56.0287C54.7968 56.1634 56.2533 55.6696 56.6285 55.5349C55.9002 54.9513 55.6575 54.4126 55.6796 53.9187C55.2823 54.1881 54.1348 54.4799 54.0245 54.7044C53.9141 55.0186 54.0245 55.8716 54.4438 56.0287Z" fill="#A8B9BD"/>
<path d="M78.2996 32.0111C78.4982 31.9662 82.8456 30.5521 82.8456 30.5521C82.1615 29.8787 82.0511 28.7339 82.0511 28.7339L77.77 30.4174C77.3507 31.2255 77.6596 31.9213 78.2996 32.0111Z" fill="#A8B9BD"/>
<path d="M63.9985 55.0194C62.52 56.0744 59.6291 56.052 58.5478 56.0071C57.4665 55.9622 56.7824 57.2417 58.0844 57.5559C58.8347 57.7355 61.6594 56.5907 64.2633 57.3539C65.3447 57.6682 65.2123 55.9173 64.7047 55.5582C64.2854 55.6255 63.9985 55.0194 63.9985 55.0194Z" fill="#A8B9BD"/>
<path d="M29.926 50.1475C30.0364 49.1823 30.3453 48.9129 30.3453 48.9129C30.1688 48.9129 29.1095 48.9578 29.0212 48.9802C28.933 49.0027 28.8006 49.4067 28.8447 49.5414C28.8888 49.6761 29.926 50.1475 29.926 50.1475Z" fill="#A8B9BD"/>
<path d="M26.5059 52.7064C27.521 52.3248 28.7788 53.5369 34.693 50.7535C36.4584 49.923 37.5398 50.3495 37.5398 50.3495C37.7825 49.9455 38.1135 49.0252 37.4294 48.868C36.0171 48.5313 31.7359 51.4045 27.8741 51.4718C26.9031 51.4943 26.5059 52.7064 26.5059 52.7064Z" fill="#A8B9BD"/>
<path d="M63.6455 53.0439C63.2262 52.7072 61.6373 53.6051 57.3341 53.0663C56.2086 52.9317 56.1645 54.5927 57.4223 55.2212C58.2388 54.7274 61.4387 55.3783 63.2924 54.6601C63.4248 54.6152 64.0648 53.403 63.6455 53.0439Z" fill="#A8B9BD"/>
<path d="M47.0508 42.2246C47.0508 42.2246 74.5031 31.8093 74.6576 31.7644C74.7459 31.742 74.8783 31.7869 74.9665 31.8542L76.2023 28.8015C76.2023 28.8015 60.7328 35.109 48.1542 40.2269C48.1321 40.6758 47.9114 41.3941 47.0508 42.2246Z" fill="#A8B9BD"/>
<path d="M65.1686 49.3403C64.9259 49.2056 64.5066 48.7791 64.5066 48.7791C64.3301 49.026 64.3301 49.2954 64.3301 49.2954C64.8156 49.43 65.1686 49.3403 65.1686 49.3403Z" fill="#A8B9BD"/>
<path d="M25.9979 55.2654C25.9979 55.2654 26.9247 54.9961 29.2639 54.9287C32.1989 54.8165 34.9794 53.0432 36.2814 53.9411C36.2814 53.9411 38.3337 52.5718 37.4069 51.4719C36.6345 50.5741 32.4858 53.2228 27.3661 53.5819C25.6668 53.6942 25.6448 54.6818 25.9979 55.2654Z" fill="#A8B9BD"/>
<path d="M32.9943 62.2914C32.9943 61.3262 30.3903 60.3385 29.0001 61.9322C28.8456 62.1118 28.4263 63.7953 27.9629 64.1544C28.5367 64.0422 30.8979 64.0198 30.8979 64.0198C32.0234 63.7953 32.9943 62.8076 32.9943 62.2914Z" fill="#A8B9BD"/>
<path d="M26.1095 58.0946C27.1908 57.4212 29.0665 57.7579 30.0817 57.6906C31.0968 57.6457 33.3256 57.0621 34.6055 57.0396C35.8855 57.0172 36.702 55.6479 36.393 55.1541C36.0841 54.6827 35.1131 54.6603 33.1491 55.0868C26.617 56.5234 26.3081 55.6928 25.8226 56.2091C25.1605 56.905 26.1095 58.0946 26.1095 58.0946Z" fill="#A8B9BD"/>
<path d="M26.7714 60.3832C26.7714 60.3832 29.9491 59.4405 33.0828 60.069C34.6937 60.3832 35.3558 59.5302 35.2896 58.6997C35.2454 57.8916 34.1641 57.8692 32.6856 58.2059C29.5078 58.9242 27.301 58.2732 26.6169 58.6997C25.9769 59.1038 26.0431 59.8894 26.7714 60.3832Z" fill="#A8B9BD"/>
<path d="M74.1512 51.4503C80.0654 52.7522 82.3383 56.6804 82.3383 56.6804C82.5149 52.5053 71.79 49.3852 71.79 49.3852C72.0106 49.9463 74.1512 54.2337 75.1001 57.6231C73.0257 53.1787 70.3335 48.3077 68.9432 47.7017C67.5309 47.1181 63.029 46.4222 63.029 46.4222L63.0511 47.0283C63.5145 47.2976 64.0662 47.8588 64.0662 47.8588C65.9861 47.6119 66.2289 51.0238 69.3404 52.6175C67.906 49.475 67.1337 48.824 65.8537 48.2404C65.8537 48.2404 67.4426 47.9486 68.9211 49.2729C72.1651 52.2135 76.4904 69.026 73.9526 76.9273C64.3972 71.787 62.8304 62.4267 62.8304 62.4267C66.4275 68.9587 73.2464 73.5378 73.2464 73.5378C67.7295 68.5322 64.1986 60.7881 64.1986 60.7881C62.698 61.6635 60.8223 61.9104 60.8223 61.9104C66.9792 76.1416 74.9898 79.2842 74.9898 79.2842C77.9248 72.3257 76.5566 59.7107 76.5566 59.7107C77.5938 63.0552 77.8586 67.5895 77.66 71.6074C79.7785 62.4716 81.257 59.5535 74.1512 51.4503Z" fill="#A8B9BD"/>
<path d="M45.0879 56.0512C45.0879 56.0512 46.1913 60.6752 55.3715 68.1949C51.951 62.1343 47.074 57.7572 45.0879 56.0512Z" fill="#A8B9BD"/>
<path d="M24.7404 50.9784C26.0204 49.452 26.5059 50.1254 26.5059 50.1254C25.8438 50.2152 25.6673 51.0233 25.6673 51.0233C26.9693 49.8785 27.9182 50.1927 27.9182 50.1927C27.4768 49.2275 26.4176 48.4194 25.7556 48.4194C24.4315 48.4194 19.9076 52.9986 19.1794 56.7472C19.0249 54.6596 19.4442 52.8639 20.1283 51.4048C17.0388 51.6967 12.9342 55.3555 12.9342 55.3555C14.2362 53.1332 18.1863 49.9234 18.4291 49.9009C18.6277 49.8785 20.3269 49.8336 21.011 49.8336C22.3792 47.8358 24.0784 46.7584 24.608 46.7135C25.6011 46.6461 26.4838 47.1849 26.4838 47.1849C26.3514 46.1074 25.7335 43.2343 25.7335 43.2343C28.2713 45.7483 30.3015 45.9503 30.3015 45.9503C28.7347 43.8179 27.852 40.7876 27.852 40.7876C32.7952 44.5586 37.0322 42.5609 37.0322 42.5609C34.362 40.5631 32.5524 36.59 32.5524 36.59C35.9067 39.6203 41.4899 41.3263 41.4899 41.3263C46.3007 37.6226 49.6329 33.8066 49.6329 33.8066C47.6689 35.131 43.7408 36.8818 43.7408 36.8818C47.4923 33.874 56.6946 25.4789 57.0256 24.3117C57.3566 23.1445 56.0105 20.5406 56.0105 20.5406C56.496 20.8773 58.0849 23.0996 58.2393 23.975C58.3938 24.8729 57.158 27.14 57.158 27.14C57.158 27.14 58.9896 24.5362 58.8352 23.5934C58.3938 20.9896 51.6631 11.8538 50.8025 11.4946C50.8025 11.4946 54.6643 20.7876 54.6643 24.4239C54.6643 27.2971 41.3795 36.6798 38.5107 34.6147C40.1217 34.7943 41.2251 33.7169 41.2251 33.7169C34.9578 31.0233 34.1413 28.801 34.5827 25.434C31.758 30.0805 38.0914 33.5148 38.0914 33.5148C32.1111 30.4621 30.6325 28.7561 32.8835 21.5732C32.7952 21.2814 32.5304 21.3487 32.5304 21.3487C32.2656 21.9323 30.3677 26.4217 30.3677 28.3745C30.3677 31.5395 35.4433 35.333 39.4597 36.4329C35.7964 36.0289 32.6628 34.0311 30.6546 32.2129C30.4339 32.7741 29.9926 33.9862 30.0367 34.9514C30.1029 36.388 34.053 42.3813 35.0461 42.8078C30.9415 41.0345 28.514 36.59 28.514 36.59C27.6534 37.2859 26.3955 37.8695 26.0866 38.4307C23.4164 43.3016 18.076 48.3072 18.076 48.3072C19.4 47.8583 22.4675 46.1748 22.4675 46.1748C22.0923 46.9828 11.7425 53.3577 11.1026 54.0087C10.3964 54.7045 9.00612 59.8448 9.3592 60.9447C10.3523 63.9525 11.235 64.0423 18.4732 68.6663C17.8112 68.0603 15.5823 65.1422 15.472 63.8852C15.2513 61.4834 17.9877 55.2881 17.9877 55.2881C17.9877 65.03 25.3363 73.5597 28.6023 75.6248C31.8904 77.6899 36.8777 77.7124 36.8777 77.7124C17.5684 64.2219 23.8357 52.0558 24.7404 50.9784ZM23.615 69.654C21.982 67.342 20.6138 60.5182 20.7903 59.1939C20.7903 59.1939 21.8275 66.5339 32.6407 76.2533C32.6407 76.2758 25.1818 71.8987 23.615 69.654Z" fill="#A8B9BD"/>
<path d="M31.8908 49.2053L31.2949 49.7664C36.6133 47.634 36.5912 47.7014 37.4518 47.8585C37.4518 47.8585 59.4975 39.441 60.3803 39.1492C61.263 38.8574 61.8147 38.5207 62.7636 39.5083L73.5327 35.3557L74.6802 32.5498L31.8908 49.2053Z" fill="#A8B9BD"/>
<path d="M38.7539 63.2126C39.9676 70.1037 46.2128 74.0768 46.2128 74.0768C44.5357 72.0117 42.0641 66.6245 42.0641 66.6245C41.0048 65.0757 38.7539 63.2126 38.7539 63.2126Z" fill="#A8B9BD"/>
<path d="M44.0944 57.5548C42.9028 62.8522 46.0585 69.9454 53.6277 72.5941C46.3012 67.2742 44.0944 57.5548 44.0944 57.5548Z" fill="#A8B9BD"/>
<path d="M63.9777 59.4179C64.1542 59.1261 63.6687 58.4527 62.9405 58.4527C62.2122 58.4527 55.3713 60.5403 55.3713 60.5403C55.283 61.0566 55.945 61.4606 56.4967 61.6402C57.0484 61.7973 63.426 60.3607 63.9777 59.4179Z" fill="#A8B9BD"/>
<path d="M94.4957 25.2544C94.6723 25.2544 94.8267 25.3217 94.9371 25.434C94.8047 25.0299 94.4516 24.7381 94.0544 24.7381C93.5248 24.7381 93.1055 25.232 93.1055 25.838C93.1055 26.4441 93.5248 26.9379 94.0544 26.9379C94.2751 26.9379 94.4737 26.8481 94.6281 26.7134C94.584 26.7359 94.5399 26.7359 94.4737 26.7359C94.0985 26.7359 93.7896 26.3992 93.7896 25.9951C93.8116 25.5911 94.1206 25.2544 94.4957 25.2544Z" fill="#A8B9BD"/>
<path d="M95.424 24.3346C96.5053 21.843 94.144 21.7083 92.5993 22.4491C91.9152 22.7858 84.1032 26.5119 84.1032 26.5119C82.9778 28.2852 83.7722 29.2953 83.7722 29.2953L91.849 26.1528C91.849 23.2123 95.2916 22.4042 95.424 24.3346Z" fill="#A8B9BD"/>
<path d="M36.1048 23.3465C36.1269 23.0098 36.171 22.3588 36.2813 22.2017C36.3475 22.0895 36.7227 22.1119 36.7889 22.1793C36.833 22.2242 36.7668 22.8078 36.7006 23.122C37.0537 23.0098 37.473 22.8751 37.9806 22.7404C37.9806 22.4711 37.9806 21.7303 38.0688 21.5956C38.1792 21.4161 38.6647 21.4161 38.7529 21.5283C38.8191 21.5956 38.8633 22.2466 38.8853 22.5384C39.3708 22.4486 39.9005 22.3588 40.4963 22.2915C40.4301 22.0446 40.2977 21.5283 40.3418 21.3487C40.3859 21.1467 41.048 21.1916 41.1583 21.2589C41.2466 21.3263 41.4011 21.9548 41.4673 22.2017C41.8424 22.1793 42.2176 22.1568 42.6148 22.1568C42.5265 21.9099 42.3058 21.3487 42.3941 21.1692C42.4603 21.0345 42.9899 21.0345 43.1003 21.1467C43.1885 21.2141 43.3651 21.865 43.4754 22.1793C43.6961 22.1793 43.9389 22.2017 44.1595 22.2242C44.1595 22.2242 43.6961 21.0794 44.7774 20.0019C43.6961 20.0244 43.2106 20.6753 42.5927 20.7876C42.1072 16.5676 45.7705 18.3633 47.0063 18.4307C47.249 18.4531 48.3745 17.1288 48.4627 16.6798C48.551 16.2309 46.9621 14.5249 46.5208 14.2556C46.5208 14.2556 47.0945 13.9189 48.6614 14.4127C48.6614 14.4127 47.3373 12.6843 47.1828 12.3925C47.1828 12.3925 47.0283 13.4924 45.6601 13.7393C45.8367 14.3454 43.9389 15.6697 42.1072 15.8269C42.1072 15.8269 42.5486 16.1411 44.1816 16.0289C44.1816 16.0289 42.2838 16.7472 41.5114 16.5003C40.739 16.2533 39.8122 15.6922 39.0177 15.6697C38.3778 15.6248 37.1641 15.8044 36.5462 16.7247C36.2813 17.1063 36.7227 17.8246 36.5903 18.6776C36.5903 18.6776 36.3255 17.5552 35.84 17.5552C35.3986 17.5552 33.6553 17.5777 34.2732 15.8942C34.2732 15.8942 33.6773 16.0962 33.3463 16.4554C34.7807 13.9413 36.5682 16.186 37.4509 15.1983C37.2523 14.1433 37.8261 13.8515 38.0909 13.6495C37.7599 14.1658 37.8261 15.2208 38.7309 14.9739C38.7309 14.9739 41.6659 11.0682 44.5347 12.9088C45.8146 13.7393 46.7194 11.1579 45.0202 10.6192C43.8064 10.2376 41.5335 11.0457 40.408 11.6967C40.408 11.6967 40.9156 10.9784 41.5997 10.5294C41.5997 10.5294 37.4509 11.0457 34.207 13.7618C34.207 13.7618 35.0014 13.7618 35.531 14.1882C33.9422 13.9189 32.3312 15.9391 32.4195 16.2758C32.596 16.9043 34.3835 17.2185 34.3394 18.094C34.3173 18.3409 34.2952 19.149 33.4346 20.6529C33.4346 20.6529 34.3394 20.9896 34.8911 21.6854C34.8911 21.6854 35.4869 20.4733 35.178 20.1366C35.8841 20.5182 35.9945 20.6304 35.6414 23.6158C35.6414 23.5261 35.7959 23.4587 36.1048 23.3465ZM36.9434 16.8818C37.2082 16.186 38.2895 16.3207 38.5323 17.0614C38.8633 18.0715 40.077 19.1714 39.5032 19.6652C39.2826 19.8673 38.6426 19.351 37.7157 20.0244C37.4509 20.2264 36.9654 19.6203 37.0096 19.1714C37.2523 17.5552 36.8772 17.0839 36.9434 16.8818Z" fill="#A8B9BD"/>
<path d="M46.7207 26.8259C48.0006 26.1077 48.0447 24.7609 48.0447 24.7609C46.3235 25.8383 45.2421 23.0325 45.2421 23.0325C44.9773 23.01 44.7125 23.01 44.4477 23.01C44.6022 23.3467 44.8449 23.9752 44.8449 24.2895C44.8449 24.716 44.5139 24.7609 44.3153 24.5364C44.1388 24.3119 43.7857 23.3916 43.6312 23.01C43.234 23.01 42.8809 23.01 42.5278 23.0325C42.6823 23.3916 42.9692 24.1548 42.9471 24.3344C42.903 24.5813 42.5499 24.6037 42.3292 24.469C42.1527 24.3568 41.9099 23.4589 41.7996 23.0774C41.1596 23.1222 40.5638 23.1671 40.0341 23.2345C40.2769 23.661 40.7403 24.5139 40.6741 24.6486C40.5858 24.8282 40.1886 24.8057 40.0121 24.7384C39.8797 24.6711 39.3059 23.7507 39.0852 23.3916C38.5556 23.4814 38.0922 23.5712 37.695 23.6834C37.8274 24.1099 38.2687 24.9853 38.2246 25.0976C38.1804 25.2098 37.7612 25.2771 37.5846 25.1424C37.4522 25.0302 37.0329 24.2221 36.8785 23.9079C36.2164 24.1323 35.9075 24.2895 35.9075 24.2895C36.0399 24.3568 36.724 25.2771 36.746 25.4343C36.7902 25.5914 36.6578 25.771 36.5033 25.7934C36.3488 25.8158 35.9075 25.5914 35.9075 25.5914C35.9957 26.4219 35.753 27.3871 35.8633 27.6565C36.084 28.1952 37.8274 28.8686 37.8274 28.8686C38.3129 28.6441 42.1526 27.7238 42.1526 27.7238C39.1735 27.4769 37.1653 28.2176 37.1653 28.2176C40.0562 25.9056 46.7207 26.8259 46.7207 26.8259Z" fill="#A8B9BD"/>
<path d="M32.419 47.5669C32.8824 47.3648 45.7258 42.1123 46.3879 41.7532C46.9175 41.4614 46.7851 40.8777 46.101 41.0798C38.3993 44.2223 32.3307 46.7363 32.2645 46.7812C31.6907 47.073 31.9555 47.7689 32.419 47.5669Z" fill="#A8B9BD"/>
<path d="M45.3084 20.4956C44.6905 21.0567 44.9773 22.4035 45.6394 22.3137C45.6394 22.3137 45.0877 21.6179 45.838 20.5629C45.9704 20.3384 45.5511 20.2711 45.3084 20.4956Z" fill="#A8B9BD"/>
<path d="M46.3887 20.5854C46.3887 20.5854 47.2273 22.1342 47.3597 23.3463C47.4921 24.536 48.0879 23.5708 48.0438 23.0545C47.9996 22.5383 47.0286 20.9445 46.3887 20.5854Z" fill="#A8B9BD"/>
<path d="M46.7863 9.45209C43.5203 6.93806 44.4913 4.55871 40.6515 3.68329C38.3565 3.16702 26.3295 8.46443 26.3516 10.552C26.3737 12.6395 33.6781 13.3578 33.6781 13.3578C33.4353 11.6743 42.3066 7.97061 46.7863 9.45209Z" fill="#A8B9BD"/>
<path d="M50.2713 53.8742C50.6464 53.6721 50.4478 52.2356 49.7858 52.258C49.4327 52.2805 49.0355 52.5498 49.0575 52.9987C49.0575 53.4252 49.8961 54.0762 50.2713 53.8742Z" fill="#FF6700"/>
<path d="M60.3565 40.1137C59.6945 40.2932 47.6234 45.658 46.8069 45.9722C45.9904 46.2865 46.2331 46.8701 47.0275 46.5783C47.513 46.3987 59.54 41.4829 60.511 41.1462C61.504 40.832 61.0185 39.9341 60.3565 40.1137Z" fill="#FF6700"/>
<path d="M46.1683 49.9238C46.4608 49.9238 46.6979 49.6424 46.6979 49.2953C46.6979 48.9482 46.4608 48.6668 46.1683 48.6668C45.8758 48.6668 45.6387 48.9482 45.6387 49.2953C45.6387 49.6424 45.8758 49.9238 46.1683 49.9238Z" fill="#FF6700"/>
<path d="M50.0287 51.091C50.0287 50.4849 49.5874 50.238 49.2564 50.238C48.7047 50.238 48.2854 51.2032 48.5502 51.6522C48.815 52.1011 50.0287 51.697 50.0287 51.091Z" fill="#FF6700"/>
<path d="M42.4607 54.9957C42.0856 54.4121 40.0112 53.604 39.2168 52.1899C38.9961 51.8083 38.3782 51.8981 38.5106 52.8633C38.7533 54.7039 41.0705 56.0731 42.0414 56.1629C43.0124 56.2752 42.8359 55.5793 42.4607 54.9957Z" fill="#FF6700"/>
<path d="M42.0193 58.4749C42.0193 58.4749 42.262 57.5546 41.1145 57.3077C39.4153 56.971 38.1133 55.3548 37.8926 55.1303C37.6719 54.9283 37.4512 55.6915 37.7381 56.1629C38.2015 56.9485 39.6139 58.7891 42.0193 58.4749Z" fill="#FF6700"/>
<path d="M41.0252 60.5851C40.4735 59.0138 38.8405 60.1361 37.4281 58.9689C36.7661 58.4302 36.413 58.0037 36.2144 58.0037C35.5744 59.7545 38.5757 61.6176 41.0252 60.5851Z" fill="#FF6700"/>
<path d="M37.1192 68.0605C38.1122 66.9606 36.6337 65.771 37.1854 62.1795C35.9717 63.8854 36.9868 67.028 36.5454 67.4994C36.0379 68.0381 32.8601 67.4769 32.4629 67.7014C32.485 67.7014 36.1703 69.0931 37.1192 68.0605Z" fill="#FF6700"/>
<path d="M64.3737 40.944C64.9033 40.7644 71.8768 37.8912 72.1636 37.7341C72.5829 37.5321 72.4947 37.0383 71.9209 37.2403C71.1265 37.5321 64.5944 40.2257 64.1751 40.4277C63.7117 40.6746 63.8661 41.1236 64.3737 40.944Z" fill="#FF6700"/>
<path d="M70.4189 56.6799C70.3748 55.0862 67.9032 54.9964 65.3654 52.6395C64.924 54.4353 68.9845 55.6698 70.4189 56.6799Z" fill="#FF6700"/>
<path d="M37.3182 74.8385C25.0265 66.7802 24.6292 58.7218 24.6292 58.7218C24.3644 66.8699 36.5679 76.3424 37.6934 75.6242C38.8188 74.9059 36.4355 69.2044 36.4355 69.2044C37.4727 72.7734 37.3182 74.8385 37.3182 74.8385Z" fill="#FF6700"/>
<path d="M70.971 59.0367C71.302 57.1736 67.3298 56.5226 66.1382 55.4901C65.763 57.9368 69.7352 58.2959 70.971 59.0367Z" fill="#FF6700"/>
<path d="M92.0242 27.2745C92.2007 27.8806 92.6641 28.352 93.2158 28.6213L86.1983 31.3374L84.8301 30.9558C85.3597 31.3149 86.3969 31.8985 86.5293 31.8985C86.772 31.8985 92.4876 29.5641 94.253 28.8458C96.0405 28.6887 97.7839 25.5012 96.6363 23.1668C97.0115 26.1971 94.4296 29.5641 92.0242 27.2745Z" fill="#FF6700"/>
<path d="M78.21 39.8449C79.3576 41.6182 80.152 44.6709 80.152 44.6709C78.6735 43.4813 77.3715 43.5486 77.3715 43.5486C81.0347 44.9852 81.8954 49.3623 82.0498 50.5071C80.0196 48.9583 77.6142 47.7686 75.584 47.7686C78.6735 48.9134 85.0511 53.6496 85.0511 56.2534C85.0511 58.4757 83.1091 62.1569 82.5133 63.2119C82.6677 60.6979 82.0719 58.1165 79.9313 56.2085C83.5504 60.3163 79.2914 72.1906 79.2914 72.1906C80.0196 71.2927 81.9174 67.8808 82.4029 64.1996C84.5214 61.8651 86.1986 58.4083 86.1986 56.1637C86.1986 54.974 85.0952 53.2905 83.4842 51.7641C82.0278 41.8427 78.21 39.8449 78.21 39.8449Z" fill="#FF6700"/>
<path d="M82.6684 31.5626L78.6741 33.1338C77.7032 37.0845 74.393 40.9004 74.5916 35.7377C73.7972 37.1069 74.4592 39.3291 76.0039 39.3291C77.4825 39.3291 79.2038 34.9969 79.2479 33.5154C79.2479 33.5154 82.205 32.2135 82.7567 31.9442C83.2863 31.6973 83.0215 31.4279 82.6684 31.5626Z" fill="#FF6700"/>
<path d="M69.8011 54.4801C69.5142 53.672 67.8371 53.2679 65.851 50.5968C65.6303 50.305 65.1227 51.158 65.6303 51.7416C67.3516 53.6495 69.8011 54.4801 69.8011 54.4801Z" fill="#FF6700"/>
<path d="M61.3275 25.9051C61.3275 28.1946 57.8849 32.3024 57.8849 32.3024C57.8849 32.3024 60.0696 28.3518 60.0917 24.7154C60.0917 24.7154 58.547 29.0701 48.1972 38.0712C48.1972 38.0712 54.4203 34.2552 57.7525 30.0577C57.7525 30.0577 56.1857 34.3001 55.303 35.9612C55.303 35.9612 61.8792 30.0577 62.2543 26.7805C62.6295 23.5257 56.0312 12.5493 51.1984 8.50889C50.8012 8.19464 51.397 8.50889 51.397 8.50889C51.397 8.50889 53.4493 8.57623 56.1416 11.5841C55.5899 10.5066 54.3541 8.4191 52.9638 8.01506C51.0881 7.47634 48.462 6.01731 47.5352 5.92752C50.5805 7.04986 61.3275 22.0218 61.3275 25.9051Z" fill="#FF6700"/>
<path d="M39.4596 29.7656C38.9962 29.384 38.7314 29.7656 38.93 30.0799C39.9672 31.9205 41.865 32.1674 42.2622 32.2123C42.6815 32.2348 43.0346 31.9878 42.3946 31.696C41.7326 31.4267 40.0555 30.2595 39.4596 29.7656Z" fill="#FF6700"/>
<path d="M61.9242 19.3063C62.7628 19.441 65.102 17.0616 64.9255 12.5723C64.6386 15.5801 63.0056 15.9168 60.6443 14.4802C60.6443 14.4802 61.858 16.2984 63.2042 16.1188C63.2042 16.1188 62.8511 17.2636 61.8801 17.1065C60.9533 16.9718 59.5189 14.2109 57.1797 12.8416C60.0485 16.5229 61.1077 19.1716 61.9242 19.3063Z" fill="#FF6700"/>
<path d="M69.1401 29.6318C68.3236 29.2726 66.7347 29.1828 66.7347 29.1828C66.7127 27.9258 63.5128 26.1525 63.5128 26.1525C63.9542 26.9382 64.7045 27.5442 64.8369 28.285C65.0796 29.6542 59.6289 33.964 59.6289 33.964C62.277 32.5498 65.8962 30.9786 69.1401 29.6318Z" fill="#FF6700"/>
<path d="M41.688 14.9957C41.944 14.9957 42.1515 14.7846 42.1515 14.5243C42.1515 14.264 41.944 14.0529 41.688 14.0529C41.4321 14.0529 41.2246 14.264 41.2246 14.5243C41.2246 14.7846 41.4321 14.9957 41.688 14.9957Z" fill="#FF6700"/>
<path d="M44.0932 3.66071C46.2559 8.50919 48.8819 9.60908 48.8819 9.8111C48.8819 9.8111 49.1909 9.38462 48.6171 8.91324C45.1083 5.95027 45.4173 0.989554 41.1582 2.31391C41.1582 2.31391 43.4312 2.20167 44.0932 3.66071Z" fill="#FF6700"/>
<path d="M50.3375 25.9052C51.816 22.7627 48.0866 20.3609 48.0866 20.3609C48.0866 20.3609 50.7568 23.885 49.7196 25.7481C48.2631 28.3743 44.7985 27.1622 43.4082 27.6785C44.6881 27.7458 48.8369 29.0702 50.3375 25.9052Z" fill="#FF6700"/>
<path d="M35.5746 16.4771C35.7452 16.4771 35.8835 16.3364 35.8835 16.1629C35.8835 15.9893 35.7452 15.8486 35.5746 15.8486C35.4039 15.8486 35.2656 15.9893 35.2656 16.1629C35.2656 16.3364 35.4039 16.4771 35.5746 16.4771Z" fill="#FF6700"/>
<path d="M47.116 10.4398C48.8152 11.4274 48.3297 12.7293 48.3297 12.7293C49.8082 14.2108 49.1683 14.772 48.9034 15.4005C51.1102 17.8023 48.8814 19.2613 48.2855 19.2613C46.8511 19.2613 44.0044 17.7574 43.3203 19.8674C44.9092 18.3859 46.8732 19.9796 48.3076 19.9796C48.8593 19.9796 50.5806 19.1715 50.5806 17.8247C50.5806 16.4779 49.6317 15.6698 49.6317 15.6698C50.8013 13.8965 49.08 12.6395 49.08 12.6395C49.3227 10.8438 47.116 10.4398 47.116 10.4398Z" fill="#FF6700"/>
<path d="M35.1779 20.0697C35.1779 20.0697 34.4276 19.7779 33.7876 19.8901C33.1256 20.0023 33.1035 20.7206 33.1035 20.7206L35.0234 22.045C35.0234 22.045 35.8179 20.5186 35.1779 20.0697Z" fill="#4F5B5F"/>
<path d="M63.3138 43.1237L73.465 39.6893C73.465 39.6893 73.0236 39.1057 72.825 38.6119L62.6738 42.338C62.6738 42.338 63.1373 42.8992 63.3138 43.1237Z" fill="#4F5B5F"/>
<path d="M71.0605 45.9743C72.3405 46.715 77.5705 46.0192 79.4022 46.5579C79.4022 46.5579 76.6216 44.6724 74.6576 44.6724C73.1791 44.6724 71.0605 45.9743 71.0605 45.9743Z" fill="#4F5B5F"/>
<path d="M63.7344 44.492H65.1026C71.4802 42.786 76.2027 42.8758 76.2027 42.8758C75.3862 42.4942 72.9808 41.4392 72.9808 41.4392L63.7344 44.492Z" fill="#4F5B5F"/>
<path d="M29.1093 65.9955C29.6168 66.2424 35.6193 66.6913 35.6193 66.6913C36.0607 66.0628 35.531 64.9629 34.2732 64.7385C33.0153 64.514 28.2266 65.1201 28.2266 65.1201C28.2266 65.1201 28.6017 65.7486 29.1093 65.9955Z" fill="#4F5B5F"/>
<path d="M45.3942 18.499C47.7775 18.8133 48.0423 18.8357 48.3954 18.095C48.7264 17.3542 49.1898 16.0748 48.2851 15.2218C48.2851 15.2218 49.1457 14.8402 48.9912 14.3688C48.8147 13.8974 46.3652 10.0366 46.3652 10.0366L47.5568 9.65503C47.5568 9.65503 43.0109 3.32506 41.4441 3.1006C39.8773 2.85368 32.3521 4.62697 30.6309 7.16344C30.6309 7.16344 37.5381 4.51474 38.9725 6.96142C39.6566 8.1511 36.5671 10.71 35.0223 11.8324L35.7726 12.5731C37.3174 12.1242 37.9794 13.5159 37.2512 14.3913C36.9643 14.7504 35.574 14.6831 34.6913 15.1769C34.6913 15.1769 36.1037 15.7381 36.876 15.6258C37.6484 15.5136 38.3766 15.6258 38.3766 15.6258C38.3766 15.6258 38.4428 16.0074 38.818 16.3217C40.3627 17.5114 40.1421 19.0153 40.8703 20.0703C40.8703 20.0703 40.5834 18.3868 41.9296 17.8032C41.9296 17.8032 40.9365 19.2173 42.1502 22.1354L40.8924 23.0781C40.8924 23.0781 41.9075 25.5024 41.422 26.2207C41.422 26.2207 37.9794 26.9614 36.1699 27.9042L37.5822 29.2061L42.5916 27.8144L42.9005 27.2532C42.9005 27.2532 46.7403 27.4777 47.4244 27.0512C48.1085 26.6247 48.9692 23.8413 48.3071 22.1129C47.623 20.3845 46.1224 18.7459 43.8053 20.1601C43.8053 20.1601 43.2978 20.6315 43.717 22.1578L44.6439 22.9659C44.6439 22.9659 46.0342 24.8739 45.4383 25.1208C45.1073 25.2555 44.5777 24.2678 44.5777 24.2678L43.717 22.4945L43.1654 22.2476C43.1654 22.2476 42.724 21.013 42.9447 20.407C43.1212 19.7785 43.0109 18.1848 45.3942 18.499ZM46.7845 15.3116C47.0493 15.4014 46.9831 16.3666 46.6962 16.6135C46.4093 16.8604 43.8495 16.7931 43.8495 16.7931C44.9528 16.2768 46.1666 16.2992 46.7845 15.3116ZM43.4081 15.4687L45.5487 14.0321C46.4976 14.6157 45.6149 15.8952 43.4081 15.4687ZM41.6427 15.1994C41.0468 15.1994 40.5614 14.9075 40.5614 14.5708C40.5614 14.2117 41.0468 13.9423 41.6427 13.9423C42.2385 13.9423 42.724 14.2341 42.724 14.5708C42.7019 14.93 42.2385 15.1994 41.6427 15.1994ZM43.0109 22.9884C43.0109 22.9884 44.2908 25.5024 43.9157 25.7493C43.5405 25.9962 42.7681 24.4923 42.7681 24.4923L42.1282 22.7414L43.0109 22.9884ZM38.5091 13.875C39.3035 12.3037 40.3627 11.6303 40.3627 11.6303C41.8854 10.3509 44.1805 10.2386 44.6439 10.4407C45.0852 10.6427 45.1956 11.9221 43.695 11.7201C40.8041 11.2936 38.5091 13.875 38.5091 13.875Z" fill="#4F5B5F"/>
<path d="M38.4219 23.4598C38.4219 23.4598 39.1722 25.1658 40.1211 24.7168L39.128 22.9884L38.4219 23.4598Z" fill="#4F5B5F"/>
<path d="M38.511 34.6376C38.511 34.6376 32.8175 33.6948 30.4121 27.7465C30.4121 27.7465 30.8314 23.5938 32.2658 20.9451L33.5016 21.6859L34.8036 25.008C34.8036 25.008 34.6933 30.6421 41.9536 33.2908C41.9536 33.3132 40.6736 35.3559 38.511 34.6376Z" fill="#4F5B5F"/>
<path d="M50.2934 10.7779C50.2934 10.7779 52.8974 19.9361 54.0229 20.7891C54.0229 20.7891 55.2807 23.1909 55.2145 24.403C55.1263 25.6152 43.5186 37.3099 40.2084 37.7364C36.8983 38.1853 32.7275 35.6264 31.602 35.0428C31.602 35.0428 31.9772 35.7835 32.5288 36.614C33.0805 37.4446 34.3163 39.0607 33.9853 39.1954C33.6543 39.3301 30.2779 36.5467 30.0131 34.9979C30.0131 34.9979 28.8435 36.008 33.1247 41.7768C33.1247 41.7768 28.2918 40.5646 26.725 37.8262C26.725 37.8262 26.8133 39.2627 27.8284 40.7667C28.8656 42.2706 29.2628 44.3132 29.2628 44.3132C29.2628 44.3132 25.7099 42.1808 24.9375 40.2728C24.9375 40.2728 25.9968 44.8071 24.5624 46.6926V48.7352C24.5624 48.7352 23.9886 51.586 23.459 53.8755C23.459 53.8755 24.5844 50.6881 28.3139 50.3514C28.3139 50.3514 27.5415 48.0169 28.7994 47.568C30.0573 47.1191 43.1435 41.6196 45.0633 39.8239C46.9612 38.0506 59.2971 26.0416 59.606 24.7397C59.915 23.4827 54.3539 12.5512 50.2934 10.7779ZM42.0842 39.3974L40.1422 38.9934L43.7172 36.9058C44.9089 36.21 46.4978 35.5815 46.4978 35.5815C45.9902 36.2998 42.0842 39.3974 42.0842 39.3974Z" fill="#4F5B5F"/>
<path d="M31.3814 49.1384L30.6973 50.4403L38.09 48.1956C38.09 48.1956 60.577 39.5312 61.0846 39.5312C61.5921 39.5312 62.2542 40.0924 62.2542 40.0924C62.2542 40.0924 72.7364 36.1418 72.6922 35.6929L73.4425 33.8073L53.5815 40.6311L31.3814 49.1384Z" fill="#4F5B5F"/>
<path d="M47.5572 40.9909L45.6152 43.3927L74.0165 32.3041L74.6564 30.6879L47.5572 40.9909Z" fill="#4F5B5F"/>
<path d="M9.62327 58.0945C10.7708 59.576 13.11 60.0698 13.4189 60.5187C13.7279 60.9901 14.1472 63.796 16.0229 65.3672L17.987 56.6579C17.987 56.6579 19.8627 62.3145 21.9371 64.5367C21.9371 64.5367 20.8778 60.5861 20.8116 59.1944C20.7454 57.8027 21.2971 54.2561 21.9371 52.7073C21.9371 52.7073 21.3854 63.8633 28.0057 69.7443C29.3298 71.2932 37.6714 77.9149 37.6714 77.9149C37.6714 77.9149 30.2787 77.9374 27.2775 75.6478C24.2763 73.3582 18.9579 69.9239 18.9579 69.9239C18.9579 69.9239 8.3654 65.7039 8.45367 62.6287C8.56401 59.5311 9.62327 58.0945 9.62327 58.0945Z" fill="#4F5B5F"/>
<path d="M27.476 51.5636C29.0428 52.0126 31.4261 51.6534 32.9929 51.5187C32.9929 51.5187 30.742 52.9553 28.3146 53.494C29.6607 53.9654 34.5598 52.9329 36.7886 53.5165C36.7886 53.5165 36.7003 54.0777 36.1707 54.145C35.6411 54.2123 26.4168 56.0305 26.4168 56.0305C27.6967 56.5917 32.7723 56.5243 34.5818 57.0406C33.677 57.9385 27.3215 58.0732 26.5712 58.7017C26.5712 58.7017 34.0963 59.3526 34.8687 59.6893C34.8687 59.6893 33.8095 65.1888 29.9035 64.0215C29.9035 64.0215 32.1764 62.4952 31.6468 61.1708C31.1172 59.8465 26.4388 60.8566 26.4388 60.8566C26.4388 60.8566 21.5398 53.0227 27.476 51.5636Z" fill="#4F5B5F"/>
<path d="M40.2541 64.5814C40.2541 64.5814 41.203 69.8115 46.2124 74.0763C46.2124 74.0763 39.4376 71.6296 38.0252 62.6285C37.8266 60.9226 40.2541 64.5814 40.2541 64.5814Z" fill="#4F5B5F"/>
<path d="M44.8661 60.0706C44.8661 60.0706 44.5571 67.0291 52.7222 71.9C54.7966 73.1121 54.0022 73.0672 54.0022 73.0672C54.0022 73.0672 41.2249 69.2289 43.873 56.3893C43.851 56.3893 45.0647 59.3299 44.8661 60.0706Z" fill="#4F5B5F"/>
<path d="M47.9547 58.7016C47.9547 58.7016 52.3241 65.054 54.2881 66.4232C56.2743 67.7925 55.7226 68.9822 55.7226 68.9822C55.7226 68.9822 45.1521 62.1584 44.4238 54.9979C44.4238 54.9979 47.6457 58.2526 47.9547 58.7016Z" fill="#4F5B5F"/>
<path d="M62.9836 48.2404C61.7919 48.5995 57.2239 45.9508 58.8569 44.4918C58.8569 44.4918 57.0474 43.4143 57.2901 46.8487C57.2901 46.8487 56.7163 47.6792 56.3412 47.9037C55.4143 48.4649 54.7082 48.4649 54.4434 48.5995C54.4434 48.5995 54.5978 49.4301 56.1426 49.3627C57.6873 49.2954 63.7339 49.5648 63.7339 49.5648C63.7339 49.5648 65.3448 49.4301 66.1172 50.2606C66.8896 51.0911 68.7212 52.8644 69.5156 52.9767C70.3101 53.0889 68.5888 48.1731 65.8524 48.2853C65.8524 48.2853 65.1462 47.9261 64.6607 47.9486C64.1973 47.9486 62.9836 48.2404 62.9836 48.2404Z" fill="#4F5B5F"/>
<path d="M63.1822 50.5305C63.1822 50.5305 62.4539 51.0917 61.8802 51.2039C61.3064 51.3162 56.8266 51.406 57.0253 49.9245C57.0253 49.9245 55.8115 50.0592 56.2529 51.2488C56.6942 52.4385 56.959 52.4834 56.959 52.4834L63.0277 52.3936C63.0277 52.4161 64.6386 50.8897 63.1822 50.5305Z" fill="#4F5B5F"/>
<path d="M63.6443 53.0439C62.7616 54.2336 56.4943 54.6825 56.6046 53.4031C56.6046 53.4031 55.5012 54.1887 57.5977 55.5804C57.5977 55.5804 63.3794 55.4008 63.7105 54.7499C64.0415 54.0989 64.3284 53.1113 63.6443 53.0439Z" fill="#4F5B5F"/>
<path d="M64.5942 55.5357C64.0866 57.2641 60.9089 56.052 57.4663 56.5458C57.4663 56.5458 56.385 57.4885 58.4373 57.6905C60.4896 57.8926 64.9694 57.9823 65.19 57.5334C65.4107 57.0845 65.3886 54.997 64.5942 55.5357Z" fill="#4F5B5F"/>
<path d="M63.7334 58.7678C63.7334 58.7678 57.7089 60.1595 55.5684 61.0798C55.5684 61.0798 55.8552 62.045 56.7159 62.0001C57.5765 61.9552 61.4825 61.5736 61.637 61.7981C61.637 61.7981 63.9982 68.1281 66.3154 70.2381C68.6325 72.348 74.0832 74.7498 74.0832 74.7498C74.0832 74.7498 65.7416 59.2392 63.7334 58.7678Z" fill="#4F5B5F"/>
<path d="M73.1133 53.6275C73.1133 53.6275 77.9461 66.6466 74.4594 79.0596C74.4594 79.0596 74.658 79.8003 75.2097 79.5983C75.7614 79.3963 80.506 64.9855 80.4398 60.384C80.3736 55.7824 75.9379 53.6051 75.9379 53.6051C75.9379 53.6051 77.571 57.2639 77.2179 62.5613C77.2179 62.5613 76.8427 60.6309 76.5559 59.733C75.6952 56.9047 73.8857 54.1438 73.8857 54.1438L73.1133 53.6275Z" fill="#4F5B5F"/>
<path d="M44.5353 49.2956C44.5353 49.2956 41.6665 50.4853 39.0625 50.1486C39.0625 50.1486 39.4597 52.281 45.1311 50.575L44.5353 49.2956Z" fill="#4F5B5F"/>
<path d="M76.0474 29.16L48.1096 40.4956L47.9551 39.9569L76.5329 28.2173C76.5329 28.2173 76.1577 29.1151 76.0474 29.16Z" fill="#FFFFFE"/>
<path d="M82.2273 29.4745C82.2273 29.4745 78.3434 30.6417 78.0565 30.7989C77.7697 30.956 77.6814 31.4498 77.8359 31.809C77.8359 31.809 76.9311 31.5396 77.7476 30.2377L82.2715 28.3971C82.2936 28.3746 82.2494 28.9358 82.2273 29.4745Z" fill="#FFFFFE"/>
<path d="M95.0697 22.2021L83.418 27.6342L84.1683 25.9731C84.1683 25.9731 93.2602 20.4737 95.0697 22.2021Z" fill="#FFFFFE"/>
<path d="M56.8488 45.906C56.8488 45.906 56.8268 47.2752 54.5538 48.7343C54.5538 48.7343 53.8917 48.4874 54.311 47.814C54.7303 47.1406 56.3413 44.7388 56.8488 45.906Z" fill="#FFFFFE"/>
<path d="M55.8125 51.7864C55.8125 51.7864 54.7532 52.7067 53.6719 53.1557L55.5035 50.9559L55.8125 51.7864Z" fill="#FFFFFE"/>
<path d="M55.9007 54.727C55.9007 54.727 55.7242 55.0637 54.025 55.3106C54.025 55.3106 53.6277 54.9739 53.9146 54.6148C54.2015 54.2556 55.8787 53.7618 55.8787 53.7618L55.9007 54.727Z" fill="#FFFFFE"/>
<path d="M56.6287 57.2643C56.6287 57.2643 55.7018 58.0051 54.6205 58.0724C54.6205 58.0724 54.2674 57.4664 54.4219 57.197C54.5543 56.9276 56.8714 56.2094 56.8714 56.2094L56.6287 57.2643Z" fill="#FFFFFE"/>
<path d="M45.5946 23.5264L45.4622 22.7408L39.4377 22.5163C39.4377 22.5163 39.4818 22.0225 39.3494 21.394C39.2391 20.9002 38.555 20.9899 38.5329 21.4164C38.5329 21.4164 38.3563 22.4939 38.3122 22.7408C38.2681 22.9877 36.944 23.0101 36.944 23.0101C37.8267 20.743 35.5537 20.2716 35.5537 20.2716L35.0682 22.1572C35.0682 22.1572 32.9939 21.6409 33.8104 20.7206C34.6269 19.8003 35.1565 17.9596 35.1565 17.9596C35.973 18.2739 36.2599 17.8474 36.2599 17.8474C36.6792 18.0494 36.4364 18.229 36.4364 18.229C35.9951 19.5085 36.5909 20.4737 37.1647 20.6981C37.7384 20.9226 38.246 20.0023 39.3053 20.0472C39.7907 20.0696 39.6363 19.4636 39.6363 19.4636C39.6363 19.4636 37.5619 16.77 37.5619 16.3884C37.5619 16.0068 37.4516 15.8497 37.4516 15.8497C36.9219 15.8048 35.951 16.6577 35.3551 16.6802C34.7372 16.7026 34.9579 15.4232 34.3179 15.6252C33.6559 15.8272 33.3028 16.3659 33.3028 16.3659C33.6338 15.3109 34.8696 14.0988 34.8696 14.0988C34.1414 14.0764 33.2587 13.2907 33.2587 13.2907C34.2959 9.83394 29.4189 9.67681 29.4189 9.67681C31.9346 8.80139 33.8104 10.1257 33.8104 10.1257C31.6698 7.29747 28.3817 8.39735 28.3817 8.39735C20.7904 11.697 32.1994 14.4804 32.1994 14.4804C31.5374 16.2312 32.7953 18.5208 32.7953 18.5208C29.0217 25.2997 28.8231 34.7722 28.8231 34.7722L25.5791 37.4658C23.4827 42.5163 11.5661 52.0337 10.5068 53.2683C9.44755 54.4804 9.80063 57.2638 9.80063 57.2638C11.3012 54.862 15.5824 52.2357 15.5824 52.2357C15.5162 52.5275 13.1549 55.1313 13.1549 55.1313C14.1039 54.9069 15.6707 54.8844 15.6707 54.8844C13.5301 57.7351 13.9714 59.3064 13.9714 59.3064C15.8472 55.8047 19.5325 52.9765 19.5325 52.9765L19.1794 56.7475C20.9669 52.5275 24.9833 49.7441 25.9322 49.6543C26.8811 49.587 27.9403 50.1931 27.9403 50.1931C28.6465 49.4972 27.0576 48.0831 26.0425 47.8811C25.0274 47.679 21.2538 49.991 21.2538 49.991L18.4291 49.9013L19.8856 48.1953L19.4222 47.7913C22.8206 44.8283 24.5419 41.9327 26.6604 40.0247C26.9473 40.743 27.7638 42.651 28.9555 43.5489L27.8962 40.7879C27.8962 40.7879 27.499 40.1145 27.2562 39.5084C27.6976 39.1717 28.161 38.8575 28.6907 38.6106C29.3527 39.1044 30.8974 39.7554 30.8974 39.7554L31.2726 37.6903C30.3899 34.9518 30.8312 33.9641 31.5153 32.9316L32.4863 32.3255C29.8161 28.33 32.5304 22.8755 32.5304 22.8755C32.5304 22.8755 35.0462 23.3693 35.0462 25.6364C35.0462 27.9035 36.2378 27.926 36.2378 27.926C36.9219 27.7464 38.8418 27.0954 38.6653 26.1527C38.5108 25.2099 37.0764 25.6588 37.0764 25.6588C37.1867 25.1201 36.8337 24.2672 36.8337 24.2672L37.1647 24.1325L38.0253 25.1426C38.0253 25.1426 38.3343 25.0977 38.4667 24.7834C38.5991 24.4692 38.3343 23.8182 38.3343 23.8182C42.3506 22.9877 45.5946 23.5264 45.5946 23.5264Z" fill="#FFFFFE"/>
<path d="M33.9648 49.8785C34.2297 50.0805 36.2378 49.2276 37.7605 49.9234L39.1066 49.6316C39.1066 49.6316 41.2251 50.0356 44.6236 48.5542C45.2635 48.3073 44.9325 47.9257 44.9325 47.9257C44.9325 47.9257 39.2832 49.0704 38.0032 48.644C36.7454 48.2399 33.9648 49.8785 33.9648 49.8785Z" fill="#FFFFFE"/>
<path d="M33.0156 52.3703C34.0087 52.4376 36.1051 51.5847 37.4954 52.6397C37.4954 52.6397 38.1574 52.0111 37.8043 51.4051C37.4292 50.799 34.45 51.5622 33.0156 52.3703Z" fill="#FFFFFE"/>
<path d="M31.957 55.3787C31.957 55.3787 35.3113 55.042 36.2382 56.1194C36.2382 56.1194 36.9223 55.5583 36.6133 55.1094C36.2823 54.6604 34.5831 54.2564 31.957 55.3787Z" fill="#FFFFFE"/>
<path d="M35.2231 59.1943C33.9653 58.4087 32.575 58.7229 30.9199 58.4985C30.9199 58.4985 33.9211 57.4884 34.9804 58.0046C36.0396 58.5209 35.2231 59.1943 35.2231 59.1943Z" fill="#FFFFFE"/>
<path d="M30.3458 61.1468C30.6988 61.5509 29.6396 62.6059 29.0879 64.0649C28.6024 64.4914 27.6094 64.4016 27.6094 64.4016C27.6094 64.4016 28.5583 61.1244 30.3458 61.1468Z" fill="#FFFFFE"/>
<path d="M93.591 20.0698C92.7525 20.0923 83.7268 24.3571 83.5723 24.5591C83.4178 24.7612 82.0717 26.5569 82.0717 26.5569L79.8208 27.365C79.8208 27.365 77.4154 26.5793 77.1064 26.5569C76.9519 26.5569 74.5245 27.4323 71.3247 28.7118C71.0157 28.3751 70.133 27.7241 68.5221 28.0384C68.5221 28.0384 66.6904 24.9632 63.0051 23.998C63.0051 23.998 62.7403 22.4716 62.2548 21.3268C62.2548 21.3268 67.0435 20.7208 66.5139 9.58721C65.1457 11.6523 62.0783 12.7297 59.8053 11.6074C56.7158 10.081 54.4207 6.46712 49.941 5.70393C49.941 5.70393 48.639 4.2449 46.6087 3.75107C46.6087 3.75107 46.2998 1.05747 45.064 0.384065C41.5773 -1.5239 24.6513 4.13266 24.6513 10.6646C24.6513 14.6826 31.2054 14.7499 31.2054 14.7499C30.1683 15.8049 29.749 17.1966 31.8895 18.2741C30.5434 20.4739 28.0056 27.6343 28.2263 29.1832C28.2484 29.3627 28.3587 29.6097 28.5352 29.9015C28.1821 30.5075 27.4098 32.1237 27.5201 34.4806C26.0636 35.9845 24.3865 36.3661 24.1217 36.9048C19.5978 46.7814 10.1969 51.4278 9.4466 52.3257C8.67423 53.2011 6.95294 59.8229 7.08535 62.2247C7.12949 63.145 11.3665 69.3852 21.8266 73.2909C21.8266 73.2909 26.1078 76.7477 26.9464 77.3089C27.7849 77.8925 34.8025 80.0698 40.3194 80.0025C40.3194 80.0025 41.0477 77.3538 40.6284 75.4233C40.6284 75.4233 46.1012 80.4963 57.0247 81.3044C57.0247 81.3044 53.207 79.576 50.912 76.0967C50.912 76.0967 60.2246 80.631 68.3014 79.9127C68.3014 79.9127 66.6242 78.6781 65.3222 74.1214C65.3222 74.1214 73.708 81.6411 75.4513 80.7208C76.0692 80.4065 76.5989 79.1046 76.9961 77.264C84.0578 70.6646 88.1403 60.3616 88.3389 57.5333C88.4934 55.2438 85.4922 50.5075 85.4922 50.5075C85.4922 50.5075 82.7778 41.6411 79.4235 37.5558C79.4235 37.5558 80.6593 35.1764 81.0345 33.6725L83.9254 32.3257C83.9254 32.3257 86.0218 33.044 86.3307 33.0664C86.6397 33.0889 94.5179 30.4851 95.4006 29.9015C99.5273 27.2527 99.5273 19.9127 93.591 20.0698ZM77.7905 30.4177L82.0717 28.7342C82.0717 28.7342 82.1599 29.879 82.8661 30.5524C82.8661 30.5524 78.5188 31.9441 78.3201 32.0114C77.6581 31.9217 77.3492 31.2258 77.7905 30.4177ZM76.2016 28.8016L74.9658 31.8543C74.8776 31.8094 74.7452 31.7421 74.6569 31.7645C74.5245 31.8094 47.0501 42.2247 47.0501 42.2247C47.9328 41.3942 48.1314 40.6759 48.1535 40.2269C60.7321 35.1091 76.2016 28.8016 76.2016 28.8016ZM65.1015 44.4918H63.7333L72.9797 41.4615C72.9797 41.4615 75.3851 42.4941 76.2016 42.8981C76.2016 42.8981 71.4791 42.8083 65.1015 44.4918ZM79.4015 46.5569C77.5698 45.9957 72.3398 46.714 71.0598 45.9733C71.0598 45.9733 73.1784 44.6714 74.6569 44.6714C76.5989 44.6714 79.4015 46.5569 79.4015 46.5569ZM64.7264 55.5356C65.2119 55.8947 65.3664 57.6456 64.285 57.3313C61.681 56.5681 58.8343 57.7129 58.1061 57.5333C56.8041 57.2415 57.4882 55.9396 58.5695 55.9845C59.6508 56.0294 62.5417 56.0518 64.0202 54.9969C63.9982 55.0193 64.263 55.6254 64.7264 55.5356ZM64.5057 48.7791C64.5057 48.7791 64.925 49.2056 65.1677 49.3403C65.1677 49.3403 64.7926 49.4301 64.3292 49.2954C64.3512 49.2954 64.3292 49.026 64.5057 48.7791ZM63.3141 54.6602C61.4604 55.4009 58.2605 54.7499 57.444 55.2213C56.1862 54.5928 56.2303 52.9318 57.3558 53.0664C61.659 53.6052 63.2258 52.7073 63.6671 53.044C64.0644 53.4031 63.4244 54.6153 63.3141 54.6602ZM37.4506 48.8689C38.1347 49.026 37.8037 49.9464 37.561 50.3504C37.561 50.3504 36.4796 49.9239 34.7142 50.7544C28.8 53.5603 27.5422 52.3257 26.5271 52.7073C26.5271 52.7073 26.9022 51.4952 27.8953 51.4727C31.7351 51.4054 36.0383 48.5322 37.4506 48.8689ZM29.0207 48.9811C29.109 48.9587 30.1682 48.9138 30.3448 48.9138C30.3448 48.9138 30.0358 49.1832 29.9255 50.1484C29.9255 50.1484 28.8883 49.6545 28.8442 49.5199C28.8 49.4301 28.9325 49.026 29.0207 48.9811ZM27.3436 53.5827C32.4633 53.2236 36.612 50.5749 37.3844 51.4727C38.3113 52.5726 36.259 53.9419 36.259 53.9419C34.957 53.044 32.1764 54.8173 29.2414 54.9295C26.9022 55.0193 25.9754 55.2662 25.9754 55.2662C25.6444 54.6826 25.6664 53.6949 27.3436 53.5827ZM33.1474 55.1315C35.1114 54.705 36.0824 54.705 36.3914 55.1989C36.7003 55.6703 35.9059 57.062 34.6039 57.0844C33.3239 57.1068 31.0951 57.668 30.08 57.7354C29.0649 57.7802 27.1891 57.466 26.1078 58.1394C26.1078 58.1394 25.1589 56.9497 25.8209 56.2763C26.3064 55.7376 26.6153 56.5681 33.1474 55.1315ZM26.6153 58.7006C27.2994 58.2741 29.5062 58.925 32.684 58.2067C34.1625 57.87 35.2438 57.8925 35.288 58.7006C35.3321 59.5086 34.6701 60.3841 33.0812 60.0698C29.9696 59.4413 26.7698 60.3841 26.7698 60.3841C26.0416 59.8902 25.9754 59.1046 26.6153 58.7006ZM29.0207 61.9329C30.3889 60.3392 33.015 61.3268 33.015 62.292C33.015 62.8307 32.044 63.796 30.9406 64.0429C30.9406 64.0429 28.5794 64.0429 28.0056 64.1775C28.447 63.796 28.8662 62.1125 29.0207 61.9329ZM34.2729 64.7387C35.5307 64.9632 36.0603 66.0855 35.619 66.6916C35.619 66.6916 29.6386 66.2426 29.109 65.9957C28.5794 65.7488 28.2263 65.1203 28.2263 65.1203C28.2263 65.1203 33.015 64.5142 34.2729 64.7387ZM36.5679 67.4997C37.0093 67.0507 35.9941 63.8857 37.2079 62.1798C36.6341 65.7713 38.1126 66.9609 37.1417 68.0608C36.1928 69.1158 32.5074 67.7017 32.5074 67.7017C32.8605 67.4772 36.0383 68.0159 36.5679 67.4997ZM36.1928 58.0047C36.4134 58.0047 36.7665 58.4312 37.4065 58.9699C38.8188 60.1147 40.4518 59.0148 41.0035 60.5861C38.5761 61.6186 35.5749 59.7556 36.1928 58.0047ZM37.7375 56.1865C37.4506 55.7151 37.6713 54.9295 37.892 55.154C38.1126 55.356 39.4146 56.9722 41.1139 57.3313C42.2614 57.5558 42.0186 58.4985 42.0186 58.4985C39.6133 58.7903 38.2009 56.9497 37.7375 56.1865ZM42.0407 56.1641C41.0697 56.0743 38.7305 54.705 38.5099 52.8644C38.3775 51.8992 39.0174 51.8094 39.216 52.191C40.0105 53.5827 42.0849 54.4132 42.46 54.9969C42.8352 55.5805 43.0117 56.2763 42.0407 56.1641ZM39.3264 49.1832C39.3264 49.1832 41.2904 49.3852 44.733 48.1955C44.733 48.1955 44.3358 49.2954 44.6668 50.4177C42.4821 50.9789 37.9582 51.338 39.3264 49.1832ZM43.9165 53.0215C44.6447 52.842 46.0791 52.393 46.2115 52.1461C46.4101 51.8094 47.5577 49.2056 47.7783 48.7118C48.0873 47.9935 48.9259 48.3975 48.7052 49.0036C48.5286 49.475 47.2487 52.3706 46.8736 52.64C46.4984 52.9318 44.5564 53.897 43.9165 53.9419C43.2765 53.9868 43.1882 53.2011 43.9165 53.0215ZM45.6157 49.2954C45.6157 48.9362 45.8584 48.6669 46.1453 48.6669C46.4322 48.6669 46.6749 48.9587 46.6749 49.2954C46.6749 49.6545 46.4322 49.9239 46.1453 49.9239C45.8584 49.9239 45.6157 49.6545 45.6157 49.2954ZM49.2348 50.2157C49.5879 50.2157 50.0072 50.4626 50.0072 51.0687C50.0072 51.6747 48.7935 52.0788 48.5286 51.6299C48.2859 51.2034 48.6831 50.2157 49.2348 50.2157ZM49.7865 52.2584C50.4485 52.2135 50.6471 53.6501 50.272 53.8745C49.8968 54.099 49.0583 53.4256 49.0583 52.9991C49.0362 52.5502 49.4334 52.2808 49.7865 52.2584ZM47.0501 46.6018C46.2557 46.8936 45.9908 46.31 46.8294 45.9957C47.6459 45.6815 59.717 40.3167 60.379 40.1371C61.0411 39.9576 61.5266 40.8554 60.5556 41.1921C59.5625 41.5064 47.5356 46.3998 47.0501 46.6018ZM57.9957 47.9486C57.9295 48.5547 56.8703 48.4424 56.6716 48.4424C56.473 48.4424 56.1641 48.824 55.5241 49.0709C54.8842 49.3403 53.7146 48.1955 54.6856 47.5894C55.2593 47.2303 56.4289 46.3324 56.3848 45.7937C57.113 45.5692 57.2013 46.7589 57.2013 46.7589C57.2013 46.7589 58.0619 47.365 57.9957 47.9486ZM63.1816 50.53C63.4685 50.8442 63.0713 51.8992 62.8065 52.1012C60.688 52.5502 58.415 51.9441 57.2675 52.1461C56.9365 51.9217 56.3186 51.3829 56.3406 50.7544C56.3848 49.9015 57.3116 49.7892 57.775 49.9464C59.9377 50.732 62.8727 50.2157 63.1816 50.53ZM55.3034 49.8117C55.3034 49.8117 54.4207 51.3605 53.9573 51.136C53.4939 50.9116 54.0456 50.5524 54.1559 49.3627C54.178 49.3627 54.4207 49.677 55.3034 49.8117ZM54.1118 45.4795C54.1118 45.4795 53.9573 46.0182 53.9132 46.2875L50.9782 47.2976C50.9782 47.2976 50.8237 47.1181 50.7796 46.8487L54.1118 45.4795ZM55.4579 51.2034C55.4579 51.2034 55.7889 52.0114 56.473 52.3706C56.0538 53.1113 53.7808 54.0765 53.6263 53.3807C53.516 52.9318 54.6635 52.4155 55.4579 51.2034ZM54.0235 54.7275C54.1339 54.4806 55.2593 54.2112 55.6786 53.9419C55.6565 54.4132 55.9213 54.952 56.6275 55.558C56.2524 55.6927 54.7959 56.1865 54.4428 56.0518C54.0235 55.8723 53.9132 55.0193 54.0235 54.7275ZM54.5752 57.2415C54.6635 57.0395 56.0538 56.5681 56.5392 56.3885C56.5172 56.7926 56.5834 57.3538 56.9365 58.0496C56.9365 58.0496 55.1048 58.8577 54.8842 58.6781C54.6414 58.4761 54.4649 57.4884 54.5752 57.2415ZM63.3141 49.4525C63.3141 49.4525 62.5858 49.0934 61.2176 49.3627C61.2176 49.3627 59.8935 48.0608 58.415 47.1405C56.1862 45.7264 58.5474 43.9531 59.0108 44.6714C61.2838 48.1057 64.1306 47.971 63.3141 49.4525ZM62.2548 46.31C61.1293 45.8611 61.3059 43.8184 61.4383 43.2797C61.5486 42.7185 62.0341 42.6961 62.0121 43.2797C62.0121 43.7735 62.0562 46.0182 62.2548 46.31ZM72.8253 38.6332C73.0018 39.127 73.4652 39.7107 73.4652 39.7107L63.3141 43.145C63.1375 42.8981 62.6741 42.3594 62.6741 42.3594L72.8253 38.6332ZM64.1747 40.4514C64.6161 40.2494 71.1261 37.5558 71.9205 37.264C72.4722 37.062 72.5605 37.5333 72.1632 37.7578C71.8764 37.9149 64.9029 40.7881 64.3733 40.9677C63.8657 41.1248 63.6892 40.6759 64.1747 40.4514ZM62.7624 39.5086C61.8134 38.521 61.2617 38.8577 60.379 39.1495C59.4963 39.4413 37.4506 47.8588 37.4506 47.8588C36.59 47.7017 36.612 47.6343 31.2937 49.7668L31.8895 49.2056L74.6569 32.5726L73.5094 35.3785L62.7624 39.5086ZM32.2647 46.7589C32.3309 46.714 38.3995 44.2224 46.1012 41.0575C46.7632 40.8554 46.8956 41.4391 46.3881 41.7309C45.726 42.09 32.8826 47.3425 32.4192 47.5446C31.9557 47.7466 31.6909 47.0732 32.2647 46.7589ZM64.8367 28.2628C64.7043 27.5221 63.954 26.916 63.5127 26.1304C63.5127 26.1304 66.7125 27.9037 66.7346 29.1607C66.7346 29.1607 68.3234 29.2505 69.1399 29.6097C65.896 30.9565 62.2989 32.5277 59.6287 33.9194C59.6287 33.9419 65.0795 29.6321 64.8367 28.2628ZM61.8796 17.1068C62.8506 17.264 63.2037 16.1192 63.2037 16.1192C61.8796 16.2988 60.6439 14.4806 60.6439 14.4806C63.0051 15.9172 64.6381 15.6029 64.925 12.5726C65.1015 17.062 62.7624 19.4413 61.9238 19.3066C61.1073 19.1719 60.048 16.5232 57.1792 12.8195C59.5184 14.1888 60.9528 16.9497 61.8796 17.1068ZM52.9863 8.01594C54.3766 8.41998 55.6124 10.5075 56.1641 11.585C53.4498 8.59955 51.4195 8.50977 51.4195 8.50977C51.4195 8.50977 50.8237 8.19551 51.2209 8.50977C56.0758 12.5502 62.652 23.5266 62.2769 26.7814C61.9017 30.0361 55.3255 35.9621 55.3255 35.9621C56.1862 34.301 57.775 30.0586 57.775 30.0586C54.4428 34.2786 48.2197 38.0721 48.2197 38.0721C58.5474 29.0485 60.0922 24.6938 60.0922 24.6938C60.0701 28.3302 57.8854 32.2808 57.8854 32.2808C57.8854 32.2808 61.328 28.1955 61.328 25.8835C61.328 22.0002 50.5809 7.02828 47.5577 5.90595C48.4845 6.01818 51.1106 7.47722 52.9863 8.01594ZM37.2079 28.1506C37.2079 28.1506 39.216 27.4099 42.1952 27.6568C42.1952 27.6568 38.3554 28.5547 37.8699 28.8016C37.8699 28.8016 36.1265 28.1282 35.9059 27.5894C35.7955 27.3201 36.0383 26.3324 35.95 25.5244C35.95 25.5244 36.3693 25.7488 36.5458 25.7264C36.7003 25.7039 36.8327 25.5019 36.7886 25.3672C36.7444 25.2101 36.0824 24.3122 35.95 24.2224C35.95 24.2224 36.259 24.0429 36.921 23.8409C37.0755 24.1551 37.4947 24.9632 37.6272 25.0754C37.8037 25.2101 38.223 25.1428 38.2671 25.0305C38.3113 24.9183 37.8699 24.0429 37.7375 23.6164C38.1347 23.5266 38.5981 23.4144 39.1278 23.3246C39.3484 23.7062 39.9222 24.604 40.0546 24.6714C40.2312 24.7612 40.6284 24.7612 40.7166 24.5816C40.7828 24.4469 40.3194 23.5939 40.0767 23.1674C40.6063 23.1001 41.2021 23.0552 41.8421 23.0103C41.9524 23.4144 42.2173 24.3122 42.3717 24.402C42.5924 24.5367 42.9455 24.5143 42.9896 24.2673C43.0338 24.0878 42.7248 23.3246 42.5703 22.9654C42.9234 22.9654 43.2986 22.943 43.6737 22.943C43.8061 23.3246 44.1592 24.2449 44.3578 24.4694C44.5564 24.6938 44.8875 24.6714 44.8875 24.2224C44.8875 23.9082 44.6226 23.2797 44.4902 22.943C44.7551 22.943 44.9978 22.9654 45.2847 22.9654C45.2847 22.9654 46.3881 25.7713 48.0873 24.6938C48.0873 24.6938 48.0652 26.0406 46.7632 26.7589C46.7191 26.8263 40.0546 25.9059 37.2079 28.1506ZM42.2614 32.2135C41.8421 32.191 39.9443 31.9217 38.9292 30.081C38.7526 29.7443 38.9954 29.3627 39.4588 29.7668C40.0325 30.2606 41.7318 31.4054 42.3938 31.6972C43.0338 31.989 42.6807 32.2359 42.2614 32.2135ZM35.1776 20.0698C35.4645 20.3841 34.8908 21.6186 34.8908 21.6186C34.317 20.9228 33.4343 20.5861 33.4343 20.5861C34.2949 19.0822 34.317 18.2516 34.3391 18.0272C34.4053 17.1517 32.5957 16.8375 32.4192 16.209C32.3309 15.8723 33.9418 13.8745 35.5307 14.1214C35.0011 13.695 34.2067 13.695 34.2067 13.695C37.4506 11.0013 41.5994 10.4626 41.5994 10.4626C40.8932 10.9116 40.4077 11.6299 40.4077 11.6299C41.5332 10.9565 43.8061 10.1484 45.0199 10.5524C46.7191 11.0911 45.8143 13.6725 44.5344 12.842C41.6656 11.0013 38.7305 14.9071 38.7305 14.9071C37.8258 15.154 37.7596 14.099 38.0906 13.5827C37.8258 13.7847 37.252 14.0765 37.4506 15.1315C36.5679 16.1192 34.8025 13.8745 33.346 16.3886C33.677 16.0294 34.2729 15.8274 34.2729 15.8274C33.655 17.5109 35.3983 17.5109 35.8397 17.4884C36.3252 17.4884 36.59 18.6108 36.59 18.6108C36.7224 17.7578 36.281 17.062 36.5458 16.6579C37.1637 15.7152 38.3775 15.558 39.0174 15.6029C39.8119 15.6478 40.7387 16.1865 41.5111 16.4334C42.2835 16.6804 44.1813 15.9621 44.1813 15.9621C42.5262 16.0743 42.1069 15.76 42.1069 15.76C43.9385 15.6029 45.8364 14.2786 45.6598 13.6725C47.028 13.4256 47.1825 12.3257 47.1825 12.3257C47.337 12.6175 48.661 14.3459 48.661 14.3459C47.1163 13.8521 46.5205 14.1888 46.5205 14.1888C46.9618 14.4581 48.5286 16.1865 48.4624 16.613C48.3962 17.062 47.2487 18.3863 47.006 18.3639C45.7702 18.2965 42.0848 16.5008 42.5924 20.7208C43.2103 20.6085 43.6737 19.9576 44.7771 19.9351C43.6958 21.035 44.1592 22.1574 44.1592 22.1574C43.9165 22.1349 43.6958 22.1349 43.4751 22.1125C43.3868 21.7758 43.1882 21.1472 43.1 21.0799C42.9896 20.9677 42.46 20.9677 42.3938 21.1024C42.3276 21.2819 42.5262 21.8431 42.6145 22.09C42.2173 22.09 41.8421 22.1125 41.467 22.1349C41.4007 21.888 41.2463 21.237 41.158 21.1921C41.0477 21.1248 40.3856 21.0799 40.3415 21.2819C40.2974 21.4615 40.4298 21.9778 40.496 22.2247C39.9222 22.292 39.3926 22.3818 38.885 22.4716C38.863 22.1574 38.8188 21.5288 38.7526 21.4615C38.6643 21.3493 38.1789 21.3493 38.0685 21.5288C37.9802 21.686 37.9802 22.4043 37.9802 22.6736C37.4727 22.8083 37.0534 22.943 36.7003 23.0552C36.7444 22.741 36.8106 22.1574 36.7886 22.1125C36.7224 22.0451 36.3693 22.0227 36.281 22.1349C36.1707 22.292 36.1265 22.943 36.1045 23.2797C35.7955 23.3919 35.6411 23.4817 35.6411 23.4817C35.9941 20.5412 35.8838 20.429 35.1776 20.0698ZM42.1731 14.5255C42.1731 14.7948 41.9524 14.9969 41.7097 14.9969C41.4449 14.9969 41.2463 14.7724 41.2463 14.5255C41.2463 14.2561 41.4669 14.0541 41.7097 14.0541C41.9524 14.0316 42.1731 14.2561 42.1731 14.5255ZM35.8838 16.1641C35.8838 16.3437 35.7514 16.4783 35.5749 16.4783C35.3983 16.4783 35.2659 16.3437 35.2659 16.1641C35.2659 15.9845 35.3983 15.8498 35.5749 15.8498C35.7293 15.8498 35.8838 16.007 35.8838 16.1641ZM49.632 15.6703C49.632 15.6703 50.5809 16.4783 50.5809 17.8251C50.5809 19.1719 48.8597 19.98 48.308 19.98C46.8736 19.98 44.9095 18.3863 43.3206 19.8678C44.0047 17.7578 46.8515 19.2617 48.2859 19.2617C48.9038 19.2617 51.1106 17.8027 48.9038 15.4009C49.1686 14.7948 49.8086 14.2337 48.33 12.7297C48.33 12.7297 48.8155 11.4278 47.1163 10.4402C47.1163 10.4402 49.301 10.8442 49.0803 12.64C49.0803 12.64 50.8237 13.897 49.632 15.6703ZM47.359 23.347C47.2266 22.1574 46.3881 20.5861 46.3881 20.5861C47.028 20.9228 47.9769 22.5165 48.0211 23.0552C48.0652 23.5939 47.4915 24.5367 47.359 23.347ZM45.6378 22.292C44.9757 22.3818 44.6668 21.035 45.3067 20.4738C45.5495 20.2494 45.9908 20.3167 45.8364 20.5187C45.064 21.5962 45.6378 22.292 45.6378 22.292ZM49.7203 25.7488C50.7575 23.8857 48.0873 20.3616 48.0873 20.3616C48.0873 20.3616 51.8167 22.7634 50.3382 25.9059C48.8376 29.0934 44.6888 27.769 43.4089 27.7017C44.7992 27.163 48.2638 28.3526 49.7203 25.7488ZM48.6169 8.91381C49.1907 9.40763 48.8817 9.81167 48.8817 9.81167C48.8817 9.58721 46.2336 8.50977 44.093 3.66128C43.431 2.20225 41.158 2.31448 41.158 2.31448C45.4171 0.990126 45.1081 5.95084 48.6169 8.91381ZM26.3505 10.5524C26.3285 8.46487 38.3554 3.16745 40.6504 3.70617C44.4902 4.5816 43.5413 6.9385 46.7853 9.47497C42.3055 7.99349 33.4343 11.6972 33.655 13.3807C33.655 13.3582 26.3726 12.64 26.3505 10.5524ZM28.5573 75.6478C25.2692 73.5827 17.9427 65.053 17.9427 55.3111C17.9427 55.3111 15.2063 61.5064 15.427 63.9082C15.5373 65.1652 17.7882 68.0833 18.4282 68.6893C11.19 64.0653 10.3072 63.9531 9.3142 60.9677C8.93905 59.8678 10.3514 54.7275 11.0576 54.0316C11.6975 53.4031 22.0473 47.0283 22.4225 46.1978C22.4225 46.1978 19.355 47.8813 18.031 48.3302C18.031 48.3302 23.3714 43.3246 26.0416 38.4536C26.3505 37.8925 27.6084 37.3089 28.469 36.613C28.469 36.613 30.8965 41.0575 35.0011 42.8307C34.008 42.4267 30.0579 36.411 29.9917 34.9744C29.9476 33.9868 30.3889 32.7746 30.6096 32.2359C32.6178 34.0765 35.7514 36.0518 39.4146 36.4559C35.3983 35.356 30.3227 31.5625 30.3227 28.3975C30.3227 26.4447 32.1985 21.9553 32.4854 21.3717C32.4854 21.3717 32.7502 21.3044 32.8385 21.5962C30.6096 28.7791 32.0661 30.4626 38.0464 33.5378C38.0464 33.5378 31.713 30.1035 34.5377 25.457C34.1184 28.8016 34.9128 31.0462 41.1801 33.7398C41.1801 33.7398 40.0767 34.8173 38.4657 34.6377C41.3566 36.7028 54.6193 27.3201 54.6193 24.4469C54.6193 20.8105 50.7575 11.5176 50.7575 11.5176C51.6181 11.8992 58.3488 21.0126 58.7902 23.6164C58.9446 24.5367 57.113 27.163 57.113 27.163C57.113 27.163 58.3488 24.8958 58.1943 23.998C58.0399 23.1001 56.451 20.8779 55.9655 20.5636C55.9655 20.5636 57.3116 23.1675 56.9806 24.3347C56.6496 25.5019 47.4473 33.897 43.6958 36.9048C43.6958 36.9048 47.6239 35.154 49.5879 33.8296C49.5879 33.8296 46.2557 37.6456 41.4449 41.3493C41.4449 41.3493 35.8617 39.6433 32.5074 36.613C32.5074 36.613 34.317 40.5861 36.9872 42.5838C36.9872 42.5838 32.7502 44.5816 27.807 40.8106C27.807 40.8106 28.6676 43.8409 30.2565 45.9733C30.2565 45.9733 28.2263 45.7713 25.6885 43.2572C25.6885 43.2572 26.3064 46.1529 26.4388 47.2079C26.4388 47.2079 25.5561 46.6691 24.563 46.7365C24.0334 46.7814 22.3342 47.8364 20.966 49.8566C20.2819 49.879 18.5827 49.9015 18.3841 49.9239C18.1413 49.9464 14.1912 53.1787 12.8892 55.3784C12.8892 55.3784 16.9717 51.6972 20.0833 51.4278C19.4212 52.8869 19.002 54.6826 19.1344 56.7701C19.8847 53.0215 24.3865 48.4424 25.7106 48.4424C26.3947 48.4424 27.4318 49.2505 27.8732 50.2157C27.8732 50.2157 26.9243 49.9015 25.6223 51.0462C25.6223 51.0462 25.8209 50.2382 26.4609 50.1484C26.4609 50.1484 25.9533 49.475 24.6954 51.0013C23.7907 52.0788 17.5234 64.2449 36.7665 77.7578C36.8106 77.7353 31.8454 77.7129 28.5573 75.6478ZM37.7154 75.6254C36.59 76.3437 24.3865 66.8936 24.6513 58.723C24.6513 58.723 25.0265 66.7814 37.3403 74.8397C37.3403 74.8397 37.4947 72.7746 36.4576 69.2056C36.4355 69.2056 38.8409 74.8846 37.7154 75.6254ZM38.7526 63.2123C38.7526 63.2123 41.0035 65.0754 42.0407 66.6242C42.0407 66.6242 44.5123 72.0114 46.1895 74.0765C46.1895 74.0541 39.9663 70.081 38.7526 63.2123ZM44.093 57.5558C44.093 57.5558 46.2998 67.2976 53.6263 72.5951C46.057 69.9239 42.9014 62.8307 44.093 57.5558ZM45.0861 56.0518C47.0722 57.7353 51.9271 62.1349 55.3697 68.1955C46.1895 60.6983 45.0861 56.0518 45.0861 56.0518ZM56.4951 61.6411C55.9434 61.4839 55.3034 61.0575 55.3697 60.5412C55.3697 60.5412 62.2107 58.4536 62.9389 58.4536C63.6671 58.4536 64.1526 59.1046 63.9761 59.4189C63.4244 60.3616 57.0468 61.7982 56.4951 61.6411ZM77.6581 71.6299C77.8567 67.6343 77.5698 63.1001 76.5547 59.7331C76.5547 59.7331 77.9229 72.3481 74.9879 79.3066C74.9879 79.3066 66.9773 76.1416 60.8204 61.9329C60.8204 61.9329 62.6962 61.686 64.1968 60.8105C64.1968 60.8105 67.7276 68.5547 73.2446 73.5603C73.2446 73.5603 66.4256 68.9811 62.8286 62.4492C62.8286 62.4492 64.3954 71.8094 73.9507 76.9497C76.4885 69.0485 72.1632 52.2359 68.9193 49.2954C67.4628 47.971 65.8519 48.2628 65.8519 48.2628C67.1318 48.8465 67.9042 49.475 69.3386 52.64C66.227 51.0238 65.9843 47.6119 64.0644 47.8813C64.0644 47.8813 63.5127 47.3201 63.0492 47.0507L63.0272 46.4447C63.0272 46.4447 67.529 47.1181 68.9413 47.7241C70.3537 48.3077 73.0239 53.2011 75.0983 57.6456C74.1493 54.2561 72.0088 49.9688 71.7881 49.4076C71.7881 49.4076 82.513 52.5277 82.3365 56.7028C82.3365 56.7028 80.0635 52.7746 74.1493 51.4727C81.2331 59.5535 79.7766 62.4716 77.6581 71.6299ZM70.4199 56.6804C68.9855 55.6703 64.925 54.4357 65.3664 52.64C67.9042 54.9969 70.3757 55.0866 70.4199 56.6804ZM65.8739 50.5973C67.86 53.2685 69.5372 53.6725 69.8241 54.4806C69.8241 54.4806 67.3745 53.6501 65.6753 51.7421C65.1457 51.1585 65.6312 50.3055 65.8739 50.5973ZM70.9716 59.0373C69.7358 58.2965 65.7636 57.9374 66.1387 55.4907C67.3304 56.5232 71.3026 57.1742 70.9716 59.0373ZM83.484 51.7421C85.095 53.2685 86.1983 54.9295 86.1983 56.1416C86.1983 58.3863 84.5433 61.8206 82.4027 64.1775C81.9172 67.8588 80.0194 71.2707 79.2911 72.1686C79.2911 72.1686 83.5502 60.3167 79.9311 56.1865C82.0717 58.0945 82.6675 60.6534 82.513 63.1899C83.0868 62.1349 85.0508 58.4312 85.0508 56.2314C85.0508 53.6276 78.6953 48.8914 75.5837 47.7466C77.5919 47.769 80.0194 48.9362 82.0496 50.4851C81.8951 49.3403 81.0345 44.9632 77.3712 43.5266C77.3712 43.5266 78.6732 43.4593 80.1518 44.6489C80.1518 44.6489 79.3573 41.5962 78.2098 39.8229C78.2098 39.8453 82.0275 41.8431 83.484 51.7421ZM82.7337 31.9441C82.182 32.2135 79.2249 33.5154 79.2249 33.5154C79.1808 34.9969 77.4595 39.3291 75.981 39.3291C74.4362 39.3291 73.7962 37.1293 74.5686 35.7376C74.37 40.9003 77.6581 37.0844 78.6512 33.1338L82.6454 31.5625C83.0206 31.4278 83.2854 31.6972 82.7337 31.9441ZM83.7709 29.2954C83.7709 29.2954 82.9764 28.2853 84.1019 26.512C84.1019 26.512 91.9139 22.7859 92.598 22.4492C94.1427 21.7084 96.4819 21.8207 95.4227 24.3347C95.2682 22.4043 91.8477 23.2123 91.8477 26.1529L83.7709 29.2954ZM94.4958 26.7365C94.54 26.7365 94.6062 26.7365 94.6503 26.714C94.4958 26.8487 94.2972 26.9385 94.0765 26.9385C93.5469 26.9385 93.1276 26.4447 93.1276 25.8386C93.1276 25.2325 93.5469 24.7387 94.0765 24.7387C94.4738 24.7387 94.8048 25.0305 94.9593 25.4346C94.8489 25.3223 94.6724 25.255 94.5179 25.255C94.1427 25.255 93.8338 25.5917 93.8338 25.9957C93.8117 26.3998 94.1207 26.7365 94.4958 26.7365ZM94.231 28.8465C92.4435 29.5648 86.728 31.8992 86.5073 31.8992C86.3749 31.8992 85.3598 31.3156 84.8081 30.9565L86.1763 31.338L93.1938 28.622C92.6421 28.3526 92.1787 27.8813 92.0022 27.2752C94.4076 29.5648 97.0116 26.1753 96.5923 23.1674C97.7619 25.5244 96.0406 28.6893 94.231 28.8465Z" fill="#020202"/>
<path d="M36.9427 16.8823C36.8544 17.1067 37.2517 17.5557 37.031 19.1943C36.9648 19.6432 37.4503 20.2493 37.7372 20.0473C38.664 19.3739 39.304 19.8901 39.5246 19.6881C40.0763 19.1718 38.8847 18.0719 38.5537 17.0843C38.2888 16.3211 37.2075 16.164 36.9427 16.8823Z" fill="#020202"/>
<path d="M20.7888 59.1938C20.7888 59.1938 21.826 66.5339 32.6392 76.2533C32.6392 76.2533 25.1803 71.8762 23.6135 69.6315C21.9805 67.3419 20.6123 60.5181 20.7888 59.1938Z" fill="#020202"/>
<path d="M95.5119 24.4474C95.4015 24.6045 95.2691 24.7616 95.1367 24.8963C95.2912 24.7616 95.4015 24.6045 95.5119 24.4474Z" fill="#F98E0D"/>
<path d="M14.3676 92.1232C14.3014 92.4824 14.3235 92.7966 14.4338 93.066C14.5662 93.3802 14.6986 93.6721 14.831 93.9863C13.1318 94.3903 11.4105 94.7944 9.68925 95.2658C9.95407 94.8393 10.2409 94.4352 10.5058 94.0087C10.7485 93.6496 10.903 93.268 10.9692 92.9089C11.6312 89.6541 12.3153 86.4218 12.9774 83.167C11.8078 83.9975 10.6382 84.8729 9.44651 85.7708C8.87274 88.4195 8.27691 91.0682 7.70315 93.7169C7.61488 94.0985 7.63695 94.4352 7.72522 94.727C7.83556 95.0413 7.96797 95.378 8.0783 95.6922C6.33495 96.1636 4.59159 96.6799 2.82617 97.2186C3.11305 96.7472 3.422 96.2983 3.70888 95.8494C3.95163 95.4678 4.15024 95.0413 4.23851 94.6597C5.82739 87.8359 7.41627 80.9897 9.00515 74.1659C9.09342 73.7618 9.11549 73.3802 9.04929 73.0435C8.96102 72.6395 8.89481 72.2579 8.82861 71.8539C10.3072 71.8539 11.7636 71.8539 13.2422 71.8539C12.9994 72.2355 12.7346 72.6171 12.4919 72.9762C12.2712 73.3129 12.1167 73.672 12.0284 74.0536C11.4988 76.4554 10.9692 78.8348 10.4616 81.2366C11.6091 80.4061 12.7567 79.598 13.9042 78.8123C14.2352 77.1962 14.5662 75.58 14.8972 73.9639C14.9635 73.6047 14.9635 73.2456 14.8972 72.9313C14.809 72.5722 14.7207 72.213 14.6104 71.8314C16.0889 71.8314 17.5454 71.8314 19.0239 71.8314C18.7812 72.1906 18.5605 72.5273 18.3178 72.8864C18.1191 73.2007 17.9647 73.5374 17.8985 73.8965C16.7068 79.9571 15.5372 86.0402 14.3676 92.1232Z" fill="black"/>
<path d="M29.8145 71.8316C29.6379 73.1784 29.4614 74.5028 29.2849 75.8496C28.998 75.67 28.7332 75.4904 28.4463 75.2884C28.2477 75.1537 28.0049 75.0864 27.7401 75.0864C26.3278 75.1313 24.9154 75.1762 23.5031 75.2211C23.2824 76.5903 23.0617 77.9371 22.8411 79.3064C23.7679 79.239 24.7168 79.1717 25.6437 79.1044C25.9085 79.0819 26.1733 78.9921 26.416 78.835C26.7471 78.6105 27.1001 78.4085 27.4312 78.1841C27.2105 79.8002 26.9898 81.4388 26.7471 83.055C26.4602 82.8979 26.1512 82.7183 25.8643 82.5612C25.6437 82.4489 25.4009 82.3816 25.1361 82.404C24.1872 82.4938 23.2162 82.5836 22.2673 82.6958C21.9142 84.8956 21.5611 87.0954 21.208 89.3176C22.7528 89.0707 24.2975 88.8238 25.8423 88.6218C26.1292 88.5769 26.416 88.4646 26.6588 88.2851C27.0119 88.0381 27.365 87.8137 27.7401 87.5668C27.5636 88.9136 27.387 90.2379 27.2105 91.5847C23.6576 92.1234 20.0605 92.7968 16.4414 93.5825C16.7062 93.1784 16.971 92.7744 17.2579 92.3704C17.4565 92.0786 17.5889 91.7643 17.6331 91.4725C18.6703 85.5466 19.7295 79.6431 20.7667 73.7172C20.8108 73.4254 20.8108 73.1335 20.7226 72.8642C20.6122 72.505 20.5019 72.1459 20.3915 71.7867C23.5252 71.8316 26.6588 71.8316 29.8145 71.8316Z" fill="black"/>
<path d="M38.5754 87.0952C38.9065 86.8931 39.2595 86.6911 39.5906 86.4891C39.5023 87.7461 39.414 88.9807 39.3257 90.2377C35.817 90.5071 32.3082 90.8662 28.7773 91.3825C29.0201 91.0233 29.2628 90.6866 29.4835 90.3499C29.6601 90.103 29.7704 89.8112 29.7925 89.5419C30.4324 84.222 31.0724 78.9021 31.6903 73.5823C31.7124 73.3129 31.6903 73.0435 31.58 72.7966C31.4475 72.4824 31.2931 72.1681 31.1607 71.8314C32.6392 71.8314 34.0957 71.8314 35.5742 71.8314C35.3756 72.1457 35.1549 72.4599 34.9563 72.7742C34.8018 72.9987 34.7136 73.268 34.6694 73.5374C34.1839 78.2736 33.6985 83.0099 33.213 87.7686C34.7356 87.6114 36.2363 87.4992 37.7589 87.387C38.0458 87.3421 38.3106 87.2523 38.5754 87.0952Z" fill="black"/>
<path d="M50.3387 86.6911C50.6697 86.5116 50.9787 86.332 51.3097 86.1749C51.3097 87.387 51.2876 88.6216 51.2876 89.8337C47.8009 89.8337 44.3363 89.9235 40.8496 90.1479C41.0703 89.8337 41.2689 89.5194 41.4896 89.2052C41.644 88.9807 41.7323 88.7113 41.7544 88.4644C42.0413 83.4588 42.3281 78.4756 42.615 73.47C42.6371 73.2007 42.5709 72.9538 42.4606 72.7293C42.3061 72.4375 42.1516 72.1232 41.9751 71.8314C43.4536 71.8314 44.9101 71.8314 46.3886 71.8314C46.2121 72.1232 46.0135 72.415 45.8148 72.7293C45.6824 72.9538 45.5942 73.2007 45.5942 73.4476C45.4176 77.9594 45.219 82.4712 45.0425 86.9829C46.5431 86.938 48.0437 86.8932 49.5443 86.8932C49.8312 86.8932 50.096 86.8034 50.3387 86.6911Z" fill="black"/>
<path d="M58.989 71.8314C59.342 71.8314 59.6731 71.8314 60.0261 71.8314C60.8426 71.8314 61.5268 72.5048 61.5709 73.3353C61.615 74.0761 61.6592 74.8393 61.6812 75.58C61.3723 75.4004 61.0854 75.2209 60.7764 75.0413C60.5116 74.8842 60.2247 74.8168 59.9379 74.8168C58.7903 74.7944 57.6207 74.7944 56.4732 74.7944C56.076 74.7944 55.767 75.1086 55.7891 75.4902C55.8112 76.231 55.8112 76.9493 55.8333 77.69C55.8333 78.0491 56.1422 78.341 56.5174 78.341C57.7752 78.3634 59.0331 78.3858 60.313 78.4083C61.1516 78.4307 61.8798 79.1266 61.924 79.9571C62.0784 82.8976 62.2329 85.8381 62.3874 88.7786C62.4315 89.6092 61.7254 90.2152 60.8426 90.1703C58.7241 90.0357 56.5836 89.9459 54.465 89.901C53.5603 89.8785 52.832 89.2276 52.832 88.3971C52.832 87.2298 52.832 86.0626 52.832 84.8954C52.832 84.3791 53.141 83.8853 53.6265 83.6384C54.4209 83.2343 55.1933 82.8078 55.9657 82.4038C55.9877 83.6833 56.0098 84.9852 56.0319 86.2646C56.0319 86.6687 56.385 86.9829 56.8263 87.0054C57.3559 87.0278 57.8635 87.0503 58.3931 87.0727C58.7903 87.0951 59.0993 86.8033 59.0772 86.4442C59.0331 84.9852 58.9669 83.5037 58.9227 82.0447C58.9007 81.6631 58.5697 81.3264 58.1724 81.3264C56.9146 81.3039 55.6567 81.259 54.3768 81.259C53.5161 81.259 52.832 80.5856 52.832 79.7775C52.832 77.6227 52.832 75.4902 52.832 73.3353C52.832 72.5273 53.4941 71.8763 54.3106 71.8763C55.8333 71.8314 57.4001 71.8314 58.989 71.8314Z" fill="black"/>
<path d="M74.3256 89.8112C74.3698 90.1255 74.4801 90.4397 74.6787 90.7315C74.8994 91.0682 75.1201 91.4049 75.3628 91.7641C73.7077 91.4947 72.0527 91.2703 70.4196 91.0682C70.5741 90.7989 70.7507 90.5071 70.9051 90.2377C71.0375 89.9908 71.1037 89.699 71.0596 89.4072C70.7948 86.7136 70.53 83.9975 70.2652 81.3039C69.3163 81.8202 68.3894 82.314 67.4405 82.8078C67.617 84.8954 67.7715 86.9829 67.9481 89.048C67.9701 89.3398 68.0805 89.6541 68.257 89.9235C68.4777 90.2377 68.6763 90.552 68.897 90.8887C67.2639 90.6866 65.6309 90.5295 63.9979 90.3948C64.1745 90.1255 64.3289 89.8337 64.5055 89.5643C64.66 89.3174 64.7262 89.048 64.7041 88.7562C64.3731 83.6833 64.0421 78.6328 63.7331 73.5598C63.711 73.268 63.6228 72.9762 63.4462 72.7293C63.2476 72.4375 63.0711 72.1457 62.8945 71.8539C64.3731 71.8539 65.8295 71.8539 67.3081 71.8539C67.1536 72.1457 67.0212 72.4599 66.8667 72.7517C66.7343 72.9987 66.6902 73.2905 66.7123 73.6047C66.8667 75.4902 67.0212 77.3758 67.1757 79.2613C68.1025 78.745 69.0294 78.2063 69.9562 77.6676C69.8238 76.3208 69.6914 74.974 69.559 73.6272C69.5369 73.3129 69.4266 73.0211 69.2501 72.7517C69.0514 72.4375 68.8528 72.1457 68.6542 71.8314C70.1328 71.8314 71.5892 71.8314 73.0678 71.8314C72.9354 72.1457 72.803 72.4599 72.6706 72.7742C72.5602 73.0435 72.5161 73.3578 72.5381 73.6496C73.1119 79.0368 73.7077 84.424 74.3256 89.8112Z" fill="black"/>
<path d="M81.475 71.8314C82.3797 71.8314 83.2845 72.7293 83.4611 73.8516C84.4762 79.8898 85.5134 85.9279 86.5506 91.9885C86.7492 93.1109 86.043 93.8067 84.9837 93.5823C82.9094 93.1333 80.8571 92.7068 78.8048 92.3477C77.7676 92.1681 76.8187 91.2029 76.7083 90.1704C76.0242 84.6709 75.3401 79.1715 74.656 73.6721C74.5236 72.662 75.1636 71.8314 76.0684 71.8314C77.8559 71.8314 79.6654 71.8314 81.475 71.8314ZM82.8211 88.9807C82.1591 84.6934 81.497 80.3836 80.835 76.0963C80.7688 75.6698 80.4157 75.3107 80.0406 75.2882C79.533 75.2658 79.0254 75.2433 78.5179 75.2433C78.1427 75.2209 77.9 75.5576 77.9441 75.9841C78.5179 80.1591 79.1137 84.3118 79.6875 88.4869C79.7537 88.9134 80.1288 89.2949 80.5261 89.3623C81.0778 89.4521 81.6294 89.5419 82.2032 89.6541C82.6225 89.699 82.8873 89.4072 82.8211 88.9807Z" fill="black"/>
<path d="M93.1933 71.8314C93.5685 73.5598 93.9436 75.2658 94.3188 76.9942C93.9657 76.7248 93.6126 76.4554 93.2595 76.2085C92.9727 76.0065 92.6858 75.8943 92.421 75.8718C92.0017 75.8494 91.5603 75.8269 91.141 75.8045C92.3768 81.8651 93.6347 87.9257 94.8705 93.9863C94.9367 94.3455 95.0912 94.727 95.3118 95.0637C95.5987 95.5127 95.8856 95.9616 96.1725 96.433C94.4291 95.9167 92.7078 95.4453 90.9866 95.0188C91.119 94.7046 91.2514 94.3679 91.3838 94.0536C91.4941 93.8067 91.4941 93.4925 91.4279 93.1333C90.3245 87.2972 89.1991 81.4835 88.0957 75.6474C87.6764 75.6249 87.235 75.6025 86.8157 75.58C86.5509 75.5576 86.2861 75.6474 86.0875 75.8045C85.8227 76.0065 85.5579 76.2085 85.2931 76.4105C85.0283 74.8842 84.7634 73.3578 84.4766 71.8314C87.3895 71.8314 90.3025 71.8314 93.1933 71.8314Z" fill="black"/>
<path d="M4.79039 97.084C4.01802 97.084 3.26772 96.7024 2.80429 96.029C2.20846 95.176 2.20846 94.0537 2.80429 93.2007C3.06911 92.7966 3.33392 92.415 3.6208 92.0334C3.68701 91.9437 3.70907 91.8763 3.70907 91.8763L7.54887 74.5699C7.4606 74.2781 7.39439 73.9863 7.30612 73.6945C7.10751 72.9538 7.26199 72.1681 7.72541 71.5621C8.18883 70.956 8.895 70.5969 9.64531 70.5969H13.9485C14.1692 70.5969 14.3899 70.6193 14.6106 70.6866C14.8312 70.6193 15.0519 70.5969 15.2726 70.5969H19.5758C20.5027 70.5969 21.3412 71.1356 21.7384 71.9661C22.1577 72.7966 22.0695 73.8067 21.5178 74.5475C21.3192 74.8168 21.1206 75.0862 20.9219 75.378C20.0172 80.3836 19.0903 85.3892 18.1635 90.3948C18.2297 90.5071 18.2738 90.6193 18.34 90.754C18.6931 91.4498 18.7152 92.2579 18.3841 92.9538C18.0531 93.6496 17.4132 94.1659 16.6629 94.323C15.0519 94.6597 13.4189 95.0189 11.83 95.378C11.5652 95.4453 11.3004 95.4453 11.0576 95.4229C10.837 95.5576 10.5942 95.6698 10.3294 95.7372C8.69639 96.1412 7.04131 96.5677 5.40829 97.0166C5.20968 97.0615 5.01107 97.084 4.79039 97.084Z" fill="#020202"/>
<path d="M17.7672 94.0536C16.9507 94.0536 16.1562 93.6272 15.7149 92.9089C15.1852 92.0559 15.2073 90.956 15.8031 90.1255C16.0238 89.8112 16.2666 89.497 16.4872 89.1827C17.3037 84.3118 18.1423 79.4633 18.9588 74.5924C18.8706 74.3904 18.8044 74.1883 18.7161 73.9863C18.4071 73.2231 18.4954 72.3701 18.9588 71.6743C19.4222 70.9785 20.1726 70.5969 20.967 70.5969H30.2134C30.9196 70.5969 31.5816 70.9111 32.045 71.4274C32.5084 71.9661 32.7291 72.662 32.6408 73.3803L32.2216 76.7921C32.1112 77.6002 31.6257 78.3185 30.9196 78.6777C30.7872 78.745 30.6327 78.8123 30.4782 78.8572L29.9265 82.965C29.8603 83.4139 29.6838 83.818 29.419 84.1771C29.5734 84.2444 29.75 84.3342 29.8824 84.424C30.6547 84.9403 31.052 85.8606 30.9416 86.8034L30.5003 90.2153C30.3679 91.3152 29.5072 92.1906 28.4038 92.3477C25.0054 92.7966 21.5849 93.3802 18.2306 94.0312C18.054 94.0312 17.8996 94.0536 17.7672 94.0536ZM25.2261 84.6036L25.1599 85.0525C25.5571 85.0076 25.9322 84.9627 26.3074 84.8954C26.3515 84.873 26.3736 84.8505 26.4177 84.8281C26.2191 84.7383 26.0205 84.626 25.844 84.5363C25.6233 84.5587 25.4247 84.5811 25.2261 84.6036Z" fill="#020202"/>
<path d="M29.5731 92.1457C28.7124 92.1457 27.8959 91.6743 27.4766 90.9111C26.9911 90.0581 27.0573 88.9807 27.6532 88.1726L28.1607 87.4992C28.6462 83.2119 29.1538 78.947 29.6393 74.6597C29.551 74.5026 29.4848 74.3455 29.3965 74.2108C28.9993 73.4476 29.0214 72.5273 29.4627 71.7865C29.9041 71.0458 30.6985 70.5969 31.5371 70.5969H35.8403C36.7672 70.5969 37.6057 71.1356 38.025 71.9661C38.4443 72.7966 38.334 73.8067 37.7823 74.5475L37.3851 75.0862C37.0982 78.0267 36.8113 80.9448 36.5024 83.8853C36.9878 83.8404 37.4513 83.818 37.9147 83.7955C38.2236 83.6384 38.5105 83.4813 38.8195 83.3241C39.5918 82.9201 40.5408 82.965 41.269 83.4588C41.9972 83.9526 42.4165 84.8056 42.3503 85.681L42.1296 88.8685C42.0414 90.103 41.0704 91.0907 39.8567 91.158C36.5244 91.3825 33.148 91.6968 29.8599 92.1232C29.7717 92.1457 29.6613 92.1457 29.5731 92.1457Z" fill="#020202"/>
<path d="M41.1798 91.0909C40.275 91.0909 39.4585 90.5746 39.0392 89.7666C38.5978 88.9136 38.6861 87.8586 39.2819 87.0954L39.6571 86.6016C39.8778 82.6509 40.0984 78.7003 40.3191 74.7497C40.2308 74.615 40.1646 74.4804 40.0764 74.3457C39.6129 73.5825 39.5909 72.6173 40.0102 71.8316C40.4295 71.046 41.246 70.5522 42.1287 70.5522H46.4319C47.3367 70.5522 48.1752 71.0685 48.5945 71.899C49.0138 72.7295 48.9256 73.7172 48.3959 74.4804L48.087 74.9293C47.9766 77.7576 47.8663 80.5634 47.756 83.3917C48.3077 83.3917 48.8814 83.3692 49.4552 83.3692C49.72 83.2346 50.0069 83.0999 50.2717 82.9877C51.022 82.6285 51.9047 82.6958 52.6109 83.1448C53.317 83.5937 53.7363 84.4018 53.7363 85.2323L53.7143 88.33C53.7143 89.6768 52.6109 90.7767 51.2868 90.7767C47.9987 90.7767 44.6444 90.8664 41.3563 91.046C41.268 91.0909 41.2239 91.0909 41.1798 91.0909Z" fill="#020202"/>
<path d="M60.5336 91.0903C60.4453 91.0903 60.357 91.0903 60.2908 91.0903C58.2827 90.9781 56.2524 90.8883 54.2222 90.8658C52.0154 90.821 50.2721 89.1824 50.2721 87.1397V84.1767C50.2721 83.3687 50.5369 82.6279 51.0003 81.9994C50.5369 81.3933 50.25 80.6302 50.25 79.8221V74.3451C50.25 73.2901 50.7134 72.28 51.5299 71.5841C52.2361 70.9781 53.1629 70.6414 54.1119 70.6414H59.7612C61.8576 70.6414 63.5789 72.2351 63.6893 74.2553L63.7775 76.1633C63.7996 76.7918 63.601 77.3754 63.2479 77.8468C63.6672 78.4304 63.932 79.1038 63.9761 79.867L64.3513 87.3642C64.3954 88.3518 64.0424 89.2946 63.3362 90.0129C62.63 90.6863 61.6149 91.0903 60.5336 91.0903Z" fill="#020202"/>
<path d="M74.4138 92.4599C74.3034 92.4599 74.1931 92.4599 74.0828 92.4375C72.538 92.213 70.9491 92.011 69.4044 91.8539C69.1616 91.8314 68.9189 91.7641 68.6982 91.6519C68.4555 91.6967 68.2127 91.7192 67.97 91.6968C66.4252 91.5396 64.8584 91.4049 63.3137 91.2927C62.431 91.2254 61.6586 90.6866 61.2834 89.8786C60.9083 89.0705 60.9965 88.1053 61.5041 87.387C61.5703 87.2972 61.6365 87.185 61.7027 87.0952C61.46 83.0772 61.1952 79.0368 60.9524 75.0189L60.5993 74.525C60.0476 73.7843 59.9814 72.7742 60.3786 71.9437C60.7979 71.1131 61.6365 70.5969 62.5413 70.5969H66.8445C67.0652 70.5969 67.2859 70.6193 67.5066 70.6866C67.7272 70.6193 67.9479 70.5969 68.1686 70.5969H72.4718C73.3104 70.5969 74.1048 71.0458 74.5462 71.7865C74.9876 72.5273 75.0096 73.4476 74.6345 74.2108C74.5462 74.3679 74.4579 74.5475 74.3917 74.7046C74.8551 79.0817 75.3406 83.4588 75.8041 87.8359C75.9806 88.0828 76.1571 88.3073 76.3337 88.5542C76.9075 89.3623 76.9737 90.4173 76.4661 91.2927C76.0689 92.011 75.2744 92.4599 74.4138 92.4599Z" fill="#020202"/>
<path d="M84.0135 94.0545C83.7487 94.0545 83.4619 94.0321 83.175 93.9647C81.2551 93.5831 79.291 93.2464 77.3491 92.9322C75.2526 92.5955 73.5755 90.912 73.3327 88.9367C72.781 84.2677 72.2073 79.5764 71.6556 74.9075C71.5232 73.8076 71.8542 72.7077 72.5604 71.8996C73.2886 71.0691 74.3479 70.5753 75.4733 70.5753H80.7696C82.866 70.5753 84.6977 72.1914 85.0507 74.3687C85.8893 79.509 86.7058 84.6269 87.5444 89.7672C87.743 91.0018 87.3899 92.1914 86.5513 92.9995C85.8893 93.6954 84.9845 94.0545 84.0135 94.0545ZM81.4096 85.7492C81.4316 85.7492 81.4316 85.7492 81.4096 85.7492C81.4316 85.7492 81.4316 85.7492 81.4096 85.7492Z" fill="#020202"/>
<path d="M94.2981 96.4326C94.0995 96.4326 93.9009 96.4102 93.7023 96.3653C92.0913 95.9388 90.4583 95.5348 88.8253 95.1756C88.0971 95.0185 87.4792 94.5022 87.1702 93.8288C86.8613 93.133 86.8613 92.3473 87.1923 91.6739C87.2585 91.5393 87.3247 91.4046 87.3909 91.2699C86.6627 87.2744 85.9344 83.2789 85.2283 79.3058C84.6545 79.5303 83.9925 79.5078 83.4187 79.2385C82.6684 78.9018 82.1388 78.2059 82.0064 77.3978L81.3443 73.5146C81.234 72.7963 81.4105 72.0555 81.874 71.5168C82.3374 70.9556 83.0215 70.6414 83.7277 70.6414H92.2458C93.3933 70.6414 94.3864 71.4495 94.6291 72.5942L95.5339 76.9714C95.7325 77.959 95.3353 78.9467 94.5188 79.5078C94.1216 79.7772 93.6802 79.9119 93.2389 79.9343C93.9892 83.7503 94.7174 87.5662 95.4677 91.4046C95.4677 91.4046 95.4898 91.427 95.4898 91.4495C95.7546 91.8311 96.0194 92.2127 96.2842 92.6167C96.858 93.4697 96.858 94.592 96.2621 95.4225C95.8429 96.051 95.0926 96.4326 94.2981 96.4326Z" fill="#020202"/>
<path d="M2.8268 100.002C1.96616 100.002 1.14965 99.5978 0.620026 98.8795C-0.0640749 97.9367 -0.108211 96.6572 0.531755 95.6696C0.840704 95.1982 1.12758 94.7493 1.41447 94.3003C1.50274 94.1657 1.54687 94.0534 1.56894 94.0085L6.33558 73.5147C6.26938 73.1331 6.18111 72.7515 6.1149 72.3923C5.96043 71.5618 6.18111 70.7313 6.68866 70.0803C7.21829 69.4294 7.99066 69.0702 8.80717 69.0702H13.2207C13.4414 69.0702 13.6842 69.0927 13.9048 69.16C14.1255 69.0927 14.3462 69.0702 14.5889 69.0702H19.0025C20.0176 69.0702 20.9665 69.6538 21.452 70.5741C21.9375 71.4945 21.8713 72.6168 21.2975 73.4698L20.6134 74.5023C19.4659 80.4732 18.3405 86.444 17.1929 92.4148C17.2591 92.5719 17.3253 92.7515 17.4136 92.9086C17.7446 93.6718 17.7226 94.5473 17.3474 95.288C16.9722 96.0287 16.2881 96.5675 15.4937 96.747C13.8166 97.1286 12.0953 97.5551 10.4181 98.0041C10.1533 98.0714 9.86642 98.0938 9.60161 98.0938C9.35887 98.251 9.11612 98.3632 8.85131 98.4305C7.13002 98.9019 5.38667 99.3958 3.66538 99.9345C3.35643 99.9569 3.09162 100.002 2.8268 100.002Z" fill="#020202"/>
<path d="M16.443 96.4331C15.5382 96.4331 14.6776 95.9842 14.1479 95.1985C13.508 94.2558 13.508 92.9988 14.1479 92.056C14.4128 91.6744 14.6555 91.2704 14.9203 90.8888C15.9575 85.0975 16.9726 79.3063 17.9877 73.4926C17.8995 73.2232 17.8112 72.9539 17.7229 72.6845C17.4581 71.8315 17.6126 70.8888 18.1201 70.1705C18.6277 69.4522 19.4663 69.0257 20.349 69.0257H29.7719C30.5664 69.0257 31.3167 69.3848 31.8463 69.9909C32.3759 70.597 32.6187 71.405 32.5083 72.2131L31.9787 76.2311C31.8463 77.1738 31.2505 78.0044 30.4119 78.4084C30.3236 78.4533 30.2574 78.4758 30.1691 78.5206C30.1691 78.5431 30.1691 78.588 30.1471 78.6104L29.463 83.4814C29.3747 84.065 29.132 84.5813 28.7347 85.0077C28.8892 85.0751 29.0216 85.1424 29.1761 85.2322C30.0809 85.8158 30.5884 86.8933 30.434 87.9707L29.9043 91.9887C29.7499 93.2232 28.8009 94.2109 27.5872 94.3905C24.0564 94.9292 20.5035 95.5801 16.9947 96.3658C16.8402 96.4107 16.6416 96.4331 16.443 96.4331ZM24.6743 85.2996L24.5639 85.973C24.8067 85.9281 25.0494 85.9056 25.2922 85.8607C25.4025 85.7709 25.5349 85.7036 25.6453 85.6138C25.5791 85.5914 25.5128 85.5465 25.4466 85.5016C25.2922 85.4118 25.1377 85.322 24.9832 85.2322C24.8729 85.2771 24.7846 85.2771 24.6743 85.2996Z" fill="#020202"/>
<path d="M28.7785 94.1889C27.8296 94.1889 26.9469 93.6951 26.4393 92.8646C25.8655 91.9218 25.8876 90.7097 26.5276 89.7894L27.1234 88.9139C27.7413 83.7961 28.3371 78.6782 28.955 73.5828C28.8668 73.3808 28.7785 73.1564 28.6902 72.9543C28.3151 72.0789 28.4033 71.0913 28.9109 70.3056C29.4184 69.52 30.2791 69.0486 31.228 69.0486H35.6416C36.6567 69.0486 37.6056 69.6322 38.069 70.5301C38.5545 71.4504 38.4883 72.5503 37.9145 73.4257L37.4511 74.144C37.098 77.6681 36.7229 81.1698 36.3698 84.694C36.7229 84.6715 37.0539 84.6491 37.407 84.6042C37.6939 84.4246 37.9807 84.2675 38.2676 84.0879C39.1503 83.5716 40.2537 83.5716 41.1144 84.1328C41.975 84.694 42.4826 85.6816 42.4164 86.7142L42.1516 90.4628C42.0633 91.8545 40.9599 92.9544 39.5917 93.0666C36.1491 93.3135 32.6403 93.6951 29.2198 94.1889C29.0212 94.1889 28.8888 94.1889 28.7785 94.1889ZM37.2525 74.3236C37.2525 74.346 37.2525 74.346 37.2525 74.3236V74.3236Z" fill="#020202"/>
<path d="M40.8504 92.9316C39.8574 92.9316 38.9306 92.3929 38.4451 91.495C37.9154 90.5523 37.9816 89.4075 38.5775 88.5096L39.0188 87.8587C39.2836 83.1224 39.5705 78.4086 39.8353 73.6724C39.7471 73.4928 39.6367 73.3132 39.5484 73.1112C39.085 72.2358 39.1071 71.1808 39.6147 70.3503C40.1222 69.5197 41.0049 68.981 41.9759 68.981H46.3895C47.4046 68.981 48.3314 69.5422 48.8169 70.4401C49.3024 71.3379 49.2583 72.4378 48.7286 73.2908C48.5962 73.4928 48.4859 73.6948 48.3535 73.8744C48.2211 77.2638 48.0887 80.6533 47.9342 84.0427C48.3976 84.0427 48.839 84.0203 49.3024 84.0203L50.0527 83.6163C50.9134 83.1449 51.9505 83.1898 52.767 83.706C53.6056 84.2223 54.0911 85.1426 54.0911 86.1303L54.069 89.7891C54.069 91.3379 52.8332 92.5725 51.3106 92.5725C47.9121 92.5725 44.4475 92.6623 41.0491 92.8867C40.9608 92.9316 40.9167 92.9316 40.8504 92.9316Z" fill="#020202"/>
<path d="M60.9308 92.9314C60.8425 92.9314 60.7322 92.9314 60.6439 92.9314C58.5695 92.7967 56.4731 92.707 54.3766 92.6621C51.9492 92.5947 50.0514 90.7092 50.0514 88.3748V84.8955C50.0514 83.9528 50.3603 83.0549 50.912 82.3141C50.3603 81.5958 50.0514 80.698 50.0293 79.7552V73.313C50.0293 72.1682 50.4707 71.0683 51.2872 70.2603C52.0816 69.4746 53.1409 69.0257 54.2663 69.0257H60.026C62.321 69.0257 64.1968 70.8439 64.3292 73.1783L64.4396 75.423C64.4837 76.1413 64.2409 76.8371 63.7996 77.3759C64.3071 78.0493 64.6161 78.8798 64.6602 79.7777L65.1236 88.5992C65.1899 89.7664 64.7485 90.8888 63.9541 91.7193C63.1596 92.5049 62.0783 92.9314 60.9308 92.9314Z" fill="#020202"/>
<path d="M75.3639 94.5484C75.2315 94.5484 75.077 94.5484 74.9446 94.526C73.3337 94.2791 71.7007 94.0322 70.0897 93.8301C69.8249 93.8077 69.5822 93.7403 69.3615 93.6281C69.1187 93.673 68.8539 93.673 68.6112 93.6506C67.0002 93.471 65.3893 93.2914 63.7783 93.1567C62.8294 93.0669 61.9688 92.4833 61.5495 91.6079C61.1302 90.7325 61.1743 89.6999 61.6819 88.8694C61.7702 88.7347 61.8584 88.6001 61.9467 88.4429C61.6378 83.6169 61.3288 78.8133 61.0199 73.9873L60.6006 73.3363C60.0489 72.4833 60.0047 71.3834 60.4902 70.4631C60.9757 69.5653 61.9026 69.0041 62.9177 69.0041H67.3312C67.5519 69.0041 67.7947 69.0265 68.0153 69.0939C68.236 69.0265 68.4567 69.0041 68.6994 69.0041H73.113C74.0398 69.0041 74.9005 69.4755 75.408 70.2611C75.9156 71.0467 76.0039 72.0568 75.6287 72.9098C75.5404 73.1343 75.4301 73.3587 75.3418 73.5832C75.9377 78.8133 76.5114 84.0209 77.1073 89.251L77.7031 90.1489C78.321 91.0692 78.321 92.2813 77.7472 93.2241C77.1735 94.077 76.2908 94.5484 75.3639 94.5484Z" fill="#020202"/>
<path d="M85.3827 96.4331C85.0517 96.4331 84.7207 96.3882 84.3897 96.3209C82.3815 95.8719 80.3513 95.4679 78.321 95.1088C76.0701 94.7047 74.2385 92.7743 73.9516 90.5296C73.2675 85.0302 72.5834 79.5307 71.8993 74.0313C71.7448 72.707 72.12 71.4275 72.9365 70.4623C73.7309 69.5644 74.8564 69.0257 76.048 69.0257H81.4547C83.7276 69.0257 85.7358 70.8888 86.1551 73.3804C87.1702 79.4185 88.2074 85.4567 89.2225 91.4948C89.4653 92.9763 89.068 94.368 88.075 95.3332C87.3688 96.0515 86.4199 96.4331 85.3827 96.4331Z" fill="#020202"/>
<path d="M96.1734 99.2394C95.9307 99.2394 95.6659 99.1945 95.4231 99.1272C93.7239 98.6334 92.0247 98.162 90.3254 97.7355C89.5531 97.5335 88.891 96.9948 88.538 96.2765C88.1849 95.5357 88.1407 94.7052 88.4497 93.942C88.538 93.7624 88.6042 93.5604 88.6704 93.3808C87.7656 88.6446 86.8608 83.8859 85.956 79.1496C85.4043 79.2843 84.8306 79.2394 84.2789 79.0374C83.3962 78.6782 82.7562 77.8702 82.5796 76.9274L81.7631 72.3483C81.6087 71.5402 81.8293 70.6872 82.359 70.0587C82.8886 69.4302 83.661 69.0486 84.4775 69.0486H93.1943C94.4963 69.0486 95.5997 69.9689 95.8865 71.2484L97.012 76.4111C97.2547 77.5559 96.7913 78.7231 95.8203 79.3741C95.4893 79.5986 95.1142 79.7332 94.739 79.8006C95.6659 84.3573 96.6148 88.9139 97.5416 93.4482C97.5416 93.4482 97.5637 93.4931 97.6078 93.5829C97.8947 94.0318 98.1816 94.5032 98.4685 94.9521C99.0864 95.9398 99.0422 97.1968 98.3581 98.1395C97.8506 98.8354 97.0341 99.2394 96.1734 99.2394Z" fill="#020202"/>
<path d="M14.3676 92.1232C14.3014 92.4824 14.3235 92.7966 14.4338 93.066C14.5662 93.3802 14.6986 93.6721 14.831 93.9863C13.1318 94.3903 11.4105 94.7944 9.68925 95.2658C9.95407 94.8393 10.2409 94.4352 10.5058 94.0087C10.7485 93.6496 10.903 93.268 10.9692 92.9089C11.6312 89.6541 12.3153 86.4218 12.9774 83.167C11.8078 83.9975 10.6382 84.8729 9.44651 85.7708C8.87274 88.4195 8.27691 91.0682 7.70315 93.7169C7.61488 94.0985 7.63695 94.4352 7.72522 94.727C7.83556 95.0413 7.96797 95.378 8.0783 95.6922C6.33495 96.1636 4.59159 96.6799 2.82617 97.2186C3.11305 96.7472 3.422 96.2983 3.70888 95.8494C3.95163 95.4678 4.15024 95.0413 4.23851 94.6597C5.82739 87.8359 7.41627 80.9897 9.00515 74.1659C9.09342 73.7618 9.11549 73.3802 9.04929 73.0435C8.96102 72.6395 8.89481 72.2579 8.82861 71.8539C10.3072 71.8539 11.7636 71.8539 13.2422 71.8539C12.9994 72.2355 12.7346 72.6171 12.4919 72.9762C12.2712 73.3129 12.1167 73.672 12.0284 74.0536C11.4988 76.4554 10.9692 78.8348 10.4616 81.2366C11.6091 80.4061 12.7567 79.598 13.9042 78.8123C14.2352 77.1962 14.5662 75.58 14.8972 73.9639C14.9635 73.6047 14.9635 73.2456 14.8972 72.9313C14.809 72.5722 14.7207 72.213 14.6104 71.8314C16.0889 71.8314 17.5454 71.8314 19.0239 71.8314C18.7812 72.1906 18.5605 72.5273 18.3178 72.8864C18.1191 73.2007 17.9647 73.5374 17.8985 73.8965C16.7068 79.9571 15.5372 86.0402 14.3676 92.1232Z" fill="white"/>
<path d="M29.8145 71.8316C29.6379 73.1784 29.4614 74.5028 29.2849 75.8496C28.998 75.67 28.7332 75.4904 28.4463 75.2884C28.2477 75.1537 28.0049 75.0864 27.7401 75.0864C26.3278 75.1313 24.9154 75.1762 23.5031 75.2211C23.2824 76.5903 23.0617 77.9371 22.8411 79.3064C23.7679 79.239 24.7168 79.1717 25.6437 79.1044C25.9085 79.0819 26.1733 78.9921 26.416 78.835C26.7471 78.6105 27.1001 78.4085 27.4312 78.1841C27.2105 79.8002 26.9898 81.4388 26.7471 83.055C26.4602 82.8979 26.1512 82.7183 25.8643 82.5612C25.6437 82.4489 25.4009 82.3816 25.1361 82.404C24.1872 82.4938 23.2162 82.5836 22.2673 82.6958C21.9142 84.8956 21.5611 87.0954 21.208 89.3176C22.7528 89.0707 24.2975 88.8238 25.8423 88.6218C26.1292 88.5769 26.416 88.4646 26.6588 88.2851C27.0119 88.0381 27.365 87.8137 27.7401 87.5668C27.5636 88.9136 27.387 90.2379 27.2105 91.5847C23.6576 92.1234 20.0605 92.7968 16.4414 93.5825C16.7062 93.1784 16.971 92.7744 17.2579 92.3704C17.4565 92.0786 17.5889 91.7643 17.6331 91.4725C18.6703 85.5466 19.7295 79.6431 20.7667 73.7172C20.8108 73.4254 20.8108 73.1335 20.7226 72.8642C20.6122 72.505 20.5019 72.1459 20.3915 71.7867C23.5252 71.8316 26.6588 71.8316 29.8145 71.8316Z" fill="white"/>
<path d="M38.5754 87.0952C38.9065 86.8931 39.2595 86.6911 39.5906 86.4891C39.5023 87.7461 39.414 88.9807 39.3257 90.2377C35.817 90.5071 32.3082 90.8662 28.7773 91.3825C29.0201 91.0233 29.2628 90.6866 29.4835 90.3499C29.6601 90.103 29.7704 89.8112 29.7925 89.5419C30.4324 84.222 31.0724 78.9021 31.6903 73.5823C31.7124 73.3129 31.6903 73.0435 31.58 72.7966C31.4475 72.4824 31.2931 72.1681 31.1607 71.8314C32.6392 71.8314 34.0957 71.8314 35.5742 71.8314C35.3756 72.1457 35.1549 72.4599 34.9563 72.7742C34.8018 72.9987 34.7136 73.268 34.6694 73.5374C34.1839 78.2736 33.6985 83.0099 33.213 87.7686C34.7356 87.6114 36.2363 87.4992 37.7589 87.387C38.0458 87.3421 38.3106 87.2523 38.5754 87.0952Z" fill="white"/>
<path d="M50.3387 86.6911C50.6697 86.5116 50.9787 86.332 51.3097 86.1749C51.3097 87.387 51.2876 88.6216 51.2876 89.8337C47.8009 89.8337 44.3363 89.9235 40.8496 90.1479C41.0703 89.8337 41.2689 89.5194 41.4896 89.2052C41.644 88.9807 41.7323 88.7113 41.7544 88.4644C42.0413 83.4588 42.3281 78.4756 42.615 73.47C42.6371 73.2007 42.5709 72.9538 42.4606 72.7293C42.3061 72.4375 42.1516 72.1232 41.9751 71.8314C43.4536 71.8314 44.9101 71.8314 46.3886 71.8314C46.2121 72.1232 46.0135 72.415 45.8148 72.7293C45.6824 72.9538 45.5942 73.2007 45.5942 73.4476C45.4176 77.9594 45.219 82.4712 45.0425 86.9829C46.5431 86.938 48.0437 86.8932 49.5443 86.8932C49.8312 86.8932 50.096 86.8034 50.3387 86.6911Z" fill="white"/>
<path d="M58.989 71.8314C59.342 71.8314 59.6731 71.8314 60.0261 71.8314C60.8426 71.8314 61.5268 72.5048 61.5709 73.3353C61.615 74.0761 61.6592 74.8393 61.6812 75.58C61.3723 75.4004 61.0854 75.2209 60.7764 75.0413C60.5116 74.8842 60.2247 74.8168 59.9379 74.8168C58.7903 74.7944 57.6207 74.7944 56.4732 74.7944C56.076 74.7944 55.767 75.1086 55.7891 75.4902C55.8112 76.231 55.8112 76.9493 55.8333 77.69C55.8333 78.0491 56.1422 78.341 56.5174 78.341C57.7752 78.3634 59.0331 78.3858 60.313 78.4083C61.1516 78.4307 61.8798 79.1266 61.924 79.9571C62.0784 82.8976 62.2329 85.8381 62.3874 88.7786C62.4315 89.6092 61.7254 90.2152 60.8426 90.1703C58.7241 90.0357 56.5836 89.9459 54.465 89.901C53.5603 89.8785 52.832 89.2276 52.832 88.3971C52.832 87.2298 52.832 86.0626 52.832 84.8954C52.832 84.3791 53.141 83.8853 53.6265 83.6384C54.4209 83.2343 55.1933 82.8078 55.9657 82.4038C55.9877 83.6833 56.0098 84.9852 56.0319 86.2646C56.0319 86.6687 56.385 86.9829 56.8263 87.0054C57.3559 87.0278 57.8635 87.0503 58.3931 87.0727C58.7903 87.0951 59.0993 86.8033 59.0772 86.4442C59.0331 84.9852 58.9669 83.5037 58.9227 82.0447C58.9007 81.6631 58.5697 81.3264 58.1724 81.3264C56.9146 81.3039 55.6567 81.259 54.3768 81.259C53.5161 81.259 52.832 80.5856 52.832 79.7775C52.832 77.6227 52.832 75.4902 52.832 73.3353C52.832 72.5273 53.4941 71.8763 54.3106 71.8763C55.8333 71.8314 57.4001 71.8314 58.989 71.8314Z" fill="white"/>
<path d="M74.3256 89.8112C74.3698 90.1255 74.4801 90.4397 74.6787 90.7315C74.8994 91.0682 75.1201 91.4049 75.3628 91.7641C73.7077 91.4947 72.0527 91.2703 70.4196 91.0682C70.5741 90.7989 70.7507 90.5071 70.9051 90.2377C71.0375 89.9908 71.1037 89.699 71.0596 89.4072C70.7948 86.7136 70.53 83.9975 70.2652 81.3039C69.3163 81.8202 68.3894 82.314 67.4405 82.8078C67.617 84.8954 67.7715 86.9829 67.9481 89.048C67.9701 89.3398 68.0805 89.6541 68.257 89.9235C68.4777 90.2377 68.6763 90.552 68.897 90.8887C67.2639 90.6866 65.6309 90.5295 63.9979 90.3948C64.1745 90.1255 64.3289 89.8337 64.5055 89.5643C64.66 89.3174 64.7262 89.048 64.7041 88.7562C64.3731 83.6833 64.0421 78.6328 63.7331 73.5598C63.711 73.268 63.6228 72.9762 63.4462 72.7293C63.2476 72.4375 63.0711 72.1457 62.8945 71.8539C64.3731 71.8539 65.8295 71.8539 67.3081 71.8539C67.1536 72.1457 67.0212 72.4599 66.8667 72.7517C66.7343 72.9987 66.6902 73.2905 66.7123 73.6047C66.8667 75.4902 67.0212 77.3758 67.1757 79.2613C68.1025 78.745 69.0294 78.2063 69.9562 77.6676C69.8238 76.3208 69.6914 74.974 69.559 73.6272C69.5369 73.3129 69.4266 73.0211 69.2501 72.7517C69.0514 72.4375 68.8528 72.1457 68.6542 71.8314C70.1328 71.8314 71.5892 71.8314 73.0678 71.8314C72.9354 72.1457 72.803 72.4599 72.6706 72.7742C72.5602 73.0435 72.5161 73.3578 72.5381 73.6496C73.1119 79.0368 73.7077 84.424 74.3256 89.8112Z" fill="white"/>
<path d="M81.475 71.8314C82.3797 71.8314 83.2845 72.7293 83.4611 73.8516C84.4762 79.8898 85.5134 85.9279 86.5506 91.9885C86.7492 93.1109 86.043 93.8067 84.9837 93.5823C82.9094 93.1333 80.8571 92.7068 78.8048 92.3477C77.7676 92.1681 76.8187 91.2029 76.7083 90.1704C76.0242 84.6709 75.3401 79.1715 74.656 73.6721C74.5236 72.662 75.1636 71.8314 76.0684 71.8314C77.8559 71.8314 79.6654 71.8314 81.475 71.8314ZM82.8211 88.9807C82.1591 84.6934 81.497 80.3836 80.835 76.0963C80.7688 75.6698 80.4157 75.3107 80.0406 75.2882C79.533 75.2658 79.0254 75.2433 78.5179 75.2433C78.1427 75.2209 77.9 75.5576 77.9441 75.9841C78.5179 80.1591 79.1137 84.3118 79.6875 88.4869C79.7537 88.9134 80.1288 89.2949 80.5261 89.3623C81.0778 89.4521 81.6294 89.5419 82.2032 89.6541C82.6225 89.699 82.8873 89.4072 82.8211 88.9807Z" fill="white"/>
<path d="M93.1933 71.8314C93.5685 73.5598 93.9436 75.2658 94.3188 76.9942C93.9657 76.7248 93.6126 76.4554 93.2595 76.2085C92.9727 76.0065 92.6858 75.8943 92.421 75.8718C92.0017 75.8494 91.5603 75.8269 91.141 75.8045C92.3768 81.8651 93.6347 87.9257 94.8705 93.9863C94.9367 94.3455 95.0912 94.727 95.3118 95.0637C95.5987 95.5127 95.8856 95.9616 96.1725 96.433C94.4291 95.9167 92.7078 95.4453 90.9866 95.0188C91.119 94.7046 91.2514 94.3679 91.3838 94.0536C91.4941 93.8067 91.4941 93.4925 91.4279 93.1333C90.3245 87.2972 89.1991 81.4835 88.0957 75.6474C87.6764 75.6249 87.235 75.6025 86.8157 75.58C86.5509 75.5576 86.2861 75.6474 86.0875 75.8045C85.8227 76.0065 85.5579 76.2085 85.2931 76.4105C85.0283 74.8842 84.7634 73.3578 84.4766 71.8314C87.3895 71.8314 90.3025 71.8314 93.1933 71.8314Z" fill="white"/>
</g>
<defs>
<clipPath id="clip0">
<rect width="98.8636" height="100" fill="white" transform="translate(0.0683594 0.00201416)"/>
</clipPath>
</defs>
</svg>
