<svg width="20" height="21" viewBox="0 0 20 21" fill="none" xmlns="http://www.w3.org/2000/svg">
<g clip-path="url(#clip0)">
<circle cx="10" cy="10.4719" r="10" fill="white"/>
<path d="M14.4451 5.3301C14.4451 5.29746 14.4451 5.22509 14.4801 5.22509C14.53 5.22509 14.5728 5.33152 14.5889 5.37693C14.859 6.24679 14.7832 7.31461 14.3974 8.51652C15.9283 9.34381 16.8074 10.4166 16.6481 11.4198C16.4377 12.7381 14.5236 13.5136 11.9473 13.4228C12.1985 13.1503 12.5416 12.7495 12.8082 12.3975C13.8003 12.2024 14.5117 11.8058 14.6976 11.1701C14.8338 10.7082 14.5194 10.1952 13.9217 9.71275C12.9394 11.8044 11.2983 13.6782 9.7821 14.7609C10.5174 15.7088 11.2022 16.3666 11.9845 16.7362C12.0133 16.7504 12.0757 16.7866 12.0546 16.8192C12.0301 16.8632 11.9143 16.8476 11.8708 16.8384C10.9903 16.6404 10.1168 16.0402 9.27483 15.1008C7.80143 16.0281 6.44239 16.2615 5.6629 15.6201C4.63923 14.778 4.93181 12.7111 6.29435 10.5046C6.4017 10.8593 6.575 11.3617 6.74199 11.7703C6.41222 12.7374 6.39679 13.5583 6.84793 14.0408C7.17559 14.3906 7.77196 14.3721 8.48411 14.0897C7.19243 12.1826 6.40731 9.80854 6.23892 7.93614C5.0595 8.10642 4.15371 8.37674 3.44648 8.87695C3.41982 8.8954 3.35738 8.93229 3.33843 8.89965C3.31387 8.85566 3.38404 8.76485 3.41421 8.72866C4.02461 8.05675 4.97671 7.58919 6.19893 7.32667C6.1421 5.57134 6.6199 4.26513 7.56007 3.90328C8.79352 3.4279 10.4157 4.71708 11.6246 7.01661C11.266 6.93289 10.751 6.83285 10.3167 6.77609C9.6537 6.00485 8.9577 5.57914 8.31993 5.73452C7.85686 5.84663 7.57481 6.37805 7.46044 7.14007C9.74281 6.95346 12.1676 7.45438 13.855 8.24336C14.2991 7.12871 14.5201 6.19996 14.4451 5.3301ZM9.11276 13.7896C10.9194 12.7452 12.3844 11.1509 13.3561 9.31472C11.5565 8.25897 9.46006 7.7694 7.40291 7.83893C7.3987 9.94264 8.02735 12.0251 9.11486 13.7903L9.11276 13.7896Z" fill="#148EFF"/>
</g>
<defs>
<clipPath id="clip0">
<rect width="20" height="20" fill="white" transform="translate(0 0.471924)"/>
</clipPath>
</defs>
</svg>
