<svg width="20" height="21" viewBox="0 0 20 21" fill="none" xmlns="http://www.w3.org/2000/svg">
<g clip-path="url(#clip0)">
<circle cx="10" cy="10.4719" r="10" fill="black"/>
<path d="M4.51623 3.62048C3.62523 3.62048 3.29858 3.94956 3.29858 4.83813V15.5724C3.29858 15.674 3.30393 15.7673 3.31171 15.8539C3.33455 16.0488 3.33455 16.2388 3.51635 16.4513C3.53385 16.4765 3.71662 16.6107 3.71662 16.6107C3.8153 16.6588 3.88335 16.6943 3.99466 16.7395L9.39753 19.0027C9.67606 19.1296 9.79563 19.1831 9.99785 19.1753H10.0003C10.2049 19.1831 10.3245 19.1301 10.603 19.0027L16.003 16.7395C16.1172 16.6943 16.1823 16.6583 16.2834 16.6107C16.2834 16.6107 16.4662 16.4712 16.4837 16.4513C16.666 16.2388 16.666 16.0488 16.6884 15.8539C16.6961 15.7678 16.7015 15.6745 16.7015 15.5753V4.83862C16.7015 3.95005 16.3724 3.62097 15.4838 3.62097L4.51623 3.62048ZM13.1725 5.63532H13.6124C14.3469 5.63532 14.7066 5.99259 14.7066 6.73728V7.95493H13.8156V6.78492C13.8156 6.54722 13.7067 6.43833 13.4758 6.43833H13.3241C13.0864 6.43833 12.9776 6.54722 12.9776 6.78492V10.5516C12.9776 10.7893 13.0864 10.8982 13.3241 10.8982H13.4938C13.7213 10.8982 13.8302 10.7893 13.8302 10.5516V9.20466H14.7212V10.5949C14.7212 11.3362 14.3571 11.7012 13.6202 11.7012H13.1725C12.4331 11.7012 12.0705 11.3337 12.0705 10.5949V6.7436C12.0705 6.00231 12.4327 5.63483 13.1725 5.63483V5.63532ZM5.27307 5.68684H7.29082V6.51465H6.17914V8.2004H7.25048V9.02627H6.17914V10.8233H7.30638V11.6516H5.27307V5.68684ZM7.74629 5.68684H9.16955C9.90598 5.68684 10.2705 6.05384 10.2705 6.79512V8.38026C10.2705 9.12154 9.90549 9.48659 9.16955 9.48659H8.65576V11.6511H7.74629V5.68684ZM10.6808 5.68684H11.5869V11.6516H10.6808V5.68684ZM8.65284 6.48889V8.686H9.02762C9.25559 8.686 9.36447 8.57518 9.36447 8.33651V6.8379C9.36447 6.6002 9.25559 6.4884 9.02762 6.4884L8.65284 6.48889ZM6.15386 13.0686H6.28802L6.31865 13.0739H6.36726L6.39253 13.0817H6.41781L6.44066 13.089L6.46593 13.0943L6.48586 13.0997L6.53107 13.1099L6.55683 13.1172L6.57433 13.1225L6.59426 13.1303L6.61954 13.1381L6.63704 13.1454L6.6628 13.1556L6.68564 13.1658L6.70557 13.1779L6.72842 13.1882L6.74592 13.2003L6.77168 13.2134L6.79161 13.2256L6.81154 13.2358L6.83147 13.2509L6.85237 13.264L6.86987 13.279L6.93063 13.3252L6.91508 13.3452L6.89758 13.3627L6.88202 13.3806L6.86452 13.4006L6.85237 13.4181L6.83682 13.4361L6.81932 13.4536L6.80376 13.4735L6.79161 13.491L6.77363 13.5119L6.75856 13.5294L6.74106 13.5493L6.7255 13.5673L6.71335 13.5872L6.69537 13.6047L6.6803 13.6256L6.6628 13.6431L6.64724 13.6606L6.62974 13.6485L6.60981 13.6305L6.58891 13.6183L6.55148 13.5931L6.52864 13.5799L6.50774 13.5678L6.48489 13.5547L6.46739 13.5445L6.44746 13.5347L6.40663 13.5192L6.38135 13.5148L6.36142 13.5095L6.33858 13.5041L6.31281 13.4988L6.28754 13.4963H6.26226L6.23261 13.491H6.184L6.15872 13.4934H6.13345L6.10817 13.5012L6.08824 13.5065L6.0654 13.5143L6.04255 13.5187L6.02165 13.5289L5.99637 13.5391L5.96137 13.5644L5.94047 13.5765L5.92297 13.5921L5.90547 13.6042L5.88749 13.6198L5.87534 13.6373L5.85443 13.6548L5.82916 13.6903L5.81701 13.7102L5.8068 13.7331L5.79465 13.751L5.78152 13.7739L5.77374 13.7967L5.76402 13.8167L5.75624 13.8419L5.75381 13.8672L5.74652 13.8905L5.74118 13.9158V13.9411L5.73875 13.9664V14.0247L5.74118 14.05V14.0699L5.74361 14.0952L5.74798 14.118L5.75576 14.138L5.75819 14.1637L5.76597 14.1837L5.77326 14.2012L5.78347 14.2264L5.79659 14.2517L5.80631 14.2697L5.83159 14.31L5.84714 14.33L5.85929 14.348L5.8802 14.363L5.89235 14.3805L5.90985 14.3961L5.95068 14.4267L5.96818 14.4364L5.98811 14.4495L6.01144 14.4598L6.03672 14.4695L6.05422 14.4797L6.10477 14.4948L6.12762 14.4972L6.15289 14.505L6.17817 14.5074H6.28705L6.31768 14.505H6.34052L6.36628 14.4948L6.39156 14.4923L6.41684 14.485L6.43677 14.4797L6.45961 14.4695L6.47954 14.4598L6.50239 14.4495L6.51794 14.4393L6.53787 14.4272V14.2016H6.1806V13.84H6.98799V14.6503L6.97049 14.6625L6.95299 14.6775L6.93501 14.6906L6.91508 14.7057L6.89515 14.7159L6.87765 14.7315L6.83682 14.7568L6.81154 14.7689L6.7712 14.7942L6.74543 14.8044L6.7255 14.8141L6.70266 14.8243L6.6521 14.8443L6.63217 14.8545L6.586 14.8695L6.56315 14.8749L6.5403 14.8827L6.51503 14.8904L6.4951 14.8948L6.41927 14.9104L6.39594 14.9128L6.34538 14.9181L6.31768 14.9206L6.2924 14.9225L6.26469 14.9249H6.13831L6.11303 14.9206H6.08776L6.06248 14.9152H6.03963L6.01436 14.9074L5.94047 14.8924L5.92054 14.8846L5.8977 14.8822L5.87242 14.872L5.82624 14.8569L5.78103 14.837L5.75576 14.8268L5.73826 14.8165L5.71298 14.8068L5.695 14.7913L5.66972 14.7815L5.65465 14.7684L5.63472 14.7563L5.59389 14.7256L5.57396 14.7125L5.55841 14.6975L5.53848 14.6819L5.50542 14.6493L5.48792 14.6338L5.47285 14.6163L5.45487 14.5983L5.44272 14.5784L5.42716 14.5633L5.41501 14.5424L5.39946 14.5225L5.3873 14.505L5.37418 14.485L5.36203 14.4617L5.35182 14.4418L5.34161 14.4189L5.33189 14.399L5.31196 14.3528L5.30418 14.3353L5.29397 14.3125L5.28863 14.2896L5.28425 14.2697L5.27891 14.2444L5.27113 14.2211L5.26578 14.1958L5.26335 14.1759L5.25898 14.1506L5.25363 14.1054L5.24828 14.0548V13.9207L5.25363 13.8949V13.8696L5.26141 13.8444V13.8191L5.2687 13.7962L5.27648 13.771L5.28668 13.7258L5.29397 13.7005L5.30175 13.6776L5.33238 13.6091L5.3421 13.5892L5.35231 13.5663L5.36543 13.543L5.37515 13.5231L5.38828 13.5056L5.41355 13.4647L5.42862 13.4448L5.44418 13.4273L5.45633 13.4074L5.48938 13.3743L5.50445 13.3563L5.52244 13.3388L5.5375 13.3213L5.55841 13.3058L5.5934 13.2752L5.61333 13.2601L5.63424 13.247L5.65174 13.2319L5.67166 13.2188L5.69257 13.2091L5.71541 13.1959L5.74069 13.1838L5.75819 13.1707L5.78347 13.1609L5.80631 13.1507L5.82916 13.1386L5.85006 13.1332L5.87534 13.1254L5.89527 13.1152L5.91811 13.1109L5.94096 13.1031L5.96623 13.0977L5.98714 13.09L6.01241 13.0846H6.03769L6.06054 13.0773H6.08581L6.11109 13.072H6.13393L6.15386 13.0686ZM13.924 13.0739H14.0581L14.0888 13.0793H14.1369L14.1622 13.0866H14.1899L14.2151 13.0943L14.2604 13.1045L14.2856 13.1099L14.3085 13.1143L14.3342 13.122L14.3571 13.1298L14.377 13.1352L14.3999 13.1425L14.4251 13.1502L14.4451 13.1604L14.4703 13.1702L14.4937 13.1804L14.5165 13.1935L14.534 13.2032L14.5569 13.2163L14.5797 13.2261L14.6006 13.2392L14.6235 13.2543L14.641 13.2674L14.6818 13.298L14.7017 13.3102L14.6862 13.3301L14.674 13.351L14.6589 13.3685L14.6434 13.3884L14.6312 13.4113L14.6181 13.4322L14.603 13.4497L14.5875 13.4696L14.5753 13.4905L14.5598 13.5104L14.5476 13.5279L14.5321 13.5479L14.5199 13.5712L14.5044 13.5911L14.4893 13.6086L14.4737 13.6285L14.4616 13.6494L14.4417 13.6339L14.4183 13.6217L14.4008 13.6086L14.3809 13.5965L14.3581 13.5863L14.3372 13.5731L14.3143 13.5634L14.2968 13.5532L14.2715 13.5435L14.2535 13.5333L14.2336 13.5255L14.1884 13.5104L14.1379 13.4949L14.062 13.4798L14.0368 13.4774L13.9906 13.472H13.9376L13.9099 13.4774L13.8846 13.4827L13.8618 13.4881L13.8418 13.4978L13.8238 13.508L13.8039 13.5255L13.7888 13.5483L13.7786 13.5717V13.6319L13.7918 13.6597L13.8015 13.6752L13.817 13.6903L13.8423 13.7034L13.8622 13.7156L13.8851 13.7258L13.9104 13.7355L13.9434 13.7433L13.9609 13.751L13.9818 13.7564L14.0071 13.7617L14.027 13.769L14.0499 13.7744L14.0776 13.7822L14.1029 13.7899L14.1306 13.7972L14.1583 13.8026L14.1811 13.8103L14.2088 13.8176L14.2341 13.823L14.2569 13.8283L14.3333 13.8512L14.3532 13.859L14.3785 13.8667L14.4013 13.8765L14.4266 13.8896L14.4771 13.9095L14.5 13.9226L14.5408 13.9479L14.5783 13.9756L14.6016 13.9907L14.6191 14.0082L14.6366 14.0291L14.6546 14.0466L14.6667 14.0641L14.6847 14.0894L14.6969 14.1073L14.7071 14.1326L14.7168 14.1477L14.7246 14.173L14.7323 14.1939L14.7377 14.2167L14.7474 14.2673L14.7498 14.2925L14.7523 14.3154V14.3762L14.7498 14.4039L14.7445 14.4544L14.7391 14.4797L14.7319 14.5025L14.7265 14.5278L14.7187 14.5531L14.7114 14.5759L14.7012 14.5939L14.691 14.6168L14.6789 14.6367L14.6633 14.6547L14.638 14.695L14.6074 14.7305L14.5899 14.7427L14.57 14.7606L14.5544 14.7757L14.5345 14.7908L14.5146 14.801L14.4946 14.8165L14.4713 14.8287L14.4261 14.8515L14.4008 14.8618L14.378 14.8715L14.3527 14.8793L14.3299 14.887L14.309 14.8924L14.2584 14.9021L14.2409 14.9074L14.2156 14.9128H14.1904L14.1675 14.9181H14.1422L14.117 14.9235H13.9366L13.8608 14.9157L13.8355 14.9104L13.8127 14.9079L13.7621 14.8982L13.7344 14.8929L13.7116 14.8875L13.6863 14.8797L13.6605 14.8744L13.6377 14.8671L13.6124 14.8593L13.5871 14.8491L13.5672 14.8418L13.5419 14.834L13.5166 14.8238L13.4987 14.8141L13.4734 14.8063L13.4534 14.7932L13.4282 14.7835L13.4082 14.7704L13.3903 14.7582L13.365 14.7451L13.3475 14.7354L13.3275 14.7198L13.3076 14.7077L13.2867 14.6921L13.2692 14.677L13.2493 14.6615L13.2313 14.6493L13.2114 14.6313L13.2269 14.6114L13.2444 14.5939L13.2595 14.5759L13.2775 14.556L13.2896 14.5385L13.3052 14.5186L13.3227 14.5006L13.3378 14.4831L13.3557 14.4632L13.3679 14.4452L13.3859 14.4277L13.4009 14.4077L13.4165 14.3898L13.434 14.3698L13.4462 14.3523L13.4641 14.3343L13.4816 14.3144L13.4991 14.33L13.5225 14.345L13.54 14.3601L13.5652 14.3732L13.5827 14.3864L13.6056 14.4014L13.6265 14.4145L13.6493 14.4243L13.6668 14.4374L13.6897 14.4447L13.715 14.4549L13.7359 14.4651L13.7587 14.4724L13.7786 14.4826L13.8039 14.4904L13.8268 14.4977L13.852 14.5054L13.8773 14.5079L13.9006 14.5157L13.9259 14.5181H13.9536L13.9765 14.5254H14.1131L14.1359 14.521L14.1612 14.5157L14.1787 14.5132L14.1996 14.5054L14.2171 14.4957L14.2399 14.4802L14.2531 14.4627L14.2628 14.4427L14.2706 14.4194V14.3611L14.2604 14.3382L14.2482 14.3183L14.2326 14.3032L14.2098 14.2877L14.1923 14.2804L14.1695 14.2702L14.1442 14.26L14.1165 14.2478L14.0985 14.2425L14.0786 14.2371L14.0533 14.2294L14.0358 14.225L14.0105 14.2172L13.9852 14.2148L13.9595 14.2046L13.9342 14.2021L13.9065 14.1948L13.8836 14.1895L13.8584 14.1817L13.8331 14.1764L13.8078 14.1691L13.785 14.1613L13.7597 14.156L13.7398 14.1482L13.6936 14.1331L13.6683 14.1229L13.643 14.1156L13.5925 14.0947L13.5696 14.0826L13.5443 14.0694L13.5268 14.0573L13.5035 14.0442L13.486 14.032L13.4632 14.0189L13.4301 13.9858L13.4126 13.9708L13.382 13.9353L13.3689 13.9178L13.3591 13.9003L13.3436 13.8769L13.3363 13.8594L13.313 13.7987L13.3086 13.7734L13.3032 13.7506V13.7277L13.2979 13.7024V13.5989L13.3032 13.5483L13.3086 13.5274L13.313 13.5046L13.3207 13.4847L13.3261 13.4594L13.3363 13.4419L13.346 13.4161L13.3562 13.3962L13.3659 13.3709L13.3791 13.3534L13.3966 13.3335L13.4097 13.3126L13.4296 13.2951L13.4447 13.2776L13.4602 13.2567L13.4831 13.2392L13.4987 13.2261L13.5186 13.211L13.5589 13.1857L13.5818 13.1726L13.628 13.1497L13.6479 13.1425L13.6707 13.1347L13.696 13.1245L13.7213 13.1172L13.7393 13.1118L13.7621 13.1065L13.782 13.1011L13.8049 13.0958L13.8302 13.0904L13.8807 13.0861L13.904 13.0836L13.924 13.0739ZM7.93635 13.0914H8.39473L8.41563 13.1376L8.42535 13.1575L8.43313 13.1828L8.44334 13.2056L8.45063 13.2256L8.46375 13.2484L8.47882 13.2946L8.49195 13.3174L8.51188 13.3627L8.51722 13.3826L8.55757 13.474L8.56535 13.4968L8.57555 13.5177L8.58771 13.5406L8.59305 13.5634L8.60618 13.5887L8.61055 13.6115L8.63388 13.6567L8.64361 13.6747L8.65381 13.7L8.66159 13.7253L8.66888 13.7428L8.68201 13.7681L8.68978 13.789L8.69951 13.8142L8.70728 13.8317L8.71749 13.857L8.74034 13.9022L8.74763 13.9251L8.75298 13.9484L8.76318 13.9712L8.77534 13.9912L8.78554 14.0164L8.79575 14.0393L8.80304 14.0592L8.82395 14.1054L8.83124 14.1282L8.84144 14.1511L8.84922 14.1739L8.85894 14.1939L8.87207 14.2172L8.88179 14.24L8.892 14.26L8.89734 14.2853L8.91727 14.3305L8.92748 14.3514L8.93477 14.3742L8.95567 14.4194L8.96783 14.4447L8.97317 14.4646L8.9863 14.4904L8.99067 14.5079L9.00088 14.5332L9.01401 14.5584L9.02373 14.5759L9.0315 14.6012L9.04171 14.6221L9.049 14.6474L9.06213 14.6649L9.0772 14.7154L9.0874 14.7334L9.09713 14.7587L9.11025 14.7786L9.12046 14.8039L9.12483 14.8268L9.13261 14.8467L9.14282 14.8695L9.15497 14.8904H8.64895L8.6368 14.8695L8.62902 14.8467L8.61882 14.8238L8.60909 14.7986L8.60375 14.7786L8.58285 14.7334L8.57555 14.7125L8.55562 14.6673L8.54785 14.6474L8.53764 14.6221L8.52257 14.5759L8.51236 14.556H7.80851L7.79879 14.5788L7.79101 14.5997L7.7808 14.625L7.77108 14.6479L7.76573 14.6678L7.75552 14.6931L7.7458 14.713L7.73802 14.7359L7.72782 14.7568L7.71809 14.782L7.71032 14.7995L7.70011 14.8248L7.69282 14.8501L7.68261 14.8681L7.67483 14.8933H7.17368L7.18097 14.87L7.20187 14.8248L7.20916 14.7995L7.21694 14.7796L7.23006 14.7568L7.23978 14.7339L7.24999 14.713L7.25534 14.6902L7.26506 14.6649L7.27819 14.645L7.28791 14.6221L7.30346 14.5759L7.32631 14.5307L7.33409 14.5079L7.34381 14.4879L7.35158 14.4646L7.38221 14.3966L7.39242 14.3713L7.39971 14.3514L7.40748 14.3285L7.42061 14.3076L7.43033 14.2823L7.43811 14.2595L7.44589 14.2396L7.45561 14.2143L7.46873 14.1963L7.47651 14.171L7.48623 14.1511L7.49401 14.1282L7.50422 14.103L7.51637 14.083L7.52415 14.0578L7.53387 14.0398L7.54165 14.0145L7.55185 13.9892L7.56157 13.9717L7.57178 13.9464L7.57956 13.9255L7.58928 13.9003L7.59706 13.8828L7.61018 13.8575L7.6199 13.8322L7.63011 13.8123L7.63546 13.7894L7.64518 13.7661L7.65831 13.7433L7.66803 13.7233L7.67337 13.6981L7.68358 13.6752L7.69379 13.6543L7.71372 13.6091L7.72101 13.5892L7.74191 13.5386L7.75164 13.5206L7.76184 13.4954L7.76962 13.4754L7.77691 13.4502L7.78712 13.4273L7.80024 13.4074L7.80997 13.3821L7.81774 13.3641L7.82552 13.3388L7.83524 13.3189L7.84837 13.2961L7.85614 13.2708L7.86343 13.2499L7.87364 13.2246L7.88336 13.2071L7.89649 13.1818L7.90427 13.1566L7.91156 13.1391L7.92177 13.1138L7.93635 13.0914ZM9.35961 13.1045H9.86077L9.87633 13.1245L9.9016 13.1653L9.91375 13.1882L9.92688 13.2056L9.93903 13.2285L9.95216 13.2484L9.96431 13.2718L9.97743 13.2917L9.98958 13.3092L10.0027 13.332L10.0149 13.3529L10.0328 13.3729L10.0401 13.3928L10.0557 13.4156L10.0678 13.4365L10.0834 13.454L10.0936 13.4769L10.1058 13.4968L10.1213 13.5177L10.1286 13.5376L10.1466 13.5605L10.184 13.6213L10.1942 13.6412L10.2093 13.6611L10.2224 13.681L10.2346 13.7044L10.273 13.7647L10.2851 13.788L10.2982 13.8079L10.3133 13.788L10.3235 13.7622L10.3386 13.7447L10.3517 13.7219L10.3639 13.7044L10.3741 13.6791L10.3916 13.6611L10.4047 13.6383L10.4149 13.6208L10.4271 13.5999L10.4426 13.577L10.4548 13.5595L10.4679 13.5342L10.48 13.5167L10.4956 13.4934L10.5053 13.4759L10.5184 13.4506L10.5306 13.4356L10.5437 13.4147L10.5588 13.3894L10.5719 13.3719L10.5816 13.349L10.5972 13.3311L10.6093 13.3058L10.6225 13.2907L10.6375 13.2708L10.6507 13.2455L10.6628 13.2275L10.6759 13.2047L10.6881 13.1872L10.7012 13.1619L10.7163 13.1439L10.7265 13.1211L10.7396 13.1036H11.2486V14.9113H10.7722V13.8478L10.76 13.8658L10.7445 13.891L10.7323 13.9061L10.7168 13.926L10.707 13.9513L10.6915 13.9693L10.6793 13.9868L10.6638 14.0121L10.6385 14.0476L10.6234 14.0675L10.6103 14.0928L10.5952 14.1107L10.5821 14.1282L10.5724 14.1535L10.5568 14.171L10.5447 14.189L10.5291 14.2143L10.517 14.2318L10.5014 14.2517L10.4893 14.2746L10.4791 14.2925L10.464 14.3125L10.4509 14.3353L10.4358 14.3528L10.4203 14.3737L10.4105 14.3936L10.3974 14.4165L10.3823 14.4345L10.3668 14.4544L10.3571 14.4797L10.3391 14.4948L10.3294 14.5147L10.3138 14.5404L10.3017 14.5579H10.2914L10.2764 14.5351L10.2633 14.5142L10.2511 14.4914L10.238 14.4739L10.2229 14.451L10.2098 14.4311L10.1947 14.4102L10.1816 14.3902L10.1694 14.3674L10.1563 14.3499L10.1388 14.3266L10.1286 14.3066L10.1135 14.2838L10.1004 14.2663L10.0883 14.2434L10.0727 14.2225L10.0606 14.1973L10.045 14.1798L10.0328 14.1569L10.0197 14.136L10.0076 14.1132L9.99201 14.0957L9.97986 14.0728L9.96431 14.0529L9.95459 14.032L9.93903 14.0121L9.92688 13.9892L9.91132 13.9717L9.89917 13.9484L9.88362 13.9285L9.87389 13.9056L9.85591 13.8881L9.84619 13.8648L9.83063 13.8449V14.9108H9.36253V13.1206L9.35961 13.1045ZM11.6073 13.1045H13.033V13.5124H12.0807V13.8035H12.9362V14.1885H12.0807V14.4972H13.0451V14.9074H11.6097V13.1201L11.6073 13.1045ZM8.15898 13.6587L8.1512 13.6815L8.14391 13.7024L8.1337 13.7277L8.12349 13.7506L8.1162 13.7734L8.0953 13.8186L8.08558 13.8439L8.0778 13.8648L8.07002 13.8901L8.0603 13.9076L8.05252 13.9328L8.04232 13.9581L8.03259 13.9761L8.02482 14.0014L8.01509 14.0213L8.00732 14.0466L7.99419 14.0694L7.98885 14.0894L7.97912 14.1146L7.96892 14.138L7.96114 14.1579L7.95142 14.1832H8.36897L8.35924 14.1579L8.35147 14.135L8.33154 14.0889L8.32376 14.066L8.31355 14.0461L8.30626 14.0208L8.29605 13.998L8.28828 13.9751L8.27855 13.9542L8.27078 13.9314L8.26057 13.9061L8.25328 13.8862L8.23238 13.841L8.228 13.8176L8.21779 13.7948L8.20759 13.7695L8.20029 13.752L8.17939 13.7015L8.1721 13.6786L8.15898 13.6587ZM7.41526 17.0438H12.6072L9.95702 17.9173L7.41526 17.0438Z" fill="white"/>
</g>
<defs>
<clipPath id="clip0">
<rect width="20" height="20" fill="white" transform="translate(0 0.471924)"/>
</clipPath>
</defs>
</svg>
