<svg width="20" height="21" viewBox="0 0 20 21" fill="none" xmlns="http://www.w3.org/2000/svg">
<g clip-path="url(#clip0)">
<circle cx="10" cy="10.4719" r="10" fill="#004CA0"/>
<path d="M7.90526 3.49112V15.6763L10.6234 16.5518V6.33117C10.6234 5.85045 10.8354 5.53067 11.1771 5.6416C11.6167 5.76921 11.7036 6.20878 11.7036 6.68898V10.7686C13.3994 11.5962 14.7333 10.766 14.7333 8.57957C14.7333 6.33117 13.952 5.33223 11.6521 4.53225C10.7432 4.21975 9.06097 3.70726 7.90839 3.4906L7.90526 3.49112ZM11.1391 14.7701L15.5119 13.1883C16.0077 13.0097 16.0843 12.755 15.6827 12.6217C15.276 12.4889 14.5458 12.5238 14.0437 12.7055L11.125 13.7472V12.0894L11.2901 12.0326C11.2901 12.0326 12.1255 11.7405 13.3135 11.604C14.4911 11.4795 15.9426 11.6253 17.09 12.0623C18.3733 12.4805 18.5087 13.0852 18.1832 13.5034C17.8603 13.918 17.0577 14.2222 17.0577 14.2222L11.125 16.3784V14.7831L11.1391 14.7701ZM2.92254 14.605C1.60121 14.2253 1.38455 13.4467 1.9835 12.9904C2.53974 12.5863 3.48087 12.2613 3.48087 12.2613L7.38131 10.8639V12.4696L4.58762 13.4925C4.09648 13.68 4.01523 13.9321 4.42251 14.0649C4.82928 14.2008 5.55843 14.1711 6.04748 13.9836L7.39277 13.4925V14.9326C7.31152 14.9519 7.21621 14.9623 7.12142 14.9841C5.77614 15.2128 4.34908 15.1201 2.93035 14.6508L2.92254 14.605Z" fill="white"/>
</g>
<defs>
<clipPath id="clip0">
<rect width="20" height="20" fill="white" transform="translate(0 0.471924)"/>
</clipPath>
</defs>
</svg>
