<svg width="20" height="21" viewBox="0 0 20 21" fill="none" xmlns="http://www.w3.org/2000/svg">
<g clip-path="url(#clip0)">
<circle cx="10" cy="10.4719" r="10" fill="#161616"/>
<path fill-rule="evenodd" clip-rule="evenodd" d="M7.66083 16.1898L7.66108 16.1906L7.66134 16.1913C7.9337 16.985 8.26326 17.6252 8.64342 18.073C9.02392 18.5213 9.48168 18.8052 9.99975 18.8052C10.518 18.8052 10.976 18.5217 11.3567 18.0734C11.7369 17.6255 12.0663 16.9852 12.3382 16.1911L12.3385 16.1902C12.4626 15.8243 12.5696 15.4528 12.6591 15.077C13.046 15.1924 13.4238 15.2866 13.7829 15.3573L13.7833 15.3574C14.6068 15.5184 15.326 15.5531 15.904 15.4478C16.4824 15.3424 16.9572 15.0879 17.2162 14.6392C17.4754 14.1904 17.4589 13.6519 17.261 13.098C17.0634 12.5447 16.6736 11.9393 16.1217 11.3071C15.8809 11.0305 15.6106 10.7503 15.3165 10.4724C15.6104 10.1947 15.8812 9.91424 16.1222 9.63834L16.1225 9.63799C16.6737 9.00529 17.0633 8.39978 17.2611 7.84662C17.4591 7.29296 17.4761 6.75457 17.217 6.30591C16.9579 5.8571 16.4833 5.60205 15.9047 5.49647C15.3267 5.391 14.6075 5.4259 13.784 5.58776C13.4241 5.65796 13.0463 5.75191 12.6586 5.86766C12.565 5.47434 12.4575 5.09959 12.3391 4.7529L12.339 4.75246C12.0666 3.95881 11.737 3.31861 11.3569 2.87074C10.9764 2.42247 10.5186 2.13855 10.0006 2.13855C9.48231 2.13855 9.02415 2.42203 8.64337 2.87037C8.26304 3.31821 7.93368 3.95848 7.6621 4.75257C7.54291 5.09945 7.43533 5.47375 7.34171 5.86751C6.97148 5.75683 6.59629 5.66333 6.21734 5.58735L6.21657 5.58719L6.2158 5.58704C5.3923 5.4261 4.67309 5.39139 4.09514 5.49669C3.51668 5.60208 3.04191 5.85655 2.78288 6.30521C2.52374 6.75406 2.54029 7.29244 2.73824 7.84626C2.93596 8.39948 3.32579 9.00487 3.87752 9.63745L3.87784 9.63781L3.87816 9.63818C4.1331 9.92868 4.4014 10.2071 4.68218 10.4726C4.40158 10.7376 4.13338 11.0155 3.87841 11.3053L3.8779 11.3059L3.87738 11.3065C3.32625 11.9392 2.93659 12.5447 2.7388 13.0978C2.54084 13.6515 2.52384 14.1899 2.78288 14.6385C3.04202 15.0874 3.51655 15.3422 4.09514 15.4477C4.6731 15.5531 5.3923 15.5182 6.21599 15.3567L6.21647 15.3566L6.21695 15.3565C6.596 15.281 6.97129 15.1878 7.34161 15.0774C7.4308 15.4529 7.53732 15.8241 7.66083 16.1898ZM5.34912 11.0664C5.05327 11.3441 4.78454 11.6224 4.54778 11.8943C4.06386 12.4512 3.75017 12.9418 3.59497 13.3455C3.43848 13.7526 3.4601 14.0215 3.558 14.191C3.65591 14.3606 3.87813 14.514 4.30907 14.5821C4.73616 14.6496 5.31764 14.6234 6.04153 14.4828C6.41835 14.4051 6.79151 14.3112 7.15998 14.2012C7.04501 13.5567 6.96298 12.9067 6.9142 12.2538C6.37267 11.8848 5.8503 11.4885 5.34912 11.0664ZM6.85498 11.123C6.57167 10.9145 6.29457 10.6977 6.02406 10.4728C6.29461 10.2474 6.57192 10.0301 6.85559 9.82126C6.84288 10.2551 6.84268 10.6892 6.85498 11.123ZM7.86431 12.8704C7.90331 13.2202 7.9528 13.5687 8.01272 13.9154C8.34261 13.7936 8.66883 13.6621 8.99093 13.5211C8.79996 13.4178 8.61047 13.3118 8.42255 13.203L8.38513 13.1814L8.3849 13.1813C8.21001 13.0799 8.03646 12.9763 7.86431 12.8704ZM9.99976 13.047C9.23344 12.6595 8.48919 12.2299 7.77043 11.76C7.7271 10.9806 7.72301 10.1995 7.75818 9.41959L7.77079 9.18448C8.42374 8.75756 9.09775 8.36372 9.79028 8.00447L10.0002 7.89784C10.6964 8.24985 11.3745 8.63664 12.0319 9.05677L12.23 9.18578C12.2775 10.043 12.2775 10.9022 12.2299 11.7595C11.5109 12.2295 10.7664 12.6594 9.99976 13.047ZM9.99797 14.0361C9.40837 14.3201 8.80472 14.574 8.18934 14.7967C8.28189 15.1918 8.3885 15.5636 8.50561 15.9046C8.74595 16.6022 9.01399 17.1191 9.286 17.4554C9.56027 17.7945 9.80397 17.9102 9.99975 17.9102C10.1956 17.9102 10.4395 17.7944 10.7139 17.4553C10.9859 17.1191 11.254 16.6025 11.4942 15.9053C11.6153 15.5403 11.7204 15.1704 11.8094 14.7966C11.193 14.5739 10.5885 14.32 9.99797 14.0361ZM11.9881 13.9161C11.6576 13.7941 11.3308 13.6624 11.0082 13.521C11.1863 13.4247 11.3632 13.3261 11.5387 13.2251L11.5764 13.2034C11.7645 13.095 11.9511 12.9839 12.136 12.8701C12.0971 13.2202 12.0477 13.569 11.9881 13.9161ZM12.8398 14.2031C13.2072 14.3148 13.58 14.4081 13.9567 14.4826C14.6813 14.6234 15.2631 14.6498 15.6903 14.5823C16.1211 14.5143 16.3434 14.361 16.4415 14.191C16.5394 14.0215 16.561 13.7528 16.4043 13.3458C16.249 12.9421 15.935 12.4513 15.4508 11.8936L15.4508 11.8936C15.2149 11.6224 14.9461 11.3442 14.6503 11.0666C14.1492 11.4892 13.6269 11.886 13.0855 12.2555C13.0367 12.9085 12.9547 13.5585 12.8398 14.2031ZM14.651 9.87812C14.9314 9.61573 15.1986 9.33948 15.4516 9.05039C15.9358 8.49332 16.2496 8.00268 16.4048 7.59892C16.5613 7.19185 16.5396 6.92271 16.4415 6.75273C16.3437 6.58324 16.1217 6.4302 15.6909 6.36232C15.2636 6.29499 14.6816 6.32146 13.9566 6.462L13.9565 6.46202C13.6037 6.53066 13.2283 6.62441 12.8401 6.74174C12.9555 7.38733 13.0381 8.0383 13.0874 8.69213C13.649 9.07742 14.1743 9.47521 14.651 9.87812ZM13.1448 9.82134C13.4282 10.0302 13.7053 10.2475 13.9756 10.4729C13.7051 10.6978 13.428 10.9147 13.1446 11.1231C13.1503 10.9207 13.1533 10.7182 13.1536 10.5157V10.4722C13.1538 10.2552 13.1509 10.0382 13.1448 9.82134ZM12.1363 8.07487C12.0974 7.72494 12.0481 7.37622 11.9886 7.02918C11.6581 7.15062 11.3312 7.28197 11.0086 7.42303C11.3906 7.62941 11.7667 7.84678 12.1363 8.07487ZM10.0001 6.9091C10.6153 6.61491 11.2232 6.35852 11.8111 6.14694C11.7241 5.77286 11.6185 5.40332 11.4946 5.03972C11.2543 4.34185 10.9863 3.82477 10.7142 3.48847C10.4399 3.14942 10.196 3.03358 9.99975 3.03358C9.80404 3.03358 9.56055 3.14924 9.28636 3.48839C9.01438 3.82481 8.74629 4.34209 8.5055 5.04024L8.50547 5.04033C8.38848 5.38034 8.28191 5.75254 8.18937 6.14768C8.80547 6.37053 9.40982 6.62466 10.0001 6.9091ZM7.15976 6.74166C7.04911 7.35635 6.96726 8.01067 6.91444 8.69023C6.37316 9.05906 5.85106 9.45524 5.35016 9.87723C5.0707 9.61312 4.80274 9.33693 4.54708 9.04942C4.06341 8.4928 3.74997 8.00233 3.59489 7.5987C3.4384 7.19144 3.46009 6.92232 3.558 6.75273C3.65589 6.58318 3.87797 6.42999 4.30873 6.36199C4.73594 6.29455 5.31767 6.32091 6.04193 6.46154C6.39587 6.53063 6.77128 6.62425 7.15976 6.74166ZM8.01242 7.02978C8.34249 7.15123 8.66888 7.28257 8.99113 7.42364C8.60914 7.62951 8.2332 7.84632 7.86378 8.0738C7.90289 7.72436 7.95246 7.3762 8.01242 7.02978Z" fill="#FA6709"/>
</g>
<defs>
<clipPath id="clip0">
<rect width="20" height="20" fill="white" transform="translate(0 0.471924)"/>
</clipPath>
</defs>
</svg>
