<svg width="20" height="21" viewBox="0 0 20 21" fill="none" xmlns="http://www.w3.org/2000/svg">
<g clip-path="url(#clip0)">
<circle cx="9.99989" cy="10.4718" r="9.99989" fill="white"/>
<path d="M10.0253 0.471948C7.48369 0.466406 5.0353 1.42889 3.17783 3.16377C1.32036 4.89865 0.193195 7.27573 0.0254517 9.81185L5.40539 12.0218C5.55238 11.9241 5.71007 11.8436 5.87539 11.7818C6.23801 11.6261 6.63112 11.5543 7.02538 11.5718L9.46535 8.01187C9.46535 7.2603 9.68821 6.52562 10.1058 5.90072C10.5233 5.27582 11.1168 4.78877 11.8111 4.50116C12.5055 4.21355 13.2695 4.1383 14.0066 4.28492C14.7438 4.43154 15.4209 4.79346 15.9523 5.32489C16.4837 5.85632 16.8456 6.53341 16.9923 7.27053C17.1389 8.00765 17.0636 8.7717 16.776 9.46605C16.4884 10.1604 16.0014 10.7539 15.3765 11.1714C14.7516 11.589 14.0169 11.8118 13.2653 11.8118H13.1853L9.67535 14.3118C9.69133 14.9982 9.45184 15.6661 9.00331 16.1859C8.55477 16.7057 7.92918 17.0404 7.24784 17.1251C6.56651 17.2098 5.878 17.0384 5.31585 16.6443C4.7537 16.2501 4.35797 15.6612 4.20541 14.9918L0.435447 13.3918C0.975853 15.1618 1.99685 16.7472 3.38479 17.9714C4.77274 19.1955 6.47317 20.0106 8.29683 20.3257C10.1205 20.6408 11.9958 20.4436 13.7141 19.7562C15.4323 19.0687 16.9261 17.9179 18.0292 16.4319C19.1322 14.9458 19.8012 13.1828 19.9617 11.3391C20.1222 9.49543 19.768 7.64335 18.9383 5.98904C18.1087 4.33473 16.8363 2.94309 15.2627 1.96904C13.6891 0.994987 11.876 0.476727 10.0253 0.471948Z" fill="#1C4A6E"/>
<path d="M6.23538 15.7917L5.0254 15.2717C5.20631 15.6424 5.49095 15.9526 5.84475 16.1646C6.19856 16.3766 6.60631 16.4813 7.01849 16.466C7.43067 16.4507 7.82955 16.3161 8.16668 16.0785C8.50381 15.8408 8.7647 15.5104 8.91766 15.1274C9.07062 14.7443 9.10907 14.3251 9.02835 13.9206C8.94762 13.5161 8.75119 13.1438 8.46291 12.8488C8.17463 12.5538 7.8069 12.3489 7.40437 12.2588C7.00185 12.1688 6.58185 12.1976 6.19538 12.3417L7.47537 12.8717C7.86258 13.0335 8.16967 13.3425 8.32907 13.7307C8.48848 14.1189 8.48714 14.5545 8.32536 14.9417C8.16358 15.3289 7.85461 15.636 7.46641 15.7954C7.07822 15.9548 6.64259 15.9535 6.25538 15.7917H6.23538Z" fill="#1C4A6E"/>
<path fill-rule="evenodd" clip-rule="evenodd" d="M15.4039 6.55813C15.6782 6.97811 15.8215 7.47017 15.8156 7.97178C15.8051 8.63674 15.5343 9.27107 15.0612 9.73851C14.5881 10.206 13.9506 10.4692 13.2856 10.4718C12.7839 10.4717 12.2936 10.3226 11.877 10.0432C11.4603 9.76386 11.1361 9.36695 10.9455 8.90291C10.7549 8.43886 10.7066 7.92864 10.8067 7.43707C10.9067 6.94551 11.1507 6.49478 11.5075 6.14219C11.8643 5.78959 12.3179 5.55103 12.8107 5.45682C13.3034 5.36262 13.813 5.41702 14.2747 5.61312C14.7365 5.80921 15.1295 6.13815 15.4039 6.55813ZM11.7207 6.91895C11.5107 7.23008 11.3976 7.59644 11.3956 7.97178V7.96178C11.393 8.21297 11.4402 8.46219 11.5345 8.69502C11.6288 8.92785 11.7683 9.13967 11.945 9.31822C12.1217 9.49677 12.332 9.63852 12.5639 9.73525C12.7957 9.83198 13.0444 9.88178 13.2956 9.88176C13.671 9.88176 14.0379 9.77057 14.3501 9.56224C14.6624 9.35391 14.9059 9.05776 15.05 8.71117C15.1941 8.36457 15.2323 7.98306 15.1598 7.61478C15.0873 7.24649 14.9073 6.90794 14.6426 6.64183C14.3779 6.37572 14.0403 6.19398 13.6724 6.11954C13.3045 6.0451 12.9228 6.08131 12.5754 6.22358C12.2281 6.36585 11.9306 6.60782 11.7207 6.91895Z" fill="#1C4A6E"/>
</g>
<defs>
<clipPath id="clip0">
<rect width="20" height="20" fill="white" transform="translate(0 0.471924)"/>
</clipPath>
</defs>
</svg>
