<svg width="20" height="21" viewBox="0 0 20 21" fill="none" xmlns="http://www.w3.org/2000/svg">
<g clip-path="url(#clip0)">
<circle cx="10" cy="10.4719" r="10" fill="#107C10"/>
<path d="M5.61241 15.4887C6.82524 16.5546 8.38549 17.1412 10.0002 17.1382C11.6818 17.1382 13.2163 16.5178 14.39 15.4887C15.4317 14.4275 11.9922 10.6517 10.0002 9.14762C8.01025 10.6513 4.5687 14.4275 5.61241 15.4887ZM11.8122 7.48809C13.2009 9.13304 15.97 13.2167 15.1888 14.6599C16.1474 13.4757 16.6693 11.9975 16.6666 10.4738C16.6666 8.61847 15.9096 6.93895 14.6834 5.73232C14.6834 5.73232 14.668 5.71899 14.638 5.70857C14.5876 5.69124 14.5345 5.68319 14.4813 5.68482C14.1542 5.68482 13.3792 5.92523 11.8126 7.48809H11.8122ZM5.36242 5.70857C5.33242 5.71899 5.31701 5.73232 5.31451 5.73232C4.68575 6.35133 4.18669 7.08948 3.84652 7.9036C3.50635 8.71773 3.33188 9.5915 3.33332 10.4738C3.33332 12.06 3.88664 13.5141 4.81119 14.6574C4.03455 13.2125 6.79904 9.13054 8.18983 7.48768C6.62321 5.92273 5.84616 5.6844 5.51867 5.6844C5.46517 5.68188 5.41176 5.69083 5.36201 5.71065L5.36242 5.70857ZM10.0002 5.77815C10.0002 5.77815 8.36399 4.8211 7.0857 4.77527C6.58447 4.75818 6.27864 4.93818 6.24114 4.96401C7.43277 4.16362 8.69981 3.8053 9.99102 3.8053H9.99977C11.2976 3.8053 12.558 4.16362 13.7584 4.96401C13.7213 4.93776 13.4172 4.75777 12.9138 4.77527C11.6355 4.82068 9.99935 5.77565 9.99935 5.77565L10.0002 5.77815Z" fill="white"/>
</g>
<defs>
<clipPath id="clip0">
<rect width="20" height="20" fill="white" transform="translate(0 0.471924)"/>
</clipPath>
</defs>
</svg>
