<svg width="24" height="24" viewBox="0 0 24 24" fill="none" xmlns="http://www.w3.org/2000/svg">
<rect width="24" height="24" fill="black"/>
<path fill-rule="evenodd" clip-rule="evenodd" d="M5.64939 12.1769C5.72736 12.0837 5.80297 11.9934 5.87833 11.9031C6.41719 11.2571 6.95597 10.6112 7.49483 9.96524C7.63705 9.79477 7.77902 9.62405 7.92225 9.45442C7.93284 9.44199 7.95286 9.4304 7.9685 9.4304C8.48668 9.42914 9.00501 9.42939 9.52327 9.42939C9.52823 9.42939 9.53328 9.43015 9.54421 9.43107C9.54421 9.44442 9.54421 9.45778 9.54421 9.47104C9.54421 9.97969 9.54438 10.4882 9.54329 10.9968C9.54329 11.0163 9.53639 11.04 9.52403 11.0546C9.06919 11.5922 8.61334 12.1289 8.15766 12.6657C8.15034 12.6743 8.14235 12.6824 8.12864 12.6974C8.12864 12.2655 8.12864 11.8411 8.12864 11.4167C8.1257 11.4157 8.12292 11.4147 8.11989 11.4137C7.29752 12.4016 6.47505 13.3895 5.64914 14.3816C4.82811 13.3822 4.00994 12.3862 3.19168 11.3902C3.18916 11.3913 3.18647 11.3922 3.18386 11.3932C3.18386 12.4539 3.18386 13.5147 3.18386 14.5779C2.69622 14.5779 2.2127 14.5779 1.72253 14.5779C1.7264 12.8617 1.73036 11.1454 1.73431 9.42469C1.74936 9.42393 1.7629 9.42267 1.77628 9.42267C2.29706 9.42259 2.81783 9.42276 3.33861 9.42217C3.36325 9.42209 3.37999 9.4283 3.39656 9.44845C4.13492 10.3441 4.87411 11.2392 5.61323 12.1344C5.62366 12.1471 5.63451 12.1594 5.64939 12.1769Z" fill="#85B044"/>
<path fill-rule="evenodd" clip-rule="evenodd" d="M12.0098 11.8214C11.9402 11.9063 11.872 11.9892 11.8039 12.0724C11.1584 12.8606 10.513 13.6487 9.86759 14.4369C9.83706 14.4742 9.80813 14.513 9.77525 14.5481C9.76339 14.5609 9.74244 14.5716 9.72529 14.5721C9.6263 14.5748 9.52722 14.5743 9.42814 14.5747C9.00518 14.5766 8.5823 14.5785 8.15942 14.5803C8.14824 14.5803 8.13697 14.5803 8.12023 14.5803C8.12023 14.5627 8.12023 14.548 8.12023 14.5333C8.12023 14.1097 8.1204 13.6861 8.11964 13.2625C8.11956 13.2342 8.12696 13.2124 8.14538 13.1908C8.49752 12.7757 8.84908 12.3601 9.20081 11.9448C9.30485 11.8218 9.40888 11.6988 9.51301 11.5757C9.521 11.5665 9.52941 11.5575 9.5432 11.5421C9.5432 11.8938 9.5432 12.2376 9.5432 12.5814C9.54589 12.5825 9.54858 12.5837 9.55127 12.5848C10.3718 11.5987 11.1924 10.6128 12.0169 9.6222C12.8397 10.615 13.6604 11.6054 14.4812 12.5957C14.4839 12.5947 14.4866 12.5937 14.4894 12.5927C14.4894 11.5374 14.4894 10.4819 14.4894 9.42461C14.965 9.42461 15.4358 9.42461 15.9099 9.42461C15.9099 11.1441 15.9099 12.8629 15.9099 14.587C15.8952 14.587 15.8818 14.587 15.8684 14.587C15.3577 14.587 14.8471 14.5868 14.3365 14.5877C14.3083 14.5877 14.2904 14.5795 14.2723 14.5577C13.763 13.9401 13.253 13.3231 12.743 12.706C12.507 12.4204 12.271 12.1349 12.0349 11.8494C12.0278 11.8408 12.0199 11.8326 12.0098 11.8214Z" fill="#85B044"/>
<path fill-rule="evenodd" clip-rule="evenodd" d="M19.6293 14.5803C19.6293 14.2462 19.6293 13.9182 19.6293 13.5854C19.6447 13.5854 19.6582 13.5854 19.6717 13.5854C19.8636 13.5854 20.0553 13.5858 20.2471 13.5847C20.2676 13.5846 20.29 13.5793 20.3083 13.57C20.5389 13.4533 20.7688 13.335 20.9994 13.2181C21.0226 13.2065 21.0317 13.1933 21.0314 13.1665C21.0298 13.0422 21.0302 12.918 21.0311 12.7936C21.0314 12.771 21.0245 12.7571 21.0055 12.744C20.8428 12.6313 20.6814 12.5169 20.5183 12.4047C20.5 12.3921 20.4746 12.3839 20.4524 12.3838C19.9265 12.3827 19.4008 12.383 18.8749 12.383C18.8584 12.383 18.842 12.383 18.8226 12.383C18.8226 12.127 18.8226 11.8729 18.8226 11.6135C18.8367 11.6135 18.8514 11.6135 18.8662 11.6135C19.3869 11.6135 19.9077 11.6138 20.4283 11.6124C20.4555 11.6124 20.4858 11.603 20.5091 11.5888C20.6711 11.4893 20.8314 11.387 20.993 11.2866C21.0141 11.2734 21.0247 11.2601 21.0243 11.2331C21.0226 11.1076 21.023 10.9821 21.0239 10.8566C21.0241 10.8351 21.0181 10.8229 20.9982 10.8122C20.7658 10.6876 20.5343 10.5616 20.3021 10.4369C20.2863 10.4285 20.2661 10.4249 20.2479 10.4248C20.0562 10.424 19.8644 10.4243 19.6726 10.4243C19.6589 10.4243 19.6452 10.4243 19.6265 10.4243C19.6202 10.0863 19.6139 9.7522 19.6075 9.41419C19.623 9.41344 19.6364 9.41218 19.6498 9.41218C20.2506 9.41209 20.8514 9.41193 21.4521 9.41285C21.4723 9.41285 21.4951 9.4189 21.5124 9.42923C21.9052 9.66662 22.2972 9.9052 22.6901 10.1427C22.7134 10.1568 22.7225 10.1712 22.7225 10.199C22.7216 10.6835 22.7216 11.1679 22.7225 11.6523C22.7226 11.6807 22.7127 11.6947 22.689 11.7079C22.5171 11.803 22.3461 11.8995 22.17 11.9981C22.1862 12.008 22.1987 12.016 22.2115 12.0235C22.3724 12.1175 22.5332 12.2117 22.6946 12.3047C22.7147 12.3162 22.7224 12.3288 22.7224 12.3523C22.7217 12.838 22.7217 13.3237 22.7223 13.8094C22.7224 13.8322 22.716 13.8456 22.6958 13.8578C22.3077 14.0932 21.9203 14.3297 21.5323 14.5652C21.518 14.5738 21.4995 14.5796 21.483 14.5796C20.8746 14.5804 20.2662 14.5803 19.6577 14.5803C19.6492 14.5803 19.6405 14.5803 19.6293 14.5803Z" fill="#85B044"/>
<path fill-rule="evenodd" clip-rule="evenodd" d="M16.1603 10.8209C16.1603 10.6058 16.1598 10.3966 16.1617 10.1875C16.1618 10.175 16.1786 10.1586 16.1917 10.1508C16.4183 10.016 16.6455 9.88244 16.8726 9.7485C17.0495 9.64429 17.2262 9.53957 17.4037 9.43645C17.4234 9.42511 17.4485 9.41772 17.471 9.41764C18.0603 9.41671 18.6495 9.41697 19.2387 9.41688C19.2524 9.41688 19.2662 9.41688 19.2826 9.41688C19.2826 9.75556 19.2826 10.0909 19.2826 10.4319C19.2684 10.4319 19.2537 10.4319 19.2391 10.4319C18.9736 10.4319 18.7083 10.4315 18.4429 10.4327C18.4203 10.4328 18.3952 10.44 18.3757 10.4516C18.1825 10.5682 17.9904 10.6866 17.7973 10.8032C17.7801 10.8137 17.7575 10.8201 17.7374 10.8202C17.2256 10.821 16.7138 10.8209 16.2021 10.8209C16.1897 10.8209 16.1772 10.8209 16.1603 10.8209Z" fill="#85B044"/>
<path fill-rule="evenodd" clip-rule="evenodd" d="M19.2841 13.5749C19.2841 13.9146 19.2841 14.248 19.2841 14.587C19.2695 14.587 19.2561 14.587 19.2427 14.587C18.6519 14.587 18.0613 14.5872 17.4707 14.5863C17.4492 14.5863 17.4251 14.58 17.4067 14.5692C17.001 14.3311 16.5958 14.092 16.1904 13.8533C16.172 13.8425 16.1595 13.8331 16.1596 13.8076C16.1609 13.6073 16.1603 13.4068 16.1604 13.2065C16.1604 13.2002 16.1613 13.1939 16.1623 13.182C16.176 13.182 16.1895 13.182 16.2029 13.182C16.7136 13.182 17.2242 13.1818 17.7349 13.1828C17.7561 13.1829 17.7799 13.1902 17.7983 13.2012C17.9904 13.3171 18.1814 13.4352 18.3739 13.5507C18.3972 13.5648 18.4277 13.5737 18.455 13.5738C18.7153 13.5755 18.9757 13.5749 19.2361 13.5749C19.251 13.5749 19.2661 13.5749 19.2841 13.5749Z" fill="#85B044"/>
</svg>
