<svg width="24" height="24" viewBox="0 0 24 24" fill="none" xmlns="http://www.w3.org/2000/svg">
<rect width="24" height="24" fill="black"/>
<path fill-rule="evenodd" clip-rule="evenodd" d="M11.2014 7.02007C11.2011 7.02516 11.2009 7.03047 11.2008 7.03593C11.2006 7.04395 11.2007 7.05227 11.2007 7.06066C11.2009 7.08495 11.201 7.10973 11.1964 7.12889C11.1914 7.14952 11.1809 7.16364 11.1588 7.16364C11.1822 7.32607 11.0553 8.08659 10.9757 8.5641L10.9747 8.56962L10.9745 8.57067L10.9724 8.58333L10.9711 8.59191C10.9499 8.71867 10.9325 8.8232 10.9228 8.88778C10.9062 8.99936 10.8795 9.15132 10.8498 9.32072C10.7694 9.77936 10.6667 10.3657 10.6796 10.6237C10.6621 10.9576 10.6651 11.3154 10.6682 11.6656V11.676C10.6692 11.7933 10.6703 11.9097 10.6704 12.024L12.2064 12.026C12.2765 12.0183 12.2868 12.0203 12.292 12.0161C12.2964 12.0124 12.297 12.0039 12.3297 11.9801L12.449 10.4933L13.2927 10.4808L13.4251 12.0424L15.0772 12.0417C15.2071 11.2029 14.9347 9.53745 14.7567 8.4499C14.7247 8.25403 14.6957 8.0769 14.6727 7.92673L14.2275 4.98715C14.2013 4.8167 14.1777 4.65871 14.1528 4.49416C14.1404 4.40893 14.1272 4.33289 14.1154 4.24504C14.1097 4.20133 14.1057 4.16654 14.1025 4.13874C14.0941 4.06506 14.0912 4.04059 14.0776 4.02992C14.0708 4.0246 14.0614 4.02271 14.0471 4.01988L14.0347 4.01731C14.0306 4.01644 14.0263 4.01545 14.0217 4.01428C13.9915 4.01428 13.9522 4.01399 13.9052 4.0135C13.8283 4.0127 13.7311 4.01135 13.6201 4.0098L13.6179 4.00975L13.6143 4.0097C12.954 4.00047 11.8213 3.98462 11.6531 4.03658L11.2014 7.02007ZM12.607 8.70685C12.6093 8.44012 12.643 8.12218 12.6751 7.82084C12.689 7.68963 12.7026 7.56157 12.7131 7.44225L12.7235 7.32378C12.7329 7.2156 12.7423 7.10755 12.7522 6.99942L12.7598 6.91873L12.7695 6.81552C12.7765 6.74542 12.7822 6.68012 12.7873 6.6124L12.7908 6.56508L12.7951 6.50282C12.7969 6.47706 12.7974 6.45463 12.7975 6.43496V6.40811C12.7973 6.32473 12.7971 6.30126 12.8941 6.27665L13.1445 8.7901C13.0908 8.8609 12.6777 8.82616 12.586 8.80978L12.607 8.70685Z" fill="white"/>
<path fill-rule="evenodd" clip-rule="evenodd" d="M17.1297 12.0214H15.3695L15.3669 4.01231L16.9167 4.01327C17.1851 4.01346 17.4535 4.01362 17.7217 4.01362L17.755 4.01359L17.8316 4.01334L17.9356 4.01273C18.6802 4.00799 19.22 4.00455 19.5252 4.57414C19.7405 4.97515 19.7205 5.73587 19.7045 6.34461C19.7006 6.49219 19.6969 6.63083 19.6969 6.75325C19.6969 7.72152 19.6314 7.93918 18.9581 8.35742L19.889 10.8794L19.8897 12.0194L18.3471 12.0168L18.1112 11.2983L18.0711 11.1646L17.3369 8.92383L17.1632 8.91925C17.1508 8.93349 17.1443 8.93526 17.1404 8.93631L17.1388 8.93678L17.1376 8.93734C17.1354 8.93876 17.1344 8.94223 17.1327 8.95539L17.1304 8.97287L17.1258 9.00971L17.1297 12.0214ZM17.4097 5.46375L17.1468 5.46309L17.1533 7.46912H17.8161C17.9449 7.41621 17.9338 7.15501 17.925 6.94664C17.923 6.89942 17.9211 6.85493 17.921 6.81618L17.9177 5.55159C17.8061 5.45381 17.753 5.45541 17.5812 5.46063C17.5341 5.46205 17.4782 5.46375 17.4097 5.46375Z" fill="white"/>
<path d="M4.52769 8.55934L4.52315 8.47149C4.47411 8.07 4.41854 7.66893 4.36303 7.26837C4.31911 6.95144 4.27519 6.63483 4.23467 6.3186C4.10676 5.32233 4.10733 5.23228 4.11181 4.56698V4.56646C4.11284 4.41716 4.11406 4.2389 4.11406 4.01494L5.68153 4.03001C5.71757 4.16695 5.85285 6.15992 5.93544 7.37702L5.93908 7.4305C5.95675 7.6907 5.9718 7.91216 5.98268 8.06765C5.98729 8.13422 5.9912 8.1887 5.99421 8.22893C5.99734 8.27087 6.0008 8.31293 6.00426 8.35494V8.35898C6.00887 8.41283 6.01348 8.46663 6.01719 8.52C6.02257 8.59572 6.02538 8.64803 6.0273 8.68407V8.68489C6.03051 8.74419 6.03127 8.75901 6.03761 8.76187C6.03966 8.76283 6.04241 8.76246 6.046 8.76197L6.05099 8.76138C6.05938 8.76064 6.07141 8.7613 6.08928 8.77175C6.10106 8.76467 6.11066 8.75936 6.11847 8.75504C6.13428 8.74622 6.1428 8.74151 6.14734 8.73431C6.15106 8.7285 6.15221 8.72108 6.15259 8.70856L6.15285 8.69446V8.68979C6.15291 8.67115 6.15304 8.64505 6.15547 8.6072C6.16546 8.4511 6.18563 8.19014 6.20899 7.88817C6.27173 7.07666 6.35739 5.969 6.32922 5.80464C6.36578 5.77748 6.36616 5.68624 6.36648 5.6138C6.36655 5.59531 6.36661 5.57806 6.36725 5.5634L6.4741 4.01625L8.66501 4.01559L9.03735 8.77437C9.13645 8.746 9.13575 8.70288 9.13421 8.61198V8.60776C9.13396 8.59187 9.13364 8.57455 9.13396 8.55561C9.13402 8.54865 9.13421 8.54148 9.13447 8.53409L9.13485 8.52565L9.13569 8.51018L9.28716 6.41039C9.30572 6.15243 9.32589 5.89302 9.34612 5.6331C9.38812 5.09307 9.43037 4.55088 9.45822 4.01494L11.0362 4.02608C11.0362 4.19423 11.0373 4.36302 11.0381 4.53184C11.0386 4.64639 11.0391 4.76095 11.0389 4.87529C11.0389 4.9689 11.0385 5.06239 11.0375 5.15564C11.0323 5.65517 10.5131 9.40568 10.4128 10.0776C10.3966 10.1859 10.3817 10.2974 10.3676 10.4111C10.3508 10.547 10.3351 10.6859 10.3193 10.8258L10.3178 10.8387V10.8392C10.2712 11.2499 10.2238 11.6679 10.1473 12.0417L7.97404 12.0411L7.62135 7.16954C7.50835 7.1789 7.50822 7.19696 7.50771 7.29072C7.50758 7.315 7.50746 7.34436 7.50528 7.37998L7.17032 12.0397L6.37775 12.0424H6.2355L5.00035 12.0371L4.52769 8.55934Z" fill="white"/>
<path d="M15.5727 19.9881L15.488 19.9864L14.9813 19.987C14.9167 19.717 14.6322 18.8424 14.3932 18.1078L14.3893 18.0961C14.2675 17.7214 14.1579 17.3844 14.096 17.1843C14.0878 17.1581 14.0813 17.1305 14.0749 17.1032C14.0498 16.9969 14.0259 16.8953 13.9087 16.9008L13.9075 19.9875L12.5334 19.9887L12.5445 12.8963L13.8982 12.8968C13.9619 13.0231 14.0379 13.282 14.1003 13.4944L14.1028 13.5027L14.1043 13.5078L14.1257 13.5805C14.1367 13.6179 14.1471 13.6527 14.1568 13.6836C14.2432 13.959 14.3226 14.2106 14.4119 14.4825L14.7923 15.6827C14.8163 15.7584 14.832 15.8149 14.8437 15.8573L14.8439 15.8579C14.8646 15.9322 14.873 15.9625 14.8928 15.9757C14.9064 15.9848 14.9254 15.9857 14.9576 15.9874L14.9587 15.9874L14.9836 15.9888L14.9928 12.8968L16.3594 12.9015L16.3577 18.7294L16.3589 18.8187L16.3594 19.9313C16.3575 19.941 16.3566 19.9482 16.3562 19.9536C16.356 19.9568 16.3559 19.9594 16.3559 19.9616V19.9641C16.356 19.9674 16.356 19.9694 16.3552 19.9711C16.354 19.9737 16.351 19.9754 16.3434 19.98L16.3369 19.9838L16.3287 19.9887L16.1542 19.9858L16.0626 19.987H15.7825L15.5727 19.9881Z" fill="white"/>
<path fill-rule="evenodd" clip-rule="evenodd" d="M9.16322 12.9107C8.3748 13.1333 8.39203 13.9008 8.40765 14.5929C8.40989 14.6922 8.41206 14.79 8.41181 14.8843C8.41091 15.3459 8.41066 15.8076 8.41078 16.2694C8.41085 16.7229 8.41123 17.1766 8.41181 17.6302C8.41194 17.7738 8.40701 17.9217 8.40208 18.0704C8.3782 18.7917 8.35381 19.5293 8.89651 19.8571C9.15316 20.012 9.45905 20.0032 9.82333 19.9927C9.91994 19.9899 10.0207 19.987 10.1257 19.987C10.1603 19.987 10.206 19.9876 10.2598 19.9885C10.3087 19.9894 10.3642 19.9905 10.424 19.9917C10.8037 19.9995 11.3585 20.0109 11.5026 19.9765C11.6505 19.9412 11.8325 19.8067 11.9172 19.7278C12.2717 19.3967 12.2571 18.833 12.2431 18.2959C12.2404 18.1926 12.2378 18.0903 12.2378 17.9908C12.2378 17.848 12.2396 17.5771 12.2418 17.2393V17.2335C12.2493 16.1075 12.2615 14.244 12.2291 13.8848C12.1903 13.4569 12.0268 13.1873 11.7386 13.0215C11.521 12.8961 11.4886 12.8962 11.2213 12.8968L11.2069 12.8968C11.1562 12.8969 11.0813 12.8965 10.9897 12.8959L10.8012 12.8944H10.8007C10.208 12.8897 9.26443 12.8822 9.16322 12.9107ZM10.2021 14.1598L10.2032 14.1598C10.4188 14.1501 10.6409 14.1402 10.6724 14.3022V18.0737C10.6724 18.1226 10.6742 18.1736 10.6759 18.2245C10.6842 18.4649 10.6925 18.7033 10.5141 18.7033C10.4526 18.7033 10.3977 18.7043 10.3487 18.7051C10.0582 18.7104 9.97954 18.7118 9.97954 18.4621C9.97973 18.1931 9.97896 17.912 9.97794 17.6239L9.97627 17.2072V17.1886C9.97211 16.1984 9.9677 15.1551 9.98825 14.2454L10.066 14.1642C10.1097 14.1639 10.1557 14.1619 10.2021 14.1598Z" fill="white"/>
<path d="M6.22141 14.6577L6.2759 14.5475L6.35298 14.3742L4.30637 14.3713L4.31335 12.8951L8.12308 12.8946C8.14856 13.0738 8.14215 13.3546 8.13658 13.5983C8.13441 13.6928 8.13236 13.7817 8.13236 13.857C8.13236 14.2101 8.10253 14.2663 8.00989 14.4412C7.98479 14.4885 7.95509 14.5446 7.92013 14.6177L7.84478 14.7751C7.66296 15.1546 7.48332 15.5298 7.30502 15.917L6.08748 18.5074L8.13351 18.508L8.13294 19.9864L4.3058 19.983C4.30548 19.8005 4.30554 19.6181 4.3056 19.4357L4.3058 19.0716C4.3058 18.6767 4.30829 18.672 4.44587 18.4082C4.4572 18.3865 4.46943 18.3631 4.48262 18.3375C4.65112 18.0122 4.81681 17.6509 4.97571 17.3042L5.0234 17.2001L5.06239 17.1154L6.22141 14.6577Z" fill="white"/>
<path d="M16.698 19.987L16.9664 19.9881L17.1339 19.9864L19.8879 19.9875L19.8885 18.5091H18.2605L18.2494 17.2318L18.2611 17.1408L19.5001 17.1397C19.5328 17.1243 19.5425 17.1268 19.5451 17.1274C19.5456 17.1276 19.5458 17.1276 19.546 17.1275C19.5461 17.1274 19.546 17.1271 19.546 17.1265C19.5455 17.1234 19.5439 17.1125 19.554 17.0776L19.7163 15.6659L18.2501 15.6641L18.2507 14.3747L19.8804 14.3753L19.8896 14.3167V14.2332L19.8873 12.9212C19.8469 12.8648 19.5709 12.8788 19.4188 12.8864C19.3814 12.8884 19.3514 12.8899 19.3343 12.8899C19.2183 12.8899 19.1016 12.8903 18.9854 12.89C18.9087 12.8898 18.8323 12.8893 18.7563 12.8881L18.3985 12.8905H16.6806L16.6708 18.359L16.6713 18.4001L16.6702 19.9058C16.6757 19.9594 16.6752 19.9668 16.6786 19.9694C16.6811 19.9715 16.6859 19.9707 16.6974 19.9861V19.987L16.698 19.987Z" fill="white"/>
</svg>
