<svg width="24" height="24" viewBox="0 0 24 24" fill="none" xmlns="http://www.w3.org/2000/svg">
<rect width="24" height="24" fill="black"/>
<path fill-rule="evenodd" clip-rule="evenodd" d="M9.50943 11.5806L9.50793 11.5806C8.27756 11.4776 7.32053 10.7385 7.00604 9.64834C6.4926 7.86929 7.84431 6.16576 9.73349 6.21109C11.0353 6.24238 12.0658 7.04814 12.3668 8.27038C12.7194 9.70155 11.8264 11.1559 10.3821 11.496C10.2628 11.5241 10.1406 11.5403 10.0184 11.5564C9.96206 11.5639 9.90571 11.5714 9.84965 11.58C9.73633 11.5804 9.62264 11.5805 9.50943 11.5806ZM9.66992 10.441C10.5161 10.4424 11.21 9.74664 11.2111 8.89629C11.2122 8.05296 10.508 7.33614 9.67571 7.33343C8.84162 7.3306 8.1386 8.04237 8.1375 8.89087C8.13639 9.74849 8.8197 10.4397 9.66992 10.441Z" fill="white"/>
<path fill-rule="evenodd" clip-rule="evenodd" d="M17.9961 6.26906C18.528 6.26416 19.0531 6.25932 19.5777 6.2955C20.8655 6.38431 21.883 7.37448 21.9885 8.57271C22.1214 10.0842 21.0858 11.1326 19.931 11.3689C19.7308 11.4098 19.5318 11.4374 19.3279 11.4371C18.7772 11.4365 18.2264 11.4366 17.6686 11.4367L17.046 11.4368L17.0458 6.26938C17.3657 6.27487 17.6821 6.27195 17.9961 6.26906ZM18.2117 10.3497C18.3581 10.3472 18.5036 10.3509 18.6484 10.3545C19.0131 10.3637 19.3727 10.3728 19.729 10.2835C20.3593 10.1256 20.7989 9.5864 20.8268 8.94891C20.8542 8.3272 20.4717 7.76498 19.8652 7.55026C19.4218 7.39325 19.0407 7.39921 18.5594 7.40673C18.4493 7.40845 18.334 7.41025 18.2116 7.4102L18.2117 10.3497Z" fill="white"/>
<path d="M4.96949 11.5792C5.83352 11.5019 6.52681 11.1284 7.05182 10.4138C7.00042 10.3753 6.94948 10.3369 6.89888 10.2988C6.62538 10.0926 6.36199 9.89414 6.09036 9.7274C5.41924 10.6979 4.30023 10.5397 3.77348 10.0743C3.11481 9.49224 3.0425 8.52166 3.61852 7.8721C3.90973 7.54369 4.27522 7.35953 4.71142 7.34068C5.3122 7.31469 5.78043 7.59038 6.1134 8.08349L7.05761 7.37172C6.33439 6.43847 5.43107 6.1055 4.31501 6.24593C3.34973 6.36727 2.54804 7.15528 2.28701 7.70198C1.96524 8.37544 1.94024 9.08166 2.08313 9.57785C2.41302 10.7247 3.35047 11.478 4.6279 11.5815L4.96949 11.5792Z" fill="white"/>
<path d="M13.8993 10.3571H16.7404V11.4657H12.7523V6.31941H13.8993V10.3571Z" fill="white"/>
<path d="M5.47786 13.0598H4.24219C5.26014 16.2708 5.65797 17.5232 5.82015 18.0338C5.91891 18.3447 5.93033 18.3807 5.94115 18.4162L5.9621 18.485C6.05897 18.2949 6.18538 18.0464 6.32927 17.7635C6.70284 17.029 7.19426 16.0629 7.59259 15.287L9.2041 18.4701L10.3366 15.0156C10.8411 13.4768 10.8755 13.3716 10.9103 13.2665L10.9793 13.0574H9.74956L8.96709 15.5729L7.60244 12.8096C7.50857 13.0037 6.55992 14.973 6.27093 15.5729L5.47786 13.0598Z" fill="white"/>
<path fill-rule="evenodd" clip-rule="evenodd" d="M16.0093 13.0368C16.5941 13.0338 17.1701 13.0308 17.7456 13.043C18.9526 13.0689 19.7528 14.0432 19.5259 15.1878C19.4409 15.6164 19.203 15.9483 18.8502 16.2C18.7831 16.248 18.7121 16.2903 18.6317 16.3381C18.5925 16.3615 18.5509 16.3863 18.5065 16.4136L18.6575 16.6289C18.8127 16.85 18.9666 17.0695 19.1201 17.2893C19.2606 17.4903 19.4008 17.6918 19.5491 17.9048L19.757 18.2035H18.2865L17.2781 16.6933H16.3654V18.2049H15.2124V13.0396C15.4803 13.0396 15.7458 13.0382 16.0093 13.0368ZM16.8106 15.5351C17.1355 15.5398 17.4548 15.5444 17.7723 15.5242C18.1614 15.4996 18.3817 15.2239 18.3788 14.8497C18.3758 14.491 18.1595 14.216 17.7911 14.193C17.4655 14.1723 17.1383 14.177 16.8086 14.1817C16.6662 14.1837 16.5233 14.1857 16.3799 14.1857V15.531C16.5246 15.531 16.6684 15.5331 16.8106 15.5351Z" fill="white"/>
<path d="M13.6455 18.2174H14.9021C14.2914 16.9264 13.7063 15.6892 13.105 14.4174C12.8806 14.7328 12.6111 15.1141 12.4216 15.3895C12.4757 15.5143 12.6222 15.8532 12.7663 16.2022H11.821C11.9648 15.8334 12.1393 15.4818 12.3127 15.1324C12.5143 14.7262 12.7144 14.3231 12.863 13.8997L12.3468 12.8244L9.69822 18.2151H10.9658C11.0144 18.1047 11.0626 17.9951 11.1104 17.8862C11.1973 17.6886 11.283 17.4937 11.3673 17.3022H13.2478C13.3788 17.6011 13.51 17.9042 13.6455 18.2174Z" fill="white"/>
</svg>
