<svg width="24" height="24" viewBox="0 0 24 24" fill="none" xmlns="http://www.w3.org/2000/svg">
<rect width="24" height="24" fill="black"/>
<path d="M19.6418 8.81309H20.0018V10.474L19.9609 10.4822L19.9399 10.4857C19.8498 10.5008 19.7657 10.5149 19.6745 10.5149C19.4864 10.5149 19.3555 10.4576 19.2736 10.3513C19.2 10.2531 19.1509 10.0567 19.1264 9.754C19.1018 9.46764 19.0936 8.96855 19.0936 8.27309C19.0936 7.53673 19.1182 7.02946 19.1591 6.74309C19.2 6.44855 19.29 6.26855 19.4209 6.18673C19.5436 6.11309 19.7645 6.08037 20.0918 6.08037C20.3864 6.08855 20.6891 6.11309 20.9836 6.16219V5.17218C20.7955 5.11491 20.6073 5.074 20.4191 5.04946C20.2064 5.01673 19.9936 5.00037 19.7809 5.00037C19.2818 5.00037 18.9055 5.09037 18.66 5.26219C18.4145 5.434 18.2427 5.74491 18.1527 6.18673C18.0545 6.63673 18.0055 7.34037 18.0055 8.26491C18.0055 9.18946 18.0545 9.88491 18.1445 10.3431C18.2345 10.7931 18.39 11.104 18.6191 11.2758C18.8482 11.4476 19.1918 11.5295 19.65 11.5295C19.8955 11.5295 20.1409 11.5131 20.3864 11.4722C20.5909 11.4476 20.7955 11.3985 21 11.3413V7.74946H19.6418V8.81309Z" fill="#D6001C"/>
<path d="M15.0436 8.01946H14.9045L14.0373 5.08218H13.0064V11.464H14.0536V8.21582H14.1845L15.1336 11.464H16.1073V5.08218H15.0518L15.0436 8.01946Z" fill="#D6001C"/>
<path d="M4.59545 9.92582H4.84091L5.29091 5.08218H6.38727L5.56909 11.464H3.81818L3 5.08218H4.12091L4.59545 9.92582Z" fill="#D6001C"/>
<path d="M8.73545 5.08218L7.83545 11.464H8.94L9.54545 6.45673H9.65182L10.0855 10.0485H9.27545L9.16909 11.0467H10.2L10.2491 11.464H11.3782L10.4782 5.08218H8.73545Z" fill="#D6001C"/>
<path d="M4.99636 17.494C5.00454 17.3304 5.01273 17.0195 5.01273 16.5695L5.02091 12.544H6.14182V16.1113C6.14182 16.9622 6.10909 17.584 6.06 17.9522C6.01091 18.3122 5.87182 18.5822 5.66727 18.7458C5.46273 18.9176 5.10273 18.9995 4.61182 18.9995C4.12091 18.9995 3.76091 18.9095 3.55636 18.7458C3.34364 18.5822 3.21273 18.3122 3.16364 17.9522C3.10636 17.584 3.08182 16.9622 3.08182 16.1113V12.544H4.19455V16.5695C4.19455 17.0195 4.20273 17.3304 4.21091 17.494C4.22727 17.6658 4.25182 17.7722 4.30909 17.8295C4.36636 17.8867 4.46455 17.9195 4.60364 17.9195C4.74273 17.9195 4.84091 17.8867 4.89818 17.8295C4.95546 17.7804 4.98 17.6658 4.99636 17.494Z" fill="#D6001C"/>
<path d="M7.81091 18.9176L8.71091 12.5358H10.4455L11.3455 18.9176H10.2164L10.1673 18.5004H9.13636L9.24273 17.5022H10.0527L9.61909 13.9104H9.51273L8.91545 18.9176H7.81091Z" fill="#D6001C"/>
<path fill-rule="evenodd" clip-rule="evenodd" d="M15.9027 15.7758C15.8536 16.0295 15.7227 16.2667 15.5345 16.4385L15.5264 16.4467L16.14 18.9095H14.9864L14.5282 16.7004H14.07V18.9095H12.9573V12.5276H14.6264C15.0109 12.5276 15.3055 12.6013 15.5018 12.7485C15.7064 12.9122 15.8455 13.1495 15.8945 13.4031C15.9764 13.804 16.0091 14.2049 16.0009 14.614C16.0091 15.0067 15.9764 15.3913 15.9027 15.7758ZM14.7327 15.5958C14.7982 15.5467 14.8391 15.4485 14.8555 15.3095C14.88 15.0804 14.8882 14.8595 14.88 14.6467C14.8882 14.4258 14.88 14.2049 14.8555 13.984C14.8555 13.8776 14.8064 13.7713 14.7327 13.6976C14.6427 13.6404 14.5282 13.6158 14.4218 13.624H14.0618V15.6695H14.4218C14.5282 15.6776 14.6427 15.6531 14.7327 15.5958Z" fill="#D6001C"/>
<path fill-rule="evenodd" clip-rule="evenodd" d="M19.3718 12.544C19.8873 12.544 20.2473 12.634 20.46 12.814C20.6727 12.994 20.8036 13.2885 20.8609 13.6976C20.9182 14.0985 20.9427 14.7858 20.9427 15.7431C20.9427 16.6922 20.91 17.3795 20.8609 17.7885C20.8036 18.1813 20.6727 18.4758 20.46 18.6558C20.2473 18.8358 19.8791 18.9258 19.3718 18.9258H17.94V12.544H19.3718ZM19.7073 17.7231C19.74 17.674 19.7973 17.5758 19.8136 17.2076C19.83 16.9458 19.8382 16.4467 19.8382 15.7267C19.8382 15.0067 19.83 14.5076 19.8136 14.2458C19.7973 13.8776 19.74 13.7795 19.7073 13.7304C19.6418 13.6567 19.5355 13.6158 19.3718 13.6158H19.0445V17.8376H19.3718C19.5355 17.8376 19.65 17.7967 19.7073 17.7231Z" fill="#D6001C"/>
</svg>
