<svg width="27" height="7" viewBox="0 0 27 7" fill="none" xmlns="http://www.w3.org/2000/svg">
<path d="M25.8452 5.68767H25.916C25.916 5.83934 25.9705 5.9735 26.0631 6.07267C26.1557 6.17184 26.281 6.23017 26.4226 6.23017C26.5642 6.23017 26.6895 6.17184 26.7821 6.07267C26.8747 5.9735 26.9291 5.83934 26.9291 5.68767H26.9945C26.9945 6.03184 26.7385 6.306 26.4171 6.306V6.271V6.306C26.1067 6.306 25.8452 6.026 25.8452 5.68767ZM26.9291 5.68767C26.9291 5.536 26.8747 5.40184 26.7821 5.30267C26.6895 5.2035 26.5642 5.14517 26.4226 5.14517V5.07517C26.7385 5.07517 26.9999 5.34934 26.9999 5.6935H26.9291V5.68767ZM26.4226 5.10434V5.06934V5.10434ZM25.8452 5.68767C25.8452 5.34934 26.1067 5.06934 26.4226 5.06934V5.13934C26.281 5.13934 26.1557 5.2035 26.0631 5.29684C25.9705 5.396 25.916 5.53017 25.916 5.68184H25.8452" fill="white"/>
<path d="M8.72559 1.91895H9.7387V6.04895H8.72559V1.91895Z" fill="white"/>
<path d="M23.5249 4.29303V6.0372L22.5063 6.03136V1.79053L24.3365 3.48219V1.91886H25.3442V6.20053L23.5249 4.29303Z" fill="white"/>
<path d="M3.63867 3.97831C3.63867 2.80581 4.52651 1.85498 5.62132 1.85498C6.11698 1.85498 6.56907 2.04748 6.91222 2.36831L6.2586 3.16748C6.0843 3.00998 5.86643 2.91665 5.62132 2.91665C5.07664 2.91081 4.63 3.38915 4.63 3.97831C4.63 4.56748 5.07664 5.03998 5.62132 5.03998C5.86643 5.03998 6.0952 4.94081 6.2695 4.78331L6.92312 5.58248C6.57452 5.90915 6.12243 6.10165 5.62132 6.10165C4.52651 6.10165 3.63867 5.15081 3.63867 3.97831Z" fill="white"/>
<path d="M11.6615 7.00013L9.74967 1.5518H8.1483V6.0668H7.1025V1.5518H4.7876L5.32139 0.466797H10.4959L11.6615 3.73346L12.8326 0.466797H17.8437L18.3938 1.5518H13.5788L11.6615 7.00013Z" fill="white"/>
<path d="M14.897 6.03774V5.12774H15.5942C15.7086 5.12774 15.921 5.11607 15.9754 4.92941C16.0898 4.52691 14.9405 3.87941 14.9405 2.88774C14.9405 2.13524 15.4471 1.91357 15.7957 1.91357H16.8469V2.80024H16.1988C16.1988 2.80024 16.0136 2.80024 15.9591 2.88191C15.6759 3.31357 17.0049 3.94941 17.0049 5.11024C17.0049 5.71691 16.5201 6.03774 16.0354 6.03774H14.897Z" fill="white"/>
<path d="M13.5952 1.90771H14.6083V6.03771H13.5952V1.90771Z" fill="white"/>
<path d="M17.1685 1.90771H18.1816V6.03771H17.1685V1.90771Z" fill="white"/>
<path d="M26.5697 6.00279C26.5534 5.96195 26.5534 5.89195 26.5479 5.83945C26.537 5.76945 26.5098 5.73445 26.439 5.73445H26.2974V6.00279H26.1558V5.31445H26.4989C26.6133 5.31445 26.6841 5.40195 26.6841 5.50112C26.6841 5.58279 26.6514 5.64112 26.5806 5.67612C26.6514 5.69362 26.6678 5.76945 26.6732 5.83362C26.6787 5.87445 26.6732 5.95612 26.7004 5.99695H26.5697V6.00279ZM26.3028 5.62945H26.4553C26.5153 5.62945 26.5534 5.60029 26.5534 5.53029C26.5534 5.46612 26.5207 5.43695 26.4553 5.43695H26.3028V5.62945Z" fill="white"/>
<path d="M2.87049 6.055L2.60359 5.285H1.34537L1.07847 6.055H0L1.97176 0L3.94351 6.055H2.87049ZM1.65039 4.17667H2.24955L1.94997 3.12083L1.65039 4.17667Z" fill="white"/>
<path d="M18.3667 3.97243C18.3667 2.79993 19.2545 1.84326 20.3548 1.84326C21.4496 1.84326 22.3429 2.7941 22.3429 3.97243C22.3429 5.14493 21.4551 6.1016 20.3548 6.1016C19.2545 6.1016 18.3667 5.15076 18.3667 3.97243ZM19.3635 3.97243C19.3635 4.55576 19.8047 5.02826 20.3493 5.02826C20.894 5.02826 21.3352 4.55576 21.3352 3.97243C21.3352 3.3891 20.894 2.9166 20.3493 2.9166C19.8101 2.9166 19.3635 3.3891 19.3635 3.97243Z" fill="white"/>
</svg>
