<svg width="22" height="12" viewBox="0 0 22 12" fill="none" xmlns="http://www.w3.org/2000/svg">
<path fill-rule="evenodd" clip-rule="evenodd" d="M5.28699 0.075H11.0644L10.62 1.8C10.546 2.1 10.2497 2.4 9.87933 2.4H4.91664C4.54629 2.325 4.17594 2.7 4.0278 3.075L2.39826 9.3C2.32419 9.45 2.39826 9.6 2.39826 9.675C2.47233 9.75 2.5464 9.75 2.69454 9.75H6.47211L6.02769 11.475C5.95362 11.775 5.65734 12 5.28699 12H2.39826C1.58349 12 0.91686 11.7 0.47244 11.1C0.0280202 10.5 -0.12012 9.75 0.10209 8.925L1.73163 2.925C1.95384 2.175 2.39826 1.425 3.06489 0.9C3.73152 0.375 4.54629 0.075 5.28699 0.075ZM7.80537 12C7.50909 12 7.28688 11.775 7.28688 11.475C7.28688 11.4 7.28688 11.4 7.28688 11.325L8.39793 7.125H5.87955C5.58327 7.05 5.36106 6.825 5.36106 6.525C5.36106 6.45 5.36106 6.45 5.36106 6.375L5.73141 5.025H10.3237C10.62 5.025 10.8422 5.25 10.8422 5.55C10.8422 5.625 10.8422 5.625 10.8422 5.7L9.13863 12H7.80537ZM18.8418 7.65C18.9159 7.5 18.8418 7.35 18.8418 7.275C18.7677 7.2 18.6937 7.2 18.5455 7.2H14.3235C14.0272 8.325 13.731 9.525 13.5088 10.35H17.5085C17.8789 10.35 18.3233 10.05 18.3974 9.6C18.3233 9.6 18.8418 7.65 18.8418 7.65ZM21.5824 0.975C22.0268 1.575 22.1009 2.325 21.8787 3.15L21.6565 4.275C21.5083 4.875 21.138 5.475 20.6195 6C21.0639 6.375 21.2861 7.05 21.138 7.95L20.8417 9.15C20.6195 9.9 20.1751 10.65 19.5084 11.175C18.8418 11.7 18.027 12 17.2863 12H11.0644L11.2867 11.1C11.2867 11.1 11.2867 11.1 11.2867 11.025V10.95V10.875L13.3606 3H14.842C14.9902 3 15.0642 3.075 15.2124 3.225C15.2124 3.3 15.0642 4.125 14.7679 5.325H18.6937C19.064 5.325 19.5084 4.95 19.5825 4.575L20.0269 2.475C20.101 2.325 20.0269 2.175 20.0269 2.1C19.9528 2.025 19.8788 2.025 19.7306 2.025H13.5828L13.9532 0.525C14.0272 0.225 14.3235 0 14.6939 0H19.5825C20.4713 0.075 21.138 0.375 21.5824 0.975Z" fill="white"/>
</svg>
