<svg width="12" height="12" viewBox="0 0 12 12" fill="none" xmlns="http://www.w3.org/2000/svg">
<g clip-path="url(#clip0)">
<path d="M3.35985 4.416L0.575846 3.024C0.479846 2.976 0.431846 2.928 0.431846 2.832L0.0958457 0.096C0.0478457 0.048 0.143846 0 0.191846 0L4.51185 1.872L3.35985 4.416Z" fill="#995F25"/>
<path d="M0.383846 0.576C0.383846 0.528 0.431846 0.48 0.479846 0.48L4.36785 2.16L4.51185 1.872L0.191846 0C0.143846 0 0.0478457 0.048 0.0958457 0.096L0.431846 2.832V2.88L0.383846 0.576Z" fill="#F9B170"/>
<path d="M3.74398 8.44666L0.95998 7.05466C0.91198 7.00666 0.86398 6.95866 0.81598 6.86266L0.47998 4.12666C0.47998 4.07866 0.52798 3.98266 0.57598 4.03066L3.69598 5.56666L3.74398 8.44666Z" fill="#995F25"/>
<path d="M1.19988 7.05525C1.15188 7.00725 1.10388 6.95925 1.05588 6.86325L0.719879 4.12725L0.575879 4.03125C0.527879 4.03125 0.431879 4.07925 0.479879 4.12725L0.815879 6.86325C0.815879 6.95925 0.863879 7.00725 0.959879 7.05525L3.74388 8.44725V8.30325L1.19988 7.05525Z" fill="#F9B170"/>
<path d="M8.63979 4.41541L11.4238 3.02341C11.4718 2.97541 11.5198 2.92741 11.5678 2.83141L11.9038 0.0954102C11.9038 0.0474102 11.8558 -0.0485898 11.8078 -0.000589836L7.48779 1.87141L8.63979 4.41541Z" fill="#995F25"/>
<path d="M11.6158 0.57541C11.6158 0.52741 11.5678 0.47941 11.5198 0.47941L7.63179 2.15941L7.48779 1.87141L11.8078 -0.000589835C11.8558 -0.0485898 11.9518 0.0474102 11.9038 0.0954102L11.5678 2.83141V2.87941L11.6158 0.57541Z" fill="#F9B170"/>
<path d="M8.25586 8.44666L11.0399 7.05466C11.0879 7.00666 11.1359 6.95866 11.1839 6.86266L11.5199 4.12666C11.5199 4.07866 11.4719 3.98266 11.4239 4.03066L8.30386 5.56666L8.25586 8.44666Z" fill="#995F25"/>
<path d="M10.7999 7.05549C10.8479 7.00749 10.8959 6.95949 10.9439 6.86349L11.2799 4.12749L11.4239 4.07949C11.4719 4.03149 11.5679 4.12749 11.5199 4.17549L11.1839 6.91149C11.1839 7.00749 11.1359 7.05549 11.0399 7.10349L8.25586 8.49549V8.35149L10.7999 7.05549Z" fill="#F9B170"/>
<path d="M2.3999 6.28711V9.40711C2.3999 9.50311 2.4479 9.55111 2.4959 9.59911L3.5999 10.5591C3.6479 10.6071 3.7439 10.5591 3.7439 10.5111V7.00711L2.3999 6.28711Z" fill="#995F25"/>
<path d="M9.59986 6.28711V9.40711C9.59986 9.50311 9.55186 9.55111 9.50386 9.59911L8.39986 10.5591C8.35186 10.6071 8.25586 10.5591 8.25586 10.5111V7.00711L9.59986 6.28711Z" fill="#995F25"/>
<path d="M4.51196 8.4948V10.8948C4.51196 11.0388 4.60796 11.1828 4.70396 11.2788L5.71196 11.9028C5.85596 11.9988 6.04796 11.9988 6.23996 11.9028L7.29596 11.2308C7.43996 11.1348 7.48796 10.9908 7.48796 10.8468V8.4468C7.48796 8.2068 7.29596 7.9668 7.00796 7.9668H4.99196C4.75196 8.0148 4.51196 8.2068 4.51196 8.4948Z" fill="#995F25"/>
<path d="M6.23996 11.4232C6.09596 11.5192 5.90396 11.5192 5.71196 11.4232L4.70396 10.7992C4.55996 10.7032 4.51196 10.5592 4.51196 10.4152V10.8952C4.51196 11.0392 4.60796 11.1832 4.70396 11.2792L5.71196 11.9032C5.85596 11.9992 6.04796 11.9992 6.23996 11.9032L7.29596 11.2312C7.43996 11.1352 7.48796 10.9912 7.48796 10.8472V10.3672C7.48796 10.5112 7.39196 10.6552 7.29596 10.7512L6.23996 11.4232Z" fill="#F9B170"/>
<path d="M5.51972 1.19869L2.54372 2.92669C2.25572 3.07069 2.06372 3.40669 2.06372 3.69469V7.15069C2.06372 7.48669 2.25572 7.77469 2.54372 7.91869L5.51972 9.64669C5.80772 9.79069 6.14372 9.79069 6.43172 9.64669L9.40772 7.91869C9.69572 7.77469 9.88772 7.43869 9.88772 7.15069V3.69469C9.88772 3.35869 9.69572 3.07069 9.40772 2.92669L6.43172 1.19869C6.19172 1.00669 5.80772 1.00669 5.51972 1.19869Z" fill="#6E441B"/>
<path d="M9.45572 2.9278L6.47972 1.1998C6.19172 1.0558 5.85572 1.0558 5.56772 1.1998L2.54372 2.9278C2.25572 3.0718 2.06372 3.4078 2.06372 3.6958V7.1518C2.06372 7.4878 2.25572 7.7758 2.54372 7.9198L5.51972 9.6478C5.80772 9.7918 6.14372 9.7918 6.43172 9.6478L9.40772 7.9198C9.69572 7.7758 9.88772 7.4398 9.88772 7.1518V3.6958C9.88772 3.4078 9.74372 3.0718 9.45572 2.9278ZM9.02372 6.7678C9.02372 7.0078 8.87972 7.2478 8.68772 7.3918L6.38372 8.7358C6.14372 8.8798 5.90372 8.8798 5.66372 8.7358L3.35972 7.3918C3.11972 7.2478 3.02372 7.0558 3.02372 6.7678V4.1278C3.02372 3.8878 3.16772 3.6478 3.35972 3.5038L5.66372 2.1598C5.90372 2.0158 6.14372 2.0158 6.38372 2.1598L8.63972 3.5038C8.87972 3.6478 8.97572 3.8398 8.97572 4.1278V6.7678H9.02372Z" fill="url(#paint0_linear)"/>
<path d="M5.712 2.78183L3.84 3.83783C3.648 3.93383 3.552 4.12583 3.552 4.31783V6.47783C3.552 6.66983 3.648 6.86183 3.84 6.95783L5.712 8.06183C5.904 8.15783 6.096 8.15783 6.288 8.06183L8.16 6.95783C8.352 6.86183 8.448 6.66983 8.448 6.47783V4.36583C8.448 4.17383 8.352 3.98183 8.16 3.88583L6.288 2.78183C6.096 2.63783 5.904 2.63783 5.712 2.78183Z" fill="#F9B170"/>
<g opacity="0.81">
<path opacity="0.81" d="M6 7.34213L4.368 6.38213V4.51012L3.6 4.07812C3.552 4.17413 3.552 4.27013 3.552 4.36613V6.52613C3.552 6.71813 3.648 6.91013 3.84 7.00613L5.712 8.11013C5.808 8.15812 5.904 8.20613 6 8.20613V7.34213Z" fill="#B76629"/>
</g>
<g opacity="0.56">
<path opacity="0.56" d="M3.6 4.07812L4.368 4.46213V6.33412L6 7.29412V8.15812H5.952L5.664 7.43812L4.176 6.47812V4.79812L3.552 4.22213C3.552 4.17413 3.6 4.12613 3.6 4.07812Z" fill="#75411A"/>
</g>
<path d="M3.552 6.71828L4.368 6.23828L4.464 6.47828L3.552 6.71828Z" fill="white"/>
<g opacity="0.44">
<path opacity="0.44" d="M8.4 4.07812L7.632 4.46213V6.33412L6 7.29412V8.15812H6.048L6.336 7.43812L7.824 6.47812V4.79812L8.448 4.22213C8.448 4.17413 8.4 4.12613 8.4 4.07812Z" fill="#B76629"/>
</g>
<path d="M6.00005 8.2058L5.90405 7.3418H6.09605L6.00005 8.2058Z" fill="white"/>
<path d="M7.58379 6.23828L8.35179 6.81428L7.48779 6.43028L7.58379 6.23828Z" fill="white"/>
<path d="M3.59985 4.07812L4.51185 4.46212L4.36785 4.65412L3.59985 4.07812Z" fill="white"/>
<path d="M8.4 4.07867C8.352 3.98267 8.256 3.88667 8.16 3.83867L6.288 2.73467C6.192 2.68667 6.096 2.63867 6 2.63867V2.68667L7.536 4.36667L8.4 4.07867Z" fill="#B76629"/>
<path d="M7.48779 4.46212L8.39979 4.07812L7.63179 4.65412L7.48779 4.46212Z" fill="white"/>
<path d="M7.63197 4.51038L7.67997 6.38238V6.43038L6.04797 7.39038H5.99997H5.95197L4.31997 6.47838L4.27197 6.43038V6.38238C4.27197 5.75838 4.27197 5.13438 4.27197 4.51038V4.46238L4.31997 4.41438C4.89597 3.83837 5.42397 3.26238 5.99997 2.73438C5.51997 3.35838 4.99197 3.93438 4.46397 4.55838L4.51197 4.46238C4.51197 5.08638 4.51197 5.71038 4.51197 6.33438L4.46397 6.23838L6.09597 7.19838H5.99997L7.63197 6.28638V6.33438V4.51038Z" fill="white"/>
<path opacity="0.5" d="M4.46402 5.37531C4.75202 5.18331 6.86402 3.69531 6.86402 3.69531L7.00802 3.88731L4.41602 6.23931L4.46402 5.37531Z" fill="white"/>
<path opacity="0.5" d="M5.04004 6.67083C5.32804 6.47883 7.63204 4.79883 7.63204 4.79883V5.18283L5.66404 7.00683L5.04004 6.67083Z" fill="white"/>
</g>
<defs>
<linearGradient id="paint0_linear" x1="2.09026" y1="5.44237" x2="9.90918" y2="5.44237" gradientUnits="userSpaceOnUse">
<stop stop-color="#CDB39A"/>
<stop offset="0.2765" stop-color="#804E1F"/>
<stop offset="0.5838" stop-color="#CDB6A0"/>
<stop offset="0.7737" stop-color="#855221"/>
<stop offset="1" stop-color="#CDB9A6"/>
</linearGradient>
<clipPath id="clip0">
<rect width="12" height="12" fill="white"/>
</clipPath>
</defs>
</svg>
