<svg width="25" height="26" viewBox="0 0 25 26" fill="none" xmlns="http://www.w3.org/2000/svg">
<g clip-path="url(#clip0)">
<g clip-path="url(#clip1)">
<path d="M7.00011 9.20293L1.20011 6.30293C1.00011 6.20293 0.900106 6.10293 0.900106 5.90293L0.200106 0.20293C0.100106 0.10293 0.300106 0.00292969 0.400106 0.00292969L9.40011 3.90293L7.00011 9.20293Z" fill="url(#paint0_linear)"/>
<path d="M0.800106 1.20293C0.800106 1.10293 0.900106 1.00293 1.00011 1.00293L9.10011 4.50293L9.40011 3.90293L0.400106 0.00292969C0.300106 0.00292969 0.100106 0.10293 0.200106 0.20293L0.900106 5.90293V6.00293L0.800106 1.20293Z" fill="white"/>
<path d="M7.8 17.6027L2 14.7027C1.9 14.6027 1.8 14.5027 1.7 14.3027L1 8.60274C1 8.50274 1.1 8.30274 1.2 8.40274L7.7 11.6027L7.8 17.6027Z" fill="url(#paint1_linear)"/>
<path d="M2.49991 14.7028C2.39991 14.6028 2.29991 14.5028 2.19991 14.3028L1.49991 8.60283L1.19991 8.40283C1.09991 8.40283 0.89991 8.50283 0.99991 8.60283L1.69991 14.3028C1.69991 14.5028 1.79991 14.6028 1.99991 14.7028L7.79991 17.6028V17.3028L2.49991 14.7028Z" fill="white"/>
<path d="M18.0001 9.20284L23.8001 6.30284C23.9001 6.20284 24.0001 6.10284 24.1001 5.90284L24.8001 0.20284C24.8001 0.10284 24.7001 -0.0971598 24.6001 0.00284019L15.6001 3.90284L18.0001 9.20284Z" fill="url(#paint2_linear)"/>
<path d="M24.2001 1.20284C24.2001 1.10284 24.1001 1.00284 24.0001 1.00284L15.9001 4.50284L15.6001 3.90284L24.6001 0.00284019C24.7001 -0.0971598 24.9001 0.10284 24.8001 0.20284L24.1001 5.90284V6.00284L24.2001 1.20284Z" fill="white"/>
<path d="M17.2002 17.6027L23.0002 14.7027C23.1002 14.6027 23.2002 14.5027 23.3002 14.3027L24.0002 8.60274C24.0002 8.50274 23.9002 8.30274 23.8002 8.40274L17.3002 11.6027L17.2002 17.6027Z" fill="url(#paint3_linear)"/>
<path d="M22.5002 14.7028C22.6002 14.6028 22.7002 14.5028 22.8002 14.3028L23.5002 8.60284L23.8002 8.50284C23.9002 8.40284 24.1002 8.60284 24.0002 8.70284L23.3002 14.4028C23.3002 14.6028 23.2002 14.7028 23.0002 14.8028L17.2002 17.7028V17.4028L22.5002 14.7028Z" fill="white"/>
<path d="M20.0002 15.4028V19.6028C20.0002 19.8028 19.9002 19.9028 19.8002 20.0028L17.5002 22.0028C17.4002 22.1028 17.2002 22.0028 17.2002 21.9028V17.0028L20.0002 15.4028Z" fill="url(#paint4_linear)"/>
<path d="M5 15.4028V19.6028C5 19.8028 5.1 19.9028 5.2 20.0028L7.5 22.0028C7.6 22.1028 7.8 22.0028 7.8 21.9028V17.0028L5 15.4028Z" fill="url(#paint5_linear)"/>
<path d="M9.3999 17.7028V22.7028C9.3999 23.0028 9.5999 23.3028 9.7999 23.5028L11.8999 24.8028C12.1999 25.0028 12.5999 25.0028 12.9999 24.8028L15.1999 23.4028C15.4999 23.2028 15.5999 22.9028 15.5999 22.6028V17.6028C15.5999 17.1028 15.1999 16.6028 14.5999 16.6028H10.3999C9.8999 16.7028 9.3999 17.1028 9.3999 17.7028Z" fill="url(#paint6_linear)"/>
<path d="M12.9999 23.8028C12.6999 24.0028 12.2999 24.0028 11.8999 23.8028L9.7999 22.5028C9.4999 22.3028 9.3999 22.0028 9.3999 21.7028V22.7028C9.3999 23.0028 9.5999 23.3028 9.7999 23.5028L11.8999 24.8028C12.1999 25.0028 12.5999 25.0028 12.9999 24.8028L15.1999 23.4028C15.4999 23.2028 15.5999 22.9028 15.5999 22.6028V21.6028C15.5999 21.9028 15.3999 22.2028 15.1999 22.4028L12.9999 23.8028Z" fill="white"/>
<path d="M11.5003 2.50288L5.30029 6.10288C4.70029 6.40288 4.30029 7.10288 4.30029 7.70288V14.9029C4.30029 15.6029 4.70029 16.2029 5.30029 16.5029L11.5003 20.1029C12.1003 20.4029 12.8003 20.4029 13.4003 20.1029L19.6003 16.5029C20.2003 16.2029 20.6003 15.5029 20.6003 14.9029V7.70288C20.6003 7.00288 20.2003 6.40288 19.6003 6.10288L13.4003 2.50288C12.9003 2.10288 12.1003 2.10288 11.5003 2.50288Z" fill="#9E9D9B"/>
<path d="M19.7003 6.10283L13.5003 2.50283C12.9003 2.20283 12.2003 2.20283 11.6003 2.50283L5.30029 6.10283C4.70029 6.40283 4.30029 7.10283 4.30029 7.70283V14.9028C4.30029 15.6028 4.70029 16.2028 5.30029 16.5028L11.5003 20.1028C12.1003 20.4028 12.8003 20.4028 13.4003 20.1028L19.6003 16.5028C20.2003 16.2028 20.6003 15.5028 20.6003 14.9028V7.70283C20.6003 7.10283 20.3003 6.40283 19.7003 6.10283ZM18.8003 14.1028C18.8003 14.6028 18.5003 15.1028 18.1003 15.4028L13.3003 18.2028C12.8003 18.5028 12.3003 18.5028 11.8003 18.2028L7.00029 15.4028C6.50029 15.1028 6.30029 14.7028 6.30029 14.1028V8.60283C6.30029 8.10283 6.60029 7.60283 7.00029 7.30283L11.8003 4.50283C12.3003 4.20283 12.8003 4.20283 13.3003 4.50283L18.0003 7.30283C18.5003 7.60283 18.7003 8.00283 18.7003 8.60283V14.1028H18.8003Z" fill="url(#paint7_linear)"/>
<path d="M11.8999 5.80288L7.9999 8.00288C7.5999 8.20288 7.3999 8.60288 7.3999 9.00288V13.5029C7.3999 13.9029 7.5999 14.3029 7.9999 14.5029L11.8999 16.8029C12.2999 17.0029 12.6999 17.0029 13.0999 16.8029L16.9999 14.5029C17.3999 14.3029 17.5999 13.9029 17.5999 13.5029V9.10288C17.5999 8.70288 17.3999 8.30288 16.9999 8.10288L13.0999 5.80288C12.6999 5.50288 12.2999 5.50288 11.8999 5.80288Z" fill="#76D5FF"/>
<g opacity="0.81">
<path opacity="0.81" d="M12.4999 15.3029L9.0999 13.3029V9.40293L7.4999 8.50293C7.3999 8.70293 7.3999 8.90293 7.3999 9.10293V13.6029C7.3999 14.0029 7.5999 14.4029 7.9999 14.6029L11.8999 16.9029C12.0999 17.0029 12.2999 17.1029 12.4999 17.1029V15.3029Z" fill="#58A0BA"/>
</g>
<g opacity="0.56">
<path opacity="0.56" d="M7.4999 8.50293L9.0999 9.30293V13.2029L12.4999 15.2029V17.0029H12.3999L11.7999 15.5029L8.6999 13.5029V10.0029L7.3999 8.80293C7.3999 8.70293 7.4999 8.60293 7.4999 8.50293Z" fill="#4A63A3"/>
</g>
<path d="M7.3999 14.0029L9.0999 13.0029L9.2999 13.5029L7.3999 14.0029Z" fill="white"/>
<g opacity="0.44">
<path opacity="0.44" d="M17.5 8.50293L15.9 9.30293V13.2029L12.5 15.2029V17.0029H12.6L13.2 15.5029L16.3 13.5029V10.0029L17.6 8.80293C17.6 8.70293 17.5 8.60293 17.5 8.50293Z" fill="#4A63A3"/>
</g>
<path d="M12.4998 17.103L12.2998 15.303H12.6998L12.4998 17.103Z" fill="white"/>
<path d="M15.8001 13.0029L17.4001 14.2029L15.6001 13.4029L15.8001 13.0029Z" fill="white"/>
<path d="M7.5 8.50293L9.4 9.30293L9.1 9.70293L7.5 8.50293Z" fill="white"/>
<path d="M17.5 8.50293C17.4 8.30293 17.2 8.10293 17 8.00293L13.1 5.70293C12.9 5.60293 12.7 5.50293 12.5 5.50293V5.60293L15.7 9.10293L17.5 8.50293Z" fill="#58A0BA"/>
<path d="M15.6001 9.30293L17.5001 8.50293L15.9001 9.70293L15.6001 9.30293Z" fill="white"/>
<path d="M15.8999 9.40288L15.9999 13.3029V13.4029L12.5999 15.4029H12.4999H12.3999L8.9999 13.5029L8.8999 13.4029V13.3029C8.8999 12.0029 8.8999 10.7029 8.8999 9.40288V9.30288L8.9999 9.20288C10.1999 8.00288 11.2999 6.80288 12.4999 5.70288C11.4999 7.00288 10.3999 8.20288 9.2999 9.50288L9.3999 9.30288C9.3999 10.6029 9.3999 11.9029 9.3999 13.2029L9.2999 13.0029L12.6999 15.0029H12.4999L15.8999 13.1029V13.2029V9.40288Z" fill="white"/>
<path opacity="0.5" d="M9.29971 11.2029C9.89971 10.8029 14.2997 7.70288 14.2997 7.70288L14.5997 8.10288L9.19971 13.0029L9.29971 11.2029Z" fill="white"/>
<path opacity="0.5" d="M10.5 13.9029C11.1 13.5029 15.9 10.0029 15.9 10.0029V10.8029L11.8 14.6029L10.5 13.9029Z" fill="white"/>
</g>
</g>
<defs>
<linearGradient id="paint0_linear" x1="2.73831" y1="7.63763" x2="4.91361" y2="1.66123" gradientUnits="userSpaceOnUse">
<stop stop-color="#C3C7C6"/>
<stop offset="0.1872" stop-color="#FFFEFC"/>
<stop offset="0.4218" stop-color="#C0C0C0"/>
<stop offset="0.6173" stop-color="#FFFEFC"/>
<stop offset="0.7877" stop-color="#434547"/>
</linearGradient>
<linearGradient id="paint1_linear" x1="7.7851" y1="13.0144" x2="0.9623" y2="13.0144" gradientUnits="userSpaceOnUse">
<stop stop-color="#C3C7C6"/>
<stop offset="0.1872" stop-color="#FFFEFC"/>
<stop offset="0.4218" stop-color="#C0C0C0"/>
<stop offset="0.6173" stop-color="#FFFEFC"/>
<stop offset="0.7877" stop-color="#434547"/>
</linearGradient>
<linearGradient id="paint2_linear" x1="22.2619" y1="7.63754" x2="20.0866" y2="1.66114" gradientUnits="userSpaceOnUse">
<stop stop-color="#C3C7C6"/>
<stop offset="0.1872" stop-color="#FFFEFC"/>
<stop offset="0.4218" stop-color="#C0C0C0"/>
<stop offset="0.6173" stop-color="#FFFEFC"/>
<stop offset="0.7877" stop-color="#434547"/>
</linearGradient>
<linearGradient id="paint3_linear" x1="17.2151" y1="13.0144" x2="24.0379" y2="13.0144" gradientUnits="userSpaceOnUse">
<stop stop-color="#C3C7C6"/>
<stop offset="0.1872" stop-color="#FFFEFC"/>
<stop offset="0.4218" stop-color="#C0C0C0"/>
<stop offset="0.6173" stop-color="#FFFEFC"/>
<stop offset="0.7877" stop-color="#434547"/>
</linearGradient>
<linearGradient id="paint4_linear" x1="19.7796" y1="20.4853" x2="17.3815" y2="16.7925" gradientUnits="userSpaceOnUse">
<stop stop-color="#C3C7C6"/>
<stop offset="0.1704" stop-color="#FFFEFC"/>
<stop offset="0.3659" stop-color="#C0C0C0"/>
<stop offset="0.5447" stop-color="#FFFEFC"/>
<stop offset="0.7989" stop-color="#434547"/>
</linearGradient>
<linearGradient id="paint5_linear" x1="5.2206" y1="20.4853" x2="7.6187" y2="16.7925" gradientUnits="userSpaceOnUse">
<stop stop-color="#C3C7C6"/>
<stop offset="0.1704" stop-color="#FFFEFC"/>
<stop offset="0.3659" stop-color="#C0C0C0"/>
<stop offset="0.5447" stop-color="#FFFEFC"/>
<stop offset="0.7989" stop-color="#434547"/>
</linearGradient>
<linearGradient id="paint6_linear" x1="12.4999" y1="25.0028" x2="12.4999" y2="16.7043" gradientUnits="userSpaceOnUse">
<stop stop-color="#C3C7C6"/>
<stop offset="0.1089" stop-color="#FFFEFC"/>
<stop offset="0.2207" stop-color="#C0C0C0"/>
<stop offset="0.338" stop-color="#FFFEFC"/>
<stop offset="0.5642" stop-color="#434547"/>
</linearGradient>
<linearGradient id="paint7_linear" x1="4.35559" y1="11.3415" x2="20.645" y2="11.3415" gradientUnits="userSpaceOnUse">
<stop stop-color="#C3C7C6"/>
<stop offset="0.2765" stop-color="#FFFEFC"/>
<stop offset="0.5838" stop-color="#C0C0C0"/>
<stop offset="0.7737" stop-color="#FFFEFC"/>
<stop offset="1" stop-color="#E3EBF2"/>
</linearGradient>
<clipPath id="clip0">
<rect width="25" height="25" fill="white" transform="translate(0 0.00292969)"/>
</clipPath>
<clipPath id="clip1">
<rect width="25" height="25" fill="white" transform="translate(0 0.00292969)"/>
</clipPath>
</defs>
</svg>
